<?xml version="1.0" encoding="utf-8" standalone="no"?>
<!DOCTYPE svg PUBLIC "-//W3C//DTD SVG 1.1//EN"
  "http://www.w3.org/Graphics/SVG/1.1/DTD/svg11.dtd">
<!-- Created with matplotlib (https://matplotlib.org/) -->
<svg height="529.9875pt" version="1.1" viewBox="0 0 812.967 529.9875" width="812.967pt" xmlns="http://www.w3.org/2000/svg" xmlns:xlink="http://www.w3.org/1999/xlink">
 <defs>
  <style type="text/css">
*{stroke-linecap:butt;stroke-linejoin:round;}
  </style>
 </defs>
 <g id="figure_1">
  <g id="patch_1">
   <path d="M 0 529.9875 
L 812.967 529.9875 
L 812.967 0 
L 0 0 
z
" style="fill:#ffffff;"/>
  </g>
  <g id="axes_1">
   <g id="matplotlib.axis_1">
    <g id="ytick_1">
     <g id="line2d_1">
      <path clip-path="url(#p54f48074ee)" d="M 482.023622 472.13406 
L 805.767 472.13406 
" style="fill:none;stroke:#cccccc;stroke-linecap:round;stroke-width:0.8;"/>
     </g>
     <g id="line2d_2"/>
     <g id="text_1">
      <!-- open (via free pdf) -->
      <defs>
       <path d="M 3.328125 25.921875 
Q 3.328125 40.328125 11.328125 47.265625 
Q 18.015625 53.03125 27.640625 53.03125 
Q 38.328125 53.03125 45.109375 46.015625 
Q 51.90625 39.015625 51.90625 26.65625 
Q 51.90625 16.65625 48.90625 10.90625 
Q 45.90625 5.171875 40.15625 2 
Q 34.421875 -1.171875 27.640625 -1.171875 
Q 16.75 -1.171875 10.03125 5.8125 
Q 3.328125 12.796875 3.328125 25.921875 
z
M 12.359375 25.921875 
Q 12.359375 15.96875 16.703125 11.015625 
Q 21.046875 6.0625 27.640625 6.0625 
Q 34.1875 6.0625 38.53125 11.03125 
Q 42.875 16.015625 42.875 26.21875 
Q 42.875 35.84375 38.5 40.796875 
Q 34.125 45.75 27.640625 45.75 
Q 21.046875 45.75 16.703125 40.8125 
Q 12.359375 35.890625 12.359375 25.921875 
z
" id="ArialMT-111"/>
       <path d="M 6.59375 -19.875 
L 6.59375 51.859375 
L 14.59375 51.859375 
L 14.59375 45.125 
Q 17.4375 49.078125 21 51.046875 
Q 24.5625 53.03125 29.640625 53.03125 
Q 36.28125 53.03125 41.359375 49.609375 
Q 46.4375 46.1875 49.015625 39.953125 
Q 51.609375 33.734375 51.609375 26.3125 
Q 51.609375 18.359375 48.75 11.984375 
Q 45.90625 5.609375 40.453125 2.21875 
Q 35.015625 -1.171875 29 -1.171875 
Q 24.609375 -1.171875 21.109375 0.6875 
Q 17.625 2.546875 15.375 5.375 
L 15.375 -19.875 
z
M 14.546875 25.640625 
Q 14.546875 15.625 18.59375 10.84375 
Q 22.65625 6.0625 28.421875 6.0625 
Q 34.28125 6.0625 38.453125 11.015625 
Q 42.625 15.96875 42.625 26.375 
Q 42.625 36.28125 38.546875 41.203125 
Q 34.46875 46.140625 28.8125 46.140625 
Q 23.1875 46.140625 18.859375 40.890625 
Q 14.546875 35.640625 14.546875 25.640625 
z
" id="ArialMT-112"/>
       <path d="M 42.09375 16.703125 
L 51.171875 15.578125 
Q 49.03125 7.625 43.21875 3.21875 
Q 37.40625 -1.171875 28.375 -1.171875 
Q 17 -1.171875 10.328125 5.828125 
Q 3.65625 12.84375 3.65625 25.484375 
Q 3.65625 38.578125 10.390625 45.796875 
Q 17.140625 53.03125 27.875 53.03125 
Q 38.28125 53.03125 44.875 45.953125 
Q 51.46875 38.875 51.46875 26.03125 
Q 51.46875 25.25 51.421875 23.6875 
L 12.75 23.6875 
Q 13.234375 15.140625 17.578125 10.59375 
Q 21.921875 6.0625 28.421875 6.0625 
Q 33.25 6.0625 36.671875 8.59375 
Q 40.09375 11.140625 42.09375 16.703125 
z
M 13.234375 30.90625 
L 42.1875 30.90625 
Q 41.609375 37.453125 38.875 40.71875 
Q 34.671875 45.796875 27.984375 45.796875 
Q 21.921875 45.796875 17.796875 41.75 
Q 13.671875 37.703125 13.234375 30.90625 
z
" id="ArialMT-101"/>
       <path d="M 6.59375 0 
L 6.59375 51.859375 
L 14.5 51.859375 
L 14.5 44.484375 
Q 20.21875 53.03125 31 53.03125 
Q 35.6875 53.03125 39.625 51.34375 
Q 43.5625 49.65625 45.515625 46.921875 
Q 47.46875 44.1875 48.25 40.4375 
Q 48.734375 37.984375 48.734375 31.890625 
L 48.734375 0 
L 39.9375 0 
L 39.9375 31.546875 
Q 39.9375 36.921875 38.90625 39.578125 
Q 37.890625 42.234375 35.28125 43.8125 
Q 32.671875 45.40625 29.15625 45.40625 
Q 23.53125 45.40625 19.453125 41.84375 
Q 15.375 38.28125 15.375 28.328125 
L 15.375 0 
z
" id="ArialMT-110"/>
       <path id="ArialMT-32"/>
       <path d="M 23.390625 -21.046875 
Q 16.109375 -11.859375 11.078125 0.4375 
Q 6.0625 12.75 6.0625 25.921875 
Q 6.0625 37.546875 9.8125 48.1875 
Q 14.203125 60.546875 23.390625 72.796875 
L 29.6875 72.796875 
Q 23.78125 62.640625 21.875 58.296875 
Q 18.890625 51.5625 17.1875 44.234375 
Q 15.09375 35.109375 15.09375 25.875 
Q 15.09375 2.390625 29.6875 -21.046875 
z
" id="ArialMT-40"/>
       <path d="M 21 0 
L 1.265625 51.859375 
L 10.546875 51.859375 
L 21.6875 20.796875 
Q 23.484375 15.765625 25 10.359375 
Q 26.171875 14.453125 28.265625 20.21875 
L 39.796875 51.859375 
L 48.828125 51.859375 
L 29.203125 0 
z
" id="ArialMT-118"/>
       <path d="M 6.640625 61.46875 
L 6.640625 71.578125 
L 15.4375 71.578125 
L 15.4375 61.46875 
z
M 6.640625 0 
L 6.640625 51.859375 
L 15.4375 51.859375 
L 15.4375 0 
z
" id="ArialMT-105"/>
       <path d="M 40.4375 6.390625 
Q 35.546875 2.25 31.03125 0.53125 
Q 26.515625 -1.171875 21.34375 -1.171875 
Q 12.796875 -1.171875 8.203125 3 
Q 3.609375 7.171875 3.609375 13.671875 
Q 3.609375 17.484375 5.34375 20.625 
Q 7.078125 23.78125 9.890625 25.6875 
Q 12.703125 27.59375 16.21875 28.5625 
Q 18.796875 29.25 24.03125 29.890625 
Q 34.671875 31.15625 39.703125 32.90625 
Q 39.75 34.71875 39.75 35.203125 
Q 39.75 40.578125 37.25 42.78125 
Q 33.890625 45.75 27.25 45.75 
Q 21.046875 45.75 18.09375 43.578125 
Q 15.140625 41.40625 13.71875 35.890625 
L 5.125 37.0625 
Q 6.296875 42.578125 8.984375 45.96875 
Q 11.671875 49.359375 16.75 51.1875 
Q 21.828125 53.03125 28.515625 53.03125 
Q 35.15625 53.03125 39.296875 51.46875 
Q 43.453125 49.90625 45.40625 47.53125 
Q 47.359375 45.171875 48.140625 41.546875 
Q 48.578125 39.3125 48.578125 33.453125 
L 48.578125 21.734375 
Q 48.578125 9.46875 49.140625 6.21875 
Q 49.703125 2.984375 51.375 0 
L 42.1875 0 
Q 40.828125 2.734375 40.4375 6.390625 
z
M 39.703125 26.03125 
Q 34.90625 24.078125 25.34375 22.703125 
Q 19.921875 21.921875 17.671875 20.9375 
Q 15.4375 19.96875 14.203125 18.09375 
Q 12.984375 16.21875 12.984375 13.921875 
Q 12.984375 10.40625 15.640625 8.0625 
Q 18.3125 5.71875 23.4375 5.71875 
Q 28.515625 5.71875 32.46875 7.9375 
Q 36.421875 10.15625 38.28125 14.015625 
Q 39.703125 17 39.703125 22.796875 
z
" id="ArialMT-97"/>
       <path d="M 8.6875 0 
L 8.6875 45.015625 
L 0.921875 45.015625 
L 0.921875 51.859375 
L 8.6875 51.859375 
L 8.6875 57.375 
Q 8.6875 62.59375 9.625 65.140625 
Q 10.890625 68.5625 14.078125 70.671875 
Q 17.28125 72.796875 23.046875 72.796875 
Q 26.765625 72.796875 31.25 71.921875 
L 29.9375 64.265625 
Q 27.203125 64.75 24.75 64.75 
Q 20.75 64.75 19.09375 63.03125 
Q 17.4375 61.328125 17.4375 56.640625 
L 17.4375 51.859375 
L 27.546875 51.859375 
L 27.546875 45.015625 
L 17.4375 45.015625 
L 17.4375 0 
z
" id="ArialMT-102"/>
       <path d="M 6.5 0 
L 6.5 51.859375 
L 14.40625 51.859375 
L 14.40625 44 
Q 17.4375 49.515625 20 51.265625 
Q 22.5625 53.03125 25.640625 53.03125 
Q 30.078125 53.03125 34.671875 50.203125 
L 31.640625 42.046875 
Q 28.421875 43.953125 25.203125 43.953125 
Q 22.3125 43.953125 20.015625 42.21875 
Q 17.71875 40.484375 16.75 37.40625 
Q 15.28125 32.71875 15.28125 27.15625 
L 15.28125 0 
z
" id="ArialMT-114"/>
       <path d="M 40.234375 0 
L 40.234375 6.546875 
Q 35.296875 -1.171875 25.734375 -1.171875 
Q 19.53125 -1.171875 14.328125 2.25 
Q 9.125 5.671875 6.265625 11.796875 
Q 3.421875 17.921875 3.421875 25.875 
Q 3.421875 33.640625 6 39.96875 
Q 8.59375 46.296875 13.765625 49.65625 
Q 18.953125 53.03125 25.34375 53.03125 
Q 30.03125 53.03125 33.6875 51.046875 
Q 37.359375 49.078125 39.65625 45.90625 
L 39.65625 71.578125 
L 48.390625 71.578125 
L 48.390625 0 
z
M 12.453125 25.875 
Q 12.453125 15.921875 16.640625 10.984375 
Q 20.84375 6.0625 26.5625 6.0625 
Q 32.328125 6.0625 36.34375 10.765625 
Q 40.375 15.484375 40.375 25.140625 
Q 40.375 35.796875 36.265625 40.765625 
Q 32.171875 45.75 26.171875 45.75 
Q 20.3125 45.75 16.375 40.96875 
Q 12.453125 36.1875 12.453125 25.875 
z
" id="ArialMT-100"/>
       <path d="M 12.359375 -21.046875 
L 6.0625 -21.046875 
Q 20.65625 2.390625 20.65625 25.875 
Q 20.65625 35.0625 18.5625 44.09375 
Q 16.890625 51.421875 13.921875 58.15625 
Q 12.015625 62.546875 6.0625 72.796875 
L 12.359375 72.796875 
Q 21.53125 60.546875 25.921875 48.1875 
Q 29.6875 37.546875 29.6875 25.921875 
Q 29.6875 12.75 24.625 0.4375 
Q 19.578125 -11.859375 12.359375 -21.046875 
z
" id="ArialMT-41"/>
      </defs>
      <g style="fill:#262626;" transform="translate(397.373622 475.773904)scale(0.1 -0.1)">
       <use xlink:href="#ArialMT-111"/>
       <use x="55.615234" xlink:href="#ArialMT-112"/>
       <use x="111.230469" xlink:href="#ArialMT-101"/>
       <use x="166.845703" xlink:href="#ArialMT-110"/>
       <use x="222.460938" xlink:href="#ArialMT-32"/>
       <use x="250.244141" xlink:href="#ArialMT-40"/>
       <use x="283.544922" xlink:href="#ArialMT-118"/>
       <use x="333.544922" xlink:href="#ArialMT-105"/>
       <use x="355.761719" xlink:href="#ArialMT-97"/>
       <use x="411.376953" xlink:href="#ArialMT-32"/>
       <use x="439.160156" xlink:href="#ArialMT-102"/>
       <use x="466.943359" xlink:href="#ArialMT-114"/>
       <use x="500.244141" xlink:href="#ArialMT-101"/>
       <use x="555.859375" xlink:href="#ArialMT-101"/>
       <use x="611.474609" xlink:href="#ArialMT-32"/>
       <use x="639.257812" xlink:href="#ArialMT-112"/>
       <use x="694.873047" xlink:href="#ArialMT-100"/>
       <use x="750.488281" xlink:href="#ArialMT-102"/>
       <use x="778.271484" xlink:href="#ArialMT-41"/>
      </g>
     </g>
    </g>
    <g id="ytick_2">
     <g id="line2d_3">
      <path clip-path="url(#p54f48074ee)" d="M 482.023622 454.198417 
L 805.767 454.198417 
" style="fill:none;stroke:#cccccc;stroke-linecap:round;stroke-width:0.8;"/>
     </g>
     <g id="line2d_4"/>
     <g id="text_2">
      <!-- open (via page says license) -->
      <defs>
       <path d="M 4.984375 -4.296875 
L 13.53125 -5.5625 
Q 14.0625 -9.515625 16.5 -11.328125 
Q 19.78125 -13.765625 25.4375 -13.765625 
Q 31.546875 -13.765625 34.859375 -11.328125 
Q 38.1875 -8.890625 39.359375 -4.5 
Q 40.046875 -1.8125 39.984375 6.78125 
Q 34.234375 0 25.640625 0 
Q 14.9375 0 9.078125 7.71875 
Q 3.21875 15.4375 3.21875 26.21875 
Q 3.21875 33.640625 5.90625 39.90625 
Q 8.59375 46.1875 13.6875 49.609375 
Q 18.796875 53.03125 25.6875 53.03125 
Q 34.859375 53.03125 40.828125 45.609375 
L 40.828125 51.859375 
L 48.921875 51.859375 
L 48.921875 7.03125 
Q 48.921875 -5.078125 46.453125 -10.125 
Q 44 -15.1875 38.640625 -18.109375 
Q 33.296875 -21.046875 25.484375 -21.046875 
Q 16.21875 -21.046875 10.5 -16.875 
Q 4.78125 -12.703125 4.984375 -4.296875 
z
M 12.25 26.859375 
Q 12.25 16.65625 16.296875 11.96875 
Q 20.359375 7.28125 26.46875 7.28125 
Q 32.515625 7.28125 36.609375 11.9375 
Q 40.71875 16.609375 40.71875 26.5625 
Q 40.71875 36.078125 36.5 40.90625 
Q 32.28125 45.75 26.3125 45.75 
Q 20.453125 45.75 16.34375 40.984375 
Q 12.25 36.234375 12.25 26.859375 
z
" id="ArialMT-103"/>
       <path d="M 3.078125 15.484375 
L 11.765625 16.84375 
Q 12.5 11.625 15.84375 8.84375 
Q 19.1875 6.0625 25.203125 6.0625 
Q 31.25 6.0625 34.171875 8.515625 
Q 37.109375 10.984375 37.109375 14.3125 
Q 37.109375 17.28125 34.515625 19 
Q 32.71875 20.171875 25.53125 21.96875 
Q 15.875 24.421875 12.140625 26.203125 
Q 8.40625 27.984375 6.46875 31.125 
Q 4.546875 34.28125 4.546875 38.09375 
Q 4.546875 41.546875 6.125 44.5 
Q 7.71875 47.46875 10.453125 49.421875 
Q 12.5 50.921875 16.03125 51.96875 
Q 19.578125 53.03125 23.640625 53.03125 
Q 29.734375 53.03125 34.34375 51.265625 
Q 38.96875 49.515625 41.15625 46.5 
Q 43.359375 43.5 44.1875 38.484375 
L 35.59375 37.3125 
Q 35.015625 41.3125 32.203125 43.546875 
Q 29.390625 45.796875 24.265625 45.796875 
Q 18.21875 45.796875 15.625 43.796875 
Q 13.03125 41.796875 13.03125 39.109375 
Q 13.03125 37.40625 14.109375 36.03125 
Q 15.1875 34.625 17.484375 33.6875 
Q 18.796875 33.203125 25.25 31.453125 
Q 34.578125 28.953125 38.25 27.359375 
Q 41.9375 25.78125 44.03125 22.75 
Q 46.140625 19.734375 46.140625 15.234375 
Q 46.140625 10.84375 43.578125 6.953125 
Q 41.015625 3.078125 36.171875 0.953125 
Q 31.34375 -1.171875 25.25 -1.171875 
Q 15.140625 -1.171875 9.84375 3.03125 
Q 4.546875 7.234375 3.078125 15.484375 
z
" id="ArialMT-115"/>
       <path d="M 6.203125 -19.96875 
L 5.21875 -11.71875 
Q 8.109375 -12.5 10.25 -12.5 
Q 13.1875 -12.5 14.9375 -11.515625 
Q 16.703125 -10.546875 17.828125 -8.796875 
Q 18.65625 -7.46875 20.515625 -2.25 
Q 20.75 -1.515625 21.296875 -0.09375 
L 1.609375 51.859375 
L 11.078125 51.859375 
L 21.875 21.828125 
Q 23.96875 16.109375 25.640625 9.8125 
Q 27.15625 15.875 29.25 21.625 
L 40.328125 51.859375 
L 49.125 51.859375 
L 29.390625 -0.875 
Q 26.21875 -9.421875 24.46875 -12.640625 
Q 22.125 -17 19.09375 -19.015625 
Q 16.0625 -21.046875 11.859375 -21.046875 
Q 9.328125 -21.046875 6.203125 -19.96875 
z
" id="ArialMT-121"/>
       <path d="M 6.390625 0 
L 6.390625 71.578125 
L 15.1875 71.578125 
L 15.1875 0 
z
" id="ArialMT-108"/>
       <path d="M 40.4375 19 
L 49.078125 17.875 
Q 47.65625 8.9375 41.8125 3.875 
Q 35.984375 -1.171875 27.484375 -1.171875 
Q 16.84375 -1.171875 10.375 5.78125 
Q 3.90625 12.75 3.90625 25.734375 
Q 3.90625 34.125 6.6875 40.421875 
Q 9.46875 46.734375 15.15625 49.875 
Q 20.84375 53.03125 27.546875 53.03125 
Q 35.984375 53.03125 41.359375 48.75 
Q 46.734375 44.484375 48.25 36.625 
L 39.703125 35.296875 
Q 38.484375 40.53125 35.375 43.15625 
Q 32.28125 45.796875 27.875 45.796875 
Q 21.234375 45.796875 17.078125 41.03125 
Q 12.9375 36.28125 12.9375 25.984375 
Q 12.9375 15.53125 16.9375 10.796875 
Q 20.953125 6.0625 27.390625 6.0625 
Q 32.5625 6.0625 36.03125 9.234375 
Q 39.5 12.40625 40.4375 19 
z
" id="ArialMT-99"/>
      </defs>
      <g style="fill:#262626;" transform="translate(351.793934 457.838261)scale(0.1 -0.1)">
       <use xlink:href="#ArialMT-111"/>
       <use x="55.615234" xlink:href="#ArialMT-112"/>
       <use x="111.230469" xlink:href="#ArialMT-101"/>
       <use x="166.845703" xlink:href="#ArialMT-110"/>
       <use x="222.460938" xlink:href="#ArialMT-32"/>
       <use x="250.244141" xlink:href="#ArialMT-40"/>
       <use x="283.544922" xlink:href="#ArialMT-118"/>
       <use x="333.544922" xlink:href="#ArialMT-105"/>
       <use x="355.761719" xlink:href="#ArialMT-97"/>
       <use x="411.376953" xlink:href="#ArialMT-32"/>
       <use x="439.160156" xlink:href="#ArialMT-112"/>
       <use x="494.775391" xlink:href="#ArialMT-97"/>
       <use x="550.390625" xlink:href="#ArialMT-103"/>
       <use x="606.005859" xlink:href="#ArialMT-101"/>
       <use x="661.621094" xlink:href="#ArialMT-32"/>
       <use x="689.404297" xlink:href="#ArialMT-115"/>
       <use x="739.404297" xlink:href="#ArialMT-97"/>
       <use x="795.019531" xlink:href="#ArialMT-121"/>
       <use x="845.019531" xlink:href="#ArialMT-115"/>
       <use x="895.019531" xlink:href="#ArialMT-32"/>
       <use x="922.802734" xlink:href="#ArialMT-108"/>
       <use x="945.019531" xlink:href="#ArialMT-105"/>
       <use x="967.236328" xlink:href="#ArialMT-99"/>
       <use x="1017.236328" xlink:href="#ArialMT-101"/>
       <use x="1072.851562" xlink:href="#ArialMT-110"/>
       <use x="1128.466797" xlink:href="#ArialMT-115"/>
       <use x="1178.466797" xlink:href="#ArialMT-101"/>
       <use x="1234.082031" xlink:href="#ArialMT-41"/>
      </g>
     </g>
    </g>
    <g id="ytick_3">
     <g id="line2d_5">
      <path clip-path="url(#p54f48074ee)" d="M 482.023622 436.262775 
L 805.767 436.262775 
" style="fill:none;stroke:#cccccc;stroke-linecap:round;stroke-width:0.8;"/>
     </g>
     <g id="line2d_6"/>
     <g id="text_3">
      <!-- oa journal (via doaj) -->
      <defs>
       <path d="M 6.546875 61.375 
L 6.546875 71.578125 
L 15.328125 71.578125 
L 15.328125 61.375 
z
M -4.59375 -20.125 
L -2.9375 -12.640625 
Q -0.296875 -13.328125 1.21875 -13.328125 
Q 3.90625 -13.328125 5.21875 -11.546875 
Q 6.546875 -9.765625 6.546875 -2.640625 
L 6.546875 51.859375 
L 15.328125 51.859375 
L 15.328125 -2.828125 
Q 15.328125 -12.40625 12.84375 -16.15625 
Q 9.671875 -21.046875 2.296875 -21.046875 
Q -1.265625 -21.046875 -4.59375 -20.125 
z
" id="ArialMT-106"/>
       <path d="M 40.578125 0 
L 40.578125 7.625 
Q 34.515625 -1.171875 24.125 -1.171875 
Q 19.53125 -1.171875 15.546875 0.578125 
Q 11.578125 2.34375 9.640625 5 
Q 7.71875 7.671875 6.9375 11.53125 
Q 6.390625 14.109375 6.390625 19.734375 
L 6.390625 51.859375 
L 15.1875 51.859375 
L 15.1875 23.09375 
Q 15.1875 16.21875 15.71875 13.8125 
Q 16.546875 10.359375 19.234375 8.375 
Q 21.921875 6.390625 25.875 6.390625 
Q 29.828125 6.390625 33.296875 8.421875 
Q 36.765625 10.453125 38.203125 13.9375 
Q 39.65625 17.4375 39.65625 24.078125 
L 39.65625 51.859375 
L 48.4375 51.859375 
L 48.4375 0 
z
" id="ArialMT-117"/>
      </defs>
      <g style="fill:#262626;" transform="translate(390.703309 439.902618)scale(0.1 -0.1)">
       <use xlink:href="#ArialMT-111"/>
       <use x="55.615234" xlink:href="#ArialMT-97"/>
       <use x="111.230469" xlink:href="#ArialMT-32"/>
       <use x="139.013672" xlink:href="#ArialMT-106"/>
       <use x="161.230469" xlink:href="#ArialMT-111"/>
       <use x="216.845703" xlink:href="#ArialMT-117"/>
       <use x="272.460938" xlink:href="#ArialMT-114"/>
       <use x="305.761719" xlink:href="#ArialMT-110"/>
       <use x="361.376953" xlink:href="#ArialMT-97"/>
       <use x="416.992188" xlink:href="#ArialMT-108"/>
       <use x="439.208984" xlink:href="#ArialMT-32"/>
       <use x="466.992188" xlink:href="#ArialMT-40"/>
       <use x="500.292969" xlink:href="#ArialMT-118"/>
       <use x="550.292969" xlink:href="#ArialMT-105"/>
       <use x="572.509766" xlink:href="#ArialMT-97"/>
       <use x="628.125" xlink:href="#ArialMT-32"/>
       <use x="655.908203" xlink:href="#ArialMT-100"/>
       <use x="711.523438" xlink:href="#ArialMT-111"/>
       <use x="767.138672" xlink:href="#ArialMT-97"/>
       <use x="822.753906" xlink:href="#ArialMT-106"/>
       <use x="844.970703" xlink:href="#ArialMT-41"/>
      </g>
     </g>
    </g>
    <g id="ytick_4">
     <g id="line2d_7">
      <path clip-path="url(#p54f48074ee)" d="M 482.023622 418.327132 
L 805.767 418.327132 
" style="fill:none;stroke:#cccccc;stroke-linecap:round;stroke-width:0.8;"/>
     </g>
     <g id="line2d_8"/>
     <g id="text_4">
      <!-- oa repository (via OAI-PMH doi match) -->
      <defs>
       <path d="M 25.78125 7.859375 
L 27.046875 0.09375 
Q 23.34375 -0.6875 20.40625 -0.6875 
Q 15.625 -0.6875 12.984375 0.828125 
Q 10.359375 2.34375 9.28125 4.8125 
Q 8.203125 7.28125 8.203125 15.1875 
L 8.203125 45.015625 
L 1.765625 45.015625 
L 1.765625 51.859375 
L 8.203125 51.859375 
L 8.203125 64.703125 
L 16.9375 69.96875 
L 16.9375 51.859375 
L 25.78125 51.859375 
L 25.78125 45.015625 
L 16.9375 45.015625 
L 16.9375 14.703125 
Q 16.9375 10.9375 17.40625 9.859375 
Q 17.875 8.796875 18.921875 8.15625 
Q 19.96875 7.515625 21.921875 7.515625 
Q 23.390625 7.515625 25.78125 7.859375 
z
" id="ArialMT-116"/>
       <path d="M 4.828125 34.859375 
Q 4.828125 52.6875 14.390625 62.765625 
Q 23.96875 72.859375 39.109375 72.859375 
Q 49.03125 72.859375 56.984375 68.109375 
Q 64.9375 63.375 69.109375 54.90625 
Q 73.296875 46.4375 73.296875 35.6875 
Q 73.296875 24.8125 68.890625 16.21875 
Q 64.5 7.625 56.4375 3.203125 
Q 48.390625 -1.21875 39.0625 -1.21875 
Q 28.953125 -1.21875 20.984375 3.65625 
Q 13.03125 8.546875 8.921875 16.984375 
Q 4.828125 25.4375 4.828125 34.859375 
z
M 14.59375 34.71875 
Q 14.59375 21.78125 21.546875 14.328125 
Q 28.515625 6.890625 39.015625 6.890625 
Q 49.703125 6.890625 56.609375 14.40625 
Q 63.53125 21.921875 63.53125 35.75 
Q 63.53125 44.484375 60.578125 51 
Q 57.625 57.515625 51.921875 61.109375 
Q 46.234375 64.703125 39.15625 64.703125 
Q 29.109375 64.703125 21.84375 57.78125 
Q 14.59375 50.875 14.59375 34.71875 
z
" id="ArialMT-79"/>
       <path d="M -0.140625 0 
L 27.34375 71.578125 
L 37.546875 71.578125 
L 66.84375 0 
L 56.0625 0 
L 47.703125 21.6875 
L 17.78125 21.6875 
L 9.90625 0 
z
M 20.515625 29.390625 
L 44.78125 29.390625 
L 37.3125 49.21875 
Q 33.890625 58.25 32.234375 64.0625 
Q 30.859375 57.171875 28.375 50.390625 
z
" id="ArialMT-65"/>
       <path d="M 9.328125 0 
L 9.328125 71.578125 
L 18.796875 71.578125 
L 18.796875 0 
z
" id="ArialMT-73"/>
       <path d="M 3.171875 21.484375 
L 3.171875 30.328125 
L 30.171875 30.328125 
L 30.171875 21.484375 
z
" id="ArialMT-45"/>
       <path d="M 7.71875 0 
L 7.71875 71.578125 
L 34.71875 71.578125 
Q 41.84375 71.578125 45.609375 70.90625 
Q 50.875 70.015625 54.4375 67.546875 
Q 58.015625 65.09375 60.1875 60.640625 
Q 62.359375 56.203125 62.359375 50.875 
Q 62.359375 41.75 56.546875 35.421875 
Q 50.734375 29.109375 35.546875 29.109375 
L 17.1875 29.109375 
L 17.1875 0 
z
M 17.1875 37.546875 
L 35.6875 37.546875 
Q 44.875 37.546875 48.734375 40.96875 
Q 52.59375 44.390625 52.59375 50.59375 
Q 52.59375 55.078125 50.3125 58.265625 
Q 48.046875 61.46875 44.34375 62.5 
Q 41.9375 63.140625 35.5 63.140625 
L 17.1875 63.140625 
z
" id="ArialMT-80"/>
       <path d="M 7.421875 0 
L 7.421875 71.578125 
L 21.6875 71.578125 
L 38.625 20.90625 
Q 40.96875 13.8125 42.046875 10.296875 
Q 43.265625 14.203125 45.84375 21.78125 
L 62.984375 71.578125 
L 75.734375 71.578125 
L 75.734375 0 
L 66.609375 0 
L 66.609375 59.90625 
L 45.796875 0 
L 37.25 0 
L 16.546875 60.9375 
L 16.546875 0 
z
" id="ArialMT-77"/>
       <path d="M 8.015625 0 
L 8.015625 71.578125 
L 17.484375 71.578125 
L 17.484375 42.1875 
L 54.6875 42.1875 
L 54.6875 71.578125 
L 64.15625 71.578125 
L 64.15625 0 
L 54.6875 0 
L 54.6875 33.734375 
L 17.484375 33.734375 
L 17.484375 0 
z
" id="ArialMT-72"/>
       <path d="M 6.59375 0 
L 6.59375 51.859375 
L 14.453125 51.859375 
L 14.453125 44.578125 
Q 16.890625 48.390625 20.9375 50.703125 
Q 25 53.03125 30.171875 53.03125 
Q 35.9375 53.03125 39.625 50.640625 
Q 43.3125 48.25 44.828125 43.953125 
Q 50.984375 53.03125 60.84375 53.03125 
Q 68.5625 53.03125 72.703125 48.75 
Q 76.859375 44.484375 76.859375 35.59375 
L 76.859375 0 
L 68.109375 0 
L 68.109375 32.671875 
Q 68.109375 37.9375 67.25 40.25 
Q 66.40625 42.578125 64.15625 43.984375 
Q 61.921875 45.40625 58.890625 45.40625 
Q 53.421875 45.40625 49.796875 41.765625 
Q 46.1875 38.140625 46.1875 30.125 
L 46.1875 0 
L 37.40625 0 
L 37.40625 33.6875 
Q 37.40625 39.546875 35.25 42.46875 
Q 33.109375 45.40625 28.21875 45.40625 
Q 24.515625 45.40625 21.359375 43.453125 
Q 18.21875 41.5 16.796875 37.734375 
Q 15.375 33.984375 15.375 26.90625 
L 15.375 0 
z
" id="ArialMT-109"/>
       <path d="M 6.59375 0 
L 6.59375 71.578125 
L 15.375 71.578125 
L 15.375 45.90625 
Q 21.53125 53.03125 30.90625 53.03125 
Q 36.671875 53.03125 40.921875 50.75 
Q 45.171875 48.484375 47 44.484375 
Q 48.828125 40.484375 48.828125 32.859375 
L 48.828125 0 
L 40.046875 0 
L 40.046875 32.859375 
Q 40.046875 39.453125 37.1875 42.453125 
Q 34.328125 45.453125 29.109375 45.453125 
Q 25.203125 45.453125 21.75 43.421875 
Q 18.3125 41.40625 16.84375 37.9375 
Q 15.375 34.46875 15.375 28.375 
L 15.375 0 
z
" id="ArialMT-104"/>
      </defs>
      <g style="fill:#262626;" transform="translate(306.814247 421.970101)scale(0.1 -0.1)">
       <use xlink:href="#ArialMT-111"/>
       <use x="55.615234" xlink:href="#ArialMT-97"/>
       <use x="111.230469" xlink:href="#ArialMT-32"/>
       <use x="139.013672" xlink:href="#ArialMT-114"/>
       <use x="172.314453" xlink:href="#ArialMT-101"/>
       <use x="227.929688" xlink:href="#ArialMT-112"/>
       <use x="283.544922" xlink:href="#ArialMT-111"/>
       <use x="339.160156" xlink:href="#ArialMT-115"/>
       <use x="389.160156" xlink:href="#ArialMT-105"/>
       <use x="411.376953" xlink:href="#ArialMT-116"/>
       <use x="439.160156" xlink:href="#ArialMT-111"/>
       <use x="494.775391" xlink:href="#ArialMT-114"/>
       <use x="528.076172" xlink:href="#ArialMT-121"/>
       <use x="578.076172" xlink:href="#ArialMT-32"/>
       <use x="605.859375" xlink:href="#ArialMT-40"/>
       <use x="639.160156" xlink:href="#ArialMT-118"/>
       <use x="689.160156" xlink:href="#ArialMT-105"/>
       <use x="711.376953" xlink:href="#ArialMT-97"/>
       <use x="766.992188" xlink:href="#ArialMT-32"/>
       <use x="794.775391" xlink:href="#ArialMT-79"/>
       <use x="872.558594" xlink:href="#ArialMT-65"/>
       <use x="939.257812" xlink:href="#ArialMT-73"/>
       <use x="967.041016" xlink:href="#ArialMT-45"/>
       <use x="1000.341797" xlink:href="#ArialMT-80"/>
       <use x="1067.041016" xlink:href="#ArialMT-77"/>
       <use x="1150.341797" xlink:href="#ArialMT-72"/>
       <use x="1222.558594" xlink:href="#ArialMT-32"/>
       <use x="1250.341797" xlink:href="#ArialMT-100"/>
       <use x="1305.957031" xlink:href="#ArialMT-111"/>
       <use x="1361.572266" xlink:href="#ArialMT-105"/>
       <use x="1383.789062" xlink:href="#ArialMT-32"/>
       <use x="1411.572266" xlink:href="#ArialMT-109"/>
       <use x="1494.873047" xlink:href="#ArialMT-97"/>
       <use x="1550.488281" xlink:href="#ArialMT-116"/>
       <use x="1578.271484" xlink:href="#ArialMT-99"/>
       <use x="1628.271484" xlink:href="#ArialMT-104"/>
       <use x="1683.886719" xlink:href="#ArialMT-41"/>
      </g>
     </g>
    </g>
    <g id="ytick_5">
     <g id="line2d_9">
      <path clip-path="url(#p54f48074ee)" d="M 482.023622 400.391489 
L 805.767 400.391489 
" style="fill:none;stroke:#cccccc;stroke-linecap:round;stroke-width:0.8;"/>
     </g>
     <g id="line2d_10"/>
     <g id="text_5">
      <!-- oa repository (semantic scholar lookup) -->
      <defs>
       <path d="M 6.640625 0 
L 6.640625 71.578125 
L 15.4375 71.578125 
L 15.4375 30.765625 
L 36.234375 51.859375 
L 47.609375 51.859375 
L 27.78125 32.625 
L 49.609375 0 
L 38.765625 0 
L 21.625 26.515625 
L 15.4375 20.5625 
L 15.4375 0 
z
" id="ArialMT-107"/>
      </defs>
      <g style="fill:#262626;" transform="translate(304.014247 404.031333)scale(0.1 -0.1)">
       <use xlink:href="#ArialMT-111"/>
       <use x="55.615234" xlink:href="#ArialMT-97"/>
       <use x="111.230469" xlink:href="#ArialMT-32"/>
       <use x="139.013672" xlink:href="#ArialMT-114"/>
       <use x="172.314453" xlink:href="#ArialMT-101"/>
       <use x="227.929688" xlink:href="#ArialMT-112"/>
       <use x="283.544922" xlink:href="#ArialMT-111"/>
       <use x="339.160156" xlink:href="#ArialMT-115"/>
       <use x="389.160156" xlink:href="#ArialMT-105"/>
       <use x="411.376953" xlink:href="#ArialMT-116"/>
       <use x="439.160156" xlink:href="#ArialMT-111"/>
       <use x="494.775391" xlink:href="#ArialMT-114"/>
       <use x="528.076172" xlink:href="#ArialMT-121"/>
       <use x="578.076172" xlink:href="#ArialMT-32"/>
       <use x="605.859375" xlink:href="#ArialMT-40"/>
       <use x="639.160156" xlink:href="#ArialMT-115"/>
       <use x="689.160156" xlink:href="#ArialMT-101"/>
       <use x="744.775391" xlink:href="#ArialMT-109"/>
       <use x="828.076172" xlink:href="#ArialMT-97"/>
       <use x="883.691406" xlink:href="#ArialMT-110"/>
       <use x="939.306641" xlink:href="#ArialMT-116"/>
       <use x="967.089844" xlink:href="#ArialMT-105"/>
       <use x="989.306641" xlink:href="#ArialMT-99"/>
       <use x="1039.306641" xlink:href="#ArialMT-32"/>
       <use x="1067.089844" xlink:href="#ArialMT-115"/>
       <use x="1117.089844" xlink:href="#ArialMT-99"/>
       <use x="1167.089844" xlink:href="#ArialMT-104"/>
       <use x="1222.705078" xlink:href="#ArialMT-111"/>
       <use x="1278.320312" xlink:href="#ArialMT-108"/>
       <use x="1300.537109" xlink:href="#ArialMT-97"/>
       <use x="1356.152344" xlink:href="#ArialMT-114"/>
       <use x="1389.453125" xlink:href="#ArialMT-32"/>
       <use x="1417.236328" xlink:href="#ArialMT-108"/>
       <use x="1439.453125" xlink:href="#ArialMT-111"/>
       <use x="1495.068359" xlink:href="#ArialMT-111"/>
       <use x="1550.683594" xlink:href="#ArialMT-107"/>
       <use x="1600.683594" xlink:href="#ArialMT-117"/>
       <use x="1656.298828" xlink:href="#ArialMT-112"/>
       <use x="1711.914062" xlink:href="#ArialMT-41"/>
      </g>
     </g>
    </g>
    <g id="ytick_6">
     <g id="line2d_11">
      <path clip-path="url(#p54f48074ee)" d="M 482.023622 382.455847 
L 805.767 382.455847 
" style="fill:none;stroke:#cccccc;stroke-linecap:round;stroke-width:0.8;"/>
     </g>
     <g id="line2d_12"/>
     <g id="text_6">
      <!-- oa repository (via pmcid lookup) -->
      <g style="fill:#262626;" transform="translate(336.804872 386.09569)scale(0.1 -0.1)">
       <use xlink:href="#ArialMT-111"/>
       <use x="55.615234" xlink:href="#ArialMT-97"/>
       <use x="111.230469" xlink:href="#ArialMT-32"/>
       <use x="139.013672" xlink:href="#ArialMT-114"/>
       <use x="172.314453" xlink:href="#ArialMT-101"/>
       <use x="227.929688" xlink:href="#ArialMT-112"/>
       <use x="283.544922" xlink:href="#ArialMT-111"/>
       <use x="339.160156" xlink:href="#ArialMT-115"/>
       <use x="389.160156" xlink:href="#ArialMT-105"/>
       <use x="411.376953" xlink:href="#ArialMT-116"/>
       <use x="439.160156" xlink:href="#ArialMT-111"/>
       <use x="494.775391" xlink:href="#ArialMT-114"/>
       <use x="528.076172" xlink:href="#ArialMT-121"/>
       <use x="578.076172" xlink:href="#ArialMT-32"/>
       <use x="605.859375" xlink:href="#ArialMT-40"/>
       <use x="639.160156" xlink:href="#ArialMT-118"/>
       <use x="689.160156" xlink:href="#ArialMT-105"/>
       <use x="711.376953" xlink:href="#ArialMT-97"/>
       <use x="766.992188" xlink:href="#ArialMT-32"/>
       <use x="794.775391" xlink:href="#ArialMT-112"/>
       <use x="850.390625" xlink:href="#ArialMT-109"/>
       <use x="933.691406" xlink:href="#ArialMT-99"/>
       <use x="983.691406" xlink:href="#ArialMT-105"/>
       <use x="1005.908203" xlink:href="#ArialMT-100"/>
       <use x="1061.523438" xlink:href="#ArialMT-32"/>
       <use x="1089.306641" xlink:href="#ArialMT-108"/>
       <use x="1111.523438" xlink:href="#ArialMT-111"/>
       <use x="1167.138672" xlink:href="#ArialMT-111"/>
       <use x="1222.753906" xlink:href="#ArialMT-107"/>
       <use x="1272.753906" xlink:href="#ArialMT-117"/>
       <use x="1328.369141" xlink:href="#ArialMT-112"/>
       <use x="1383.984375" xlink:href="#ArialMT-41"/>
      </g>
     </g>
    </g>
    <g id="ytick_7">
     <g id="line2d_13">
      <path clip-path="url(#p54f48074ee)" d="M 482.023622 364.520204 
L 805.767 364.520204 
" style="fill:none;stroke:#cccccc;stroke-linecap:round;stroke-width:0.8;"/>
     </g>
     <g id="line2d_14"/>
     <g id="text_7">
      <!-- oa journal (via observed oa rate) -->
      <defs>
       <path d="M 14.703125 0 
L 6.546875 0 
L 6.546875 71.578125 
L 15.328125 71.578125 
L 15.328125 46.046875 
Q 20.90625 53.03125 29.546875 53.03125 
Q 34.328125 53.03125 38.59375 51.09375 
Q 42.875 49.171875 45.625 45.671875 
Q 48.390625 42.1875 49.953125 37.25 
Q 51.515625 32.328125 51.515625 26.703125 
Q 51.515625 13.375 44.921875 6.09375 
Q 38.328125 -1.171875 29.109375 -1.171875 
Q 19.921875 -1.171875 14.703125 6.5 
z
M 14.59375 26.3125 
Q 14.59375 17 17.140625 12.84375 
Q 21.296875 6.0625 28.375 6.0625 
Q 34.125 6.0625 38.328125 11.0625 
Q 42.53125 16.0625 42.53125 25.984375 
Q 42.53125 36.140625 38.5 40.96875 
Q 34.46875 45.796875 28.765625 45.796875 
Q 23 45.796875 18.796875 40.796875 
Q 14.59375 35.796875 14.59375 26.3125 
z
" id="ArialMT-98"/>
      </defs>
      <g style="fill:#262626;" transform="translate(334.565809 368.160048)scale(0.1 -0.1)">
       <use xlink:href="#ArialMT-111"/>
       <use x="55.615234" xlink:href="#ArialMT-97"/>
       <use x="111.230469" xlink:href="#ArialMT-32"/>
       <use x="139.013672" xlink:href="#ArialMT-106"/>
       <use x="161.230469" xlink:href="#ArialMT-111"/>
       <use x="216.845703" xlink:href="#ArialMT-117"/>
       <use x="272.460938" xlink:href="#ArialMT-114"/>
       <use x="305.761719" xlink:href="#ArialMT-110"/>
       <use x="361.376953" xlink:href="#ArialMT-97"/>
       <use x="416.992188" xlink:href="#ArialMT-108"/>
       <use x="439.208984" xlink:href="#ArialMT-32"/>
       <use x="466.992188" xlink:href="#ArialMT-40"/>
       <use x="500.292969" xlink:href="#ArialMT-118"/>
       <use x="550.292969" xlink:href="#ArialMT-105"/>
       <use x="572.509766" xlink:href="#ArialMT-97"/>
       <use x="628.125" xlink:href="#ArialMT-32"/>
       <use x="655.908203" xlink:href="#ArialMT-111"/>
       <use x="711.523438" xlink:href="#ArialMT-98"/>
       <use x="767.138672" xlink:href="#ArialMT-115"/>
       <use x="817.138672" xlink:href="#ArialMT-101"/>
       <use x="872.753906" xlink:href="#ArialMT-114"/>
       <use x="906.054688" xlink:href="#ArialMT-118"/>
       <use x="956.054688" xlink:href="#ArialMT-101"/>
       <use x="1011.669922" xlink:href="#ArialMT-100"/>
       <use x="1067.285156" xlink:href="#ArialMT-32"/>
       <use x="1095.068359" xlink:href="#ArialMT-111"/>
       <use x="1150.683594" xlink:href="#ArialMT-97"/>
       <use x="1206.298828" xlink:href="#ArialMT-32"/>
       <use x="1234.082031" xlink:href="#ArialMT-114"/>
       <use x="1267.382812" xlink:href="#ArialMT-97"/>
       <use x="1322.998047" xlink:href="#ArialMT-116"/>
       <use x="1350.78125" xlink:href="#ArialMT-101"/>
       <use x="1406.396484" xlink:href="#ArialMT-41"/>
      </g>
     </g>
    </g>
    <g id="ytick_8">
     <g id="line2d_15">
      <path clip-path="url(#p54f48074ee)" d="M 482.023622 346.584561 
L 805.767 346.584561 
" style="fill:none;stroke:#cccccc;stroke-linecap:round;stroke-width:0.8;"/>
     </g>
     <g id="line2d_16"/>
     <g id="text_8">
      <!-- oa repository (via OAI-PMH title and first author match) -->
      <g style="fill:#262626;" transform="translate(235.120497 350.22753)scale(0.1 -0.1)">
       <use xlink:href="#ArialMT-111"/>
       <use x="55.615234" xlink:href="#ArialMT-97"/>
       <use x="111.230469" xlink:href="#ArialMT-32"/>
       <use x="139.013672" xlink:href="#ArialMT-114"/>
       <use x="172.314453" xlink:href="#ArialMT-101"/>
       <use x="227.929688" xlink:href="#ArialMT-112"/>
       <use x="283.544922" xlink:href="#ArialMT-111"/>
       <use x="339.160156" xlink:href="#ArialMT-115"/>
       <use x="389.160156" xlink:href="#ArialMT-105"/>
       <use x="411.376953" xlink:href="#ArialMT-116"/>
       <use x="439.160156" xlink:href="#ArialMT-111"/>
       <use x="494.775391" xlink:href="#ArialMT-114"/>
       <use x="528.076172" xlink:href="#ArialMT-121"/>
       <use x="578.076172" xlink:href="#ArialMT-32"/>
       <use x="605.859375" xlink:href="#ArialMT-40"/>
       <use x="639.160156" xlink:href="#ArialMT-118"/>
       <use x="689.160156" xlink:href="#ArialMT-105"/>
       <use x="711.376953" xlink:href="#ArialMT-97"/>
       <use x="766.992188" xlink:href="#ArialMT-32"/>
       <use x="794.775391" xlink:href="#ArialMT-79"/>
       <use x="872.558594" xlink:href="#ArialMT-65"/>
       <use x="939.257812" xlink:href="#ArialMT-73"/>
       <use x="967.041016" xlink:href="#ArialMT-45"/>
       <use x="1000.341797" xlink:href="#ArialMT-80"/>
       <use x="1067.041016" xlink:href="#ArialMT-77"/>
       <use x="1150.341797" xlink:href="#ArialMT-72"/>
       <use x="1222.558594" xlink:href="#ArialMT-32"/>
       <use x="1250.341797" xlink:href="#ArialMT-116"/>
       <use x="1278.125" xlink:href="#ArialMT-105"/>
       <use x="1300.341797" xlink:href="#ArialMT-116"/>
       <use x="1328.125" xlink:href="#ArialMT-108"/>
       <use x="1350.341797" xlink:href="#ArialMT-101"/>
       <use x="1405.957031" xlink:href="#ArialMT-32"/>
       <use x="1433.740234" xlink:href="#ArialMT-97"/>
       <use x="1489.355469" xlink:href="#ArialMT-110"/>
       <use x="1544.970703" xlink:href="#ArialMT-100"/>
       <use x="1600.585938" xlink:href="#ArialMT-32"/>
       <use x="1628.369141" xlink:href="#ArialMT-102"/>
       <use x="1656.152344" xlink:href="#ArialMT-105"/>
       <use x="1678.369141" xlink:href="#ArialMT-114"/>
       <use x="1711.669922" xlink:href="#ArialMT-115"/>
       <use x="1761.669922" xlink:href="#ArialMT-116"/>
       <use x="1789.453125" xlink:href="#ArialMT-32"/>
       <use x="1817.236328" xlink:href="#ArialMT-97"/>
       <use x="1872.851562" xlink:href="#ArialMT-117"/>
       <use x="1928.466797" xlink:href="#ArialMT-116"/>
       <use x="1956.25" xlink:href="#ArialMT-104"/>
       <use x="2011.865234" xlink:href="#ArialMT-111"/>
       <use x="2067.480469" xlink:href="#ArialMT-114"/>
       <use x="2100.78125" xlink:href="#ArialMT-32"/>
       <use x="2128.564453" xlink:href="#ArialMT-109"/>
       <use x="2211.865234" xlink:href="#ArialMT-97"/>
       <use x="2267.480469" xlink:href="#ArialMT-116"/>
       <use x="2295.263672" xlink:href="#ArialMT-99"/>
       <use x="2345.263672" xlink:href="#ArialMT-104"/>
       <use x="2400.878906" xlink:href="#ArialMT-41"/>
      </g>
     </g>
    </g>
    <g id="ytick_9">
     <g id="line2d_17">
      <path clip-path="url(#p54f48074ee)" d="M 482.023622 328.648919 
L 805.767 328.648919 
" style="fill:none;stroke:#cccccc;stroke-linecap:round;stroke-width:0.8;"/>
     </g>
     <g id="line2d_18"/>
     <g id="text_9">
      <!-- open (via crossref license) -->
      <g style="fill:#262626;" transform="translate(361.817372 332.288762)scale(0.1 -0.1)">
       <use xlink:href="#ArialMT-111"/>
       <use x="55.615234" xlink:href="#ArialMT-112"/>
       <use x="111.230469" xlink:href="#ArialMT-101"/>
       <use x="166.845703" xlink:href="#ArialMT-110"/>
       <use x="222.460938" xlink:href="#ArialMT-32"/>
       <use x="250.244141" xlink:href="#ArialMT-40"/>
       <use x="283.544922" xlink:href="#ArialMT-118"/>
       <use x="333.544922" xlink:href="#ArialMT-105"/>
       <use x="355.761719" xlink:href="#ArialMT-97"/>
       <use x="411.376953" xlink:href="#ArialMT-32"/>
       <use x="439.160156" xlink:href="#ArialMT-99"/>
       <use x="489.160156" xlink:href="#ArialMT-114"/>
       <use x="522.460938" xlink:href="#ArialMT-111"/>
       <use x="578.076172" xlink:href="#ArialMT-115"/>
       <use x="628.076172" xlink:href="#ArialMT-115"/>
       <use x="678.076172" xlink:href="#ArialMT-114"/>
       <use x="711.376953" xlink:href="#ArialMT-101"/>
       <use x="766.992188" xlink:href="#ArialMT-102"/>
       <use x="794.775391" xlink:href="#ArialMT-32"/>
       <use x="822.558594" xlink:href="#ArialMT-108"/>
       <use x="844.775391" xlink:href="#ArialMT-105"/>
       <use x="866.992188" xlink:href="#ArialMT-99"/>
       <use x="916.992188" xlink:href="#ArialMT-101"/>
       <use x="972.607422" xlink:href="#ArialMT-110"/>
       <use x="1028.222656" xlink:href="#ArialMT-115"/>
       <use x="1078.222656" xlink:href="#ArialMT-101"/>
       <use x="1133.837891" xlink:href="#ArialMT-41"/>
      </g>
     </g>
    </g>
   </g>
   <g id="PathCollection_1">
    <defs>
     <path d="M 0 3.5 
C 0.928211 3.5 1.81853 3.131218 2.474874 2.474874 
C 3.131218 1.81853 3.5 0.928211 3.5 0 
C 3.5 -0.928211 3.131218 -1.81853 2.474874 -2.474874 
C 1.81853 -3.131218 0.928211 -3.5 0 -3.5 
C -0.928211 -3.5 -1.81853 -3.131218 -2.474874 -2.474874 
C -3.131218 -1.81853 -3.5 -0.928211 -3.5 0 
C -3.5 0.928211 -3.131218 1.81853 -2.474874 2.474874 
C -1.81853 3.131218 -0.928211 3.5 0 3.5 
z
" id="C0_0_1a71fe7183"/>
    </defs>
    <g clip-path="url(#p54f48074ee)">
     <use x="501.813577" xlink:href="#C0_0_1a71fe7183" y="472.13406"/>
    </g>
    <g clip-path="url(#p54f48074ee)">
     <use style="fill:#d3d3d3;" x="501.813577" xlink:href="#C0_0_1a71fe7183" y="454.198417"/>
    </g>
    <g clip-path="url(#p54f48074ee)">
     <use style="fill:#d3d3d3;" x="501.813577" xlink:href="#C0_0_1a71fe7183" y="436.262775"/>
    </g>
    <g clip-path="url(#p54f48074ee)">
     <use style="fill:#d3d3d3;" x="501.813577" xlink:href="#C0_0_1a71fe7183" y="418.327132"/>
    </g>
    <g clip-path="url(#p54f48074ee)">
     <use style="fill:#d3d3d3;" x="501.813577" xlink:href="#C0_0_1a71fe7183" y="400.391489"/>
    </g>
    <g clip-path="url(#p54f48074ee)">
     <use style="fill:#d3d3d3;" x="501.813577" xlink:href="#C0_0_1a71fe7183" y="382.455847"/>
    </g>
    <g clip-path="url(#p54f48074ee)">
     <use style="fill:#d3d3d3;" x="501.813577" xlink:href="#C0_0_1a71fe7183" y="364.520204"/>
    </g>
    <g clip-path="url(#p54f48074ee)">
     <use style="fill:#d3d3d3;" x="501.813577" xlink:href="#C0_0_1a71fe7183" y="346.584561"/>
    </g>
    <g clip-path="url(#p54f48074ee)">
     <use style="fill:#d3d3d3;" x="501.813577" xlink:href="#C0_0_1a71fe7183" y="328.648919"/>
    </g>
    <g clip-path="url(#p54f48074ee)">
     <use style="fill:#d3d3d3;" x="522.110968" xlink:href="#C0_0_1a71fe7183" y="472.13406"/>
    </g>
    <g clip-path="url(#p54f48074ee)">
     <use style="fill:#d3d3d3;" x="522.110968" xlink:href="#C0_0_1a71fe7183" y="454.198417"/>
    </g>
    <g clip-path="url(#p54f48074ee)">
     <use style="fill:#d3d3d3;" x="522.110968" xlink:href="#C0_0_1a71fe7183" y="436.262775"/>
    </g>
    <g clip-path="url(#p54f48074ee)">
     <use x="522.110968" xlink:href="#C0_0_1a71fe7183" y="418.327132"/>
    </g>
    <g clip-path="url(#p54f48074ee)">
     <use style="fill:#d3d3d3;" x="522.110968" xlink:href="#C0_0_1a71fe7183" y="400.391489"/>
    </g>
    <g clip-path="url(#p54f48074ee)">
     <use style="fill:#d3d3d3;" x="522.110968" xlink:href="#C0_0_1a71fe7183" y="382.455847"/>
    </g>
    <g clip-path="url(#p54f48074ee)">
     <use style="fill:#d3d3d3;" x="522.110968" xlink:href="#C0_0_1a71fe7183" y="364.520204"/>
    </g>
    <g clip-path="url(#p54f48074ee)">
     <use style="fill:#d3d3d3;" x="522.110968" xlink:href="#C0_0_1a71fe7183" y="346.584561"/>
    </g>
    <g clip-path="url(#p54f48074ee)">
     <use style="fill:#d3d3d3;" x="522.110968" xlink:href="#C0_0_1a71fe7183" y="328.648919"/>
    </g>
    <g clip-path="url(#p54f48074ee)">
     <use style="fill:#d3d3d3;" x="542.408358" xlink:href="#C0_0_1a71fe7183" y="472.13406"/>
    </g>
    <g clip-path="url(#p54f48074ee)">
     <use x="542.408358" xlink:href="#C0_0_1a71fe7183" y="454.198417"/>
    </g>
    <g clip-path="url(#p54f48074ee)">
     <use x="542.408358" xlink:href="#C0_0_1a71fe7183" y="436.262775"/>
    </g>
    <g clip-path="url(#p54f48074ee)">
     <use style="fill:#d3d3d3;" x="542.408358" xlink:href="#C0_0_1a71fe7183" y="418.327132"/>
    </g>
    <g clip-path="url(#p54f48074ee)">
     <use style="fill:#d3d3d3;" x="542.408358" xlink:href="#C0_0_1a71fe7183" y="400.391489"/>
    </g>
    <g clip-path="url(#p54f48074ee)">
     <use style="fill:#d3d3d3;" x="542.408358" xlink:href="#C0_0_1a71fe7183" y="382.455847"/>
    </g>
    <g clip-path="url(#p54f48074ee)">
     <use style="fill:#d3d3d3;" x="542.408358" xlink:href="#C0_0_1a71fe7183" y="364.520204"/>
    </g>
    <g clip-path="url(#p54f48074ee)">
     <use style="fill:#d3d3d3;" x="542.408358" xlink:href="#C0_0_1a71fe7183" y="346.584561"/>
    </g>
    <g clip-path="url(#p54f48074ee)">
     <use style="fill:#d3d3d3;" x="542.408358" xlink:href="#C0_0_1a71fe7183" y="328.648919"/>
    </g>
    <g clip-path="url(#p54f48074ee)">
     <use x="562.705749" xlink:href="#C0_0_1a71fe7183" y="472.13406"/>
    </g>
    <g clip-path="url(#p54f48074ee)">
     <use style="fill:#d3d3d3;" x="562.705749" xlink:href="#C0_0_1a71fe7183" y="454.198417"/>
    </g>
    <g clip-path="url(#p54f48074ee)">
     <use style="fill:#d3d3d3;" x="562.705749" xlink:href="#C0_0_1a71fe7183" y="436.262775"/>
    </g>
    <g clip-path="url(#p54f48074ee)">
     <use style="fill:#d3d3d3;" x="562.705749" xlink:href="#C0_0_1a71fe7183" y="418.327132"/>
    </g>
    <g clip-path="url(#p54f48074ee)">
     <use x="562.705749" xlink:href="#C0_0_1a71fe7183" y="400.391489"/>
    </g>
    <g clip-path="url(#p54f48074ee)">
     <use style="fill:#d3d3d3;" x="562.705749" xlink:href="#C0_0_1a71fe7183" y="382.455847"/>
    </g>
    <g clip-path="url(#p54f48074ee)">
     <use style="fill:#d3d3d3;" x="562.705749" xlink:href="#C0_0_1a71fe7183" y="364.520204"/>
    </g>
    <g clip-path="url(#p54f48074ee)">
     <use style="fill:#d3d3d3;" x="562.705749" xlink:href="#C0_0_1a71fe7183" y="346.584561"/>
    </g>
    <g clip-path="url(#p54f48074ee)">
     <use style="fill:#d3d3d3;" x="562.705749" xlink:href="#C0_0_1a71fe7183" y="328.648919"/>
    </g>
    <g clip-path="url(#p54f48074ee)">
     <use style="fill:#d3d3d3;" x="583.003139" xlink:href="#C0_0_1a71fe7183" y="472.13406"/>
    </g>
    <g clip-path="url(#p54f48074ee)">
     <use style="fill:#d3d3d3;" x="583.003139" xlink:href="#C0_0_1a71fe7183" y="454.198417"/>
    </g>
    <g clip-path="url(#p54f48074ee)">
     <use style="fill:#d3d3d3;" x="583.003139" xlink:href="#C0_0_1a71fe7183" y="436.262775"/>
    </g>
    <g clip-path="url(#p54f48074ee)">
     <use style="fill:#d3d3d3;" x="583.003139" xlink:href="#C0_0_1a71fe7183" y="418.327132"/>
    </g>
    <g clip-path="url(#p54f48074ee)">
     <use x="583.003139" xlink:href="#C0_0_1a71fe7183" y="400.391489"/>
    </g>
    <g clip-path="url(#p54f48074ee)">
     <use style="fill:#d3d3d3;" x="583.003139" xlink:href="#C0_0_1a71fe7183" y="382.455847"/>
    </g>
    <g clip-path="url(#p54f48074ee)">
     <use style="fill:#d3d3d3;" x="583.003139" xlink:href="#C0_0_1a71fe7183" y="364.520204"/>
    </g>
    <g clip-path="url(#p54f48074ee)">
     <use style="fill:#d3d3d3;" x="583.003139" xlink:href="#C0_0_1a71fe7183" y="346.584561"/>
    </g>
    <g clip-path="url(#p54f48074ee)">
     <use style="fill:#d3d3d3;" x="583.003139" xlink:href="#C0_0_1a71fe7183" y="328.648919"/>
    </g>
    <g clip-path="url(#p54f48074ee)">
     <use style="fill:#d3d3d3;" x="603.30053" xlink:href="#C0_0_1a71fe7183" y="472.13406"/>
    </g>
    <g clip-path="url(#p54f48074ee)">
     <use x="603.30053" xlink:href="#C0_0_1a71fe7183" y="454.198417"/>
    </g>
    <g clip-path="url(#p54f48074ee)">
     <use style="fill:#d3d3d3;" x="603.30053" xlink:href="#C0_0_1a71fe7183" y="436.262775"/>
    </g>
    <g clip-path="url(#p54f48074ee)">
     <use style="fill:#d3d3d3;" x="603.30053" xlink:href="#C0_0_1a71fe7183" y="418.327132"/>
    </g>
    <g clip-path="url(#p54f48074ee)">
     <use style="fill:#d3d3d3;" x="603.30053" xlink:href="#C0_0_1a71fe7183" y="400.391489"/>
    </g>
    <g clip-path="url(#p54f48074ee)">
     <use style="fill:#d3d3d3;" x="603.30053" xlink:href="#C0_0_1a71fe7183" y="382.455847"/>
    </g>
    <g clip-path="url(#p54f48074ee)">
     <use style="fill:#d3d3d3;" x="603.30053" xlink:href="#C0_0_1a71fe7183" y="364.520204"/>
    </g>
    <g clip-path="url(#p54f48074ee)">
     <use style="fill:#d3d3d3;" x="603.30053" xlink:href="#C0_0_1a71fe7183" y="346.584561"/>
    </g>
    <g clip-path="url(#p54f48074ee)">
     <use style="fill:#d3d3d3;" x="603.30053" xlink:href="#C0_0_1a71fe7183" y="328.648919"/>
    </g>
    <g clip-path="url(#p54f48074ee)">
     <use style="fill:#d3d3d3;" x="623.59792" xlink:href="#C0_0_1a71fe7183" y="472.13406"/>
    </g>
    <g clip-path="url(#p54f48074ee)">
     <use style="fill:#d3d3d3;" x="623.59792" xlink:href="#C0_0_1a71fe7183" y="454.198417"/>
    </g>
    <g clip-path="url(#p54f48074ee)">
     <use style="fill:#d3d3d3;" x="623.59792" xlink:href="#C0_0_1a71fe7183" y="436.262775"/>
    </g>
    <g clip-path="url(#p54f48074ee)">
     <use x="623.59792" xlink:href="#C0_0_1a71fe7183" y="418.327132"/>
    </g>
    <g clip-path="url(#p54f48074ee)">
     <use style="fill:#d3d3d3;" x="623.59792" xlink:href="#C0_0_1a71fe7183" y="400.391489"/>
    </g>
    <g clip-path="url(#p54f48074ee)">
     <use x="623.59792" xlink:href="#C0_0_1a71fe7183" y="382.455847"/>
    </g>
    <g clip-path="url(#p54f48074ee)">
     <use style="fill:#d3d3d3;" x="623.59792" xlink:href="#C0_0_1a71fe7183" y="364.520204"/>
    </g>
    <g clip-path="url(#p54f48074ee)">
     <use style="fill:#d3d3d3;" x="623.59792" xlink:href="#C0_0_1a71fe7183" y="346.584561"/>
    </g>
    <g clip-path="url(#p54f48074ee)">
     <use style="fill:#d3d3d3;" x="623.59792" xlink:href="#C0_0_1a71fe7183" y="328.648919"/>
    </g>
    <g clip-path="url(#p54f48074ee)">
     <use style="fill:#d3d3d3;" x="643.895311" xlink:href="#C0_0_1a71fe7183" y="472.13406"/>
    </g>
    <g clip-path="url(#p54f48074ee)">
     <use style="fill:#d3d3d3;" x="643.895311" xlink:href="#C0_0_1a71fe7183" y="454.198417"/>
    </g>
    <g clip-path="url(#p54f48074ee)">
     <use style="fill:#d3d3d3;" x="643.895311" xlink:href="#C0_0_1a71fe7183" y="436.262775"/>
    </g>
    <g clip-path="url(#p54f48074ee)">
     <use style="fill:#d3d3d3;" x="643.895311" xlink:href="#C0_0_1a71fe7183" y="418.327132"/>
    </g>
    <g clip-path="url(#p54f48074ee)">
     <use style="fill:#d3d3d3;" x="643.895311" xlink:href="#C0_0_1a71fe7183" y="400.391489"/>
    </g>
    <g clip-path="url(#p54f48074ee)">
     <use style="fill:#d3d3d3;" x="643.895311" xlink:href="#C0_0_1a71fe7183" y="382.455847"/>
    </g>
    <g clip-path="url(#p54f48074ee)">
     <use style="fill:#d3d3d3;" x="643.895311" xlink:href="#C0_0_1a71fe7183" y="364.520204"/>
    </g>
    <g clip-path="url(#p54f48074ee)">
     <use x="643.895311" xlink:href="#C0_0_1a71fe7183" y="346.584561"/>
    </g>
    <g clip-path="url(#p54f48074ee)">
     <use style="fill:#d3d3d3;" x="643.895311" xlink:href="#C0_0_1a71fe7183" y="328.648919"/>
    </g>
    <g clip-path="url(#p54f48074ee)">
     <use style="fill:#d3d3d3;" x="664.192701" xlink:href="#C0_0_1a71fe7183" y="472.13406"/>
    </g>
    <g clip-path="url(#p54f48074ee)">
     <use x="664.192701" xlink:href="#C0_0_1a71fe7183" y="454.198417"/>
    </g>
    <g clip-path="url(#p54f48074ee)">
     <use x="664.192701" xlink:href="#C0_0_1a71fe7183" y="436.262775"/>
    </g>
    <g clip-path="url(#p54f48074ee)">
     <use x="664.192701" xlink:href="#C0_0_1a71fe7183" y="418.327132"/>
    </g>
    <g clip-path="url(#p54f48074ee)">
     <use x="664.192701" xlink:href="#C0_0_1a71fe7183" y="400.391489"/>
    </g>
    <g clip-path="url(#p54f48074ee)">
     <use x="664.192701" xlink:href="#C0_0_1a71fe7183" y="382.455847"/>
    </g>
    <g clip-path="url(#p54f48074ee)">
     <use style="fill:#d3d3d3;" x="664.192701" xlink:href="#C0_0_1a71fe7183" y="364.520204"/>
    </g>
    <g clip-path="url(#p54f48074ee)">
     <use style="fill:#d3d3d3;" x="664.192701" xlink:href="#C0_0_1a71fe7183" y="346.584561"/>
    </g>
    <g clip-path="url(#p54f48074ee)">
     <use style="fill:#d3d3d3;" x="664.192701" xlink:href="#C0_0_1a71fe7183" y="328.648919"/>
    </g>
    <g clip-path="url(#p54f48074ee)">
     <use style="fill:#d3d3d3;" x="684.490092" xlink:href="#C0_0_1a71fe7183" y="472.13406"/>
    </g>
    <g clip-path="url(#p54f48074ee)">
     <use style="fill:#d3d3d3;" x="684.490092" xlink:href="#C0_0_1a71fe7183" y="454.198417"/>
    </g>
    <g clip-path="url(#p54f48074ee)">
     <use x="684.490092" xlink:href="#C0_0_1a71fe7183" y="436.262775"/>
    </g>
    <g clip-path="url(#p54f48074ee)">
     <use style="fill:#d3d3d3;" x="684.490092" xlink:href="#C0_0_1a71fe7183" y="418.327132"/>
    </g>
    <g clip-path="url(#p54f48074ee)">
     <use style="fill:#d3d3d3;" x="684.490092" xlink:href="#C0_0_1a71fe7183" y="400.391489"/>
    </g>
    <g clip-path="url(#p54f48074ee)">
     <use style="fill:#d3d3d3;" x="684.490092" xlink:href="#C0_0_1a71fe7183" y="382.455847"/>
    </g>
    <g clip-path="url(#p54f48074ee)">
     <use style="fill:#d3d3d3;" x="684.490092" xlink:href="#C0_0_1a71fe7183" y="364.520204"/>
    </g>
    <g clip-path="url(#p54f48074ee)">
     <use style="fill:#d3d3d3;" x="684.490092" xlink:href="#C0_0_1a71fe7183" y="346.584561"/>
    </g>
    <g clip-path="url(#p54f48074ee)">
     <use style="fill:#d3d3d3;" x="684.490092" xlink:href="#C0_0_1a71fe7183" y="328.648919"/>
    </g>
    <g clip-path="url(#p54f48074ee)">
     <use style="fill:#d3d3d3;" x="704.787482" xlink:href="#C0_0_1a71fe7183" y="472.13406"/>
    </g>
    <g clip-path="url(#p54f48074ee)">
     <use x="704.787482" xlink:href="#C0_0_1a71fe7183" y="454.198417"/>
    </g>
    <g clip-path="url(#p54f48074ee)">
     <use x="704.787482" xlink:href="#C0_0_1a71fe7183" y="436.262775"/>
    </g>
    <g clip-path="url(#p54f48074ee)">
     <use x="704.787482" xlink:href="#C0_0_1a71fe7183" y="418.327132"/>
    </g>
    <g clip-path="url(#p54f48074ee)">
     <use style="fill:#d3d3d3;" x="704.787482" xlink:href="#C0_0_1a71fe7183" y="400.391489"/>
    </g>
    <g clip-path="url(#p54f48074ee)">
     <use x="704.787482" xlink:href="#C0_0_1a71fe7183" y="382.455847"/>
    </g>
    <g clip-path="url(#p54f48074ee)">
     <use style="fill:#d3d3d3;" x="704.787482" xlink:href="#C0_0_1a71fe7183" y="364.520204"/>
    </g>
    <g clip-path="url(#p54f48074ee)">
     <use style="fill:#d3d3d3;" x="704.787482" xlink:href="#C0_0_1a71fe7183" y="346.584561"/>
    </g>
    <g clip-path="url(#p54f48074ee)">
     <use style="fill:#d3d3d3;" x="704.787482" xlink:href="#C0_0_1a71fe7183" y="328.648919"/>
    </g>
    <g clip-path="url(#p54f48074ee)">
     <use style="fill:#d3d3d3;" x="725.084873" xlink:href="#C0_0_1a71fe7183" y="472.13406"/>
    </g>
    <g clip-path="url(#p54f48074ee)">
     <use x="725.084873" xlink:href="#C0_0_1a71fe7183" y="454.198417"/>
    </g>
    <g clip-path="url(#p54f48074ee)">
     <use style="fill:#d3d3d3;" x="725.084873" xlink:href="#C0_0_1a71fe7183" y="436.262775"/>
    </g>
    <g clip-path="url(#p54f48074ee)">
     <use style="fill:#d3d3d3;" x="725.084873" xlink:href="#C0_0_1a71fe7183" y="418.327132"/>
    </g>
    <g clip-path="url(#p54f48074ee)">
     <use style="fill:#d3d3d3;" x="725.084873" xlink:href="#C0_0_1a71fe7183" y="400.391489"/>
    </g>
    <g clip-path="url(#p54f48074ee)">
     <use style="fill:#d3d3d3;" x="725.084873" xlink:href="#C0_0_1a71fe7183" y="382.455847"/>
    </g>
    <g clip-path="url(#p54f48074ee)">
     <use x="725.084873" xlink:href="#C0_0_1a71fe7183" y="364.520204"/>
    </g>
    <g clip-path="url(#p54f48074ee)">
     <use style="fill:#d3d3d3;" x="725.084873" xlink:href="#C0_0_1a71fe7183" y="346.584561"/>
    </g>
    <g clip-path="url(#p54f48074ee)">
     <use style="fill:#d3d3d3;" x="725.084873" xlink:href="#C0_0_1a71fe7183" y="328.648919"/>
    </g>
    <g clip-path="url(#p54f48074ee)">
     <use style="fill:#d3d3d3;" x="745.382263" xlink:href="#C0_0_1a71fe7183" y="472.13406"/>
    </g>
    <g clip-path="url(#p54f48074ee)">
     <use x="745.382263" xlink:href="#C0_0_1a71fe7183" y="454.198417"/>
    </g>
    <g clip-path="url(#p54f48074ee)">
     <use x="745.382263" xlink:href="#C0_0_1a71fe7183" y="436.262775"/>
    </g>
    <g clip-path="url(#p54f48074ee)">
     <use style="fill:#d3d3d3;" x="745.382263" xlink:href="#C0_0_1a71fe7183" y="418.327132"/>
    </g>
    <g clip-path="url(#p54f48074ee)">
     <use x="745.382263" xlink:href="#C0_0_1a71fe7183" y="400.391489"/>
    </g>
    <g clip-path="url(#p54f48074ee)">
     <use style="fill:#d3d3d3;" x="745.382263" xlink:href="#C0_0_1a71fe7183" y="382.455847"/>
    </g>
    <g clip-path="url(#p54f48074ee)">
     <use style="fill:#d3d3d3;" x="745.382263" xlink:href="#C0_0_1a71fe7183" y="364.520204"/>
    </g>
    <g clip-path="url(#p54f48074ee)">
     <use style="fill:#d3d3d3;" x="745.382263" xlink:href="#C0_0_1a71fe7183" y="346.584561"/>
    </g>
    <g clip-path="url(#p54f48074ee)">
     <use style="fill:#d3d3d3;" x="745.382263" xlink:href="#C0_0_1a71fe7183" y="328.648919"/>
    </g>
    <g clip-path="url(#p54f48074ee)">
     <use x="765.679654" xlink:href="#C0_0_1a71fe7183" y="472.13406"/>
    </g>
    <g clip-path="url(#p54f48074ee)">
     <use style="fill:#d3d3d3;" x="765.679654" xlink:href="#C0_0_1a71fe7183" y="454.198417"/>
    </g>
    <g clip-path="url(#p54f48074ee)">
     <use style="fill:#d3d3d3;" x="765.679654" xlink:href="#C0_0_1a71fe7183" y="436.262775"/>
    </g>
    <g clip-path="url(#p54f48074ee)">
     <use style="fill:#d3d3d3;" x="765.679654" xlink:href="#C0_0_1a71fe7183" y="418.327132"/>
    </g>
    <g clip-path="url(#p54f48074ee)">
     <use style="fill:#d3d3d3;" x="765.679654" xlink:href="#C0_0_1a71fe7183" y="400.391489"/>
    </g>
    <g clip-path="url(#p54f48074ee)">
     <use style="fill:#d3d3d3;" x="765.679654" xlink:href="#C0_0_1a71fe7183" y="382.455847"/>
    </g>
    <g clip-path="url(#p54f48074ee)">
     <use x="765.679654" xlink:href="#C0_0_1a71fe7183" y="364.520204"/>
    </g>
    <g clip-path="url(#p54f48074ee)">
     <use style="fill:#d3d3d3;" x="765.679654" xlink:href="#C0_0_1a71fe7183" y="346.584561"/>
    </g>
    <g clip-path="url(#p54f48074ee)">
     <use style="fill:#d3d3d3;" x="765.679654" xlink:href="#C0_0_1a71fe7183" y="328.648919"/>
    </g>
    <g clip-path="url(#p54f48074ee)">
     <use style="fill:#d3d3d3;" x="785.977044" xlink:href="#C0_0_1a71fe7183" y="472.13406"/>
    </g>
    <g clip-path="url(#p54f48074ee)">
     <use style="fill:#d3d3d3;" x="785.977044" xlink:href="#C0_0_1a71fe7183" y="454.198417"/>
    </g>
    <g clip-path="url(#p54f48074ee)">
     <use style="fill:#d3d3d3;" x="785.977044" xlink:href="#C0_0_1a71fe7183" y="436.262775"/>
    </g>
    <g clip-path="url(#p54f48074ee)">
     <use style="fill:#d3d3d3;" x="785.977044" xlink:href="#C0_0_1a71fe7183" y="418.327132"/>
    </g>
    <g clip-path="url(#p54f48074ee)">
     <use style="fill:#d3d3d3;" x="785.977044" xlink:href="#C0_0_1a71fe7183" y="400.391489"/>
    </g>
    <g clip-path="url(#p54f48074ee)">
     <use style="fill:#d3d3d3;" x="785.977044" xlink:href="#C0_0_1a71fe7183" y="382.455847"/>
    </g>
    <g clip-path="url(#p54f48074ee)">
     <use style="fill:#d3d3d3;" x="785.977044" xlink:href="#C0_0_1a71fe7183" y="364.520204"/>
    </g>
    <g clip-path="url(#p54f48074ee)">
     <use style="fill:#d3d3d3;" x="785.977044" xlink:href="#C0_0_1a71fe7183" y="346.584561"/>
    </g>
    <g clip-path="url(#p54f48074ee)">
     <use x="785.977044" xlink:href="#C0_0_1a71fe7183" y="328.648919"/>
    </g>
   </g>
   <g id="LineCollection_1">
    <path clip-path="url(#p54f48074ee)" d="M 501.813577 472.13406 
L 501.813577 472.13406 
" style="fill:none;stroke:#000000;stroke-width:2;"/>
    <path clip-path="url(#p54f48074ee)" d="M 522.110968 418.327132 
L 522.110968 418.327132 
" style="fill:none;stroke:#000000;stroke-width:2;"/>
    <path clip-path="url(#p54f48074ee)" d="M 542.408358 454.198417 
L 542.408358 436.262775 
" style="fill:none;stroke:#000000;stroke-width:2;"/>
    <path clip-path="url(#p54f48074ee)" d="M 562.705749 472.13406 
L 562.705749 400.391489 
" style="fill:none;stroke:#000000;stroke-width:2;"/>
    <path clip-path="url(#p54f48074ee)" d="M 583.003139 400.391489 
L 583.003139 400.391489 
" style="fill:none;stroke:#000000;stroke-width:2;"/>
    <path clip-path="url(#p54f48074ee)" d="M 603.30053 454.198417 
L 603.30053 454.198417 
" style="fill:none;stroke:#000000;stroke-width:2;"/>
    <path clip-path="url(#p54f48074ee)" d="M 623.59792 418.327132 
L 623.59792 382.455847 
" style="fill:none;stroke:#000000;stroke-width:2;"/>
    <path clip-path="url(#p54f48074ee)" d="M 643.895311 346.584561 
L 643.895311 346.584561 
" style="fill:none;stroke:#000000;stroke-width:2;"/>
    <path clip-path="url(#p54f48074ee)" d="M 664.192701 454.198417 
L 664.192701 382.455847 
" style="fill:none;stroke:#000000;stroke-width:2;"/>
    <path clip-path="url(#p54f48074ee)" d="M 684.490092 436.262775 
L 684.490092 436.262775 
" style="fill:none;stroke:#000000;stroke-width:2;"/>
    <path clip-path="url(#p54f48074ee)" d="M 704.787482 454.198417 
L 704.787482 382.455847 
" style="fill:none;stroke:#000000;stroke-width:2;"/>
    <path clip-path="url(#p54f48074ee)" d="M 725.084873 454.198417 
L 725.084873 364.520204 
" style="fill:none;stroke:#000000;stroke-width:2;"/>
    <path clip-path="url(#p54f48074ee)" d="M 745.382263 454.198417 
L 745.382263 400.391489 
" style="fill:none;stroke:#000000;stroke-width:2;"/>
    <path clip-path="url(#p54f48074ee)" d="M 765.679654 472.13406 
L 765.679654 364.520204 
" style="fill:none;stroke:#000000;stroke-width:2;"/>
    <path clip-path="url(#p54f48074ee)" d="M 785.977044 328.648919 
L 785.977044 328.648919 
" style="fill:none;stroke:#000000;stroke-width:2;"/>
   </g>
  </g>
  <g id="axes_2">
   <g id="matplotlib.axis_2">
    <g id="xtick_1">
     <g id="line2d_19"/>
     <g id="text_10">
      <!-- 0 -->
      <defs>
       <path d="M 4.15625 35.296875 
Q 4.15625 48 6.765625 55.734375 
Q 9.375 63.484375 14.515625 67.671875 
Q 19.671875 71.875 27.484375 71.875 
Q 33.25 71.875 37.59375 69.546875 
Q 41.9375 67.234375 44.765625 62.859375 
Q 47.609375 58.5 49.21875 52.21875 
Q 50.828125 45.953125 50.828125 35.296875 
Q 50.828125 22.703125 48.234375 14.96875 
Q 45.65625 7.234375 40.5 3 
Q 35.359375 -1.21875 27.484375 -1.21875 
Q 17.140625 -1.21875 11.234375 6.203125 
Q 4.15625 15.140625 4.15625 35.296875 
z
M 13.1875 35.296875 
Q 13.1875 17.671875 17.3125 11.828125 
Q 21.4375 6 27.484375 6 
Q 33.546875 6 37.671875 11.859375 
Q 41.796875 17.71875 41.796875 35.296875 
Q 41.796875 52.984375 37.671875 58.78125 
Q 33.546875 64.59375 27.390625 64.59375 
Q 21.34375 64.59375 17.71875 59.46875 
Q 13.1875 52.9375 13.1875 35.296875 
z
" id="ArialMT-48"/>
      </defs>
      <g style="fill:#262626;" transform="translate(198.665558 497.857813)scale(0.1 -0.1)">
       <use xlink:href="#ArialMT-48"/>
      </g>
     </g>
    </g>
    <g id="xtick_2">
     <g id="line2d_20"/>
     <g id="text_11">
      <!-- 1000000 -->
      <defs>
       <path d="M 37.25 0 
L 28.46875 0 
L 28.46875 56 
Q 25.296875 52.984375 20.140625 49.953125 
Q 14.984375 46.921875 10.890625 45.40625 
L 10.890625 53.90625 
Q 18.265625 57.375 23.78125 62.296875 
Q 29.296875 67.234375 31.59375 71.875 
L 37.25 71.875 
z
" id="ArialMT-49"/>
      </defs>
      <g style="fill:#262626;" transform="translate(126.972918 497.857813)scale(0.1 -0.1)">
       <use xlink:href="#ArialMT-49"/>
       <use x="55.615234" xlink:href="#ArialMT-48"/>
       <use x="111.230469" xlink:href="#ArialMT-48"/>
       <use x="166.845703" xlink:href="#ArialMT-48"/>
       <use x="222.460938" xlink:href="#ArialMT-48"/>
       <use x="278.076172" xlink:href="#ArialMT-48"/>
       <use x="333.691406" xlink:href="#ArialMT-48"/>
      </g>
     </g>
    </g>
    <g id="xtick_3">
     <g id="line2d_21"/>
     <g id="text_12">
      <!-- 2000000 -->
      <defs>
       <path d="M 50.34375 8.453125 
L 50.34375 0 
L 3.03125 0 
Q 2.9375 3.171875 4.046875 6.109375 
Q 5.859375 10.9375 9.828125 15.625 
Q 13.8125 20.3125 21.34375 26.46875 
Q 33.015625 36.03125 37.109375 41.625 
Q 41.21875 47.21875 41.21875 52.203125 
Q 41.21875 57.421875 37.46875 61 
Q 33.734375 64.59375 27.734375 64.59375 
Q 21.390625 64.59375 17.578125 60.78125 
Q 13.765625 56.984375 13.71875 50.25 
L 4.6875 51.171875 
Q 5.609375 61.28125 11.65625 66.578125 
Q 17.71875 71.875 27.9375 71.875 
Q 38.234375 71.875 44.234375 66.15625 
Q 50.25 60.453125 50.25 52 
Q 50.25 47.703125 48.484375 43.546875 
Q 46.734375 39.40625 42.65625 34.8125 
Q 38.578125 30.21875 29.109375 22.21875 
Q 21.1875 15.578125 18.9375 13.203125 
Q 16.703125 10.84375 15.234375 8.453125 
z
" id="ArialMT-50"/>
      </defs>
      <g style="fill:#262626;" transform="translate(71.963091 497.857813)scale(0.1 -0.1)">
       <use xlink:href="#ArialMT-50"/>
       <use x="55.615234" xlink:href="#ArialMT-48"/>
       <use x="111.230469" xlink:href="#ArialMT-48"/>
       <use x="166.845703" xlink:href="#ArialMT-48"/>
       <use x="222.460938" xlink:href="#ArialMT-48"/>
       <use x="278.076172" xlink:href="#ArialMT-48"/>
       <use x="333.691406" xlink:href="#ArialMT-48"/>
      </g>
     </g>
    </g>
    <g id="xtick_4">
     <g id="line2d_22"/>
     <g id="text_13">
      <!-- 3000000 -->
      <defs>
       <path d="M 4.203125 18.890625 
L 12.984375 20.0625 
Q 14.5 12.59375 18.140625 9.296875 
Q 21.78125 6 27 6 
Q 33.203125 6 37.46875 10.296875 
Q 41.75 14.59375 41.75 20.953125 
Q 41.75 27 37.796875 30.921875 
Q 33.84375 34.859375 27.734375 34.859375 
Q 25.25 34.859375 21.53125 33.890625 
L 22.515625 41.609375 
Q 23.390625 41.5 23.921875 41.5 
Q 29.546875 41.5 34.03125 44.421875 
Q 38.53125 47.359375 38.53125 53.46875 
Q 38.53125 58.296875 35.25 61.46875 
Q 31.984375 64.65625 26.8125 64.65625 
Q 21.6875 64.65625 18.265625 61.421875 
Q 14.84375 58.203125 13.875 51.765625 
L 5.078125 53.328125 
Q 6.6875 62.15625 12.390625 67.015625 
Q 18.109375 71.875 26.609375 71.875 
Q 32.46875 71.875 37.390625 69.359375 
Q 42.328125 66.84375 44.9375 62.5 
Q 47.5625 58.15625 47.5625 53.265625 
Q 47.5625 48.640625 45.0625 44.828125 
Q 42.578125 41.015625 37.703125 38.765625 
Q 44.046875 37.3125 47.5625 32.6875 
Q 51.078125 28.078125 51.078125 21.140625 
Q 51.078125 11.765625 44.234375 5.25 
Q 37.40625 -1.265625 26.953125 -1.265625 
Q 17.53125 -1.265625 11.296875 4.34375 
Q 5.078125 9.96875 4.203125 18.890625 
z
" id="ArialMT-51"/>
      </defs>
      <g style="fill:#262626;" transform="translate(16.953263 497.857813)scale(0.1 -0.1)">
       <use xlink:href="#ArialMT-51"/>
       <use x="55.615234" xlink:href="#ArialMT-48"/>
       <use x="111.230469" xlink:href="#ArialMT-48"/>
       <use x="166.845703" xlink:href="#ArialMT-48"/>
       <use x="222.460938" xlink:href="#ArialMT-48"/>
       <use x="278.076172" xlink:href="#ArialMT-48"/>
       <use x="333.691406" xlink:href="#ArialMT-48"/>
      </g>
     </g>
    </g>
   </g>
   <g id="patch_2">
    <path clip-path="url(#pae4d0e3633)" d="M 201.446027 476.617971 
L 7.2 476.617971 
L 7.2 467.650149 
L 201.446027 467.650149 
z
"/>
   </g>
   <g id="patch_3">
    <path clip-path="url(#pae4d0e3633)" d="M 201.446027 458.682328 
L 34.629055 458.682328 
L 34.629055 449.714507 
L 201.446027 449.714507 
z
"/>
   </g>
   <g id="patch_4">
    <path clip-path="url(#pae4d0e3633)" d="M 201.446027 440.746685 
L 67.587203 440.746685 
L 67.587203 431.778864 
L 201.446027 431.778864 
z
"/>
   </g>
   <g id="patch_5">
    <path clip-path="url(#pae4d0e3633)" d="M 201.446027 422.811043 
L 78.68142 422.811043 
L 78.68142 413.843221 
L 201.446027 413.843221 
z
"/>
   </g>
   <g id="patch_6">
    <path clip-path="url(#pae4d0e3633)" d="M 201.446027 404.8754 
L 79.0183 404.8754 
L 79.0183 395.907579 
L 201.446027 395.907579 
z
"/>
   </g>
   <g id="patch_7">
    <path clip-path="url(#pae4d0e3633)" d="M 201.446027 386.939757 
L 121.121777 386.939757 
L 121.121777 377.971936 
L 201.446027 377.971936 
z
"/>
   </g>
   <g id="patch_8">
    <path clip-path="url(#pae4d0e3633)" d="M 201.446027 369.004115 
L 161.118157 369.004115 
L 161.118157 360.036293 
L 201.446027 360.036293 
z
"/>
   </g>
   <g id="patch_9">
    <path clip-path="url(#pae4d0e3633)" d="M 201.446027 351.068472 
L 174.928485 351.068472 
L 174.928485 342.100651 
L 201.446027 342.100651 
z
"/>
   </g>
   <g id="patch_10">
    <path clip-path="url(#pae4d0e3633)" d="M 201.446027 333.132829 
L 187.517814 333.132829 
L 187.517814 324.165008 
L 201.446027 324.165008 
z
"/>
   </g>
   <g id="patch_11">
    <path d="M 7.2 487.2 
L 201.446027 487.2 
" style="fill:none;stroke:#cccccc;stroke-linecap:square;stroke-linejoin:miter;"/>
   </g>
  </g>
  <g id="axes_3">
   <g id="patch_12">
    <path d="M 482.023622 303.370213 
L 805.767 303.370213 
L 805.767 7.2 
L 482.023622 7.2 
z
" style="fill:#ffffff;"/>
   </g>
   <g id="matplotlib.axis_3">
    <g id="ytick_10">
     <g id="line2d_23"/>
     <g id="text_14">
      <!-- 0 -->
      <g style="fill:#262626;" transform="translate(472.962684 306.949119)scale(0.1 -0.1)">
       <use xlink:href="#ArialMT-48"/>
      </g>
     </g>
    </g>
    <g id="ytick_11">
     <g id="line2d_24"/>
     <g id="text_15">
      <!-- 500000 -->
      <defs>
       <path d="M 4.15625 18.75 
L 13.375 19.53125 
Q 14.40625 12.796875 18.140625 9.390625 
Q 21.875 6 27.15625 6 
Q 33.5 6 37.890625 10.78125 
Q 42.28125 15.578125 42.28125 23.484375 
Q 42.28125 31 38.0625 35.34375 
Q 33.84375 39.703125 27 39.703125 
Q 22.75 39.703125 19.328125 37.765625 
Q 15.921875 35.84375 13.96875 32.765625 
L 5.71875 33.84375 
L 12.640625 70.609375 
L 48.25 70.609375 
L 48.25 62.203125 
L 19.671875 62.203125 
L 15.828125 42.96875 
Q 22.265625 47.46875 29.34375 47.46875 
Q 38.71875 47.46875 45.15625 40.96875 
Q 51.609375 34.46875 51.609375 24.265625 
Q 51.609375 14.546875 45.953125 7.46875 
Q 39.0625 -1.21875 27.15625 -1.21875 
Q 17.390625 -1.21875 11.203125 4.25 
Q 5.03125 9.71875 4.15625 18.75 
z
" id="ArialMT-53"/>
      </defs>
      <g style="fill:#262626;" transform="translate(445.157997 250.011463)scale(0.1 -0.1)">
       <use xlink:href="#ArialMT-53"/>
       <use x="55.615234" xlink:href="#ArialMT-48"/>
       <use x="111.230469" xlink:href="#ArialMT-48"/>
       <use x="166.845703" xlink:href="#ArialMT-48"/>
       <use x="222.460938" xlink:href="#ArialMT-48"/>
       <use x="278.076172" xlink:href="#ArialMT-48"/>
      </g>
     </g>
    </g>
    <g id="ytick_12">
     <g id="line2d_25"/>
     <g id="text_16">
      <!-- 1000000 -->
      <g style="fill:#262626;" transform="translate(439.597059 193.073807)scale(0.1 -0.1)">
       <use xlink:href="#ArialMT-49"/>
       <use x="55.615234" xlink:href="#ArialMT-48"/>
       <use x="111.230469" xlink:href="#ArialMT-48"/>
       <use x="166.845703" xlink:href="#ArialMT-48"/>
       <use x="222.460938" xlink:href="#ArialMT-48"/>
       <use x="278.076172" xlink:href="#ArialMT-48"/>
       <use x="333.691406" xlink:href="#ArialMT-48"/>
      </g>
     </g>
    </g>
    <g id="ytick_13">
     <g id="line2d_26"/>
     <g id="text_17">
      <!-- 1500000 -->
      <g style="fill:#262626;" transform="translate(439.597059 136.136152)scale(0.1 -0.1)">
       <use xlink:href="#ArialMT-49"/>
       <use x="55.615234" xlink:href="#ArialMT-53"/>
       <use x="111.230469" xlink:href="#ArialMT-48"/>
       <use x="166.845703" xlink:href="#ArialMT-48"/>
       <use x="222.460938" xlink:href="#ArialMT-48"/>
       <use x="278.076172" xlink:href="#ArialMT-48"/>
       <use x="333.691406" xlink:href="#ArialMT-48"/>
      </g>
     </g>
    </g>
    <g id="ytick_14">
     <g id="line2d_27"/>
     <g id="text_18">
      <!-- 2000000 -->
      <g style="fill:#262626;" transform="translate(439.597059 79.198496)scale(0.1 -0.1)">
       <use xlink:href="#ArialMT-50"/>
       <use x="55.615234" xlink:href="#ArialMT-48"/>
       <use x="111.230469" xlink:href="#ArialMT-48"/>
       <use x="166.845703" xlink:href="#ArialMT-48"/>
       <use x="222.460938" xlink:href="#ArialMT-48"/>
       <use x="278.076172" xlink:href="#ArialMT-48"/>
       <use x="333.691406" xlink:href="#ArialMT-48"/>
      </g>
     </g>
    </g>
    <g id="ytick_15">
     <g id="line2d_28"/>
     <g id="text_19">
      <!-- 2500000 -->
      <g style="fill:#262626;" transform="translate(439.597059 22.26084)scale(0.1 -0.1)">
       <use xlink:href="#ArialMT-50"/>
       <use x="55.615234" xlink:href="#ArialMT-53"/>
       <use x="111.230469" xlink:href="#ArialMT-48"/>
       <use x="166.845703" xlink:href="#ArialMT-48"/>
       <use x="222.460938" xlink:href="#ArialMT-48"/>
       <use x="278.076172" xlink:href="#ArialMT-48"/>
       <use x="333.691406" xlink:href="#ArialMT-48"/>
      </g>
     </g>
    </g>
    <g id="text_20">
     <!-- Intersection size -->
     <defs>
      <path d="M 1.953125 0 
L 1.953125 7.125 
L 34.96875 45.015625 
Q 29.34375 44.734375 25.046875 44.734375 
L 3.90625 44.734375 
L 3.90625 51.859375 
L 46.296875 51.859375 
L 46.296875 46.046875 
L 18.21875 13.140625 
L 12.796875 7.125 
Q 18.703125 7.5625 23.875 7.5625 
L 47.859375 7.5625 
L 47.859375 0 
z
" id="ArialMT-122"/>
     </defs>
     <g style="fill:#262626;" transform="translate(433.609559 191.410888)rotate(-90)scale(0.1 -0.1)">
      <use xlink:href="#ArialMT-73"/>
      <use x="27.783203" xlink:href="#ArialMT-110"/>
      <use x="83.398438" xlink:href="#ArialMT-116"/>
      <use x="111.181641" xlink:href="#ArialMT-101"/>
      <use x="166.796875" xlink:href="#ArialMT-114"/>
      <use x="200.097656" xlink:href="#ArialMT-115"/>
      <use x="250.097656" xlink:href="#ArialMT-101"/>
      <use x="305.712891" xlink:href="#ArialMT-99"/>
      <use x="355.712891" xlink:href="#ArialMT-116"/>
      <use x="383.496094" xlink:href="#ArialMT-105"/>
      <use x="405.712891" xlink:href="#ArialMT-111"/>
      <use x="461.328125" xlink:href="#ArialMT-110"/>
      <use x="516.943359" xlink:href="#ArialMT-32"/>
      <use x="544.726562" xlink:href="#ArialMT-115"/>
      <use x="594.726562" xlink:href="#ArialMT-105"/>
      <use x="616.943359" xlink:href="#ArialMT-122"/>
      <use x="666.943359" xlink:href="#ArialMT-101"/>
     </g>
    </g>
   </g>
   <g id="patch_13">
    <path d="M 482.023622 303.370213 
L 482.023622 7.2 
" style="fill:none;stroke:#cccccc;stroke-linecap:square;stroke-linejoin:miter;"/>
   </g>
   <g id="patch_14">
    <path clip-path="url(#p32be4fc14a)" d="M 496.73923 303.370213 
L 506.887925 303.370213 
L 506.887925 21.303343 
L 496.73923 21.303343 
z
"/>
   </g>
   <g id="patch_15">
    <path clip-path="url(#p32be4fc14a)" d="M 517.03662 303.370213 
L 527.185315 303.370213 
L 527.185315 215.51484 
L 517.03662 215.51484 
z
"/>
   </g>
   <g id="patch_16">
    <path clip-path="url(#p32be4fc14a)" d="M 537.334011 303.370213 
L 547.482706 303.370213 
L 547.482706 219.708413 
L 537.334011 219.708413 
z
"/>
   </g>
   <g id="patch_17">
    <path clip-path="url(#p32be4fc14a)" d="M 557.631401 303.370213 
L 567.780096 303.370213 
L 567.780096 220.68831 
L 557.631401 220.68831 
z
"/>
   </g>
   <g id="patch_18">
    <path clip-path="url(#p32be4fc14a)" d="M 577.928792 303.370213 
L 588.077487 303.370213 
L 588.077487 227.598719 
L 577.928792 227.598719 
z
"/>
   </g>
   <g id="patch_19">
    <path clip-path="url(#p32be4fc14a)" d="M 598.226182 303.370213 
L 608.374877 303.370213 
L 608.374877 229.237954 
L 598.226182 229.237954 
z
"/>
   </g>
   <g id="patch_20">
    <path clip-path="url(#p32be4fc14a)" d="M 618.523573 303.370213 
L 628.672268 303.370213 
L 628.672268 237.577271 
L 618.523573 237.577271 
z
"/>
   </g>
   <g id="patch_21">
    <path clip-path="url(#p32be4fc14a)" d="M 638.820963 303.370213 
L 648.969658 303.370213 
L 648.969658 248.476505 
L 638.820963 248.476505 
z
"/>
   </g>
   <g id="patch_22">
    <path clip-path="url(#p32be4fc14a)" d="M 659.118354 303.370213 
L 669.267049 303.370213 
L 669.267049 249.309503 
L 659.118354 249.309503 
z
"/>
   </g>
   <g id="patch_23">
    <path clip-path="url(#p32be4fc14a)" d="M 679.415744 303.370213 
L 689.564439 303.370213 
L 689.564439 251.340014 
L 679.415744 251.340014 
z
"/>
   </g>
   <g id="patch_24">
    <path clip-path="url(#p32be4fc14a)" d="M 699.713135 303.370213 
L 709.86183 303.370213 
L 709.86183 256.945412 
L 699.713135 256.945412 
z
"/>
   </g>
   <g id="patch_25">
    <path clip-path="url(#p32be4fc14a)" d="M 720.010525 303.370213 
L 730.15922 303.370213 
L 730.15922 257.245929 
L 720.010525 257.245929 
z
"/>
   </g>
   <g id="patch_26">
    <path clip-path="url(#p32be4fc14a)" d="M 740.307916 303.370213 
L 750.456611 303.370213 
L 750.456611 262.447867 
L 740.307916 262.447867 
z
"/>
   </g>
   <g id="patch_27">
    <path clip-path="url(#p32be4fc14a)" d="M 760.605306 303.370213 
L 770.754001 303.370213 
L 770.754001 266.012164 
L 760.605306 266.012164 
z
"/>
   </g>
   <g id="patch_28">
    <path clip-path="url(#p32be4fc14a)" d="M 780.902697 303.370213 
L 791.051392 303.370213 
L 791.051392 274.537553 
L 780.902697 274.537553 
z
"/>
   </g>
  </g>
  <g id="text_21">
   <!-- Set size -->
   <defs>
    <path d="M 4.5 23 
L 13.421875 23.78125 
Q 14.0625 18.40625 16.375 14.96875 
Q 18.703125 11.53125 23.578125 9.40625 
Q 28.46875 7.28125 34.578125 7.28125 
Q 39.984375 7.28125 44.140625 8.890625 
Q 48.296875 10.5 50.3125 13.296875 
Q 52.34375 16.109375 52.34375 19.4375 
Q 52.34375 22.796875 50.390625 25.3125 
Q 48.4375 27.828125 43.953125 29.546875 
Q 41.0625 30.671875 31.203125 33.03125 
Q 21.34375 35.40625 17.390625 37.5 
Q 12.25 40.1875 9.734375 44.15625 
Q 7.234375 48.140625 7.234375 53.078125 
Q 7.234375 58.5 10.296875 63.203125 
Q 13.375 67.921875 19.28125 70.359375 
Q 25.203125 72.796875 32.421875 72.796875 
Q 40.375 72.796875 46.453125 70.234375 
Q 52.546875 67.671875 55.8125 62.6875 
Q 59.078125 57.71875 59.328125 51.421875 
L 50.25 50.734375 
Q 49.515625 57.515625 45.28125 60.984375 
Q 41.0625 64.453125 32.8125 64.453125 
Q 24.21875 64.453125 20.28125 61.296875 
Q 16.359375 58.15625 16.359375 53.71875 
Q 16.359375 49.859375 19.140625 47.359375 
Q 21.875 44.875 33.421875 42.265625 
Q 44.96875 39.65625 49.265625 37.703125 
Q 55.515625 34.8125 58.484375 30.390625 
Q 61.46875 25.984375 61.46875 20.21875 
Q 61.46875 14.5 58.203125 9.4375 
Q 54.9375 4.390625 48.796875 1.578125 
Q 42.671875 -1.21875 35.015625 -1.21875 
Q 25.296875 -1.21875 18.71875 1.609375 
Q 12.15625 4.4375 8.421875 10.125 
Q 4.6875 15.828125 4.5 23 
z
" id="ArialMT-83"/>
   </defs>
   <g style="fill:#262626;" transform="translate(62.011844 520.8)scale(0.1 -0.1)">
    <use xlink:href="#ArialMT-83"/>
    <use x="66.699219" xlink:href="#ArialMT-101"/>
    <use x="122.314453" xlink:href="#ArialMT-116"/>
    <use x="150.097656" xlink:href="#ArialMT-32"/>
    <use x="177.880859" xlink:href="#ArialMT-115"/>
    <use x="227.880859" xlink:href="#ArialMT-105"/>
    <use x="250.097656" xlink:href="#ArialMT-122"/>
    <use x="300.097656" xlink:href="#ArialMT-101"/>
   </g>
  </g>
 </g>
 <defs>
  <clipPath id="p54f48074ee">
   <rect height="173.617021" width="323.743378" x="482.023622" y="313.582979"/>
  </clipPath>
  <clipPath id="pae4d0e3633">
   <rect height="173.617021" width="194.246027" x="7.2" y="313.582979"/>
  </clipPath>
  <clipPath id="p32be4fc14a">
   <rect height="296.170213" width="323.743378" x="482.023622" y="7.2"/>
  </clipPath>
 </defs>
</svg>
