<?xml version="1.0" encoding="utf-8" standalone="no"?>
<!DOCTYPE svg PUBLIC "-//W3C//DTD SVG 1.1//EN"
  "http://www.w3.org/Graphics/SVG/1.1/DTD/svg11.dtd">
<!-- Created with matplotlib (https://matplotlib.org/) -->
<svg height="325.953pt" version="1.1" viewBox="0 0 885.921665 325.953" width="885.921665pt" xmlns="http://www.w3.org/2000/svg" xmlns:xlink="http://www.w3.org/1999/xlink">
 <defs>
  <style type="text/css">
*{stroke-linecap:butt;stroke-linejoin:round;}
  </style>
 </defs>
 <g id="figure_1">
  <g id="patch_1">
   <path d="M 0 325.953 
L 885.921665 325.953 
L 885.921665 0 
L 0 0 
z
" style="fill:#ffffff;"/>
  </g>
  <g id="axes_1">
   <g id="matplotlib.axis_1">
    <g id="xtick_1">
     <g id="line2d_1"/>
     <g id="text_1">
      <!-- 2008 -->
      <defs>
       <path d="M 50.34375 8.453125 
L 50.34375 0 
L 3.03125 0 
Q 2.9375 3.171875 4.046875 6.109375 
Q 5.859375 10.9375 9.828125 15.625 
Q 13.8125 20.3125 21.34375 26.46875 
Q 33.015625 36.03125 37.109375 41.625 
Q 41.21875 47.21875 41.21875 52.203125 
Q 41.21875 57.421875 37.46875 61 
Q 33.734375 64.59375 27.734375 64.59375 
Q 21.390625 64.59375 17.578125 60.78125 
Q 13.765625 56.984375 13.71875 50.25 
L 4.6875 51.171875 
Q 5.609375 61.28125 11.65625 66.578125 
Q 17.71875 71.875 27.9375 71.875 
Q 38.234375 71.875 44.234375 66.15625 
Q 50.25 60.453125 50.25 52 
Q 50.25 47.703125 48.484375 43.546875 
Q 46.734375 39.40625 42.65625 34.8125 
Q 38.578125 30.21875 29.109375 22.21875 
Q 21.1875 15.578125 18.9375 13.203125 
Q 16.703125 10.84375 15.234375 8.453125 
z
" id="ArialMT-50"/>
       <path d="M 4.15625 35.296875 
Q 4.15625 48 6.765625 55.734375 
Q 9.375 63.484375 14.515625 67.671875 
Q 19.671875 71.875 27.484375 71.875 
Q 33.25 71.875 37.59375 69.546875 
Q 41.9375 67.234375 44.765625 62.859375 
Q 47.609375 58.5 49.21875 52.21875 
Q 50.828125 45.953125 50.828125 35.296875 
Q 50.828125 22.703125 48.234375 14.96875 
Q 45.65625 7.234375 40.5 3 
Q 35.359375 -1.21875 27.484375 -1.21875 
Q 17.140625 -1.21875 11.234375 6.203125 
Q 4.15625 15.140625 4.15625 35.296875 
z
M 13.1875 35.296875 
Q 13.1875 17.671875 17.3125 11.828125 
Q 21.4375 6 27.484375 6 
Q 33.546875 6 37.671875 11.859375 
Q 41.796875 17.71875 41.796875 35.296875 
Q 41.796875 52.984375 37.671875 58.78125 
Q 33.546875 64.59375 27.390625 64.59375 
Q 21.34375 64.59375 17.71875 59.46875 
Q 13.1875 52.9375 13.1875 35.296875 
z
" id="ArialMT-48"/>
       <path d="M 17.671875 38.8125 
Q 12.203125 40.828125 9.5625 44.53125 
Q 6.9375 48.25 6.9375 53.421875 
Q 6.9375 61.234375 12.546875 66.546875 
Q 18.171875 71.875 27.484375 71.875 
Q 36.859375 71.875 42.578125 66.421875 
Q 48.296875 60.984375 48.296875 53.171875 
Q 48.296875 48.1875 45.671875 44.5 
Q 43.0625 40.828125 37.75 38.8125 
Q 44.34375 36.671875 47.78125 31.875 
Q 51.21875 27.09375 51.21875 20.453125 
Q 51.21875 11.28125 44.71875 5.03125 
Q 38.234375 -1.21875 27.640625 -1.21875 
Q 17.046875 -1.21875 10.546875 5.046875 
Q 4.046875 11.328125 4.046875 20.703125 
Q 4.046875 27.6875 7.59375 32.390625 
Q 11.140625 37.109375 17.671875 38.8125 
z
M 15.921875 53.71875 
Q 15.921875 48.640625 19.1875 45.40625 
Q 22.46875 42.1875 27.6875 42.1875 
Q 32.765625 42.1875 36.015625 45.375 
Q 39.265625 48.578125 39.265625 53.21875 
Q 39.265625 58.0625 35.90625 61.359375 
Q 32.5625 64.65625 27.59375 64.65625 
Q 22.5625 64.65625 19.234375 61.421875 
Q 15.921875 58.203125 15.921875 53.71875 
z
M 13.09375 20.65625 
Q 13.09375 16.890625 14.875 13.375 
Q 16.65625 9.859375 20.171875 7.921875 
Q 23.6875 6 27.734375 6 
Q 34.03125 6 38.125 10.046875 
Q 42.234375 14.109375 42.234375 20.359375 
Q 42.234375 26.703125 38.015625 30.859375 
Q 33.796875 35.015625 27.4375 35.015625 
Q 21.234375 35.015625 17.15625 30.90625 
Q 13.09375 26.8125 13.09375 20.65625 
z
" id="ArialMT-56"/>
      </defs>
      <g style="fill:#262626;" transform="translate(83.189324 295.397812)scale(0.1 -0.1)">
       <use xlink:href="#ArialMT-50"/>
       <use x="55.615234" xlink:href="#ArialMT-48"/>
       <use x="111.230469" xlink:href="#ArialMT-48"/>
       <use x="166.845703" xlink:href="#ArialMT-56"/>
      </g>
     </g>
    </g>
    <g id="xtick_2">
     <g id="line2d_2"/>
     <g id="text_2">
      <!-- 2010 -->
      <defs>
       <path d="M 37.25 0 
L 28.46875 0 
L 28.46875 56 
Q 25.296875 52.984375 20.140625 49.953125 
Q 14.984375 46.921875 10.890625 45.40625 
L 10.890625 53.90625 
Q 18.265625 57.375 23.78125 62.296875 
Q 29.296875 67.234375 31.59375 71.875 
L 37.25 71.875 
z
" id="ArialMT-49"/>
      </defs>
      <g style="fill:#262626;" transform="translate(116.464473 295.397812)scale(0.1 -0.1)">
       <use xlink:href="#ArialMT-50"/>
       <use x="55.615234" xlink:href="#ArialMT-48"/>
       <use x="111.230469" xlink:href="#ArialMT-49"/>
       <use x="166.845703" xlink:href="#ArialMT-48"/>
      </g>
     </g>
    </g>
    <g id="xtick_3">
     <g id="line2d_3"/>
     <g id="text_3">
      <!-- 2012 -->
      <g style="fill:#262626;" transform="translate(149.739622 295.397812)scale(0.1 -0.1)">
       <use xlink:href="#ArialMT-50"/>
       <use x="55.615234" xlink:href="#ArialMT-48"/>
       <use x="111.230469" xlink:href="#ArialMT-49"/>
       <use x="166.845703" xlink:href="#ArialMT-50"/>
      </g>
     </g>
    </g>
    <g id="xtick_4">
     <g id="line2d_4"/>
     <g id="text_4">
      <!-- 2014 -->
      <defs>
       <path d="M 32.328125 0 
L 32.328125 17.140625 
L 1.265625 17.140625 
L 1.265625 25.203125 
L 33.9375 71.578125 
L 41.109375 71.578125 
L 41.109375 25.203125 
L 50.78125 25.203125 
L 50.78125 17.140625 
L 41.109375 17.140625 
L 41.109375 0 
z
M 32.328125 25.203125 
L 32.328125 57.46875 
L 9.90625 25.203125 
z
" id="ArialMT-52"/>
      </defs>
      <g style="fill:#262626;" transform="translate(183.014771 295.397812)scale(0.1 -0.1)">
       <use xlink:href="#ArialMT-50"/>
       <use x="55.615234" xlink:href="#ArialMT-48"/>
       <use x="111.230469" xlink:href="#ArialMT-49"/>
       <use x="166.845703" xlink:href="#ArialMT-52"/>
      </g>
     </g>
    </g>
    <g id="xtick_5">
     <g id="line2d_5"/>
     <g id="text_5">
      <!-- 2016 -->
      <defs>
       <path d="M 49.75 54.046875 
L 41.015625 53.375 
Q 39.84375 58.546875 37.703125 60.890625 
Q 34.125 64.65625 28.90625 64.65625 
Q 24.703125 64.65625 21.53125 62.3125 
Q 17.390625 59.28125 14.984375 53.46875 
Q 12.59375 47.65625 12.5 36.921875 
Q 15.671875 41.75 20.265625 44.09375 
Q 24.859375 46.4375 29.890625 46.4375 
Q 38.671875 46.4375 44.84375 39.96875 
Q 51.03125 33.5 51.03125 23.25 
Q 51.03125 16.5 48.125 10.71875 
Q 45.21875 4.9375 40.140625 1.859375 
Q 35.0625 -1.21875 28.609375 -1.21875 
Q 17.625 -1.21875 10.6875 6.859375 
Q 3.765625 14.9375 3.765625 33.5 
Q 3.765625 54.25 11.421875 63.671875 
Q 18.109375 71.875 29.4375 71.875 
Q 37.890625 71.875 43.28125 67.140625 
Q 48.6875 62.40625 49.75 54.046875 
z
M 13.875 23.1875 
Q 13.875 18.65625 15.796875 14.5 
Q 17.71875 10.359375 21.1875 8.171875 
Q 24.65625 6 28.46875 6 
Q 34.03125 6 38.03125 10.484375 
Q 42.046875 14.984375 42.046875 22.703125 
Q 42.046875 30.125 38.078125 34.390625 
Q 34.125 38.671875 28.125 38.671875 
Q 22.171875 38.671875 18.015625 34.390625 
Q 13.875 30.125 13.875 23.1875 
z
" id="ArialMT-54"/>
      </defs>
      <g style="fill:#262626;" transform="translate(216.28992 295.397812)scale(0.1 -0.1)">
       <use xlink:href="#ArialMT-50"/>
       <use x="55.615234" xlink:href="#ArialMT-48"/>
       <use x="111.230469" xlink:href="#ArialMT-49"/>
       <use x="166.845703" xlink:href="#ArialMT-54"/>
      </g>
     </g>
    </g>
    <g id="xtick_6">
     <g id="line2d_6"/>
     <g id="text_6">
      <!-- 2018 -->
      <g style="fill:#262626;" transform="translate(249.565069 295.397812)scale(0.1 -0.1)">
       <use xlink:href="#ArialMT-50"/>
       <use x="55.615234" xlink:href="#ArialMT-48"/>
       <use x="111.230469" xlink:href="#ArialMT-49"/>
       <use x="166.845703" xlink:href="#ArialMT-56"/>
      </g>
     </g>
    </g>
   </g>
   <g id="matplotlib.axis_2">
    <g id="ytick_1">
     <g id="line2d_7">
      <path clip-path="url(#pb8dea727dc)" d="M 77.84 284.74 
L 293.795717 284.74 
" style="fill:none;stroke:#cccccc;stroke-linecap:round;stroke-width:0.8;"/>
     </g>
     <g id="line2d_8"/>
     <g id="text_7">
      <!-- 0 -->
      <g style="fill:#262626;" transform="translate(68.779063 288.318906)scale(0.1 -0.1)">
       <use xlink:href="#ArialMT-48"/>
      </g>
     </g>
    </g>
    <g id="ytick_2">
     <g id="line2d_9">
      <path clip-path="url(#pb8dea727dc)" d="M 77.84 257.732706 
L 293.795717 257.732706 
" style="fill:none;stroke:#cccccc;stroke-linecap:round;stroke-width:0.8;"/>
     </g>
     <g id="line2d_10"/>
     <g id="text_8">
      <!-- 250000 -->
      <defs>
       <path d="M 4.15625 18.75 
L 13.375 19.53125 
Q 14.40625 12.796875 18.140625 9.390625 
Q 21.875 6 27.15625 6 
Q 33.5 6 37.890625 10.78125 
Q 42.28125 15.578125 42.28125 23.484375 
Q 42.28125 31 38.0625 35.34375 
Q 33.84375 39.703125 27 39.703125 
Q 22.75 39.703125 19.328125 37.765625 
Q 15.921875 35.84375 13.96875 32.765625 
L 5.71875 33.84375 
L 12.640625 70.609375 
L 48.25 70.609375 
L 48.25 62.203125 
L 19.671875 62.203125 
L 15.828125 42.96875 
Q 22.265625 47.46875 29.34375 47.46875 
Q 38.71875 47.46875 45.15625 40.96875 
Q 51.609375 34.46875 51.609375 24.265625 
Q 51.609375 14.546875 45.953125 7.46875 
Q 39.0625 -1.21875 27.15625 -1.21875 
Q 17.390625 -1.21875 11.203125 4.25 
Q 5.03125 9.71875 4.15625 18.75 
z
" id="ArialMT-53"/>
      </defs>
      <g style="fill:#262626;" transform="translate(40.974375 261.311613)scale(0.1 -0.1)">
       <use xlink:href="#ArialMT-50"/>
       <use x="55.615234" xlink:href="#ArialMT-53"/>
       <use x="111.230469" xlink:href="#ArialMT-48"/>
       <use x="166.845703" xlink:href="#ArialMT-48"/>
       <use x="222.460938" xlink:href="#ArialMT-48"/>
       <use x="278.076172" xlink:href="#ArialMT-48"/>
      </g>
     </g>
    </g>
    <g id="ytick_3">
     <g id="line2d_11">
      <path clip-path="url(#pb8dea727dc)" d="M 77.84 230.725413 
L 293.795717 230.725413 
" style="fill:none;stroke:#cccccc;stroke-linecap:round;stroke-width:0.8;"/>
     </g>
     <g id="line2d_12"/>
     <g id="text_9">
      <!-- 500000 -->
      <g style="fill:#262626;" transform="translate(40.974375 234.304319)scale(0.1 -0.1)">
       <use xlink:href="#ArialMT-53"/>
       <use x="55.615234" xlink:href="#ArialMT-48"/>
       <use x="111.230469" xlink:href="#ArialMT-48"/>
       <use x="166.845703" xlink:href="#ArialMT-48"/>
       <use x="222.460938" xlink:href="#ArialMT-48"/>
       <use x="278.076172" xlink:href="#ArialMT-48"/>
      </g>
     </g>
    </g>
    <g id="ytick_4">
     <g id="line2d_13">
      <path clip-path="url(#pb8dea727dc)" d="M 77.84 203.718119 
L 293.795717 203.718119 
" style="fill:none;stroke:#cccccc;stroke-linecap:round;stroke-width:0.8;"/>
     </g>
     <g id="line2d_14"/>
     <g id="text_10">
      <!-- 750000 -->
      <defs>
       <path d="M 4.734375 62.203125 
L 4.734375 70.65625 
L 51.078125 70.65625 
L 51.078125 63.8125 
Q 44.234375 56.546875 37.515625 44.484375 
Q 30.8125 32.421875 27.15625 19.671875 
Q 24.515625 10.6875 23.78125 0 
L 14.75 0 
Q 14.890625 8.453125 18.0625 20.40625 
Q 21.234375 32.375 27.171875 43.484375 
Q 33.109375 54.59375 39.796875 62.203125 
z
" id="ArialMT-55"/>
      </defs>
      <g style="fill:#262626;" transform="translate(40.974375 207.297025)scale(0.1 -0.1)">
       <use xlink:href="#ArialMT-55"/>
       <use x="55.615234" xlink:href="#ArialMT-53"/>
       <use x="111.230469" xlink:href="#ArialMT-48"/>
       <use x="166.845703" xlink:href="#ArialMT-48"/>
       <use x="222.460938" xlink:href="#ArialMT-48"/>
       <use x="278.076172" xlink:href="#ArialMT-48"/>
      </g>
     </g>
    </g>
    <g id="ytick_5">
     <g id="line2d_15">
      <path clip-path="url(#pb8dea727dc)" d="M 77.84 176.710826 
L 293.795717 176.710826 
" style="fill:none;stroke:#cccccc;stroke-linecap:round;stroke-width:0.8;"/>
     </g>
     <g id="line2d_16"/>
     <g id="text_11">
      <!-- 1000000 -->
      <g style="fill:#262626;" transform="translate(35.413438 180.289732)scale(0.1 -0.1)">
       <use xlink:href="#ArialMT-49"/>
       <use x="55.615234" xlink:href="#ArialMT-48"/>
       <use x="111.230469" xlink:href="#ArialMT-48"/>
       <use x="166.845703" xlink:href="#ArialMT-48"/>
       <use x="222.460938" xlink:href="#ArialMT-48"/>
       <use x="278.076172" xlink:href="#ArialMT-48"/>
       <use x="333.691406" xlink:href="#ArialMT-48"/>
      </g>
     </g>
    </g>
    <g id="ytick_6">
     <g id="line2d_17">
      <path clip-path="url(#pb8dea727dc)" d="M 77.84 149.703532 
L 293.795717 149.703532 
" style="fill:none;stroke:#cccccc;stroke-linecap:round;stroke-width:0.8;"/>
     </g>
     <g id="line2d_18"/>
     <g id="text_12">
      <!-- 1250000 -->
      <g style="fill:#262626;" transform="translate(35.413438 153.282438)scale(0.1 -0.1)">
       <use xlink:href="#ArialMT-49"/>
       <use x="55.615234" xlink:href="#ArialMT-50"/>
       <use x="111.230469" xlink:href="#ArialMT-53"/>
       <use x="166.845703" xlink:href="#ArialMT-48"/>
       <use x="222.460938" xlink:href="#ArialMT-48"/>
       <use x="278.076172" xlink:href="#ArialMT-48"/>
       <use x="333.691406" xlink:href="#ArialMT-48"/>
      </g>
     </g>
    </g>
    <g id="ytick_7">
     <g id="line2d_19">
      <path clip-path="url(#pb8dea727dc)" d="M 77.84 122.696238 
L 293.795717 122.696238 
" style="fill:none;stroke:#cccccc;stroke-linecap:round;stroke-width:0.8;"/>
     </g>
     <g id="line2d_20"/>
     <g id="text_13">
      <!-- 1500000 -->
      <g style="fill:#262626;" transform="translate(35.413438 126.275145)scale(0.1 -0.1)">
       <use xlink:href="#ArialMT-49"/>
       <use x="55.615234" xlink:href="#ArialMT-53"/>
       <use x="111.230469" xlink:href="#ArialMT-48"/>
       <use x="166.845703" xlink:href="#ArialMT-48"/>
       <use x="222.460938" xlink:href="#ArialMT-48"/>
       <use x="278.076172" xlink:href="#ArialMT-48"/>
       <use x="333.691406" xlink:href="#ArialMT-48"/>
      </g>
     </g>
    </g>
    <g id="ytick_8">
     <g id="line2d_21">
      <path clip-path="url(#pb8dea727dc)" d="M 77.84 95.688945 
L 293.795717 95.688945 
" style="fill:none;stroke:#cccccc;stroke-linecap:round;stroke-width:0.8;"/>
     </g>
     <g id="line2d_22"/>
     <g id="text_14">
      <!-- 1750000 -->
      <g style="fill:#262626;" transform="translate(35.413438 99.267851)scale(0.1 -0.1)">
       <use xlink:href="#ArialMT-49"/>
       <use x="55.615234" xlink:href="#ArialMT-55"/>
       <use x="111.230469" xlink:href="#ArialMT-53"/>
       <use x="166.845703" xlink:href="#ArialMT-48"/>
       <use x="222.460938" xlink:href="#ArialMT-48"/>
       <use x="278.076172" xlink:href="#ArialMT-48"/>
       <use x="333.691406" xlink:href="#ArialMT-48"/>
      </g>
     </g>
    </g>
    <g id="ytick_9">
     <g id="line2d_23">
      <path clip-path="url(#pb8dea727dc)" d="M 77.84 68.681651 
L 293.795717 68.681651 
" style="fill:none;stroke:#cccccc;stroke-linecap:round;stroke-width:0.8;"/>
     </g>
     <g id="line2d_24"/>
     <g id="text_15">
      <!-- 2000000 -->
      <g style="fill:#262626;" transform="translate(35.413438 72.260557)scale(0.1 -0.1)">
       <use xlink:href="#ArialMT-50"/>
       <use x="55.615234" xlink:href="#ArialMT-48"/>
       <use x="111.230469" xlink:href="#ArialMT-48"/>
       <use x="166.845703" xlink:href="#ArialMT-48"/>
       <use x="222.460938" xlink:href="#ArialMT-48"/>
       <use x="278.076172" xlink:href="#ArialMT-48"/>
       <use x="333.691406" xlink:href="#ArialMT-48"/>
      </g>
     </g>
    </g>
   </g>
   <g id="patch_2">
    <path clip-path="url(#pb8dea727dc)" d="M 87.656169 284.74 
L 100.966229 284.74 
L 100.966229 218.186575 
L 87.656169 218.186575 
z
" style="fill:#b3b3b3;fill-opacity:0.627451;"/>
   </g>
   <g id="patch_3">
    <path clip-path="url(#pb8dea727dc)" d="M 104.293743 284.74 
L 117.603803 284.74 
L 117.603803 209.428001 
L 104.293743 209.428001 
z
" style="fill:#b3b3b3;fill-opacity:0.627451;"/>
   </g>
   <g id="patch_4">
    <path clip-path="url(#pb8dea727dc)" d="M 120.931318 284.74 
L 134.241378 284.74 
L 134.241378 199.443945 
L 120.931318 199.443945 
z
" style="fill:#b3b3b3;fill-opacity:0.627451;"/>
   </g>
   <g id="patch_5">
    <path clip-path="url(#pb8dea727dc)" d="M 137.568893 284.74 
L 150.878952 284.74 
L 150.878952 188.165267 
L 137.568893 188.165267 
z
" style="fill:#b3b3b3;fill-opacity:0.627451;"/>
   </g>
   <g id="patch_6">
    <path clip-path="url(#pb8dea727dc)" d="M 154.206467 284.74 
L 167.516527 284.74 
L 167.516527 173.898286 
L 154.206467 173.898286 
z
" style="fill:#b3b3b3;fill-opacity:0.627451;"/>
   </g>
   <g id="patch_7">
    <path clip-path="url(#pb8dea727dc)" d="M 170.844042 284.74 
L 184.154101 284.74 
L 184.154101 159.127133 
L 170.844042 159.127133 
z
" style="fill:#b3b3b3;fill-opacity:0.627451;"/>
   </g>
   <g id="patch_8">
    <path clip-path="url(#pb8dea727dc)" d="M 187.481616 284.74 
L 200.791676 284.74 
L 200.791676 144.143919 
L 187.481616 144.143919 
z
" style="fill:#b3b3b3;fill-opacity:0.627451;"/>
   </g>
   <g id="patch_9">
    <path clip-path="url(#pb8dea727dc)" d="M 204.119191 284.74 
L 217.42925 284.74 
L 217.42925 125.190092 
L 204.119191 125.190092 
z
" style="fill:#b3b3b3;fill-opacity:0.627451;"/>
   </g>
   <g id="patch_10">
    <path clip-path="url(#pb8dea727dc)" d="M 220.756765 284.74 
L 234.066825 284.74 
L 234.066825 103.568161 
L 220.756765 103.568161 
z
" style="fill:#b3b3b3;fill-opacity:0.627451;"/>
   </g>
   <g id="patch_11">
    <path clip-path="url(#pb8dea727dc)" d="M 237.39434 284.74 
L 250.704399 284.74 
L 250.704399 78.938049 
L 237.39434 78.938049 
z
" style="fill:#b3b3b3;fill-opacity:0.627451;"/>
   </g>
   <g id="patch_12">
    <path clip-path="url(#pb8dea727dc)" d="M 254.031914 284.74 
L 267.341974 284.74 
L 267.341974 70.701905 
L 254.031914 70.701905 
z
" style="fill:#b3b3b3;fill-opacity:0.627451;"/>
   </g>
   <g id="patch_13">
    <path clip-path="url(#pb8dea727dc)" d="M 270.669489 284.74 
L 283.979548 284.74 
L 283.979548 72.954313 
L 270.669489 72.954313 
z
" style="fill:#b3b3b3;fill-opacity:0.627451;"/>
   </g>
   <g id="patch_14">
    <path clip-path="url(#pb8dea727dc)" d="M 87.656169 284.74 
L 100.966229 284.74 
L 100.966229 251.287794 
L 87.656169 251.287794 
z
" style="fill:#56b4e9;"/>
   </g>
   <g id="patch_15">
    <path clip-path="url(#pb8dea727dc)" d="M 104.293743 284.74 
L 117.603803 284.74 
L 117.603803 246.977754 
L 104.293743 246.977754 
z
" style="fill:#56b4e9;"/>
   </g>
   <g id="patch_16">
    <path clip-path="url(#pb8dea727dc)" d="M 120.931318 284.74 
L 134.241378 284.74 
L 134.241378 242.9272 
L 120.931318 242.9272 
z
" style="fill:#56b4e9;"/>
   </g>
   <g id="patch_17">
    <path clip-path="url(#pb8dea727dc)" d="M 137.568893 284.74 
L 150.878952 284.74 
L 150.878952 236.718655 
L 137.568893 236.718655 
z
" style="fill:#56b4e9;"/>
   </g>
   <g id="patch_18">
    <path clip-path="url(#pb8dea727dc)" d="M 154.206467 284.74 
L 167.516527 284.74 
L 167.516527 230.924403 
L 154.206467 230.924403 
z
" style="fill:#56b4e9;"/>
   </g>
   <g id="patch_19">
    <path clip-path="url(#pb8dea727dc)" d="M 170.844042 284.74 
L 184.154101 284.74 
L 184.154101 225.196372 
L 170.844042 225.196372 
z
" style="fill:#56b4e9;"/>
   </g>
   <g id="patch_20">
    <path clip-path="url(#pb8dea727dc)" d="M 187.481616 284.74 
L 200.791676 284.74 
L 200.791676 217.967491 
L 187.481616 217.967491 
z
" style="fill:#56b4e9;"/>
   </g>
   <g id="patch_21">
    <path clip-path="url(#pb8dea727dc)" d="M 204.119191 284.74 
L 217.42925 284.74 
L 217.42925 204.927938 
L 204.119191 204.927938 
z
" style="fill:#56b4e9;"/>
   </g>
   <g id="patch_22">
    <path clip-path="url(#pb8dea727dc)" d="M 220.756765 284.74 
L 234.066825 284.74 
L 234.066825 192.03336 
L 220.756765 192.03336 
z
" style="fill:#56b4e9;"/>
   </g>
   <g id="patch_23">
    <path clip-path="url(#pb8dea727dc)" d="M 237.39434 284.74 
L 250.704399 284.74 
L 250.704399 178.666046 
L 237.39434 178.666046 
z
" style="fill:#56b4e9;"/>
   </g>
   <g id="patch_24">
    <path clip-path="url(#pb8dea727dc)" d="M 254.031914 284.74 
L 267.341974 284.74 
L 267.341974 172.319656 
L 254.031914 172.319656 
z
" style="fill:#56b4e9;"/>
   </g>
   <g id="patch_25">
    <path clip-path="url(#pb8dea727dc)" d="M 270.669489 284.74 
L 283.979548 284.74 
L 283.979548 170.458097 
L 270.669489 170.458097 
z
" style="fill:#56b4e9;"/>
   </g>
   <g id="text_16">
    <!-- Other Journals -->
    <defs>
     <path d="M 4.828125 34.859375 
Q 4.828125 52.6875 14.390625 62.765625 
Q 23.96875 72.859375 39.109375 72.859375 
Q 49.03125 72.859375 56.984375 68.109375 
Q 64.9375 63.375 69.109375 54.90625 
Q 73.296875 46.4375 73.296875 35.6875 
Q 73.296875 24.8125 68.890625 16.21875 
Q 64.5 7.625 56.4375 3.203125 
Q 48.390625 -1.21875 39.0625 -1.21875 
Q 28.953125 -1.21875 20.984375 3.65625 
Q 13.03125 8.546875 8.921875 16.984375 
Q 4.828125 25.4375 4.828125 34.859375 
z
M 14.59375 34.71875 
Q 14.59375 21.78125 21.546875 14.328125 
Q 28.515625 6.890625 39.015625 6.890625 
Q 49.703125 6.890625 56.609375 14.40625 
Q 63.53125 21.921875 63.53125 35.75 
Q 63.53125 44.484375 60.578125 51 
Q 57.625 57.515625 51.921875 61.109375 
Q 46.234375 64.703125 39.15625 64.703125 
Q 29.109375 64.703125 21.84375 57.78125 
Q 14.59375 50.875 14.59375 34.71875 
z
" id="ArialMT-79"/>
     <path d="M 25.78125 7.859375 
L 27.046875 0.09375 
Q 23.34375 -0.6875 20.40625 -0.6875 
Q 15.625 -0.6875 12.984375 0.828125 
Q 10.359375 2.34375 9.28125 4.8125 
Q 8.203125 7.28125 8.203125 15.1875 
L 8.203125 45.015625 
L 1.765625 45.015625 
L 1.765625 51.859375 
L 8.203125 51.859375 
L 8.203125 64.703125 
L 16.9375 69.96875 
L 16.9375 51.859375 
L 25.78125 51.859375 
L 25.78125 45.015625 
L 16.9375 45.015625 
L 16.9375 14.703125 
Q 16.9375 10.9375 17.40625 9.859375 
Q 17.875 8.796875 18.921875 8.15625 
Q 19.96875 7.515625 21.921875 7.515625 
Q 23.390625 7.515625 25.78125 7.859375 
z
" id="ArialMT-116"/>
     <path d="M 6.59375 0 
L 6.59375 71.578125 
L 15.375 71.578125 
L 15.375 45.90625 
Q 21.53125 53.03125 30.90625 53.03125 
Q 36.671875 53.03125 40.921875 50.75 
Q 45.171875 48.484375 47 44.484375 
Q 48.828125 40.484375 48.828125 32.859375 
L 48.828125 0 
L 40.046875 0 
L 40.046875 32.859375 
Q 40.046875 39.453125 37.1875 42.453125 
Q 34.328125 45.453125 29.109375 45.453125 
Q 25.203125 45.453125 21.75 43.421875 
Q 18.3125 41.40625 16.84375 37.9375 
Q 15.375 34.46875 15.375 28.375 
L 15.375 0 
z
" id="ArialMT-104"/>
     <path d="M 42.09375 16.703125 
L 51.171875 15.578125 
Q 49.03125 7.625 43.21875 3.21875 
Q 37.40625 -1.171875 28.375 -1.171875 
Q 17 -1.171875 10.328125 5.828125 
Q 3.65625 12.84375 3.65625 25.484375 
Q 3.65625 38.578125 10.390625 45.796875 
Q 17.140625 53.03125 27.875 53.03125 
Q 38.28125 53.03125 44.875 45.953125 
Q 51.46875 38.875 51.46875 26.03125 
Q 51.46875 25.25 51.421875 23.6875 
L 12.75 23.6875 
Q 13.234375 15.140625 17.578125 10.59375 
Q 21.921875 6.0625 28.421875 6.0625 
Q 33.25 6.0625 36.671875 8.59375 
Q 40.09375 11.140625 42.09375 16.703125 
z
M 13.234375 30.90625 
L 42.1875 30.90625 
Q 41.609375 37.453125 38.875 40.71875 
Q 34.671875 45.796875 27.984375 45.796875 
Q 21.921875 45.796875 17.796875 41.75 
Q 13.671875 37.703125 13.234375 30.90625 
z
" id="ArialMT-101"/>
     <path d="M 6.5 0 
L 6.5 51.859375 
L 14.40625 51.859375 
L 14.40625 44 
Q 17.4375 49.515625 20 51.265625 
Q 22.5625 53.03125 25.640625 53.03125 
Q 30.078125 53.03125 34.671875 50.203125 
L 31.640625 42.046875 
Q 28.421875 43.953125 25.203125 43.953125 
Q 22.3125 43.953125 20.015625 42.21875 
Q 17.71875 40.484375 16.75 37.40625 
Q 15.28125 32.71875 15.28125 27.15625 
L 15.28125 0 
z
" id="ArialMT-114"/>
     <path id="ArialMT-32"/>
     <path d="M 2.875 20.3125 
L 11.421875 21.484375 
Q 11.765625 13.28125 14.5 10.25 
Q 17.234375 7.234375 22.078125 7.234375 
Q 25.640625 7.234375 28.21875 8.859375 
Q 30.8125 10.5 31.78125 13.296875 
Q 32.765625 16.109375 32.765625 22.265625 
L 32.765625 71.578125 
L 42.234375 71.578125 
L 42.234375 22.796875 
Q 42.234375 13.8125 40.0625 8.875 
Q 37.890625 3.953125 33.171875 1.359375 
Q 28.46875 -1.21875 22.125 -1.21875 
Q 12.703125 -1.21875 7.6875 4.203125 
Q 2.6875 9.625 2.875 20.3125 
z
" id="ArialMT-74"/>
     <path d="M 3.328125 25.921875 
Q 3.328125 40.328125 11.328125 47.265625 
Q 18.015625 53.03125 27.640625 53.03125 
Q 38.328125 53.03125 45.109375 46.015625 
Q 51.90625 39.015625 51.90625 26.65625 
Q 51.90625 16.65625 48.90625 10.90625 
Q 45.90625 5.171875 40.15625 2 
Q 34.421875 -1.171875 27.640625 -1.171875 
Q 16.75 -1.171875 10.03125 5.8125 
Q 3.328125 12.796875 3.328125 25.921875 
z
M 12.359375 25.921875 
Q 12.359375 15.96875 16.703125 11.015625 
Q 21.046875 6.0625 27.640625 6.0625 
Q 34.1875 6.0625 38.53125 11.03125 
Q 42.875 16.015625 42.875 26.21875 
Q 42.875 35.84375 38.5 40.796875 
Q 34.125 45.75 27.640625 45.75 
Q 21.046875 45.75 16.703125 40.8125 
Q 12.359375 35.890625 12.359375 25.921875 
z
" id="ArialMT-111"/>
     <path d="M 40.578125 0 
L 40.578125 7.625 
Q 34.515625 -1.171875 24.125 -1.171875 
Q 19.53125 -1.171875 15.546875 0.578125 
Q 11.578125 2.34375 9.640625 5 
Q 7.71875 7.671875 6.9375 11.53125 
Q 6.390625 14.109375 6.390625 19.734375 
L 6.390625 51.859375 
L 15.1875 51.859375 
L 15.1875 23.09375 
Q 15.1875 16.21875 15.71875 13.8125 
Q 16.546875 10.359375 19.234375 8.375 
Q 21.921875 6.390625 25.875 6.390625 
Q 29.828125 6.390625 33.296875 8.421875 
Q 36.765625 10.453125 38.203125 13.9375 
Q 39.65625 17.4375 39.65625 24.078125 
L 39.65625 51.859375 
L 48.4375 51.859375 
L 48.4375 0 
z
" id="ArialMT-117"/>
     <path d="M 6.59375 0 
L 6.59375 51.859375 
L 14.5 51.859375 
L 14.5 44.484375 
Q 20.21875 53.03125 31 53.03125 
Q 35.6875 53.03125 39.625 51.34375 
Q 43.5625 49.65625 45.515625 46.921875 
Q 47.46875 44.1875 48.25 40.4375 
Q 48.734375 37.984375 48.734375 31.890625 
L 48.734375 0 
L 39.9375 0 
L 39.9375 31.546875 
Q 39.9375 36.921875 38.90625 39.578125 
Q 37.890625 42.234375 35.28125 43.8125 
Q 32.671875 45.40625 29.15625 45.40625 
Q 23.53125 45.40625 19.453125 41.84375 
Q 15.375 38.28125 15.375 28.328125 
L 15.375 0 
z
" id="ArialMT-110"/>
     <path d="M 40.4375 6.390625 
Q 35.546875 2.25 31.03125 0.53125 
Q 26.515625 -1.171875 21.34375 -1.171875 
Q 12.796875 -1.171875 8.203125 3 
Q 3.609375 7.171875 3.609375 13.671875 
Q 3.609375 17.484375 5.34375 20.625 
Q 7.078125 23.78125 9.890625 25.6875 
Q 12.703125 27.59375 16.21875 28.5625 
Q 18.796875 29.25 24.03125 29.890625 
Q 34.671875 31.15625 39.703125 32.90625 
Q 39.75 34.71875 39.75 35.203125 
Q 39.75 40.578125 37.25 42.78125 
Q 33.890625 45.75 27.25 45.75 
Q 21.046875 45.75 18.09375 43.578125 
Q 15.140625 41.40625 13.71875 35.890625 
L 5.125 37.0625 
Q 6.296875 42.578125 8.984375 45.96875 
Q 11.671875 49.359375 16.75 51.1875 
Q 21.828125 53.03125 28.515625 53.03125 
Q 35.15625 53.03125 39.296875 51.46875 
Q 43.453125 49.90625 45.40625 47.53125 
Q 47.359375 45.171875 48.140625 41.546875 
Q 48.578125 39.3125 48.578125 33.453125 
L 48.578125 21.734375 
Q 48.578125 9.46875 49.140625 6.21875 
Q 49.703125 2.984375 51.375 0 
L 42.1875 0 
Q 40.828125 2.734375 40.4375 6.390625 
z
M 39.703125 26.03125 
Q 34.90625 24.078125 25.34375 22.703125 
Q 19.921875 21.921875 17.671875 20.9375 
Q 15.4375 19.96875 14.203125 18.09375 
Q 12.984375 16.21875 12.984375 13.921875 
Q 12.984375 10.40625 15.640625 8.0625 
Q 18.3125 5.71875 23.4375 5.71875 
Q 28.515625 5.71875 32.46875 7.9375 
Q 36.421875 10.15625 38.28125 14.015625 
Q 39.703125 17 39.703125 22.796875 
z
" id="ArialMT-97"/>
     <path d="M 6.390625 0 
L 6.390625 71.578125 
L 15.1875 71.578125 
L 15.1875 0 
z
" id="ArialMT-108"/>
     <path d="M 3.078125 15.484375 
L 11.765625 16.84375 
Q 12.5 11.625 15.84375 8.84375 
Q 19.1875 6.0625 25.203125 6.0625 
Q 31.25 6.0625 34.171875 8.515625 
Q 37.109375 10.984375 37.109375 14.3125 
Q 37.109375 17.28125 34.515625 19 
Q 32.71875 20.171875 25.53125 21.96875 
Q 15.875 24.421875 12.140625 26.203125 
Q 8.40625 27.984375 6.46875 31.125 
Q 4.546875 34.28125 4.546875 38.09375 
Q 4.546875 41.546875 6.125 44.5 
Q 7.71875 47.46875 10.453125 49.421875 
Q 12.5 50.921875 16.03125 51.96875 
Q 19.578125 53.03125 23.640625 53.03125 
Q 29.734375 53.03125 34.34375 51.265625 
Q 38.96875 49.515625 41.15625 46.5 
Q 43.359375 43.5 44.1875 38.484375 
L 35.59375 37.3125 
Q 35.015625 41.3125 32.203125 43.546875 
Q 29.390625 45.796875 24.265625 45.796875 
Q 18.21875 45.796875 15.625 43.796875 
Q 13.03125 41.796875 13.03125 39.109375 
Q 13.03125 37.40625 14.109375 36.03125 
Q 15.1875 34.625 17.484375 33.6875 
Q 18.796875 33.203125 25.25 31.453125 
Q 34.578125 28.953125 38.25 27.359375 
Q 41.9375 25.78125 44.03125 22.75 
Q 46.140625 19.734375 46.140625 15.234375 
Q 46.140625 10.84375 43.578125 6.953125 
Q 41.015625 3.078125 36.171875 0.953125 
Q 31.34375 -1.171875 25.25 -1.171875 
Q 15.140625 -1.171875 9.84375 3.03125 
Q 4.546875 7.234375 3.078125 15.484375 
z
" id="ArialMT-115"/>
    </defs>
    <g style="fill:#262626;" transform="translate(146.469109 54)scale(0.12 -0.12)">
     <use xlink:href="#ArialMT-79"/>
     <use x="77.783203" xlink:href="#ArialMT-116"/>
     <use x="105.566406" xlink:href="#ArialMT-104"/>
     <use x="161.181641" xlink:href="#ArialMT-101"/>
     <use x="216.796875" xlink:href="#ArialMT-114"/>
     <use x="250.097656" xlink:href="#ArialMT-32"/>
     <use x="277.880859" xlink:href="#ArialMT-74"/>
     <use x="327.880859" xlink:href="#ArialMT-111"/>
     <use x="383.496094" xlink:href="#ArialMT-117"/>
     <use x="439.111328" xlink:href="#ArialMT-114"/>
     <use x="472.412109" xlink:href="#ArialMT-110"/>
     <use x="528.027344" xlink:href="#ArialMT-97"/>
     <use x="583.642578" xlink:href="#ArialMT-108"/>
     <use x="605.859375" xlink:href="#ArialMT-115"/>
    </g>
   </g>
  </g>
  <g id="axes_2">
   <g id="matplotlib.axis_3">
    <g id="xtick_7">
     <g id="line2d_25"/>
     <g id="text_17">
      <!-- 2008 -->
      <g style="fill:#262626;" transform="translate(317.810436 295.397812)scale(0.1 -0.1)">
       <use xlink:href="#ArialMT-50"/>
       <use x="55.615234" xlink:href="#ArialMT-48"/>
       <use x="111.230469" xlink:href="#ArialMT-48"/>
       <use x="166.845703" xlink:href="#ArialMT-56"/>
      </g>
     </g>
    </g>
    <g id="xtick_8">
     <g id="line2d_26"/>
     <g id="text_18">
      <!-- 2010 -->
      <g style="fill:#262626;" transform="translate(351.085585 295.397812)scale(0.1 -0.1)">
       <use xlink:href="#ArialMT-50"/>
       <use x="55.615234" xlink:href="#ArialMT-48"/>
       <use x="111.230469" xlink:href="#ArialMT-49"/>
       <use x="166.845703" xlink:href="#ArialMT-48"/>
      </g>
     </g>
    </g>
    <g id="xtick_9">
     <g id="line2d_27"/>
     <g id="text_19">
      <!-- 2012 -->
      <g style="fill:#262626;" transform="translate(384.360734 295.397812)scale(0.1 -0.1)">
       <use xlink:href="#ArialMT-50"/>
       <use x="55.615234" xlink:href="#ArialMT-48"/>
       <use x="111.230469" xlink:href="#ArialMT-49"/>
       <use x="166.845703" xlink:href="#ArialMT-50"/>
      </g>
     </g>
    </g>
    <g id="xtick_10">
     <g id="line2d_28"/>
     <g id="text_20">
      <!-- 2014 -->
      <g style="fill:#262626;" transform="translate(417.635883 295.397812)scale(0.1 -0.1)">
       <use xlink:href="#ArialMT-50"/>
       <use x="55.615234" xlink:href="#ArialMT-48"/>
       <use x="111.230469" xlink:href="#ArialMT-49"/>
       <use x="166.845703" xlink:href="#ArialMT-52"/>
      </g>
     </g>
    </g>
    <g id="xtick_11">
     <g id="line2d_29"/>
     <g id="text_21">
      <!-- 2016 -->
      <g style="fill:#262626;" transform="translate(450.911032 295.397812)scale(0.1 -0.1)">
       <use xlink:href="#ArialMT-50"/>
       <use x="55.615234" xlink:href="#ArialMT-48"/>
       <use x="111.230469" xlink:href="#ArialMT-49"/>
       <use x="166.845703" xlink:href="#ArialMT-54"/>
      </g>
     </g>
    </g>
    <g id="xtick_12">
     <g id="line2d_30"/>
     <g id="text_22">
      <!-- 2018 -->
      <g style="fill:#262626;" transform="translate(484.186181 295.397812)scale(0.1 -0.1)">
       <use xlink:href="#ArialMT-50"/>
       <use x="55.615234" xlink:href="#ArialMT-48"/>
       <use x="111.230469" xlink:href="#ArialMT-49"/>
       <use x="166.845703" xlink:href="#ArialMT-56"/>
      </g>
     </g>
    </g>
   </g>
   <g id="matplotlib.axis_4">
    <g id="ytick_10">
     <g id="line2d_31">
      <path clip-path="url(#pd1fef8ee26)" d="M 312.461112 284.74 
L 528.416829 284.74 
" style="fill:none;stroke:#cccccc;stroke-linecap:round;stroke-width:0.8;"/>
     </g>
     <g id="line2d_32"/>
    </g>
    <g id="ytick_11">
     <g id="line2d_33">
      <path clip-path="url(#pd1fef8ee26)" d="M 312.461112 257.732706 
L 528.416829 257.732706 
" style="fill:none;stroke:#cccccc;stroke-linecap:round;stroke-width:0.8;"/>
     </g>
     <g id="line2d_34"/>
    </g>
    <g id="ytick_12">
     <g id="line2d_35">
      <path clip-path="url(#pd1fef8ee26)" d="M 312.461112 230.725413 
L 528.416829 230.725413 
" style="fill:none;stroke:#cccccc;stroke-linecap:round;stroke-width:0.8;"/>
     </g>
     <g id="line2d_36"/>
    </g>
    <g id="ytick_13">
     <g id="line2d_37">
      <path clip-path="url(#pd1fef8ee26)" d="M 312.461112 203.718119 
L 528.416829 203.718119 
" style="fill:none;stroke:#cccccc;stroke-linecap:round;stroke-width:0.8;"/>
     </g>
     <g id="line2d_38"/>
    </g>
    <g id="ytick_14">
     <g id="line2d_39">
      <path clip-path="url(#pd1fef8ee26)" d="M 312.461112 176.710826 
L 528.416829 176.710826 
" style="fill:none;stroke:#cccccc;stroke-linecap:round;stroke-width:0.8;"/>
     </g>
     <g id="line2d_40"/>
    </g>
    <g id="ytick_15">
     <g id="line2d_41">
      <path clip-path="url(#pd1fef8ee26)" d="M 312.461112 149.703532 
L 528.416829 149.703532 
" style="fill:none;stroke:#cccccc;stroke-linecap:round;stroke-width:0.8;"/>
     </g>
     <g id="line2d_42"/>
    </g>
    <g id="ytick_16">
     <g id="line2d_43">
      <path clip-path="url(#pd1fef8ee26)" d="M 312.461112 122.696238 
L 528.416829 122.696238 
" style="fill:none;stroke:#cccccc;stroke-linecap:round;stroke-width:0.8;"/>
     </g>
     <g id="line2d_44"/>
    </g>
    <g id="ytick_17">
     <g id="line2d_45">
      <path clip-path="url(#pd1fef8ee26)" d="M 312.461112 95.688945 
L 528.416829 95.688945 
" style="fill:none;stroke:#cccccc;stroke-linecap:round;stroke-width:0.8;"/>
     </g>
     <g id="line2d_46"/>
    </g>
    <g id="ytick_18">
     <g id="line2d_47">
      <path clip-path="url(#pd1fef8ee26)" d="M 312.461112 68.681651 
L 528.416829 68.681651 
" style="fill:none;stroke:#cccccc;stroke-linecap:round;stroke-width:0.8;"/>
     </g>
     <g id="line2d_48"/>
    </g>
   </g>
   <g id="patch_26">
    <path clip-path="url(#pd1fef8ee26)" d="M 322.277281 284.74 
L 335.587341 284.74 
L 335.587341 218.186575 
L 322.277281 218.186575 
z
" style="fill:#b3b3b3;fill-opacity:0.627451;"/>
   </g>
   <g id="patch_27">
    <path clip-path="url(#pd1fef8ee26)" d="M 338.914855 284.74 
L 352.224915 284.74 
L 352.224915 209.428001 
L 338.914855 209.428001 
z
" style="fill:#b3b3b3;fill-opacity:0.627451;"/>
   </g>
   <g id="patch_28">
    <path clip-path="url(#pd1fef8ee26)" d="M 355.55243 284.74 
L 368.86249 284.74 
L 368.86249 199.443945 
L 355.55243 199.443945 
z
" style="fill:#b3b3b3;fill-opacity:0.627451;"/>
   </g>
   <g id="patch_29">
    <path clip-path="url(#pd1fef8ee26)" d="M 372.190004 284.74 
L 385.500064 284.74 
L 385.500064 188.165267 
L 372.190004 188.165267 
z
" style="fill:#b3b3b3;fill-opacity:0.627451;"/>
   </g>
   <g id="patch_30">
    <path clip-path="url(#pd1fef8ee26)" d="M 388.827579 284.74 
L 402.137639 284.74 
L 402.137639 173.898286 
L 388.827579 173.898286 
z
" style="fill:#b3b3b3;fill-opacity:0.627451;"/>
   </g>
   <g id="patch_31">
    <path clip-path="url(#pd1fef8ee26)" d="M 405.465154 284.74 
L 418.775213 284.74 
L 418.775213 159.127133 
L 405.465154 159.127133 
z
" style="fill:#b3b3b3;fill-opacity:0.627451;"/>
   </g>
   <g id="patch_32">
    <path clip-path="url(#pd1fef8ee26)" d="M 422.102728 284.74 
L 435.412788 284.74 
L 435.412788 144.143919 
L 422.102728 144.143919 
z
" style="fill:#b3b3b3;fill-opacity:0.627451;"/>
   </g>
   <g id="patch_33">
    <path clip-path="url(#pd1fef8ee26)" d="M 438.740303 284.74 
L 452.050362 284.74 
L 452.050362 125.190092 
L 438.740303 125.190092 
z
" style="fill:#b3b3b3;fill-opacity:0.627451;"/>
   </g>
   <g id="patch_34">
    <path clip-path="url(#pd1fef8ee26)" d="M 455.377877 284.74 
L 468.687937 284.74 
L 468.687937 103.568161 
L 455.377877 103.568161 
z
" style="fill:#b3b3b3;fill-opacity:0.627451;"/>
   </g>
   <g id="patch_35">
    <path clip-path="url(#pd1fef8ee26)" d="M 472.015452 284.74 
L 485.325511 284.74 
L 485.325511 78.938049 
L 472.015452 78.938049 
z
" style="fill:#b3b3b3;fill-opacity:0.627451;"/>
   </g>
   <g id="patch_36">
    <path clip-path="url(#pd1fef8ee26)" d="M 488.653026 284.74 
L 501.963086 284.74 
L 501.963086 70.701905 
L 488.653026 70.701905 
z
" style="fill:#b3b3b3;fill-opacity:0.627451;"/>
   </g>
   <g id="patch_37">
    <path clip-path="url(#pd1fef8ee26)" d="M 505.290601 284.74 
L 518.60066 284.74 
L 518.60066 72.954313 
L 505.290601 72.954313 
z
" style="fill:#b3b3b3;fill-opacity:0.627451;"/>
   </g>
   <g id="patch_38">
    <path clip-path="url(#pd1fef8ee26)" d="M 322.277281 284.74 
L 335.587341 284.74 
L 335.587341 261.641202 
L 322.277281 261.641202 
z
" style="fill:#56b4e9;"/>
   </g>
   <g id="patch_39">
    <path clip-path="url(#pd1fef8ee26)" d="M 338.914855 284.74 
L 352.224915 284.74 
L 352.224915 259.577413 
L 338.914855 259.577413 
z
" style="fill:#56b4e9;"/>
   </g>
   <g id="patch_40">
    <path clip-path="url(#pd1fef8ee26)" d="M 355.55243 284.74 
L 368.86249 284.74 
L 368.86249 258.122908 
L 355.55243 258.122908 
z
" style="fill:#56b4e9;"/>
   </g>
   <g id="patch_41">
    <path clip-path="url(#pd1fef8ee26)" d="M 372.190004 284.74 
L 385.500064 284.74 
L 385.500064 256.484861 
L 372.190004 256.484861 
z
" style="fill:#56b4e9;"/>
   </g>
   <g id="patch_42">
    <path clip-path="url(#pd1fef8ee26)" d="M 388.827579 284.74 
L 402.137639 284.74 
L 402.137639 254.166771 
L 388.827579 254.166771 
z
" style="fill:#56b4e9;"/>
   </g>
   <g id="patch_43">
    <path clip-path="url(#pd1fef8ee26)" d="M 405.465154 284.74 
L 418.775213 284.74 
L 418.775213 251.408787 
L 405.465154 251.408787 
z
" style="fill:#56b4e9;"/>
   </g>
   <g id="patch_44">
    <path clip-path="url(#pd1fef8ee26)" d="M 422.102728 284.74 
L 435.412788 284.74 
L 435.412788 251.015992 
L 422.102728 251.015992 
z
" style="fill:#56b4e9;"/>
   </g>
   <g id="patch_45">
    <path clip-path="url(#pd1fef8ee26)" d="M 438.740303 284.74 
L 452.050362 284.74 
L 452.050362 252.120807 
L 438.740303 252.120807 
z
" style="fill:#56b4e9;"/>
   </g>
   <g id="patch_46">
    <path clip-path="url(#pd1fef8ee26)" d="M 455.377877 284.74 
L 468.687937 284.74 
L 468.687937 250.873394 
L 455.377877 250.873394 
z
" style="fill:#56b4e9;"/>
   </g>
   <g id="patch_47">
    <path clip-path="url(#pd1fef8ee26)" d="M 472.015452 284.74 
L 485.325511 284.74 
L 485.325511 249.003409 
L 472.015452 249.003409 
z
" style="fill:#56b4e9;"/>
   </g>
   <g id="patch_48">
    <path clip-path="url(#pd1fef8ee26)" d="M 488.653026 284.74 
L 501.963086 284.74 
L 501.963086 255.136117 
L 488.653026 255.136117 
z
" style="fill:#56b4e9;"/>
   </g>
   <g id="patch_49">
    <path clip-path="url(#pd1fef8ee26)" d="M 505.290601 284.74 
L 518.60066 284.74 
L 518.60066 267.13092 
L 505.290601 267.13092 
z
" style="fill:#56b4e9;"/>
   </g>
   <g id="text_23">
    <!-- Repositories only -->
    <defs>
     <path d="M 7.859375 0 
L 7.859375 71.578125 
L 39.59375 71.578125 
Q 49.171875 71.578125 54.140625 69.640625 
Q 59.125 67.71875 62.109375 62.828125 
Q 65.09375 57.953125 65.09375 52.046875 
Q 65.09375 44.4375 60.15625 39.203125 
Q 55.21875 33.984375 44.921875 32.5625 
Q 48.6875 30.765625 50.640625 29 
Q 54.78125 25.203125 58.5 19.484375 
L 70.953125 0 
L 59.03125 0 
L 49.5625 14.890625 
Q 45.40625 21.34375 42.71875 24.75 
Q 40.046875 28.171875 37.921875 29.53125 
Q 35.796875 30.90625 33.59375 31.453125 
Q 31.984375 31.78125 28.328125 31.78125 
L 17.328125 31.78125 
L 17.328125 0 
z
M 17.328125 39.984375 
L 37.703125 39.984375 
Q 44.1875 39.984375 47.84375 41.328125 
Q 51.515625 42.671875 53.421875 45.625 
Q 55.328125 48.578125 55.328125 52.046875 
Q 55.328125 57.125 51.640625 60.390625 
Q 47.953125 63.671875 39.984375 63.671875 
L 17.328125 63.671875 
z
" id="ArialMT-82"/>
     <path d="M 6.59375 -19.875 
L 6.59375 51.859375 
L 14.59375 51.859375 
L 14.59375 45.125 
Q 17.4375 49.078125 21 51.046875 
Q 24.5625 53.03125 29.640625 53.03125 
Q 36.28125 53.03125 41.359375 49.609375 
Q 46.4375 46.1875 49.015625 39.953125 
Q 51.609375 33.734375 51.609375 26.3125 
Q 51.609375 18.359375 48.75 11.984375 
Q 45.90625 5.609375 40.453125 2.21875 
Q 35.015625 -1.171875 29 -1.171875 
Q 24.609375 -1.171875 21.109375 0.6875 
Q 17.625 2.546875 15.375 5.375 
L 15.375 -19.875 
z
M 14.546875 25.640625 
Q 14.546875 15.625 18.59375 10.84375 
Q 22.65625 6.0625 28.421875 6.0625 
Q 34.28125 6.0625 38.453125 11.015625 
Q 42.625 15.96875 42.625 26.375 
Q 42.625 36.28125 38.546875 41.203125 
Q 34.46875 46.140625 28.8125 46.140625 
Q 23.1875 46.140625 18.859375 40.890625 
Q 14.546875 35.640625 14.546875 25.640625 
z
" id="ArialMT-112"/>
     <path d="M 6.640625 61.46875 
L 6.640625 71.578125 
L 15.4375 71.578125 
L 15.4375 61.46875 
z
M 6.640625 0 
L 6.640625 51.859375 
L 15.4375 51.859375 
L 15.4375 0 
z
" id="ArialMT-105"/>
     <path d="M 6.203125 -19.96875 
L 5.21875 -11.71875 
Q 8.109375 -12.5 10.25 -12.5 
Q 13.1875 -12.5 14.9375 -11.515625 
Q 16.703125 -10.546875 17.828125 -8.796875 
Q 18.65625 -7.46875 20.515625 -2.25 
Q 20.75 -1.515625 21.296875 -0.09375 
L 1.609375 51.859375 
L 11.078125 51.859375 
L 21.875 21.828125 
Q 23.96875 16.109375 25.640625 9.8125 
Q 27.15625 15.875 29.25 21.625 
L 40.328125 51.859375 
L 49.125 51.859375 
L 29.390625 -0.875 
Q 26.21875 -9.421875 24.46875 -12.640625 
Q 22.125 -17 19.09375 -19.015625 
Q 16.0625 -21.046875 11.859375 -21.046875 
Q 9.328125 -21.046875 6.203125 -19.96875 
z
" id="ArialMT-121"/>
    </defs>
    <g style="fill:#262626;" transform="translate(374.418971 54)scale(0.12 -0.12)">
     <use xlink:href="#ArialMT-82"/>
     <use x="72.216797" xlink:href="#ArialMT-101"/>
     <use x="127.832031" xlink:href="#ArialMT-112"/>
     <use x="183.447266" xlink:href="#ArialMT-111"/>
     <use x="239.0625" xlink:href="#ArialMT-115"/>
     <use x="289.0625" xlink:href="#ArialMT-105"/>
     <use x="311.279297" xlink:href="#ArialMT-116"/>
     <use x="339.0625" xlink:href="#ArialMT-111"/>
     <use x="394.677734" xlink:href="#ArialMT-114"/>
     <use x="427.978516" xlink:href="#ArialMT-105"/>
     <use x="450.195312" xlink:href="#ArialMT-101"/>
     <use x="505.810547" xlink:href="#ArialMT-115"/>
     <use x="555.810547" xlink:href="#ArialMT-32"/>
     <use x="583.59375" xlink:href="#ArialMT-111"/>
     <use x="639.208984" xlink:href="#ArialMT-110"/>
     <use x="694.824219" xlink:href="#ArialMT-108"/>
     <use x="717.041016" xlink:href="#ArialMT-121"/>
    </g>
   </g>
  </g>
  <g id="axes_3">
   <g id="matplotlib.axis_5">
    <g id="xtick_13">
     <g id="line2d_49"/>
     <g id="text_24">
      <!-- 2008 -->
      <g style="fill:#262626;" transform="translate(552.431548 295.397812)scale(0.1 -0.1)">
       <use xlink:href="#ArialMT-50"/>
       <use x="55.615234" xlink:href="#ArialMT-48"/>
       <use x="111.230469" xlink:href="#ArialMT-48"/>
       <use x="166.845703" xlink:href="#ArialMT-56"/>
      </g>
     </g>
    </g>
    <g id="xtick_14">
     <g id="line2d_50"/>
     <g id="text_25">
      <!-- 2010 -->
      <g style="fill:#262626;" transform="translate(585.706697 295.397812)scale(0.1 -0.1)">
       <use xlink:href="#ArialMT-50"/>
       <use x="55.615234" xlink:href="#ArialMT-48"/>
       <use x="111.230469" xlink:href="#ArialMT-49"/>
       <use x="166.845703" xlink:href="#ArialMT-48"/>
      </g>
     </g>
    </g>
    <g id="xtick_15">
     <g id="line2d_51"/>
     <g id="text_26">
      <!-- 2012 -->
      <g style="fill:#262626;" transform="translate(618.981846 295.397812)scale(0.1 -0.1)">
       <use xlink:href="#ArialMT-50"/>
       <use x="55.615234" xlink:href="#ArialMT-48"/>
       <use x="111.230469" xlink:href="#ArialMT-49"/>
       <use x="166.845703" xlink:href="#ArialMT-50"/>
      </g>
     </g>
    </g>
    <g id="xtick_16">
     <g id="line2d_52"/>
     <g id="text_27">
      <!-- 2014 -->
      <g style="fill:#262626;" transform="translate(652.256995 295.397812)scale(0.1 -0.1)">
       <use xlink:href="#ArialMT-50"/>
       <use x="55.615234" xlink:href="#ArialMT-48"/>
       <use x="111.230469" xlink:href="#ArialMT-49"/>
       <use x="166.845703" xlink:href="#ArialMT-52"/>
      </g>
     </g>
    </g>
    <g id="xtick_17">
     <g id="line2d_53"/>
     <g id="text_28">
      <!-- 2016 -->
      <g style="fill:#262626;" transform="translate(685.532144 295.397812)scale(0.1 -0.1)">
       <use xlink:href="#ArialMT-50"/>
       <use x="55.615234" xlink:href="#ArialMT-48"/>
       <use x="111.230469" xlink:href="#ArialMT-49"/>
       <use x="166.845703" xlink:href="#ArialMT-54"/>
      </g>
     </g>
    </g>
    <g id="xtick_18">
     <g id="line2d_54"/>
     <g id="text_29">
      <!-- 2018 -->
      <g style="fill:#262626;" transform="translate(718.807293 295.397812)scale(0.1 -0.1)">
       <use xlink:href="#ArialMT-50"/>
       <use x="55.615234" xlink:href="#ArialMT-48"/>
       <use x="111.230469" xlink:href="#ArialMT-49"/>
       <use x="166.845703" xlink:href="#ArialMT-56"/>
      </g>
     </g>
    </g>
   </g>
   <g id="matplotlib.axis_6">
    <g id="ytick_19">
     <g id="line2d_55">
      <path clip-path="url(#p9bad821185)" d="M 547.082224 284.74 
L 763.037941 284.74 
" style="fill:none;stroke:#cccccc;stroke-linecap:round;stroke-width:0.8;"/>
     </g>
     <g id="line2d_56"/>
    </g>
    <g id="ytick_20">
     <g id="line2d_57">
      <path clip-path="url(#p9bad821185)" d="M 547.082224 257.732706 
L 763.037941 257.732706 
" style="fill:none;stroke:#cccccc;stroke-linecap:round;stroke-width:0.8;"/>
     </g>
     <g id="line2d_58"/>
    </g>
    <g id="ytick_21">
     <g id="line2d_59">
      <path clip-path="url(#p9bad821185)" d="M 547.082224 230.725413 
L 763.037941 230.725413 
" style="fill:none;stroke:#cccccc;stroke-linecap:round;stroke-width:0.8;"/>
     </g>
     <g id="line2d_60"/>
    </g>
    <g id="ytick_22">
     <g id="line2d_61">
      <path clip-path="url(#p9bad821185)" d="M 547.082224 203.718119 
L 763.037941 203.718119 
" style="fill:none;stroke:#cccccc;stroke-linecap:round;stroke-width:0.8;"/>
     </g>
     <g id="line2d_62"/>
    </g>
    <g id="ytick_23">
     <g id="line2d_63">
      <path clip-path="url(#p9bad821185)" d="M 547.082224 176.710826 
L 763.037941 176.710826 
" style="fill:none;stroke:#cccccc;stroke-linecap:round;stroke-width:0.8;"/>
     </g>
     <g id="line2d_64"/>
    </g>
    <g id="ytick_24">
     <g id="line2d_65">
      <path clip-path="url(#p9bad821185)" d="M 547.082224 149.703532 
L 763.037941 149.703532 
" style="fill:none;stroke:#cccccc;stroke-linecap:round;stroke-width:0.8;"/>
     </g>
     <g id="line2d_66"/>
    </g>
    <g id="ytick_25">
     <g id="line2d_67">
      <path clip-path="url(#p9bad821185)" d="M 547.082224 122.696238 
L 763.037941 122.696238 
" style="fill:none;stroke:#cccccc;stroke-linecap:round;stroke-width:0.8;"/>
     </g>
     <g id="line2d_68"/>
    </g>
    <g id="ytick_26">
     <g id="line2d_69">
      <path clip-path="url(#p9bad821185)" d="M 547.082224 95.688945 
L 763.037941 95.688945 
" style="fill:none;stroke:#cccccc;stroke-linecap:round;stroke-width:0.8;"/>
     </g>
     <g id="line2d_70"/>
    </g>
    <g id="ytick_27">
     <g id="line2d_71">
      <path clip-path="url(#p9bad821185)" d="M 547.082224 68.681651 
L 763.037941 68.681651 
" style="fill:none;stroke:#cccccc;stroke-linecap:round;stroke-width:0.8;"/>
     </g>
     <g id="line2d_72"/>
    </g>
   </g>
   <g id="patch_50">
    <path clip-path="url(#p9bad821185)" d="M 556.898393 284.74 
L 570.208453 284.74 
L 570.208453 218.186575 
L 556.898393 218.186575 
z
" style="fill:#b3b3b3;fill-opacity:0.627451;"/>
   </g>
   <g id="patch_51">
    <path clip-path="url(#p9bad821185)" d="M 573.535967 284.74 
L 586.846027 284.74 
L 586.846027 209.428001 
L 573.535967 209.428001 
z
" style="fill:#b3b3b3;fill-opacity:0.627451;"/>
   </g>
   <g id="patch_52">
    <path clip-path="url(#p9bad821185)" d="M 590.173542 284.74 
L 603.483602 284.74 
L 603.483602 199.443945 
L 590.173542 199.443945 
z
" style="fill:#b3b3b3;fill-opacity:0.627451;"/>
   </g>
   <g id="patch_53">
    <path clip-path="url(#p9bad821185)" d="M 606.811116 284.74 
L 620.121176 284.74 
L 620.121176 188.165267 
L 606.811116 188.165267 
z
" style="fill:#b3b3b3;fill-opacity:0.627451;"/>
   </g>
   <g id="patch_54">
    <path clip-path="url(#p9bad821185)" d="M 623.448691 284.74 
L 636.758751 284.74 
L 636.758751 173.898286 
L 623.448691 173.898286 
z
" style="fill:#b3b3b3;fill-opacity:0.627451;"/>
   </g>
   <g id="patch_55">
    <path clip-path="url(#p9bad821185)" d="M 640.086265 284.74 
L 653.396325 284.74 
L 653.396325 159.127133 
L 640.086265 159.127133 
z
" style="fill:#b3b3b3;fill-opacity:0.627451;"/>
   </g>
   <g id="patch_56">
    <path clip-path="url(#p9bad821185)" d="M 656.72384 284.74 
L 670.0339 284.74 
L 670.0339 144.143919 
L 656.72384 144.143919 
z
" style="fill:#b3b3b3;fill-opacity:0.627451;"/>
   </g>
   <g id="patch_57">
    <path clip-path="url(#p9bad821185)" d="M 673.361415 284.74 
L 686.671474 284.74 
L 686.671474 125.190092 
L 673.361415 125.190092 
z
" style="fill:#b3b3b3;fill-opacity:0.627451;"/>
   </g>
   <g id="patch_58">
    <path clip-path="url(#p9bad821185)" d="M 689.998989 284.74 
L 703.309049 284.74 
L 703.309049 103.568161 
L 689.998989 103.568161 
z
" style="fill:#b3b3b3;fill-opacity:0.627451;"/>
   </g>
   <g id="patch_59">
    <path clip-path="url(#p9bad821185)" d="M 706.636564 284.74 
L 719.946623 284.74 
L 719.946623 78.938049 
L 706.636564 78.938049 
z
" style="fill:#b3b3b3;fill-opacity:0.627451;"/>
   </g>
   <g id="patch_60">
    <path clip-path="url(#p9bad821185)" d="M 723.274138 284.74 
L 736.584198 284.74 
L 736.584198 70.701905 
L 723.274138 70.701905 
z
" style="fill:#b3b3b3;fill-opacity:0.627451;"/>
   </g>
   <g id="patch_61">
    <path clip-path="url(#p9bad821185)" d="M 739.911713 284.74 
L 753.221772 284.74 
L 753.221772 72.954313 
L 739.911713 72.954313 
z
" style="fill:#b3b3b3;fill-opacity:0.627451;"/>
   </g>
   <g id="patch_62">
    <path clip-path="url(#p9bad821185)" d="M 556.898393 284.74 
L 570.208453 284.74 
L 570.208453 274.737579 
L 556.898393 274.737579 
z
" style="fill:#56b4e9;"/>
   </g>
   <g id="patch_63">
    <path clip-path="url(#p9bad821185)" d="M 573.535967 284.74 
L 586.846027 284.74 
L 586.846027 272.352835 
L 573.535967 272.352835 
z
" style="fill:#56b4e9;"/>
   </g>
   <g id="patch_64">
    <path clip-path="url(#p9bad821185)" d="M 590.173542 284.74 
L 603.483602 284.74 
L 603.483602 267.873837 
L 590.173542 267.873837 
z
" style="fill:#56b4e9;"/>
   </g>
   <g id="patch_65">
    <path clip-path="url(#p9bad821185)" d="M 606.811116 284.74 
L 620.121176 284.74 
L 620.121176 264.44175 
L 606.811116 264.44175 
z
" style="fill:#56b4e9;"/>
   </g>
   <g id="patch_66">
    <path clip-path="url(#p9bad821185)" d="M 623.448691 284.74 
L 636.758751 284.74 
L 636.758751 258.287112 
L 623.448691 258.287112 
z
" style="fill:#56b4e9;"/>
   </g>
   <g id="patch_67">
    <path clip-path="url(#p9bad821185)" d="M 640.086265 284.74 
L 653.396325 284.74 
L 653.396325 252.001975 
L 640.086265 252.001975 
z
" style="fill:#56b4e9;"/>
   </g>
   <g id="patch_68">
    <path clip-path="url(#p9bad821185)" d="M 656.72384 284.74 
L 670.0339 284.74 
L 670.0339 244.640435 
L 656.72384 244.640435 
z
" style="fill:#56b4e9;"/>
   </g>
   <g id="patch_69">
    <path clip-path="url(#p9bad821185)" d="M 673.361415 284.74 
L 686.671474 284.74 
L 686.671474 237.621347 
L 673.361415 237.621347 
z
" style="fill:#56b4e9;"/>
   </g>
   <g id="patch_70">
    <path clip-path="url(#p9bad821185)" d="M 689.998989 284.74 
L 703.309049 284.74 
L 703.309049 230.141407 
L 689.998989 230.141407 
z
" style="fill:#56b4e9;"/>
   </g>
   <g id="patch_71">
    <path clip-path="url(#p9bad821185)" d="M 706.636564 284.74 
L 719.946623 284.74 
L 719.946623 220.748594 
L 706.636564 220.748594 
z
" style="fill:#56b4e9;"/>
   </g>
   <g id="patch_72">
    <path clip-path="url(#p9bad821185)" d="M 723.274138 284.74 
L 736.584198 284.74 
L 736.584198 212.726132 
L 723.274138 212.726132 
z
" style="fill:#56b4e9;"/>
   </g>
   <g id="patch_73">
    <path clip-path="url(#p9bad821185)" d="M 739.911713 284.74 
L 753.221772 284.74 
L 753.221772 204.845296 
L 739.911713 204.845296 
z
" style="fill:#56b4e9;"/>
   </g>
   <g id="text_30">
    <!-- DOAJ-listed Journal -->
    <defs>
     <path d="M 7.71875 0 
L 7.71875 71.578125 
L 32.375 71.578125 
Q 40.71875 71.578125 45.125 70.5625 
Q 51.265625 69.140625 55.609375 65.4375 
Q 61.28125 60.640625 64.078125 53.1875 
Q 66.890625 45.75 66.890625 36.1875 
Q 66.890625 28.03125 64.984375 21.734375 
Q 63.09375 15.4375 60.109375 11.296875 
Q 57.125 7.171875 53.578125 4.796875 
Q 50.046875 2.4375 45.046875 1.21875 
Q 40.046875 0 33.546875 0 
z
M 17.1875 8.453125 
L 32.46875 8.453125 
Q 39.546875 8.453125 43.578125 9.765625 
Q 47.609375 11.078125 50 13.484375 
Q 53.375 16.84375 55.25 22.53125 
Q 57.125 28.21875 57.125 36.328125 
Q 57.125 47.5625 53.4375 53.59375 
Q 49.75 59.625 44.484375 61.671875 
Q 40.671875 63.140625 32.234375 63.140625 
L 17.1875 63.140625 
z
" id="ArialMT-68"/>
     <path d="M -0.140625 0 
L 27.34375 71.578125 
L 37.546875 71.578125 
L 66.84375 0 
L 56.0625 0 
L 47.703125 21.6875 
L 17.78125 21.6875 
L 9.90625 0 
z
M 20.515625 29.390625 
L 44.78125 29.390625 
L 37.3125 49.21875 
Q 33.890625 58.25 32.234375 64.0625 
Q 30.859375 57.171875 28.375 50.390625 
z
" id="ArialMT-65"/>
     <path d="M 3.171875 21.484375 
L 3.171875 30.328125 
L 30.171875 30.328125 
L 30.171875 21.484375 
z
" id="ArialMT-45"/>
     <path d="M 40.234375 0 
L 40.234375 6.546875 
Q 35.296875 -1.171875 25.734375 -1.171875 
Q 19.53125 -1.171875 14.328125 2.25 
Q 9.125 5.671875 6.265625 11.796875 
Q 3.421875 17.921875 3.421875 25.875 
Q 3.421875 33.640625 6 39.96875 
Q 8.59375 46.296875 13.765625 49.65625 
Q 18.953125 53.03125 25.34375 53.03125 
Q 30.03125 53.03125 33.6875 51.046875 
Q 37.359375 49.078125 39.65625 45.90625 
L 39.65625 71.578125 
L 48.390625 71.578125 
L 48.390625 0 
z
M 12.453125 25.875 
Q 12.453125 15.921875 16.640625 10.984375 
Q 20.84375 6.0625 26.5625 6.0625 
Q 32.328125 6.0625 36.34375 10.765625 
Q 40.375 15.484375 40.375 25.140625 
Q 40.375 35.796875 36.265625 40.765625 
Q 32.171875 45.75 26.171875 45.75 
Q 20.3125 45.75 16.375 40.96875 
Q 12.453125 36.1875 12.453125 25.875 
z
" id="ArialMT-100"/>
    </defs>
    <g style="fill:#262626;" transform="translate(601.70977 54)scale(0.12 -0.12)">
     <use xlink:href="#ArialMT-68"/>
     <use x="72.216797" xlink:href="#ArialMT-79"/>
     <use x="150" xlink:href="#ArialMT-65"/>
     <use x="216.699219" xlink:href="#ArialMT-74"/>
     <use x="266.699219" xlink:href="#ArialMT-45"/>
     <use x="300" xlink:href="#ArialMT-108"/>
     <use x="322.216797" xlink:href="#ArialMT-105"/>
     <use x="344.433594" xlink:href="#ArialMT-115"/>
     <use x="394.433594" xlink:href="#ArialMT-116"/>
     <use x="422.216797" xlink:href="#ArialMT-101"/>
     <use x="477.832031" xlink:href="#ArialMT-100"/>
     <use x="533.447266" xlink:href="#ArialMT-32"/>
     <use x="561.230469" xlink:href="#ArialMT-74"/>
     <use x="611.230469" xlink:href="#ArialMT-111"/>
     <use x="666.845703" xlink:href="#ArialMT-117"/>
     <use x="722.460938" xlink:href="#ArialMT-114"/>
     <use x="755.761719" xlink:href="#ArialMT-110"/>
     <use x="811.376953" xlink:href="#ArialMT-97"/>
     <use x="866.992188" xlink:href="#ArialMT-108"/>
    </g>
   </g>
   <g id="legend_1">
    <g id="patch_74">
     <path d="M 782.835727 98.631812 
L 802.835727 98.631812 
L 802.835727 91.631812 
L 782.835727 91.631812 
z
" style="fill:#b3b3b3;fill-opacity:0.627451;"/>
    </g>
    <g id="text_31">
     <!-- All OA Articles -->
     <defs>
      <path d="M 40.4375 19 
L 49.078125 17.875 
Q 47.65625 8.9375 41.8125 3.875 
Q 35.984375 -1.171875 27.484375 -1.171875 
Q 16.84375 -1.171875 10.375 5.78125 
Q 3.90625 12.75 3.90625 25.734375 
Q 3.90625 34.125 6.6875 40.421875 
Q 9.46875 46.734375 15.15625 49.875 
Q 20.84375 53.03125 27.546875 53.03125 
Q 35.984375 53.03125 41.359375 48.75 
Q 46.734375 44.484375 48.25 36.625 
L 39.703125 35.296875 
Q 38.484375 40.53125 35.375 43.15625 
Q 32.28125 45.796875 27.875 45.796875 
Q 21.234375 45.796875 17.078125 41.03125 
Q 12.9375 36.28125 12.9375 25.984375 
Q 12.9375 15.53125 16.9375 10.796875 
Q 20.953125 6.0625 27.390625 6.0625 
Q 32.5625 6.0625 36.03125 9.234375 
Q 39.5 12.40625 40.4375 19 
z
" id="ArialMT-99"/>
     </defs>
     <g style="fill:#262626;" transform="translate(810.835727 98.631812)scale(0.1 -0.1)">
      <use xlink:href="#ArialMT-65"/>
      <use x="66.699219" xlink:href="#ArialMT-108"/>
      <use x="88.916016" xlink:href="#ArialMT-108"/>
      <use x="111.132812" xlink:href="#ArialMT-32"/>
      <use x="138.916016" xlink:href="#ArialMT-79"/>
      <use x="216.699219" xlink:href="#ArialMT-65"/>
      <use x="283.320312" xlink:href="#ArialMT-32"/>
      <use x="311.025391" xlink:href="#ArialMT-65"/>
      <use x="377.724609" xlink:href="#ArialMT-114"/>
      <use x="411.025391" xlink:href="#ArialMT-116"/>
      <use x="438.808594" xlink:href="#ArialMT-105"/>
      <use x="461.025391" xlink:href="#ArialMT-99"/>
      <use x="511.025391" xlink:href="#ArialMT-108"/>
      <use x="533.242188" xlink:href="#ArialMT-101"/>
      <use x="588.857422" xlink:href="#ArialMT-115"/>
     </g>
    </g>
    <g id="patch_75">
     <path d="M 782.835727 119.777125 
L 802.835727 119.777125 
L 802.835727 112.777125 
L 782.835727 112.777125 
z
" style="fill:#56b4e9;"/>
    </g>
    <g id="text_32">
     <!-- by Host -->
     <defs>
      <path d="M 14.703125 0 
L 6.546875 0 
L 6.546875 71.578125 
L 15.328125 71.578125 
L 15.328125 46.046875 
Q 20.90625 53.03125 29.546875 53.03125 
Q 34.328125 53.03125 38.59375 51.09375 
Q 42.875 49.171875 45.625 45.671875 
Q 48.390625 42.1875 49.953125 37.25 
Q 51.515625 32.328125 51.515625 26.703125 
Q 51.515625 13.375 44.921875 6.09375 
Q 38.328125 -1.171875 29.109375 -1.171875 
Q 19.921875 -1.171875 14.703125 6.5 
z
M 14.59375 26.3125 
Q 14.59375 17 17.140625 12.84375 
Q 21.296875 6.0625 28.375 6.0625 
Q 34.125 6.0625 38.328125 11.0625 
Q 42.53125 16.0625 42.53125 25.984375 
Q 42.53125 36.140625 38.5 40.96875 
Q 34.46875 45.796875 28.765625 45.796875 
Q 23 45.796875 18.796875 40.796875 
Q 14.59375 35.796875 14.59375 26.3125 
z
" id="ArialMT-98"/>
      <path d="M 8.015625 0 
L 8.015625 71.578125 
L 17.484375 71.578125 
L 17.484375 42.1875 
L 54.6875 42.1875 
L 54.6875 71.578125 
L 64.15625 71.578125 
L 64.15625 0 
L 54.6875 0 
L 54.6875 33.734375 
L 17.484375 33.734375 
L 17.484375 0 
z
" id="ArialMT-72"/>
     </defs>
     <g style="fill:#262626;" transform="translate(810.835727 119.777125)scale(0.1 -0.1)">
      <use xlink:href="#ArialMT-98"/>
      <use x="55.615234" xlink:href="#ArialMT-121"/>
      <use x="105.615234" xlink:href="#ArialMT-32"/>
      <use x="133.398438" xlink:href="#ArialMT-72"/>
      <use x="205.615234" xlink:href="#ArialMT-111"/>
      <use x="261.230469" xlink:href="#ArialMT-115"/>
      <use x="311.230469" xlink:href="#ArialMT-116"/>
     </g>
    </g>
   </g>
  </g>
  <g id="text_33">
   <!-- Open Access to Journal Articles by Unpaywall host -->
   <defs>
    <path d="M 4.34375 35.359375 
Q 4.34375 46.296875 7.625 53.71875 
Q 10.0625 59.1875 14.28125 63.53125 
Q 18.5 67.875 23.53125 69.96875 
Q 30.21875 72.796875 38.96875 72.796875 
Q 54.78125 72.796875 64.28125 62.984375 
Q 73.78125 53.171875 73.78125 35.6875 
Q 73.78125 18.359375 64.359375 8.5625 
Q 54.9375 -1.21875 39.15625 -1.21875 
Q 23.1875 -1.21875 13.765625 8.515625 
Q 4.34375 18.265625 4.34375 35.359375 
z
M 19.234375 35.84375 
Q 19.234375 23.6875 24.84375 17.40625 
Q 30.46875 11.140625 39.109375 11.140625 
Q 47.75 11.140625 53.296875 17.359375 
Q 58.84375 23.578125 58.84375 36.03125 
Q 58.84375 48.34375 53.4375 54.390625 
Q 48.046875 60.453125 39.109375 60.453125 
Q 30.171875 60.453125 24.703125 54.3125 
Q 19.234375 48.1875 19.234375 35.84375 
z
" id="Arial-BoldMT-79"/>
    <path d="M 6.78125 51.859375 
L 19.578125 51.859375 
L 19.578125 44.234375 
Q 22.078125 48.140625 26.3125 50.578125 
Q 30.5625 53.03125 35.75 53.03125 
Q 44.78125 53.03125 51.078125 45.953125 
Q 57.375 38.875 57.375 26.21875 
Q 57.375 13.234375 51.015625 6.03125 
Q 44.671875 -1.171875 35.640625 -1.171875 
Q 31.34375 -1.171875 27.84375 0.53125 
Q 24.359375 2.25 20.515625 6.390625 
L 20.515625 -19.734375 
L 6.78125 -19.734375 
z
M 20.359375 26.8125 
Q 20.359375 18.0625 23.828125 13.890625 
Q 27.296875 9.71875 32.28125 9.71875 
Q 37.0625 9.71875 40.234375 13.546875 
Q 43.40625 17.390625 43.40625 26.125 
Q 43.40625 34.28125 40.125 38.234375 
Q 36.859375 42.1875 32.03125 42.1875 
Q 27 42.1875 23.671875 38.296875 
Q 20.359375 34.421875 20.359375 26.8125 
z
" id="Arial-BoldMT-112"/>
    <path d="M 37.203125 16.5 
L 50.875 14.203125 
Q 48.25 6.6875 42.546875 2.75 
Q 36.859375 -1.171875 28.328125 -1.171875 
Q 14.796875 -1.171875 8.296875 7.671875 
Q 3.171875 14.75 3.171875 25.53125 
Q 3.171875 38.421875 9.90625 45.71875 
Q 16.65625 53.03125 26.953125 53.03125 
Q 38.53125 53.03125 45.21875 45.390625 
Q 51.90625 37.75 51.609375 21.96875 
L 17.234375 21.96875 
Q 17.390625 15.875 20.5625 12.46875 
Q 23.734375 9.078125 28.46875 9.078125 
Q 31.6875 9.078125 33.875 10.828125 
Q 36.078125 12.59375 37.203125 16.5 
z
M 37.984375 30.375 
Q 37.84375 36.328125 34.90625 39.421875 
Q 31.984375 42.53125 27.78125 42.53125 
Q 23.296875 42.53125 20.359375 39.265625 
Q 17.4375 35.984375 17.484375 30.375 
z
" id="Arial-BoldMT-101"/>
    <path d="M 54.34375 0 
L 40.625 0 
L 40.625 26.46875 
Q 40.625 34.859375 39.75 37.328125 
Q 38.875 39.796875 36.890625 41.15625 
Q 34.90625 42.53125 32.125 42.53125 
Q 28.5625 42.53125 25.734375 40.578125 
Q 22.90625 38.625 21.84375 35.390625 
Q 20.796875 32.171875 20.796875 23.484375 
L 20.796875 0 
L 7.078125 0 
L 7.078125 51.859375 
L 19.828125 51.859375 
L 19.828125 44.234375 
Q 26.609375 53.03125 36.921875 53.03125 
Q 41.453125 53.03125 45.203125 51.390625 
Q 48.96875 49.75 50.890625 47.203125 
Q 52.828125 44.671875 53.578125 41.453125 
Q 54.34375 38.234375 54.34375 32.234375 
z
" id="Arial-BoldMT-110"/>
    <path id="Arial-BoldMT-32"/>
    <path d="M 71.828125 0 
L 56.109375 0 
L 49.859375 16.265625 
L 21.234375 16.265625 
L 15.328125 0 
L 0 0 
L 27.875 71.578125 
L 43.171875 71.578125 
z
M 45.21875 28.328125 
L 35.359375 54.890625 
L 25.6875 28.328125 
z
" id="Arial-BoldMT-65"/>
    <path d="M 52.390625 36.53125 
L 38.875 34.078125 
Q 38.1875 38.140625 35.765625 40.1875 
Q 33.34375 42.234375 29.5 42.234375 
Q 24.359375 42.234375 21.3125 38.6875 
Q 18.265625 35.15625 18.265625 26.859375 
Q 18.265625 17.625 21.359375 13.8125 
Q 24.46875 10.015625 29.6875 10.015625 
Q 33.59375 10.015625 36.078125 12.234375 
Q 38.578125 14.453125 39.59375 19.875 
L 53.078125 17.578125 
Q 50.984375 8.296875 45.015625 3.5625 
Q 39.0625 -1.171875 29.046875 -1.171875 
Q 17.671875 -1.171875 10.90625 6 
Q 4.15625 13.1875 4.15625 25.875 
Q 4.15625 38.71875 10.9375 45.875 
Q 17.71875 53.03125 29.296875 53.03125 
Q 38.765625 53.03125 44.359375 48.953125 
Q 49.953125 44.875 52.390625 36.53125 
z
" id="Arial-BoldMT-99"/>
    <path d="M 2.34375 14.796875 
L 16.109375 16.890625 
Q 17 12.890625 19.671875 10.8125 
Q 22.359375 8.734375 27.203125 8.734375 
Q 32.515625 8.734375 35.203125 10.6875 
Q 37.015625 12.0625 37.015625 14.359375 
Q 37.015625 15.921875 36.03125 16.9375 
Q 35.015625 17.921875 31.453125 18.75 
Q 14.84375 22.40625 10.40625 25.4375 
Q 4.25 29.640625 4.25 37.109375 
Q 4.25 43.84375 9.5625 48.4375 
Q 14.890625 53.03125 26.078125 53.03125 
Q 36.71875 53.03125 41.890625 49.5625 
Q 47.078125 46.09375 49.03125 39.3125 
L 36.078125 36.921875 
Q 35.25 39.9375 32.921875 41.546875 
Q 30.609375 43.171875 26.3125 43.171875 
Q 20.90625 43.171875 18.5625 41.65625 
Q 17 40.578125 17 38.875 
Q 17 37.40625 18.359375 36.375 
Q 20.21875 35.015625 31.171875 32.515625 
Q 42.140625 30.03125 46.484375 26.421875 
Q 50.78125 22.75 50.78125 16.21875 
Q 50.78125 9.078125 44.828125 3.953125 
Q 38.875 -1.171875 27.203125 -1.171875 
Q 16.609375 -1.171875 10.421875 3.125 
Q 4.25 7.421875 2.34375 14.796875 
z
" id="Arial-BoldMT-115"/>
    <path d="M 30.953125 51.859375 
L 30.953125 40.921875 
L 21.578125 40.921875 
L 21.578125 20.015625 
Q 21.578125 13.671875 21.84375 12.625 
Q 22.125 11.578125 23.078125 10.890625 
Q 24.03125 10.203125 25.390625 10.203125 
Q 27.296875 10.203125 30.90625 11.53125 
L 32.078125 0.875 
Q 27.296875 -1.171875 21.234375 -1.171875 
Q 17.53125 -1.171875 14.546875 0.0625 
Q 11.578125 1.3125 10.1875 3.296875 
Q 8.796875 5.28125 8.25 8.640625 
Q 7.8125 11.03125 7.8125 18.3125 
L 7.8125 40.921875 
L 1.515625 40.921875 
L 1.515625 51.859375 
L 7.8125 51.859375 
L 7.8125 62.15625 
L 21.578125 70.171875 
L 21.578125 51.859375 
z
" id="Arial-BoldMT-116"/>
    <path d="M 4 26.65625 
Q 4 33.5 7.375 39.890625 
Q 10.75 46.296875 16.921875 49.65625 
Q 23.09375 53.03125 30.71875 53.03125 
Q 42.484375 53.03125 50 45.390625 
Q 57.515625 37.75 57.515625 26.078125 
Q 57.515625 14.3125 49.921875 6.5625 
Q 42.328125 -1.171875 30.8125 -1.171875 
Q 23.6875 -1.171875 17.21875 2.046875 
Q 10.75 5.28125 7.375 11.5 
Q 4 17.71875 4 26.65625 
z
M 18.0625 25.921875 
Q 18.0625 18.21875 21.71875 14.109375 
Q 25.390625 10.015625 30.765625 10.015625 
Q 36.140625 10.015625 39.765625 14.109375 
Q 43.40625 18.21875 43.40625 26.03125 
Q 43.40625 33.640625 39.765625 37.734375 
Q 36.140625 41.84375 30.765625 41.84375 
Q 25.390625 41.84375 21.71875 37.734375 
Q 18.0625 33.640625 18.0625 25.921875 
z
" id="Arial-BoldMT-111"/>
    <path d="M 33.109375 71.578125 
L 47.515625 71.578125 
L 47.515625 26.265625 
Q 47.515625 17.390625 45.953125 12.59375 
Q 43.84375 6.34375 38.328125 2.5625 
Q 32.8125 -1.21875 23.78125 -1.21875 
Q 13.1875 -1.21875 7.46875 4.703125 
Q 1.765625 10.640625 1.703125 22.125 
L 15.328125 23.6875 
Q 15.578125 17.53125 17.140625 14.984375 
Q 19.484375 11.140625 24.265625 11.140625 
Q 29.109375 11.140625 31.109375 13.890625 
Q 33.109375 16.65625 33.109375 25.34375 
z
" id="Arial-BoldMT-74"/>
    <path d="M 41.3125 0 
L 41.3125 7.765625 
Q 38.484375 3.609375 33.859375 1.21875 
Q 29.25 -1.171875 24.125 -1.171875 
Q 18.890625 -1.171875 14.734375 1.125 
Q 10.59375 3.421875 8.734375 7.5625 
Q 6.890625 11.71875 6.890625 19.046875 
L 6.890625 51.859375 
L 20.609375 51.859375 
L 20.609375 28.03125 
Q 20.609375 17.09375 21.359375 14.625 
Q 22.125 12.15625 24.125 10.71875 
Q 26.125 9.28125 29.203125 9.28125 
Q 32.71875 9.28125 35.5 11.203125 
Q 38.28125 13.140625 39.296875 15.984375 
Q 40.328125 18.84375 40.328125 29.984375 
L 40.328125 51.859375 
L 54.046875 51.859375 
L 54.046875 0 
z
" id="Arial-BoldMT-117"/>
    <path d="M 20.3125 0 
L 6.59375 0 
L 6.59375 51.859375 
L 19.34375 51.859375 
L 19.34375 44.484375 
Q 22.609375 49.703125 25.21875 51.359375 
Q 27.828125 53.03125 31.15625 53.03125 
Q 35.84375 53.03125 40.1875 50.4375 
L 35.9375 38.484375 
Q 32.46875 40.71875 29.5 40.71875 
Q 26.609375 40.71875 24.609375 39.125 
Q 22.609375 37.546875 21.453125 33.390625 
Q 20.3125 29.25 20.3125 16.015625 
z
" id="Arial-BoldMT-114"/>
    <path d="M 17.4375 36.03125 
L 4.984375 38.28125 
Q 7.078125 45.796875 12.203125 49.40625 
Q 17.328125 53.03125 27.4375 53.03125 
Q 36.625 53.03125 41.109375 50.859375 
Q 45.609375 48.6875 47.4375 45.34375 
Q 49.265625 42 49.265625 33.0625 
L 49.125 17.046875 
Q 49.125 10.203125 49.78125 6.953125 
Q 50.4375 3.71875 52.25 0 
L 38.671875 0 
Q 38.140625 1.375 37.359375 4.046875 
Q 37.015625 5.28125 36.859375 5.671875 
Q 33.34375 2.25 29.34375 0.53125 
Q 25.34375 -1.171875 20.796875 -1.171875 
Q 12.796875 -1.171875 8.171875 3.171875 
Q 3.5625 7.515625 3.5625 14.15625 
Q 3.5625 18.5625 5.65625 22 
Q 7.765625 25.4375 11.546875 27.265625 
Q 15.328125 29.109375 22.46875 30.46875 
Q 32.078125 32.28125 35.796875 33.84375 
L 35.796875 35.203125 
Q 35.796875 39.15625 33.84375 40.84375 
Q 31.890625 42.53125 26.46875 42.53125 
Q 22.796875 42.53125 20.75 41.09375 
Q 18.703125 39.65625 17.4375 36.03125 
z
M 35.796875 24.90625 
Q 33.15625 24.03125 27.4375 22.796875 
Q 21.734375 21.578125 19.96875 20.40625 
Q 17.28125 18.5 17.28125 15.578125 
Q 17.28125 12.703125 19.421875 10.59375 
Q 21.578125 8.5 24.90625 8.5 
Q 28.609375 8.5 31.984375 10.9375 
Q 34.46875 12.796875 35.25 15.484375 
Q 35.796875 17.234375 35.796875 22.171875 
z
" id="Arial-BoldMT-97"/>
    <path d="M 7.171875 0 
L 7.171875 71.578125 
L 20.90625 71.578125 
L 20.90625 0 
z
" id="Arial-BoldMT-108"/>
    <path d="M 7.171875 58.890625 
L 7.171875 71.578125 
L 20.90625 71.578125 
L 20.90625 58.890625 
z
M 7.171875 0 
L 7.171875 51.859375 
L 20.90625 51.859375 
L 20.90625 0 
z
" id="Arial-BoldMT-105"/>
    <path d="M 6.59375 0 
L 6.59375 71.578125 
L 20.3125 71.578125 
L 20.3125 45.796875 
Q 26.65625 53.03125 35.359375 53.03125 
Q 44.828125 53.03125 51.03125 46.171875 
Q 57.234375 39.3125 57.234375 26.46875 
Q 57.234375 13.1875 50.90625 6 
Q 44.578125 -1.171875 35.546875 -1.171875 
Q 31.109375 -1.171875 26.78125 1.046875 
Q 22.46875 3.265625 19.34375 7.625 
L 19.34375 0 
z
M 20.21875 27.046875 
Q 20.21875 19 22.75 15.140625 
Q 26.3125 9.671875 32.234375 9.671875 
Q 36.765625 9.671875 39.96875 13.546875 
Q 43.171875 17.4375 43.171875 25.78125 
Q 43.171875 34.671875 39.9375 38.59375 
Q 36.71875 42.53125 31.6875 42.53125 
Q 26.765625 42.53125 23.484375 38.6875 
Q 20.21875 34.859375 20.21875 27.046875 
z
" id="Arial-BoldMT-98"/>
    <path d="M 0.6875 51.859375 
L 15.28125 51.859375 
L 27.6875 15.046875 
L 39.796875 51.859375 
L 54 51.859375 
L 35.6875 1.953125 
L 32.421875 -7.078125 
Q 30.609375 -11.625 28.96875 -14.015625 
Q 27.34375 -16.40625 25.21875 -17.890625 
Q 23.09375 -19.390625 19.984375 -20.21875 
Q 16.890625 -21.046875 12.984375 -21.046875 
Q 9.03125 -21.046875 5.21875 -20.21875 
L 4 -9.46875 
Q 7.234375 -10.109375 9.8125 -10.109375 
Q 14.59375 -10.109375 16.890625 -7.296875 
Q 19.1875 -4.5 20.40625 -0.140625 
z
" id="Arial-BoldMT-121"/>
    <path d="M 7.171875 71.578125 
L 21.625 71.578125 
L 21.625 32.8125 
Q 21.625 23.578125 22.171875 20.84375 
Q 23.09375 16.453125 26.578125 13.796875 
Q 30.078125 11.140625 36.140625 11.140625 
Q 42.28125 11.140625 45.40625 13.640625 
Q 48.53125 16.15625 49.171875 19.8125 
Q 49.8125 23.484375 49.8125 31.984375 
L 49.8125 71.578125 
L 64.265625 71.578125 
L 64.265625 33.984375 
Q 64.265625 21.09375 63.09375 15.765625 
Q 61.921875 10.453125 58.765625 6.78125 
Q 55.609375 3.125 50.328125 0.953125 
Q 45.0625 -1.21875 36.578125 -1.21875 
Q 26.3125 -1.21875 21.015625 1.140625 
Q 15.71875 3.515625 12.640625 7.296875 
Q 9.578125 11.078125 8.59375 15.234375 
Q 7.171875 21.390625 7.171875 33.40625 
z
" id="Arial-BoldMT-85"/>
    <path d="M 16.84375 0 
L 0.4375 51.859375 
L 13.765625 51.859375 
L 23.484375 17.875 
L 32.421875 51.859375 
L 45.65625 51.859375 
L 54.296875 17.875 
L 64.203125 51.859375 
L 77.734375 51.859375 
L 61.078125 0 
L 47.90625 0 
L 38.96875 33.34375 
L 30.171875 0 
z
" id="Arial-BoldMT-119"/>
    <path d="M 20.84375 71.578125 
L 20.84375 45.265625 
Q 27.484375 53.03125 36.71875 53.03125 
Q 41.453125 53.03125 45.265625 51.265625 
Q 49.078125 49.515625 51 46.78125 
Q 52.9375 44.046875 53.640625 40.71875 
Q 54.34375 37.40625 54.34375 30.421875 
L 54.34375 0 
L 40.625 0 
L 40.625 27.390625 
Q 40.625 35.546875 39.84375 37.734375 
Q 39.0625 39.9375 37.078125 41.234375 
Q 35.109375 42.53125 32.125 42.53125 
Q 28.71875 42.53125 26.03125 40.859375 
Q 23.34375 39.203125 22.09375 35.859375 
Q 20.84375 32.515625 20.84375 25.984375 
L 20.84375 0 
L 7.125 0 
L 7.125 71.578125 
z
" id="Arial-BoldMT-104"/>
   </defs>
   <g style="fill:#262626;" transform="translate(285.340937 17.391562)scale(0.14 -0.14)">
    <use xlink:href="#Arial-BoldMT-79"/>
    <use x="77.783203" xlink:href="#Arial-BoldMT-112"/>
    <use x="138.867188" xlink:href="#Arial-BoldMT-101"/>
    <use x="194.482422" xlink:href="#Arial-BoldMT-110"/>
    <use x="255.566406" xlink:href="#Arial-BoldMT-32"/>
    <use x="283.302734" xlink:href="#Arial-BoldMT-65"/>
    <use x="355.519531" xlink:href="#Arial-BoldMT-99"/>
    <use x="411.134766" xlink:href="#Arial-BoldMT-99"/>
    <use x="466.75" xlink:href="#Arial-BoldMT-101"/>
    <use x="522.365234" xlink:href="#Arial-BoldMT-115"/>
    <use x="577.980469" xlink:href="#Arial-BoldMT-115"/>
    <use x="633.595703" xlink:href="#Arial-BoldMT-32"/>
    <use x="661.378906" xlink:href="#Arial-BoldMT-116"/>
    <use x="694.679688" xlink:href="#Arial-BoldMT-111"/>
    <use x="755.763672" xlink:href="#Arial-BoldMT-32"/>
    <use x="783.546875" xlink:href="#Arial-BoldMT-74"/>
    <use x="839.162109" xlink:href="#Arial-BoldMT-111"/>
    <use x="900.246094" xlink:href="#Arial-BoldMT-117"/>
    <use x="961.330078" xlink:href="#Arial-BoldMT-114"/>
    <use x="1000.246094" xlink:href="#Arial-BoldMT-110"/>
    <use x="1061.330078" xlink:href="#Arial-BoldMT-97"/>
    <use x="1116.945312" xlink:href="#Arial-BoldMT-108"/>
    <use x="1144.728516" xlink:href="#Arial-BoldMT-32"/>
    <use x="1172.464844" xlink:href="#Arial-BoldMT-65"/>
    <use x="1244.681641" xlink:href="#Arial-BoldMT-114"/>
    <use x="1283.597656" xlink:href="#Arial-BoldMT-116"/>
    <use x="1316.898438" xlink:href="#Arial-BoldMT-105"/>
    <use x="1344.681641" xlink:href="#Arial-BoldMT-99"/>
    <use x="1400.296875" xlink:href="#Arial-BoldMT-108"/>
    <use x="1428.080078" xlink:href="#Arial-BoldMT-101"/>
    <use x="1483.695312" xlink:href="#Arial-BoldMT-115"/>
    <use x="1539.310547" xlink:href="#Arial-BoldMT-32"/>
    <use x="1567.09375" xlink:href="#Arial-BoldMT-98"/>
    <use x="1628.177734" xlink:href="#Arial-BoldMT-121"/>
    <use x="1683.792969" xlink:href="#Arial-BoldMT-32"/>
    <use x="1711.576172" xlink:href="#Arial-BoldMT-85"/>
    <use x="1783.792969" xlink:href="#Arial-BoldMT-110"/>
    <use x="1844.876953" xlink:href="#Arial-BoldMT-112"/>
    <use x="1905.960938" xlink:href="#Arial-BoldMT-97"/>
    <use x="1961.576172" xlink:href="#Arial-BoldMT-121"/>
    <use x="2017.191406" xlink:href="#Arial-BoldMT-119"/>
    <use x="2094.974609" xlink:href="#Arial-BoldMT-97"/>
    <use x="2150.589844" xlink:href="#Arial-BoldMT-108"/>
    <use x="2178.373047" xlink:href="#Arial-BoldMT-108"/>
    <use x="2206.15625" xlink:href="#Arial-BoldMT-32"/>
    <use x="2233.939453" xlink:href="#Arial-BoldMT-104"/>
    <use x="2295.023438" xlink:href="#Arial-BoldMT-111"/>
    <use x="2356.107422" xlink:href="#Arial-BoldMT-115"/>
    <use x="2411.722656" xlink:href="#Arial-BoldMT-116"/>
   </g>
  </g>
  <g id="text_34">
   <!-- Year -->
   <defs>
    <path d="M 27.875 0 
L 27.875 30.328125 
L 0.296875 71.578125 
L 11.8125 71.578125 
L 25.921875 50 
Q 29.828125 43.953125 33.203125 37.890625 
Q 36.421875 43.5 41.015625 50.53125 
L 54.890625 71.578125 
L 65.921875 71.578125 
L 37.359375 30.328125 
L 37.359375 0 
z
" id="ArialMT-89"/>
   </defs>
   <g style="fill:#262626;" transform="translate(400.615313 316.368)scale(0.12 -0.12)">
    <use xlink:href="#ArialMT-89"/>
    <use x="66.558594" xlink:href="#ArialMT-101"/>
    <use x="122.173828" xlink:href="#ArialMT-97"/>
    <use x="177.789062" xlink:href="#ArialMT-114"/>
   </g>
  </g>
  <g id="text_35">
   <!-- OA Articles (Total) -->
   <defs>
    <path d="M 23.390625 -21.046875 
Q 16.109375 -11.859375 11.078125 0.4375 
Q 6.0625 12.75 6.0625 25.921875 
Q 6.0625 37.546875 9.8125 48.1875 
Q 14.203125 60.546875 23.390625 72.796875 
L 29.6875 72.796875 
Q 23.78125 62.640625 21.875 58.296875 
Q 18.890625 51.5625 17.1875 44.234375 
Q 15.09375 35.109375 15.09375 25.875 
Q 15.09375 2.390625 29.6875 -21.046875 
z
" id="ArialMT-40"/>
    <path d="M 25.921875 0 
L 25.921875 63.140625 
L 2.34375 63.140625 
L 2.34375 71.578125 
L 59.078125 71.578125 
L 59.078125 63.140625 
L 35.40625 63.140625 
L 35.40625 0 
z
" id="ArialMT-84"/>
    <path d="M 12.359375 -21.046875 
L 6.0625 -21.046875 
Q 20.65625 2.390625 20.65625 25.875 
Q 20.65625 35.0625 18.5625 44.09375 
Q 16.890625 51.421875 13.921875 58.15625 
Q 12.015625 62.546875 6.0625 72.796875 
L 12.359375 72.796875 
Q 21.53125 60.546875 25.921875 48.1875 
Q 29.6875 37.546875 29.6875 25.921875 
Q 29.6875 12.75 24.625 0.4375 
Q 19.578125 -11.859375 12.359375 -21.046875 
z
" id="ArialMT-41"/>
   </defs>
   <g style="fill:#262626;" transform="translate(15.943125 220.34625)rotate(-90)scale(0.12 -0.12)">
    <use xlink:href="#ArialMT-79"/>
    <use x="77.783203" xlink:href="#ArialMT-65"/>
    <use x="144.404297" xlink:href="#ArialMT-32"/>
    <use x="172.109375" xlink:href="#ArialMT-65"/>
    <use x="238.808594" xlink:href="#ArialMT-114"/>
    <use x="272.109375" xlink:href="#ArialMT-116"/>
    <use x="299.892578" xlink:href="#ArialMT-105"/>
    <use x="322.109375" xlink:href="#ArialMT-99"/>
    <use x="372.109375" xlink:href="#ArialMT-108"/>
    <use x="394.326172" xlink:href="#ArialMT-101"/>
    <use x="449.941406" xlink:href="#ArialMT-115"/>
    <use x="499.941406" xlink:href="#ArialMT-32"/>
    <use x="527.724609" xlink:href="#ArialMT-40"/>
    <use x="561.025391" xlink:href="#ArialMT-84"/>
    <use x="621.9375" xlink:href="#ArialMT-111"/>
    <use x="677.552734" xlink:href="#ArialMT-116"/>
    <use x="705.335938" xlink:href="#ArialMT-97"/>
    <use x="760.951172" xlink:href="#ArialMT-108"/>
    <use x="783.167969" xlink:href="#ArialMT-41"/>
   </g>
  </g>
 </g>
 <defs>
  <clipPath id="pb8dea727dc">
   <rect height="224.74" width="215.955717" x="77.84" y="60"/>
  </clipPath>
  <clipPath id="pd1fef8ee26">
   <rect height="224.74" width="215.955717" x="312.461112" y="60"/>
  </clipPath>
  <clipPath id="p9bad821185">
   <rect height="224.74" width="215.955717" x="547.082224" y="60"/>
  </clipPath>
 </defs>
</svg>
