<?xml version="1.0" encoding="utf-8" standalone="no"?>
<!DOCTYPE svg PUBLIC "-//W3C//DTD SVG 1.1//EN"
  "http://www.w3.org/Graphics/SVG/1.1/DTD/svg11.dtd">
<!-- Created with matplotlib (https://matplotlib.org/) -->
<svg height="347.781719pt" version="1.1" viewBox="0 0 745.211875 347.781719" width="745.211875pt" xmlns="http://www.w3.org/2000/svg" xmlns:xlink="http://www.w3.org/1999/xlink">
 <defs>
  <style type="text/css">
*{stroke-linecap:butt;stroke-linejoin:round;}
  </style>
 </defs>
 <g id="figure_1">
  <g id="patch_1">
   <path d="M 0 347.781719 
L 745.211875 347.781719 
L 745.211875 0 
L 0 0 
z
" style="fill:#ffffff;"/>
  </g>
  <g id="axes_1">
   <g id="matplotlib.axis_1">
    <g id="xtick_1">
     <g id="line2d_1">
      <path clip-path="url(#p6249ca506a)" d="M 274.291875 307.735625 
L 274.291875 35.935625 
" style="fill:none;stroke:#cccccc;stroke-linecap:round;stroke-width:0.8;"/>
     </g>
     <g id="line2d_2"/>
     <g id="text_1">
      <!-- 0 -->
      <defs>
       <path d="M 4.15625 35.296875 
Q 4.15625 48 6.765625 55.734375 
Q 9.375 63.484375 14.515625 67.671875 
Q 19.671875 71.875 27.484375 71.875 
Q 33.25 71.875 37.59375 69.546875 
Q 41.9375 67.234375 44.765625 62.859375 
Q 47.609375 58.5 49.21875 52.21875 
Q 50.828125 45.953125 50.828125 35.296875 
Q 50.828125 22.703125 48.234375 14.96875 
Q 45.65625 7.234375 40.5 3 
Q 35.359375 -1.21875 27.484375 -1.21875 
Q 17.140625 -1.21875 11.234375 6.203125 
Q 4.15625 15.140625 4.15625 35.296875 
z
M 13.1875 35.296875 
Q 13.1875 17.671875 17.3125 11.828125 
Q 21.4375 6 27.484375 6 
Q 33.546875 6 37.671875 11.859375 
Q 41.796875 17.71875 41.796875 35.296875 
Q 41.796875 52.984375 37.671875 58.78125 
Q 33.546875 64.59375 27.390625 64.59375 
Q 21.34375 64.59375 17.71875 59.46875 
Q 13.1875 52.9375 13.1875 35.296875 
z
" id="ArialMT-48"/>
      </defs>
      <g style="fill:#262626;" transform="translate(271.511406 318.393438)scale(0.1 -0.1)">
       <use xlink:href="#ArialMT-48"/>
      </g>
     </g>
    </g>
    <g id="xtick_2">
     <g id="line2d_3">
      <path clip-path="url(#p6249ca506a)" d="M 343.927946 307.735625 
L 343.927946 35.935625 
" style="fill:none;stroke:#cccccc;stroke-linecap:round;stroke-width:0.8;"/>
     </g>
     <g id="line2d_4"/>
     <g id="text_2">
      <!-- 1000000 -->
      <defs>
       <path d="M 37.25 0 
L 28.46875 0 
L 28.46875 56 
Q 25.296875 52.984375 20.140625 49.953125 
Q 14.984375 46.921875 10.890625 45.40625 
L 10.890625 53.90625 
Q 18.265625 57.375 23.78125 62.296875 
Q 29.296875 67.234375 31.59375 71.875 
L 37.25 71.875 
z
" id="ArialMT-49"/>
      </defs>
      <g style="fill:#262626;" transform="translate(324.464665 318.393438)scale(0.1 -0.1)">
       <use xlink:href="#ArialMT-49"/>
       <use x="55.615234" xlink:href="#ArialMT-48"/>
       <use x="111.230469" xlink:href="#ArialMT-48"/>
       <use x="166.845703" xlink:href="#ArialMT-48"/>
       <use x="222.460938" xlink:href="#ArialMT-48"/>
       <use x="278.076172" xlink:href="#ArialMT-48"/>
       <use x="333.691406" xlink:href="#ArialMT-48"/>
      </g>
     </g>
    </g>
    <g id="xtick_3">
     <g id="line2d_5">
      <path clip-path="url(#p6249ca506a)" d="M 413.564017 307.735625 
L 413.564017 35.935625 
" style="fill:none;stroke:#cccccc;stroke-linecap:round;stroke-width:0.8;"/>
     </g>
     <g id="line2d_6"/>
     <g id="text_3">
      <!-- 2000000 -->
      <defs>
       <path d="M 50.34375 8.453125 
L 50.34375 0 
L 3.03125 0 
Q 2.9375 3.171875 4.046875 6.109375 
Q 5.859375 10.9375 9.828125 15.625 
Q 13.8125 20.3125 21.34375 26.46875 
Q 33.015625 36.03125 37.109375 41.625 
Q 41.21875 47.21875 41.21875 52.203125 
Q 41.21875 57.421875 37.46875 61 
Q 33.734375 64.59375 27.734375 64.59375 
Q 21.390625 64.59375 17.578125 60.78125 
Q 13.765625 56.984375 13.71875 50.25 
L 4.6875 51.171875 
Q 5.609375 61.28125 11.65625 66.578125 
Q 17.71875 71.875 27.9375 71.875 
Q 38.234375 71.875 44.234375 66.15625 
Q 50.25 60.453125 50.25 52 
Q 50.25 47.703125 48.484375 43.546875 
Q 46.734375 39.40625 42.65625 34.8125 
Q 38.578125 30.21875 29.109375 22.21875 
Q 21.1875 15.578125 18.9375 13.203125 
Q 16.703125 10.84375 15.234375 8.453125 
z
" id="ArialMT-50"/>
      </defs>
      <g style="fill:#262626;" transform="translate(394.100736 318.393438)scale(0.1 -0.1)">
       <use xlink:href="#ArialMT-50"/>
       <use x="55.615234" xlink:href="#ArialMT-48"/>
       <use x="111.230469" xlink:href="#ArialMT-48"/>
       <use x="166.845703" xlink:href="#ArialMT-48"/>
       <use x="222.460938" xlink:href="#ArialMT-48"/>
       <use x="278.076172" xlink:href="#ArialMT-48"/>
       <use x="333.691406" xlink:href="#ArialMT-48"/>
      </g>
     </g>
    </g>
    <g id="xtick_4">
     <g id="line2d_7">
      <path clip-path="url(#p6249ca506a)" d="M 483.200088 307.735625 
L 483.200088 35.935625 
" style="fill:none;stroke:#cccccc;stroke-linecap:round;stroke-width:0.8;"/>
     </g>
     <g id="line2d_8"/>
     <g id="text_4">
      <!-- 3000000 -->
      <defs>
       <path d="M 4.203125 18.890625 
L 12.984375 20.0625 
Q 14.5 12.59375 18.140625 9.296875 
Q 21.78125 6 27 6 
Q 33.203125 6 37.46875 10.296875 
Q 41.75 14.59375 41.75 20.953125 
Q 41.75 27 37.796875 30.921875 
Q 33.84375 34.859375 27.734375 34.859375 
Q 25.25 34.859375 21.53125 33.890625 
L 22.515625 41.609375 
Q 23.390625 41.5 23.921875 41.5 
Q 29.546875 41.5 34.03125 44.421875 
Q 38.53125 47.359375 38.53125 53.46875 
Q 38.53125 58.296875 35.25 61.46875 
Q 31.984375 64.65625 26.8125 64.65625 
Q 21.6875 64.65625 18.265625 61.421875 
Q 14.84375 58.203125 13.875 51.765625 
L 5.078125 53.328125 
Q 6.6875 62.15625 12.390625 67.015625 
Q 18.109375 71.875 26.609375 71.875 
Q 32.46875 71.875 37.390625 69.359375 
Q 42.328125 66.84375 44.9375 62.5 
Q 47.5625 58.15625 47.5625 53.265625 
Q 47.5625 48.640625 45.0625 44.828125 
Q 42.578125 41.015625 37.703125 38.765625 
Q 44.046875 37.3125 47.5625 32.6875 
Q 51.078125 28.078125 51.078125 21.140625 
Q 51.078125 11.765625 44.234375 5.25 
Q 37.40625 -1.265625 26.953125 -1.265625 
Q 17.53125 -1.265625 11.296875 4.34375 
Q 5.078125 9.96875 4.203125 18.890625 
z
" id="ArialMT-51"/>
      </defs>
      <g style="fill:#262626;" transform="translate(463.736807 318.393438)scale(0.1 -0.1)">
       <use xlink:href="#ArialMT-51"/>
       <use x="55.615234" xlink:href="#ArialMT-48"/>
       <use x="111.230469" xlink:href="#ArialMT-48"/>
       <use x="166.845703" xlink:href="#ArialMT-48"/>
       <use x="222.460938" xlink:href="#ArialMT-48"/>
       <use x="278.076172" xlink:href="#ArialMT-48"/>
       <use x="333.691406" xlink:href="#ArialMT-48"/>
      </g>
     </g>
    </g>
    <g id="xtick_5">
     <g id="line2d_9">
      <path clip-path="url(#p6249ca506a)" d="M 552.836159 307.735625 
L 552.836159 35.935625 
" style="fill:none;stroke:#cccccc;stroke-linecap:round;stroke-width:0.8;"/>
     </g>
     <g id="line2d_10"/>
     <g id="text_5">
      <!-- 4000000 -->
      <defs>
       <path d="M 32.328125 0 
L 32.328125 17.140625 
L 1.265625 17.140625 
L 1.265625 25.203125 
L 33.9375 71.578125 
L 41.109375 71.578125 
L 41.109375 25.203125 
L 50.78125 25.203125 
L 50.78125 17.140625 
L 41.109375 17.140625 
L 41.109375 0 
z
M 32.328125 25.203125 
L 32.328125 57.46875 
L 9.90625 25.203125 
z
" id="ArialMT-52"/>
      </defs>
      <g style="fill:#262626;" transform="translate(533.372878 318.393438)scale(0.1 -0.1)">
       <use xlink:href="#ArialMT-52"/>
       <use x="55.615234" xlink:href="#ArialMT-48"/>
       <use x="111.230469" xlink:href="#ArialMT-48"/>
       <use x="166.845703" xlink:href="#ArialMT-48"/>
       <use x="222.460938" xlink:href="#ArialMT-48"/>
       <use x="278.076172" xlink:href="#ArialMT-48"/>
       <use x="333.691406" xlink:href="#ArialMT-48"/>
      </g>
     </g>
    </g>
    <g id="xtick_6">
     <g id="line2d_11">
      <path clip-path="url(#p6249ca506a)" d="M 622.47223 307.735625 
L 622.47223 35.935625 
" style="fill:none;stroke:#cccccc;stroke-linecap:round;stroke-width:0.8;"/>
     </g>
     <g id="line2d_12"/>
     <g id="text_6">
      <!-- 5000000 -->
      <defs>
       <path d="M 4.15625 18.75 
L 13.375 19.53125 
Q 14.40625 12.796875 18.140625 9.390625 
Q 21.875 6 27.15625 6 
Q 33.5 6 37.890625 10.78125 
Q 42.28125 15.578125 42.28125 23.484375 
Q 42.28125 31 38.0625 35.34375 
Q 33.84375 39.703125 27 39.703125 
Q 22.75 39.703125 19.328125 37.765625 
Q 15.921875 35.84375 13.96875 32.765625 
L 5.71875 33.84375 
L 12.640625 70.609375 
L 48.25 70.609375 
L 48.25 62.203125 
L 19.671875 62.203125 
L 15.828125 42.96875 
Q 22.265625 47.46875 29.34375 47.46875 
Q 38.71875 47.46875 45.15625 40.96875 
Q 51.609375 34.46875 51.609375 24.265625 
Q 51.609375 14.546875 45.953125 7.46875 
Q 39.0625 -1.21875 27.15625 -1.21875 
Q 17.390625 -1.21875 11.203125 4.25 
Q 5.03125 9.71875 4.15625 18.75 
z
" id="ArialMT-53"/>
      </defs>
      <g style="fill:#262626;" transform="translate(603.008949 318.393438)scale(0.1 -0.1)">
       <use xlink:href="#ArialMT-53"/>
       <use x="55.615234" xlink:href="#ArialMT-48"/>
       <use x="111.230469" xlink:href="#ArialMT-48"/>
       <use x="166.845703" xlink:href="#ArialMT-48"/>
       <use x="222.460938" xlink:href="#ArialMT-48"/>
       <use x="278.076172" xlink:href="#ArialMT-48"/>
       <use x="333.691406" xlink:href="#ArialMT-48"/>
      </g>
     </g>
    </g>
    <g id="text_7">
     <!-- Number of Open Access Articles -->
     <defs>
      <path d="M 7.625 0 
L 7.625 71.578125 
L 17.328125 71.578125 
L 54.9375 15.375 
L 54.9375 71.578125 
L 64.015625 71.578125 
L 64.015625 0 
L 54.296875 0 
L 16.703125 56.25 
L 16.703125 0 
z
" id="ArialMT-78"/>
      <path d="M 40.578125 0 
L 40.578125 7.625 
Q 34.515625 -1.171875 24.125 -1.171875 
Q 19.53125 -1.171875 15.546875 0.578125 
Q 11.578125 2.34375 9.640625 5 
Q 7.71875 7.671875 6.9375 11.53125 
Q 6.390625 14.109375 6.390625 19.734375 
L 6.390625 51.859375 
L 15.1875 51.859375 
L 15.1875 23.09375 
Q 15.1875 16.21875 15.71875 13.8125 
Q 16.546875 10.359375 19.234375 8.375 
Q 21.921875 6.390625 25.875 6.390625 
Q 29.828125 6.390625 33.296875 8.421875 
Q 36.765625 10.453125 38.203125 13.9375 
Q 39.65625 17.4375 39.65625 24.078125 
L 39.65625 51.859375 
L 48.4375 51.859375 
L 48.4375 0 
z
" id="ArialMT-117"/>
      <path d="M 6.59375 0 
L 6.59375 51.859375 
L 14.453125 51.859375 
L 14.453125 44.578125 
Q 16.890625 48.390625 20.9375 50.703125 
Q 25 53.03125 30.171875 53.03125 
Q 35.9375 53.03125 39.625 50.640625 
Q 43.3125 48.25 44.828125 43.953125 
Q 50.984375 53.03125 60.84375 53.03125 
Q 68.5625 53.03125 72.703125 48.75 
Q 76.859375 44.484375 76.859375 35.59375 
L 76.859375 0 
L 68.109375 0 
L 68.109375 32.671875 
Q 68.109375 37.9375 67.25 40.25 
Q 66.40625 42.578125 64.15625 43.984375 
Q 61.921875 45.40625 58.890625 45.40625 
Q 53.421875 45.40625 49.796875 41.765625 
Q 46.1875 38.140625 46.1875 30.125 
L 46.1875 0 
L 37.40625 0 
L 37.40625 33.6875 
Q 37.40625 39.546875 35.25 42.46875 
Q 33.109375 45.40625 28.21875 45.40625 
Q 24.515625 45.40625 21.359375 43.453125 
Q 18.21875 41.5 16.796875 37.734375 
Q 15.375 33.984375 15.375 26.90625 
L 15.375 0 
z
" id="ArialMT-109"/>
      <path d="M 14.703125 0 
L 6.546875 0 
L 6.546875 71.578125 
L 15.328125 71.578125 
L 15.328125 46.046875 
Q 20.90625 53.03125 29.546875 53.03125 
Q 34.328125 53.03125 38.59375 51.09375 
Q 42.875 49.171875 45.625 45.671875 
Q 48.390625 42.1875 49.953125 37.25 
Q 51.515625 32.328125 51.515625 26.703125 
Q 51.515625 13.375 44.921875 6.09375 
Q 38.328125 -1.171875 29.109375 -1.171875 
Q 19.921875 -1.171875 14.703125 6.5 
z
M 14.59375 26.3125 
Q 14.59375 17 17.140625 12.84375 
Q 21.296875 6.0625 28.375 6.0625 
Q 34.125 6.0625 38.328125 11.0625 
Q 42.53125 16.0625 42.53125 25.984375 
Q 42.53125 36.140625 38.5 40.96875 
Q 34.46875 45.796875 28.765625 45.796875 
Q 23 45.796875 18.796875 40.796875 
Q 14.59375 35.796875 14.59375 26.3125 
z
" id="ArialMT-98"/>
      <path d="M 42.09375 16.703125 
L 51.171875 15.578125 
Q 49.03125 7.625 43.21875 3.21875 
Q 37.40625 -1.171875 28.375 -1.171875 
Q 17 -1.171875 10.328125 5.828125 
Q 3.65625 12.84375 3.65625 25.484375 
Q 3.65625 38.578125 10.390625 45.796875 
Q 17.140625 53.03125 27.875 53.03125 
Q 38.28125 53.03125 44.875 45.953125 
Q 51.46875 38.875 51.46875 26.03125 
Q 51.46875 25.25 51.421875 23.6875 
L 12.75 23.6875 
Q 13.234375 15.140625 17.578125 10.59375 
Q 21.921875 6.0625 28.421875 6.0625 
Q 33.25 6.0625 36.671875 8.59375 
Q 40.09375 11.140625 42.09375 16.703125 
z
M 13.234375 30.90625 
L 42.1875 30.90625 
Q 41.609375 37.453125 38.875 40.71875 
Q 34.671875 45.796875 27.984375 45.796875 
Q 21.921875 45.796875 17.796875 41.75 
Q 13.671875 37.703125 13.234375 30.90625 
z
" id="ArialMT-101"/>
      <path d="M 6.5 0 
L 6.5 51.859375 
L 14.40625 51.859375 
L 14.40625 44 
Q 17.4375 49.515625 20 51.265625 
Q 22.5625 53.03125 25.640625 53.03125 
Q 30.078125 53.03125 34.671875 50.203125 
L 31.640625 42.046875 
Q 28.421875 43.953125 25.203125 43.953125 
Q 22.3125 43.953125 20.015625 42.21875 
Q 17.71875 40.484375 16.75 37.40625 
Q 15.28125 32.71875 15.28125 27.15625 
L 15.28125 0 
z
" id="ArialMT-114"/>
      <path id="ArialMT-32"/>
      <path d="M 3.328125 25.921875 
Q 3.328125 40.328125 11.328125 47.265625 
Q 18.015625 53.03125 27.640625 53.03125 
Q 38.328125 53.03125 45.109375 46.015625 
Q 51.90625 39.015625 51.90625 26.65625 
Q 51.90625 16.65625 48.90625 10.90625 
Q 45.90625 5.171875 40.15625 2 
Q 34.421875 -1.171875 27.640625 -1.171875 
Q 16.75 -1.171875 10.03125 5.8125 
Q 3.328125 12.796875 3.328125 25.921875 
z
M 12.359375 25.921875 
Q 12.359375 15.96875 16.703125 11.015625 
Q 21.046875 6.0625 27.640625 6.0625 
Q 34.1875 6.0625 38.53125 11.03125 
Q 42.875 16.015625 42.875 26.21875 
Q 42.875 35.84375 38.5 40.796875 
Q 34.125 45.75 27.640625 45.75 
Q 21.046875 45.75 16.703125 40.8125 
Q 12.359375 35.890625 12.359375 25.921875 
z
" id="ArialMT-111"/>
      <path d="M 8.6875 0 
L 8.6875 45.015625 
L 0.921875 45.015625 
L 0.921875 51.859375 
L 8.6875 51.859375 
L 8.6875 57.375 
Q 8.6875 62.59375 9.625 65.140625 
Q 10.890625 68.5625 14.078125 70.671875 
Q 17.28125 72.796875 23.046875 72.796875 
Q 26.765625 72.796875 31.25 71.921875 
L 29.9375 64.265625 
Q 27.203125 64.75 24.75 64.75 
Q 20.75 64.75 19.09375 63.03125 
Q 17.4375 61.328125 17.4375 56.640625 
L 17.4375 51.859375 
L 27.546875 51.859375 
L 27.546875 45.015625 
L 17.4375 45.015625 
L 17.4375 0 
z
" id="ArialMT-102"/>
      <path d="M 4.828125 34.859375 
Q 4.828125 52.6875 14.390625 62.765625 
Q 23.96875 72.859375 39.109375 72.859375 
Q 49.03125 72.859375 56.984375 68.109375 
Q 64.9375 63.375 69.109375 54.90625 
Q 73.296875 46.4375 73.296875 35.6875 
Q 73.296875 24.8125 68.890625 16.21875 
Q 64.5 7.625 56.4375 3.203125 
Q 48.390625 -1.21875 39.0625 -1.21875 
Q 28.953125 -1.21875 20.984375 3.65625 
Q 13.03125 8.546875 8.921875 16.984375 
Q 4.828125 25.4375 4.828125 34.859375 
z
M 14.59375 34.71875 
Q 14.59375 21.78125 21.546875 14.328125 
Q 28.515625 6.890625 39.015625 6.890625 
Q 49.703125 6.890625 56.609375 14.40625 
Q 63.53125 21.921875 63.53125 35.75 
Q 63.53125 44.484375 60.578125 51 
Q 57.625 57.515625 51.921875 61.109375 
Q 46.234375 64.703125 39.15625 64.703125 
Q 29.109375 64.703125 21.84375 57.78125 
Q 14.59375 50.875 14.59375 34.71875 
z
" id="ArialMT-79"/>
      <path d="M 6.59375 -19.875 
L 6.59375 51.859375 
L 14.59375 51.859375 
L 14.59375 45.125 
Q 17.4375 49.078125 21 51.046875 
Q 24.5625 53.03125 29.640625 53.03125 
Q 36.28125 53.03125 41.359375 49.609375 
Q 46.4375 46.1875 49.015625 39.953125 
Q 51.609375 33.734375 51.609375 26.3125 
Q 51.609375 18.359375 48.75 11.984375 
Q 45.90625 5.609375 40.453125 2.21875 
Q 35.015625 -1.171875 29 -1.171875 
Q 24.609375 -1.171875 21.109375 0.6875 
Q 17.625 2.546875 15.375 5.375 
L 15.375 -19.875 
z
M 14.546875 25.640625 
Q 14.546875 15.625 18.59375 10.84375 
Q 22.65625 6.0625 28.421875 6.0625 
Q 34.28125 6.0625 38.453125 11.015625 
Q 42.625 15.96875 42.625 26.375 
Q 42.625 36.28125 38.546875 41.203125 
Q 34.46875 46.140625 28.8125 46.140625 
Q 23.1875 46.140625 18.859375 40.890625 
Q 14.546875 35.640625 14.546875 25.640625 
z
" id="ArialMT-112"/>
      <path d="M 6.59375 0 
L 6.59375 51.859375 
L 14.5 51.859375 
L 14.5 44.484375 
Q 20.21875 53.03125 31 53.03125 
Q 35.6875 53.03125 39.625 51.34375 
Q 43.5625 49.65625 45.515625 46.921875 
Q 47.46875 44.1875 48.25 40.4375 
Q 48.734375 37.984375 48.734375 31.890625 
L 48.734375 0 
L 39.9375 0 
L 39.9375 31.546875 
Q 39.9375 36.921875 38.90625 39.578125 
Q 37.890625 42.234375 35.28125 43.8125 
Q 32.671875 45.40625 29.15625 45.40625 
Q 23.53125 45.40625 19.453125 41.84375 
Q 15.375 38.28125 15.375 28.328125 
L 15.375 0 
z
" id="ArialMT-110"/>
      <path d="M -0.140625 0 
L 27.34375 71.578125 
L 37.546875 71.578125 
L 66.84375 0 
L 56.0625 0 
L 47.703125 21.6875 
L 17.78125 21.6875 
L 9.90625 0 
z
M 20.515625 29.390625 
L 44.78125 29.390625 
L 37.3125 49.21875 
Q 33.890625 58.25 32.234375 64.0625 
Q 30.859375 57.171875 28.375 50.390625 
z
" id="ArialMT-65"/>
      <path d="M 40.4375 19 
L 49.078125 17.875 
Q 47.65625 8.9375 41.8125 3.875 
Q 35.984375 -1.171875 27.484375 -1.171875 
Q 16.84375 -1.171875 10.375 5.78125 
Q 3.90625 12.75 3.90625 25.734375 
Q 3.90625 34.125 6.6875 40.421875 
Q 9.46875 46.734375 15.15625 49.875 
Q 20.84375 53.03125 27.546875 53.03125 
Q 35.984375 53.03125 41.359375 48.75 
Q 46.734375 44.484375 48.25 36.625 
L 39.703125 35.296875 
Q 38.484375 40.53125 35.375 43.15625 
Q 32.28125 45.796875 27.875 45.796875 
Q 21.234375 45.796875 17.078125 41.03125 
Q 12.9375 36.28125 12.9375 25.984375 
Q 12.9375 15.53125 16.9375 10.796875 
Q 20.953125 6.0625 27.390625 6.0625 
Q 32.5625 6.0625 36.03125 9.234375 
Q 39.5 12.40625 40.4375 19 
z
" id="ArialMT-99"/>
      <path d="M 3.078125 15.484375 
L 11.765625 16.84375 
Q 12.5 11.625 15.84375 8.84375 
Q 19.1875 6.0625 25.203125 6.0625 
Q 31.25 6.0625 34.171875 8.515625 
Q 37.109375 10.984375 37.109375 14.3125 
Q 37.109375 17.28125 34.515625 19 
Q 32.71875 20.171875 25.53125 21.96875 
Q 15.875 24.421875 12.140625 26.203125 
Q 8.40625 27.984375 6.46875 31.125 
Q 4.546875 34.28125 4.546875 38.09375 
Q 4.546875 41.546875 6.125 44.5 
Q 7.71875 47.46875 10.453125 49.421875 
Q 12.5 50.921875 16.03125 51.96875 
Q 19.578125 53.03125 23.640625 53.03125 
Q 29.734375 53.03125 34.34375 51.265625 
Q 38.96875 49.515625 41.15625 46.5 
Q 43.359375 43.5 44.1875 38.484375 
L 35.59375 37.3125 
Q 35.015625 41.3125 32.203125 43.546875 
Q 29.390625 45.796875 24.265625 45.796875 
Q 18.21875 45.796875 15.625 43.796875 
Q 13.03125 41.796875 13.03125 39.109375 
Q 13.03125 37.40625 14.109375 36.03125 
Q 15.1875 34.625 17.484375 33.6875 
Q 18.796875 33.203125 25.25 31.453125 
Q 34.578125 28.953125 38.25 27.359375 
Q 41.9375 25.78125 44.03125 22.75 
Q 46.140625 19.734375 46.140625 15.234375 
Q 46.140625 10.84375 43.578125 6.953125 
Q 41.015625 3.078125 36.171875 0.953125 
Q 31.34375 -1.171875 25.25 -1.171875 
Q 15.140625 -1.171875 9.84375 3.03125 
Q 4.546875 7.234375 3.078125 15.484375 
z
" id="ArialMT-115"/>
      <path d="M 25.78125 7.859375 
L 27.046875 0.09375 
Q 23.34375 -0.6875 20.40625 -0.6875 
Q 15.625 -0.6875 12.984375 0.828125 
Q 10.359375 2.34375 9.28125 4.8125 
Q 8.203125 7.28125 8.203125 15.1875 
L 8.203125 45.015625 
L 1.765625 45.015625 
L 1.765625 51.859375 
L 8.203125 51.859375 
L 8.203125 64.703125 
L 16.9375 69.96875 
L 16.9375 51.859375 
L 25.78125 51.859375 
L 25.78125 45.015625 
L 16.9375 45.015625 
L 16.9375 14.703125 
Q 16.9375 10.9375 17.40625 9.859375 
Q 17.875 8.796875 18.921875 8.15625 
Q 19.96875 7.515625 21.921875 7.515625 
Q 23.390625 7.515625 25.78125 7.859375 
z
" id="ArialMT-116"/>
      <path d="M 6.640625 61.46875 
L 6.640625 71.578125 
L 15.4375 71.578125 
L 15.4375 61.46875 
z
M 6.640625 0 
L 6.640625 51.859375 
L 15.4375 51.859375 
L 15.4375 0 
z
" id="ArialMT-105"/>
      <path d="M 6.390625 0 
L 6.390625 71.578125 
L 15.1875 71.578125 
L 15.1875 0 
z
" id="ArialMT-108"/>
     </defs>
     <g style="fill:#262626;" transform="translate(390.130625 338.395469)scale(0.11 -0.11)">
      <use xlink:href="#ArialMT-78"/>
      <use x="72.216797" xlink:href="#ArialMT-117"/>
      <use x="127.832031" xlink:href="#ArialMT-109"/>
      <use x="211.132812" xlink:href="#ArialMT-98"/>
      <use x="266.748047" xlink:href="#ArialMT-101"/>
      <use x="322.363281" xlink:href="#ArialMT-114"/>
      <use x="355.664062" xlink:href="#ArialMT-32"/>
      <use x="383.447266" xlink:href="#ArialMT-111"/>
      <use x="439.0625" xlink:href="#ArialMT-102"/>
      <use x="466.845703" xlink:href="#ArialMT-32"/>
      <use x="494.628906" xlink:href="#ArialMT-79"/>
      <use x="572.412109" xlink:href="#ArialMT-112"/>
      <use x="628.027344" xlink:href="#ArialMT-101"/>
      <use x="683.642578" xlink:href="#ArialMT-110"/>
      <use x="739.257812" xlink:href="#ArialMT-32"/>
      <use x="766.962891" xlink:href="#ArialMT-65"/>
      <use x="833.662109" xlink:href="#ArialMT-99"/>
      <use x="883.662109" xlink:href="#ArialMT-99"/>
      <use x="933.662109" xlink:href="#ArialMT-101"/>
      <use x="989.277344" xlink:href="#ArialMT-115"/>
      <use x="1039.277344" xlink:href="#ArialMT-115"/>
      <use x="1089.277344" xlink:href="#ArialMT-32"/>
      <use x="1116.982422" xlink:href="#ArialMT-65"/>
      <use x="1183.681641" xlink:href="#ArialMT-114"/>
      <use x="1216.982422" xlink:href="#ArialMT-116"/>
      <use x="1244.765625" xlink:href="#ArialMT-105"/>
      <use x="1266.982422" xlink:href="#ArialMT-99"/>
      <use x="1316.982422" xlink:href="#ArialMT-108"/>
      <use x="1339.199219" xlink:href="#ArialMT-101"/>
      <use x="1394.814453" xlink:href="#ArialMT-115"/>
     </g>
    </g>
   </g>
   <g id="matplotlib.axis_2">
    <g id="ytick_1">
     <g id="line2d_13"/>
     <g id="text_8">
      <!-- open (via free pdf) -->
      <defs>
       <path d="M 23.390625 -21.046875 
Q 16.109375 -11.859375 11.078125 0.4375 
Q 6.0625 12.75 6.0625 25.921875 
Q 6.0625 37.546875 9.8125 48.1875 
Q 14.203125 60.546875 23.390625 72.796875 
L 29.6875 72.796875 
Q 23.78125 62.640625 21.875 58.296875 
Q 18.890625 51.5625 17.1875 44.234375 
Q 15.09375 35.109375 15.09375 25.875 
Q 15.09375 2.390625 29.6875 -21.046875 
z
" id="ArialMT-40"/>
       <path d="M 21 0 
L 1.265625 51.859375 
L 10.546875 51.859375 
L 21.6875 20.796875 
Q 23.484375 15.765625 25 10.359375 
Q 26.171875 14.453125 28.265625 20.21875 
L 39.796875 51.859375 
L 48.828125 51.859375 
L 29.203125 0 
z
" id="ArialMT-118"/>
       <path d="M 40.4375 6.390625 
Q 35.546875 2.25 31.03125 0.53125 
Q 26.515625 -1.171875 21.34375 -1.171875 
Q 12.796875 -1.171875 8.203125 3 
Q 3.609375 7.171875 3.609375 13.671875 
Q 3.609375 17.484375 5.34375 20.625 
Q 7.078125 23.78125 9.890625 25.6875 
Q 12.703125 27.59375 16.21875 28.5625 
Q 18.796875 29.25 24.03125 29.890625 
Q 34.671875 31.15625 39.703125 32.90625 
Q 39.75 34.71875 39.75 35.203125 
Q 39.75 40.578125 37.25 42.78125 
Q 33.890625 45.75 27.25 45.75 
Q 21.046875 45.75 18.09375 43.578125 
Q 15.140625 41.40625 13.71875 35.890625 
L 5.125 37.0625 
Q 6.296875 42.578125 8.984375 45.96875 
Q 11.671875 49.359375 16.75 51.1875 
Q 21.828125 53.03125 28.515625 53.03125 
Q 35.15625 53.03125 39.296875 51.46875 
Q 43.453125 49.90625 45.40625 47.53125 
Q 47.359375 45.171875 48.140625 41.546875 
Q 48.578125 39.3125 48.578125 33.453125 
L 48.578125 21.734375 
Q 48.578125 9.46875 49.140625 6.21875 
Q 49.703125 2.984375 51.375 0 
L 42.1875 0 
Q 40.828125 2.734375 40.4375 6.390625 
z
M 39.703125 26.03125 
Q 34.90625 24.078125 25.34375 22.703125 
Q 19.921875 21.921875 17.671875 20.9375 
Q 15.4375 19.96875 14.203125 18.09375 
Q 12.984375 16.21875 12.984375 13.921875 
Q 12.984375 10.40625 15.640625 8.0625 
Q 18.3125 5.71875 23.4375 5.71875 
Q 28.515625 5.71875 32.46875 7.9375 
Q 36.421875 10.15625 38.28125 14.015625 
Q 39.703125 17 39.703125 22.796875 
z
" id="ArialMT-97"/>
       <path d="M 40.234375 0 
L 40.234375 6.546875 
Q 35.296875 -1.171875 25.734375 -1.171875 
Q 19.53125 -1.171875 14.328125 2.25 
Q 9.125 5.671875 6.265625 11.796875 
Q 3.421875 17.921875 3.421875 25.875 
Q 3.421875 33.640625 6 39.96875 
Q 8.59375 46.296875 13.765625 49.65625 
Q 18.953125 53.03125 25.34375 53.03125 
Q 30.03125 53.03125 33.6875 51.046875 
Q 37.359375 49.078125 39.65625 45.90625 
L 39.65625 71.578125 
L 48.390625 71.578125 
L 48.390625 0 
z
M 12.453125 25.875 
Q 12.453125 15.921875 16.640625 10.984375 
Q 20.84375 6.0625 26.5625 6.0625 
Q 32.328125 6.0625 36.34375 10.765625 
Q 40.375 15.484375 40.375 25.140625 
Q 40.375 35.796875 36.265625 40.765625 
Q 32.171875 45.75 26.171875 45.75 
Q 20.3125 45.75 16.375 40.96875 
Q 12.453125 36.1875 12.453125 25.875 
z
" id="ArialMT-100"/>
       <path d="M 12.359375 -21.046875 
L 6.0625 -21.046875 
Q 20.65625 2.390625 20.65625 25.875 
Q 20.65625 35.0625 18.5625 44.09375 
Q 16.890625 51.421875 13.921875 58.15625 
Q 12.015625 62.546875 6.0625 72.796875 
L 12.359375 72.796875 
Q 21.53125 60.546875 25.921875 48.1875 
Q 29.6875 37.546875 29.6875 25.921875 
Q 29.6875 12.75 24.625 0.4375 
Q 19.578125 -11.859375 12.359375 -21.046875 
z
" id="ArialMT-41"/>
      </defs>
      <g style="fill:#262626;" transform="translate(189.641875 53.165469)scale(0.1 -0.1)">
       <use xlink:href="#ArialMT-111"/>
       <use x="55.615234" xlink:href="#ArialMT-112"/>
       <use x="111.230469" xlink:href="#ArialMT-101"/>
       <use x="166.845703" xlink:href="#ArialMT-110"/>
       <use x="222.460938" xlink:href="#ArialMT-32"/>
       <use x="250.244141" xlink:href="#ArialMT-40"/>
       <use x="283.544922" xlink:href="#ArialMT-118"/>
       <use x="333.544922" xlink:href="#ArialMT-105"/>
       <use x="355.761719" xlink:href="#ArialMT-97"/>
       <use x="411.376953" xlink:href="#ArialMT-32"/>
       <use x="439.160156" xlink:href="#ArialMT-102"/>
       <use x="466.943359" xlink:href="#ArialMT-114"/>
       <use x="500.244141" xlink:href="#ArialMT-101"/>
       <use x="555.859375" xlink:href="#ArialMT-101"/>
       <use x="611.474609" xlink:href="#ArialMT-32"/>
       <use x="639.257812" xlink:href="#ArialMT-112"/>
       <use x="694.873047" xlink:href="#ArialMT-100"/>
       <use x="750.488281" xlink:href="#ArialMT-102"/>
       <use x="778.271484" xlink:href="#ArialMT-41"/>
      </g>
     </g>
    </g>
    <g id="ytick_2">
     <g id="line2d_14"/>
     <g id="text_9">
      <!-- oa repository (via OAI-PMH doi match) -->
      <defs>
       <path d="M 6.203125 -19.96875 
L 5.21875 -11.71875 
Q 8.109375 -12.5 10.25 -12.5 
Q 13.1875 -12.5 14.9375 -11.515625 
Q 16.703125 -10.546875 17.828125 -8.796875 
Q 18.65625 -7.46875 20.515625 -2.25 
Q 20.75 -1.515625 21.296875 -0.09375 
L 1.609375 51.859375 
L 11.078125 51.859375 
L 21.875 21.828125 
Q 23.96875 16.109375 25.640625 9.8125 
Q 27.15625 15.875 29.25 21.625 
L 40.328125 51.859375 
L 49.125 51.859375 
L 29.390625 -0.875 
Q 26.21875 -9.421875 24.46875 -12.640625 
Q 22.125 -17 19.09375 -19.015625 
Q 16.0625 -21.046875 11.859375 -21.046875 
Q 9.328125 -21.046875 6.203125 -19.96875 
z
" id="ArialMT-121"/>
       <path d="M 9.328125 0 
L 9.328125 71.578125 
L 18.796875 71.578125 
L 18.796875 0 
z
" id="ArialMT-73"/>
       <path d="M 3.171875 21.484375 
L 3.171875 30.328125 
L 30.171875 30.328125 
L 30.171875 21.484375 
z
" id="ArialMT-45"/>
       <path d="M 7.71875 0 
L 7.71875 71.578125 
L 34.71875 71.578125 
Q 41.84375 71.578125 45.609375 70.90625 
Q 50.875 70.015625 54.4375 67.546875 
Q 58.015625 65.09375 60.1875 60.640625 
Q 62.359375 56.203125 62.359375 50.875 
Q 62.359375 41.75 56.546875 35.421875 
Q 50.734375 29.109375 35.546875 29.109375 
L 17.1875 29.109375 
L 17.1875 0 
z
M 17.1875 37.546875 
L 35.6875 37.546875 
Q 44.875 37.546875 48.734375 40.96875 
Q 52.59375 44.390625 52.59375 50.59375 
Q 52.59375 55.078125 50.3125 58.265625 
Q 48.046875 61.46875 44.34375 62.5 
Q 41.9375 63.140625 35.5 63.140625 
L 17.1875 63.140625 
z
" id="ArialMT-80"/>
       <path d="M 7.421875 0 
L 7.421875 71.578125 
L 21.6875 71.578125 
L 38.625 20.90625 
Q 40.96875 13.8125 42.046875 10.296875 
Q 43.265625 14.203125 45.84375 21.78125 
L 62.984375 71.578125 
L 75.734375 71.578125 
L 75.734375 0 
L 66.609375 0 
L 66.609375 59.90625 
L 45.796875 0 
L 37.25 0 
L 16.546875 60.9375 
L 16.546875 0 
z
" id="ArialMT-77"/>
       <path d="M 8.015625 0 
L 8.015625 71.578125 
L 17.484375 71.578125 
L 17.484375 42.1875 
L 54.6875 42.1875 
L 54.6875 71.578125 
L 64.15625 71.578125 
L 64.15625 0 
L 54.6875 0 
L 54.6875 33.734375 
L 17.484375 33.734375 
L 17.484375 0 
z
" id="ArialMT-72"/>
       <path d="M 6.59375 0 
L 6.59375 71.578125 
L 15.375 71.578125 
L 15.375 45.90625 
Q 21.53125 53.03125 30.90625 53.03125 
Q 36.671875 53.03125 40.921875 50.75 
Q 45.171875 48.484375 47 44.484375 
Q 48.828125 40.484375 48.828125 32.859375 
L 48.828125 0 
L 40.046875 0 
L 40.046875 32.859375 
Q 40.046875 39.453125 37.1875 42.453125 
Q 34.328125 45.453125 29.109375 45.453125 
Q 25.203125 45.453125 21.75 43.421875 
Q 18.3125 41.40625 16.84375 37.9375 
Q 15.375 34.46875 15.375 28.375 
L 15.375 0 
z
" id="ArialMT-104"/>
      </defs>
      <g style="fill:#262626;" transform="translate(99.0825 80.348594)scale(0.1 -0.1)">
       <use xlink:href="#ArialMT-111"/>
       <use x="55.615234" xlink:href="#ArialMT-97"/>
       <use x="111.230469" xlink:href="#ArialMT-32"/>
       <use x="139.013672" xlink:href="#ArialMT-114"/>
       <use x="172.314453" xlink:href="#ArialMT-101"/>
       <use x="227.929688" xlink:href="#ArialMT-112"/>
       <use x="283.544922" xlink:href="#ArialMT-111"/>
       <use x="339.160156" xlink:href="#ArialMT-115"/>
       <use x="389.160156" xlink:href="#ArialMT-105"/>
       <use x="411.376953" xlink:href="#ArialMT-116"/>
       <use x="439.160156" xlink:href="#ArialMT-111"/>
       <use x="494.775391" xlink:href="#ArialMT-114"/>
       <use x="528.076172" xlink:href="#ArialMT-121"/>
       <use x="578.076172" xlink:href="#ArialMT-32"/>
       <use x="605.859375" xlink:href="#ArialMT-40"/>
       <use x="639.160156" xlink:href="#ArialMT-118"/>
       <use x="689.160156" xlink:href="#ArialMT-105"/>
       <use x="711.376953" xlink:href="#ArialMT-97"/>
       <use x="766.992188" xlink:href="#ArialMT-32"/>
       <use x="794.775391" xlink:href="#ArialMT-79"/>
       <use x="872.558594" xlink:href="#ArialMT-65"/>
       <use x="939.257812" xlink:href="#ArialMT-73"/>
       <use x="967.041016" xlink:href="#ArialMT-45"/>
       <use x="1000.341797" xlink:href="#ArialMT-80"/>
       <use x="1067.041016" xlink:href="#ArialMT-77"/>
       <use x="1150.341797" xlink:href="#ArialMT-72"/>
       <use x="1222.558594" xlink:href="#ArialMT-32"/>
       <use x="1250.341797" xlink:href="#ArialMT-100"/>
       <use x="1305.957031" xlink:href="#ArialMT-111"/>
       <use x="1361.572266" xlink:href="#ArialMT-105"/>
       <use x="1383.789062" xlink:href="#ArialMT-32"/>
       <use x="1411.572266" xlink:href="#ArialMT-109"/>
       <use x="1494.873047" xlink:href="#ArialMT-97"/>
       <use x="1550.488281" xlink:href="#ArialMT-116"/>
       <use x="1578.271484" xlink:href="#ArialMT-99"/>
       <use x="1628.271484" xlink:href="#ArialMT-104"/>
       <use x="1683.886719" xlink:href="#ArialMT-41"/>
      </g>
     </g>
    </g>
    <g id="ytick_3">
     <g id="line2d_15"/>
     <g id="text_10">
      <!-- open (via page says license) -->
      <defs>
       <path d="M 4.984375 -4.296875 
L 13.53125 -5.5625 
Q 14.0625 -9.515625 16.5 -11.328125 
Q 19.78125 -13.765625 25.4375 -13.765625 
Q 31.546875 -13.765625 34.859375 -11.328125 
Q 38.1875 -8.890625 39.359375 -4.5 
Q 40.046875 -1.8125 39.984375 6.78125 
Q 34.234375 0 25.640625 0 
Q 14.9375 0 9.078125 7.71875 
Q 3.21875 15.4375 3.21875 26.21875 
Q 3.21875 33.640625 5.90625 39.90625 
Q 8.59375 46.1875 13.6875 49.609375 
Q 18.796875 53.03125 25.6875 53.03125 
Q 34.859375 53.03125 40.828125 45.609375 
L 40.828125 51.859375 
L 48.921875 51.859375 
L 48.921875 7.03125 
Q 48.921875 -5.078125 46.453125 -10.125 
Q 44 -15.1875 38.640625 -18.109375 
Q 33.296875 -21.046875 25.484375 -21.046875 
Q 16.21875 -21.046875 10.5 -16.875 
Q 4.78125 -12.703125 4.984375 -4.296875 
z
M 12.25 26.859375 
Q 12.25 16.65625 16.296875 11.96875 
Q 20.359375 7.28125 26.46875 7.28125 
Q 32.515625 7.28125 36.609375 11.9375 
Q 40.71875 16.609375 40.71875 26.5625 
Q 40.71875 36.078125 36.5 40.90625 
Q 32.28125 45.75 26.3125 45.75 
Q 20.453125 45.75 16.34375 40.984375 
Q 12.25 36.234375 12.25 26.859375 
z
" id="ArialMT-103"/>
      </defs>
      <g style="fill:#262626;" transform="translate(144.062187 107.525469)scale(0.1 -0.1)">
       <use xlink:href="#ArialMT-111"/>
       <use x="55.615234" xlink:href="#ArialMT-112"/>
       <use x="111.230469" xlink:href="#ArialMT-101"/>
       <use x="166.845703" xlink:href="#ArialMT-110"/>
       <use x="222.460938" xlink:href="#ArialMT-32"/>
       <use x="250.244141" xlink:href="#ArialMT-40"/>
       <use x="283.544922" xlink:href="#ArialMT-118"/>
       <use x="333.544922" xlink:href="#ArialMT-105"/>
       <use x="355.761719" xlink:href="#ArialMT-97"/>
       <use x="411.376953" xlink:href="#ArialMT-32"/>
       <use x="439.160156" xlink:href="#ArialMT-112"/>
       <use x="494.775391" xlink:href="#ArialMT-97"/>
       <use x="550.390625" xlink:href="#ArialMT-103"/>
       <use x="606.005859" xlink:href="#ArialMT-101"/>
       <use x="661.621094" xlink:href="#ArialMT-32"/>
       <use x="689.404297" xlink:href="#ArialMT-115"/>
       <use x="739.404297" xlink:href="#ArialMT-97"/>
       <use x="795.019531" xlink:href="#ArialMT-121"/>
       <use x="845.019531" xlink:href="#ArialMT-115"/>
       <use x="895.019531" xlink:href="#ArialMT-32"/>
       <use x="922.802734" xlink:href="#ArialMT-108"/>
       <use x="945.019531" xlink:href="#ArialMT-105"/>
       <use x="967.236328" xlink:href="#ArialMT-99"/>
       <use x="1017.236328" xlink:href="#ArialMT-101"/>
       <use x="1072.851562" xlink:href="#ArialMT-110"/>
       <use x="1128.466797" xlink:href="#ArialMT-115"/>
       <use x="1178.466797" xlink:href="#ArialMT-101"/>
       <use x="1234.082031" xlink:href="#ArialMT-41"/>
      </g>
     </g>
    </g>
    <g id="ytick_4">
     <g id="line2d_16"/>
     <g id="text_11">
      <!-- oa repository (semantic scholar lookup) -->
      <defs>
       <path d="M 6.640625 0 
L 6.640625 71.578125 
L 15.4375 71.578125 
L 15.4375 30.765625 
L 36.234375 51.859375 
L 47.609375 51.859375 
L 27.78125 32.625 
L 49.609375 0 
L 38.765625 0 
L 21.625 26.515625 
L 15.4375 20.5625 
L 15.4375 0 
z
" id="ArialMT-107"/>
      </defs>
      <g style="fill:#262626;" transform="translate(96.2825 134.705469)scale(0.1 -0.1)">
       <use xlink:href="#ArialMT-111"/>
       <use x="55.615234" xlink:href="#ArialMT-97"/>
       <use x="111.230469" xlink:href="#ArialMT-32"/>
       <use x="139.013672" xlink:href="#ArialMT-114"/>
       <use x="172.314453" xlink:href="#ArialMT-101"/>
       <use x="227.929688" xlink:href="#ArialMT-112"/>
       <use x="283.544922" xlink:href="#ArialMT-111"/>
       <use x="339.160156" xlink:href="#ArialMT-115"/>
       <use x="389.160156" xlink:href="#ArialMT-105"/>
       <use x="411.376953" xlink:href="#ArialMT-116"/>
       <use x="439.160156" xlink:href="#ArialMT-111"/>
       <use x="494.775391" xlink:href="#ArialMT-114"/>
       <use x="528.076172" xlink:href="#ArialMT-121"/>
       <use x="578.076172" xlink:href="#ArialMT-32"/>
       <use x="605.859375" xlink:href="#ArialMT-40"/>
       <use x="639.160156" xlink:href="#ArialMT-115"/>
       <use x="689.160156" xlink:href="#ArialMT-101"/>
       <use x="744.775391" xlink:href="#ArialMT-109"/>
       <use x="828.076172" xlink:href="#ArialMT-97"/>
       <use x="883.691406" xlink:href="#ArialMT-110"/>
       <use x="939.306641" xlink:href="#ArialMT-116"/>
       <use x="967.089844" xlink:href="#ArialMT-105"/>
       <use x="989.306641" xlink:href="#ArialMT-99"/>
       <use x="1039.306641" xlink:href="#ArialMT-32"/>
       <use x="1067.089844" xlink:href="#ArialMT-115"/>
       <use x="1117.089844" xlink:href="#ArialMT-99"/>
       <use x="1167.089844" xlink:href="#ArialMT-104"/>
       <use x="1222.705078" xlink:href="#ArialMT-111"/>
       <use x="1278.320312" xlink:href="#ArialMT-108"/>
       <use x="1300.537109" xlink:href="#ArialMT-97"/>
       <use x="1356.152344" xlink:href="#ArialMT-114"/>
       <use x="1389.453125" xlink:href="#ArialMT-32"/>
       <use x="1417.236328" xlink:href="#ArialMT-108"/>
       <use x="1439.453125" xlink:href="#ArialMT-111"/>
       <use x="1495.068359" xlink:href="#ArialMT-111"/>
       <use x="1550.683594" xlink:href="#ArialMT-107"/>
       <use x="1600.683594" xlink:href="#ArialMT-117"/>
       <use x="1656.298828" xlink:href="#ArialMT-112"/>
       <use x="1711.914062" xlink:href="#ArialMT-41"/>
      </g>
     </g>
    </g>
    <g id="ytick_5">
     <g id="line2d_17"/>
     <g id="text_12">
      <!-- oa journal (via doaj) -->
      <defs>
       <path d="M 6.546875 61.375 
L 6.546875 71.578125 
L 15.328125 71.578125 
L 15.328125 61.375 
z
M -4.59375 -20.125 
L -2.9375 -12.640625 
Q -0.296875 -13.328125 1.21875 -13.328125 
Q 3.90625 -13.328125 5.21875 -11.546875 
Q 6.546875 -9.765625 6.546875 -2.640625 
L 6.546875 51.859375 
L 15.328125 51.859375 
L 15.328125 -2.828125 
Q 15.328125 -12.40625 12.84375 -16.15625 
Q 9.671875 -21.046875 2.296875 -21.046875 
Q -1.265625 -21.046875 -4.59375 -20.125 
z
" id="ArialMT-106"/>
      </defs>
      <g style="fill:#262626;" transform="translate(182.971563 161.885469)scale(0.1 -0.1)">
       <use xlink:href="#ArialMT-111"/>
       <use x="55.615234" xlink:href="#ArialMT-97"/>
       <use x="111.230469" xlink:href="#ArialMT-32"/>
       <use x="139.013672" xlink:href="#ArialMT-106"/>
       <use x="161.230469" xlink:href="#ArialMT-111"/>
       <use x="216.845703" xlink:href="#ArialMT-117"/>
       <use x="272.460938" xlink:href="#ArialMT-114"/>
       <use x="305.761719" xlink:href="#ArialMT-110"/>
       <use x="361.376953" xlink:href="#ArialMT-97"/>
       <use x="416.992188" xlink:href="#ArialMT-108"/>
       <use x="439.208984" xlink:href="#ArialMT-32"/>
       <use x="466.992188" xlink:href="#ArialMT-40"/>
       <use x="500.292969" xlink:href="#ArialMT-118"/>
       <use x="550.292969" xlink:href="#ArialMT-105"/>
       <use x="572.509766" xlink:href="#ArialMT-97"/>
       <use x="628.125" xlink:href="#ArialMT-32"/>
       <use x="655.908203" xlink:href="#ArialMT-100"/>
       <use x="711.523438" xlink:href="#ArialMT-111"/>
       <use x="767.138672" xlink:href="#ArialMT-97"/>
       <use x="822.753906" xlink:href="#ArialMT-106"/>
       <use x="844.970703" xlink:href="#ArialMT-41"/>
      </g>
     </g>
    </g>
    <g id="ytick_6">
     <g id="line2d_18"/>
     <g id="text_13">
      <!-- oa repository (via pmcid lookup) -->
      <g style="fill:#262626;" transform="translate(129.073125 189.065469)scale(0.1 -0.1)">
       <use xlink:href="#ArialMT-111"/>
       <use x="55.615234" xlink:href="#ArialMT-97"/>
       <use x="111.230469" xlink:href="#ArialMT-32"/>
       <use x="139.013672" xlink:href="#ArialMT-114"/>
       <use x="172.314453" xlink:href="#ArialMT-101"/>
       <use x="227.929688" xlink:href="#ArialMT-112"/>
       <use x="283.544922" xlink:href="#ArialMT-111"/>
       <use x="339.160156" xlink:href="#ArialMT-115"/>
       <use x="389.160156" xlink:href="#ArialMT-105"/>
       <use x="411.376953" xlink:href="#ArialMT-116"/>
       <use x="439.160156" xlink:href="#ArialMT-111"/>
       <use x="494.775391" xlink:href="#ArialMT-114"/>
       <use x="528.076172" xlink:href="#ArialMT-121"/>
       <use x="578.076172" xlink:href="#ArialMT-32"/>
       <use x="605.859375" xlink:href="#ArialMT-40"/>
       <use x="639.160156" xlink:href="#ArialMT-118"/>
       <use x="689.160156" xlink:href="#ArialMT-105"/>
       <use x="711.376953" xlink:href="#ArialMT-97"/>
       <use x="766.992188" xlink:href="#ArialMT-32"/>
       <use x="794.775391" xlink:href="#ArialMT-112"/>
       <use x="850.390625" xlink:href="#ArialMT-109"/>
       <use x="933.691406" xlink:href="#ArialMT-99"/>
       <use x="983.691406" xlink:href="#ArialMT-105"/>
       <use x="1005.908203" xlink:href="#ArialMT-100"/>
       <use x="1061.523438" xlink:href="#ArialMT-32"/>
       <use x="1089.306641" xlink:href="#ArialMT-108"/>
       <use x="1111.523438" xlink:href="#ArialMT-111"/>
       <use x="1167.138672" xlink:href="#ArialMT-111"/>
       <use x="1222.753906" xlink:href="#ArialMT-107"/>
       <use x="1272.753906" xlink:href="#ArialMT-117"/>
       <use x="1328.369141" xlink:href="#ArialMT-112"/>
       <use x="1383.984375" xlink:href="#ArialMT-41"/>
      </g>
     </g>
    </g>
    <g id="ytick_7">
     <g id="line2d_19"/>
     <g id="text_14">
      <!-- oa repository (via OAI-PMH title and first author match) -->
      <g style="fill:#262626;" transform="translate(27.38875 216.248594)scale(0.1 -0.1)">
       <use xlink:href="#ArialMT-111"/>
       <use x="55.615234" xlink:href="#ArialMT-97"/>
       <use x="111.230469" xlink:href="#ArialMT-32"/>
       <use x="139.013672" xlink:href="#ArialMT-114"/>
       <use x="172.314453" xlink:href="#ArialMT-101"/>
       <use x="227.929688" xlink:href="#ArialMT-112"/>
       <use x="283.544922" xlink:href="#ArialMT-111"/>
       <use x="339.160156" xlink:href="#ArialMT-115"/>
       <use x="389.160156" xlink:href="#ArialMT-105"/>
       <use x="411.376953" xlink:href="#ArialMT-116"/>
       <use x="439.160156" xlink:href="#ArialMT-111"/>
       <use x="494.775391" xlink:href="#ArialMT-114"/>
       <use x="528.076172" xlink:href="#ArialMT-121"/>
       <use x="578.076172" xlink:href="#ArialMT-32"/>
       <use x="605.859375" xlink:href="#ArialMT-40"/>
       <use x="639.160156" xlink:href="#ArialMT-118"/>
       <use x="689.160156" xlink:href="#ArialMT-105"/>
       <use x="711.376953" xlink:href="#ArialMT-97"/>
       <use x="766.992188" xlink:href="#ArialMT-32"/>
       <use x="794.775391" xlink:href="#ArialMT-79"/>
       <use x="872.558594" xlink:href="#ArialMT-65"/>
       <use x="939.257812" xlink:href="#ArialMT-73"/>
       <use x="967.041016" xlink:href="#ArialMT-45"/>
       <use x="1000.341797" xlink:href="#ArialMT-80"/>
       <use x="1067.041016" xlink:href="#ArialMT-77"/>
       <use x="1150.341797" xlink:href="#ArialMT-72"/>
       <use x="1222.558594" xlink:href="#ArialMT-32"/>
       <use x="1250.341797" xlink:href="#ArialMT-116"/>
       <use x="1278.125" xlink:href="#ArialMT-105"/>
       <use x="1300.341797" xlink:href="#ArialMT-116"/>
       <use x="1328.125" xlink:href="#ArialMT-108"/>
       <use x="1350.341797" xlink:href="#ArialMT-101"/>
       <use x="1405.957031" xlink:href="#ArialMT-32"/>
       <use x="1433.740234" xlink:href="#ArialMT-97"/>
       <use x="1489.355469" xlink:href="#ArialMT-110"/>
       <use x="1544.970703" xlink:href="#ArialMT-100"/>
       <use x="1600.585938" xlink:href="#ArialMT-32"/>
       <use x="1628.369141" xlink:href="#ArialMT-102"/>
       <use x="1656.152344" xlink:href="#ArialMT-105"/>
       <use x="1678.369141" xlink:href="#ArialMT-114"/>
       <use x="1711.669922" xlink:href="#ArialMT-115"/>
       <use x="1761.669922" xlink:href="#ArialMT-116"/>
       <use x="1789.453125" xlink:href="#ArialMT-32"/>
       <use x="1817.236328" xlink:href="#ArialMT-97"/>
       <use x="1872.851562" xlink:href="#ArialMT-117"/>
       <use x="1928.466797" xlink:href="#ArialMT-116"/>
       <use x="1956.25" xlink:href="#ArialMT-104"/>
       <use x="2011.865234" xlink:href="#ArialMT-111"/>
       <use x="2067.480469" xlink:href="#ArialMT-114"/>
       <use x="2100.78125" xlink:href="#ArialMT-32"/>
       <use x="2128.564453" xlink:href="#ArialMT-109"/>
       <use x="2211.865234" xlink:href="#ArialMT-97"/>
       <use x="2267.480469" xlink:href="#ArialMT-116"/>
       <use x="2295.263672" xlink:href="#ArialMT-99"/>
       <use x="2345.263672" xlink:href="#ArialMT-104"/>
       <use x="2400.878906" xlink:href="#ArialMT-41"/>
      </g>
     </g>
    </g>
    <g id="ytick_8">
     <g id="line2d_20"/>
     <g id="text_15">
      <!-- oa journal (via observed oa rate) -->
      <g style="fill:#262626;" transform="translate(126.834062 243.425469)scale(0.1 -0.1)">
       <use xlink:href="#ArialMT-111"/>
       <use x="55.615234" xlink:href="#ArialMT-97"/>
       <use x="111.230469" xlink:href="#ArialMT-32"/>
       <use x="139.013672" xlink:href="#ArialMT-106"/>
       <use x="161.230469" xlink:href="#ArialMT-111"/>
       <use x="216.845703" xlink:href="#ArialMT-117"/>
       <use x="272.460938" xlink:href="#ArialMT-114"/>
       <use x="305.761719" xlink:href="#ArialMT-110"/>
       <use x="361.376953" xlink:href="#ArialMT-97"/>
       <use x="416.992188" xlink:href="#ArialMT-108"/>
       <use x="439.208984" xlink:href="#ArialMT-32"/>
       <use x="466.992188" xlink:href="#ArialMT-40"/>
       <use x="500.292969" xlink:href="#ArialMT-118"/>
       <use x="550.292969" xlink:href="#ArialMT-105"/>
       <use x="572.509766" xlink:href="#ArialMT-97"/>
       <use x="628.125" xlink:href="#ArialMT-32"/>
       <use x="655.908203" xlink:href="#ArialMT-111"/>
       <use x="711.523438" xlink:href="#ArialMT-98"/>
       <use x="767.138672" xlink:href="#ArialMT-115"/>
       <use x="817.138672" xlink:href="#ArialMT-101"/>
       <use x="872.753906" xlink:href="#ArialMT-114"/>
       <use x="906.054688" xlink:href="#ArialMT-118"/>
       <use x="956.054688" xlink:href="#ArialMT-101"/>
       <use x="1011.669922" xlink:href="#ArialMT-100"/>
       <use x="1067.285156" xlink:href="#ArialMT-32"/>
       <use x="1095.068359" xlink:href="#ArialMT-111"/>
       <use x="1150.683594" xlink:href="#ArialMT-97"/>
       <use x="1206.298828" xlink:href="#ArialMT-32"/>
       <use x="1234.082031" xlink:href="#ArialMT-114"/>
       <use x="1267.382812" xlink:href="#ArialMT-97"/>
       <use x="1322.998047" xlink:href="#ArialMT-116"/>
       <use x="1350.78125" xlink:href="#ArialMT-101"/>
       <use x="1406.396484" xlink:href="#ArialMT-41"/>
      </g>
     </g>
    </g>
    <g id="ytick_9">
     <g id="line2d_21"/>
     <g id="text_16">
      <!-- other -->
      <g style="fill:#262626;" transform="translate(248.00125 270.544531)scale(0.1 -0.1)">
       <use xlink:href="#ArialMT-111"/>
       <use x="55.615234" xlink:href="#ArialMT-116"/>
       <use x="83.398438" xlink:href="#ArialMT-104"/>
       <use x="139.013672" xlink:href="#ArialMT-101"/>
       <use x="194.628906" xlink:href="#ArialMT-114"/>
      </g>
     </g>
    </g>
    <g id="ytick_10">
     <g id="line2d_22"/>
     <g id="text_17">
      <!-- open (via crossref license) -->
      <g style="fill:#262626;" transform="translate(154.085625 297.785469)scale(0.1 -0.1)">
       <use xlink:href="#ArialMT-111"/>
       <use x="55.615234" xlink:href="#ArialMT-112"/>
       <use x="111.230469" xlink:href="#ArialMT-101"/>
       <use x="166.845703" xlink:href="#ArialMT-110"/>
       <use x="222.460938" xlink:href="#ArialMT-32"/>
       <use x="250.244141" xlink:href="#ArialMT-40"/>
       <use x="283.544922" xlink:href="#ArialMT-118"/>
       <use x="333.544922" xlink:href="#ArialMT-105"/>
       <use x="355.761719" xlink:href="#ArialMT-97"/>
       <use x="411.376953" xlink:href="#ArialMT-32"/>
       <use x="439.160156" xlink:href="#ArialMT-99"/>
       <use x="489.160156" xlink:href="#ArialMT-114"/>
       <use x="522.460938" xlink:href="#ArialMT-111"/>
       <use x="578.076172" xlink:href="#ArialMT-115"/>
       <use x="628.076172" xlink:href="#ArialMT-115"/>
       <use x="678.076172" xlink:href="#ArialMT-114"/>
       <use x="711.376953" xlink:href="#ArialMT-101"/>
       <use x="766.992188" xlink:href="#ArialMT-102"/>
       <use x="794.775391" xlink:href="#ArialMT-32"/>
       <use x="822.558594" xlink:href="#ArialMT-108"/>
       <use x="844.775391" xlink:href="#ArialMT-105"/>
       <use x="866.992188" xlink:href="#ArialMT-99"/>
       <use x="916.992188" xlink:href="#ArialMT-101"/>
       <use x="972.607422" xlink:href="#ArialMT-110"/>
       <use x="1028.222656" xlink:href="#ArialMT-115"/>
       <use x="1078.222656" xlink:href="#ArialMT-101"/>
       <use x="1133.837891" xlink:href="#ArialMT-41"/>
      </g>
     </g>
    </g>
    <g id="text_18">
     <!-- Evidence Type -->
     <defs>
      <path d="M 7.90625 0 
L 7.90625 71.578125 
L 59.671875 71.578125 
L 59.671875 63.140625 
L 17.390625 63.140625 
L 17.390625 41.21875 
L 56.984375 41.21875 
L 56.984375 32.8125 
L 17.390625 32.8125 
L 17.390625 8.453125 
L 61.328125 8.453125 
L 61.328125 0 
z
" id="ArialMT-69"/>
      <path d="M 25.921875 0 
L 25.921875 63.140625 
L 2.34375 63.140625 
L 2.34375 71.578125 
L 59.078125 71.578125 
L 59.078125 63.140625 
L 35.40625 63.140625 
L 35.40625 0 
z
" id="ArialMT-84"/>
     </defs>
     <g style="fill:#262626;" transform="translate(15.073594 208.209531)rotate(-90)scale(0.11 -0.11)">
      <use xlink:href="#ArialMT-69"/>
      <use x="66.699219" xlink:href="#ArialMT-118"/>
      <use x="116.699219" xlink:href="#ArialMT-105"/>
      <use x="138.916016" xlink:href="#ArialMT-100"/>
      <use x="194.53125" xlink:href="#ArialMT-101"/>
      <use x="250.146484" xlink:href="#ArialMT-110"/>
      <use x="305.761719" xlink:href="#ArialMT-99"/>
      <use x="355.761719" xlink:href="#ArialMT-101"/>
      <use x="411.376953" xlink:href="#ArialMT-32"/>
      <use x="439.144531" xlink:href="#ArialMT-84"/>
      <use x="500.150391" xlink:href="#ArialMT-121"/>
      <use x="550.150391" xlink:href="#ArialMT-112"/>
      <use x="605.765625" xlink:href="#ArialMT-101"/>
     </g>
    </g>
   </g>
   <g id="patch_2">
    <path clip-path="url(#p6249ca506a)" d="M 274.291875 38.653625 
L 646.291875 38.653625 
L 646.291875 60.397625 
L 274.291875 60.397625 
z
" style="fill:#b3b3b3;opacity:0.6;"/>
   </g>
   <g id="patch_3">
    <path clip-path="url(#p6249ca506a)" d="M 274.291875 65.833625 
L 627.279347 65.833625 
L 627.279347 87.577625 
L 274.291875 87.577625 
z
" style="fill:#b3b3b3;opacity:0.6;"/>
   </g>
   <g id="patch_4">
    <path clip-path="url(#p6249ca506a)" d="M 274.291875 93.013625 
L 618.874274 93.013625 
L 618.874274 114.757625 
L 274.291875 114.757625 
z
" style="fill:#b3b3b3;opacity:0.6;"/>
   </g>
   <g id="patch_5">
    <path clip-path="url(#p6249ca506a)" d="M 274.291875 120.193625 
L 596.13176 120.193625 
L 596.13176 141.937625 
L 274.291875 141.937625 
z
" style="fill:#b3b3b3;opacity:0.6;"/>
   </g>
   <g id="patch_6">
    <path clip-path="url(#p6249ca506a)" d="M 274.291875 147.373625 
L 575.156888 147.373625 
L 575.156888 169.117625 
L 274.291875 169.117625 
z
" style="fill:#b3b3b3;opacity:0.6;"/>
   </g>
   <g id="patch_7">
    <path clip-path="url(#p6249ca506a)" d="M 274.291875 174.553625 
L 532.248533 174.553625 
L 532.248533 196.297625 
L 274.291875 196.297625 
z
" style="fill:#b3b3b3;opacity:0.6;"/>
   </g>
   <g id="patch_8">
    <path clip-path="url(#p6249ca506a)" d="M 274.291875 201.733625 
L 410.121419 201.733625 
L 410.121419 223.477625 
L 274.291875 223.477625 
z
" style="fill:#b3b3b3;opacity:0.6;"/>
   </g>
   <g id="patch_9">
    <path clip-path="url(#p6249ca506a)" d="M 274.291875 228.913625 
L 379.319295 228.913625 
L 379.319295 250.657625 
L 274.291875 250.657625 
z
" style="fill:#b3b3b3;opacity:0.6;"/>
   </g>
   <g id="patch_10">
    <path clip-path="url(#p6249ca506a)" d="M 274.291875 256.093625 
L 318.031545 256.093625 
L 318.031545 277.837625 
L 274.291875 277.837625 
z
" style="fill:#b3b3b3;opacity:0.6;"/>
   </g>
   <g id="patch_11">
    <path clip-path="url(#p6249ca506a)" d="M 274.291875 283.273625 
L 317.071403 283.273625 
L 317.071403 305.017625 
L 274.291875 305.017625 
z
" style="fill:#b3b3b3;opacity:0.6;"/>
   </g>
   <g id="patch_12">
    <path clip-path="url(#p6249ca506a)" d="M 274.291875 38.653625 
L 646.256082 38.653625 
L 646.256082 60.397625 
L 274.291875 60.397625 
z
" style="fill:#56b4e9;"/>
   </g>
   <g id="patch_13">
    <path clip-path="url(#p6249ca506a)" d="M 274.291875 65.833625 
L 393.219143 65.833625 
L 393.219143 87.577625 
L 274.291875 87.577625 
z
" style="fill:#56b4e9;"/>
   </g>
   <g id="patch_14">
    <path clip-path="url(#p6249ca506a)" d="M 274.291875 93.013625 
L 618.839247 93.013625 
L 618.839247 114.757625 
L 274.291875 114.757625 
z
" style="fill:#56b4e9;"/>
   </g>
   <g id="patch_15">
    <path clip-path="url(#p6249ca506a)" d="M 274.291875 120.193625 
L 323.137888 120.193625 
L 323.137888 141.937625 
L 274.291875 141.937625 
z
" style="fill:#56b4e9;"/>
   </g>
   <g id="patch_16">
    <path clip-path="url(#p6249ca506a)" d="M 274.291875 147.373625 
L 340.648435 147.373625 
L 340.648435 169.117625 
L 274.291875 169.117625 
z
" style="fill:#56b4e9;"/>
   </g>
   <g id="patch_17">
    <path clip-path="url(#p6249ca506a)" d="M 274.291875 174.553625 
L 287.117307 174.553625 
L 287.117307 196.297625 
L 274.291875 196.297625 
z
" style="fill:#56b4e9;"/>
   </g>
   <g id="patch_18">
    <path clip-path="url(#p6249ca506a)" d="M 274.291875 201.733625 
L 316.857063 201.733625 
L 316.857063 223.477625 
L 274.291875 223.477625 
z
" style="fill:#56b4e9;"/>
   </g>
   <g id="patch_19">
    <path clip-path="url(#p6249ca506a)" d="M 274.291875 228.913625 
L 288.281762 228.913625 
L 288.281762 250.657625 
L 274.291875 250.657625 
z
" style="fill:#56b4e9;"/>
   </g>
   <g id="patch_20">
    <path clip-path="url(#p6249ca506a)" d="M 274.291875 256.093625 
L 307.425693 256.093625 
L 307.425693 277.837625 
L 274.291875 277.837625 
z
" style="fill:#56b4e9;"/>
   </g>
   <g id="patch_21">
    <path clip-path="url(#p6249ca506a)" d="M 274.291875 283.273625 
L 299.645742 283.273625 
L 299.645742 305.017625 
L 274.291875 305.017625 
z
" style="fill:#56b4e9;"/>
   </g>
   <g id="line2d_23">
    <path clip-path="url(#p6249ca506a)" d="M 0 0 
" style="fill:none;stroke:#424242;stroke-linecap:round;stroke-width:2.7;"/>
   </g>
   <g id="line2d_24">
    <path clip-path="url(#p6249ca506a)" d="M 0 0 
" style="fill:none;stroke:#424242;stroke-linecap:round;stroke-width:2.7;"/>
   </g>
   <g id="line2d_25">
    <path clip-path="url(#p6249ca506a)" d="M 0 0 
" style="fill:none;stroke:#424242;stroke-linecap:round;stroke-width:2.7;"/>
   </g>
   <g id="line2d_26">
    <path clip-path="url(#p6249ca506a)" d="M 0 0 
" style="fill:none;stroke:#424242;stroke-linecap:round;stroke-width:2.7;"/>
   </g>
   <g id="line2d_27">
    <path clip-path="url(#p6249ca506a)" d="M 0 0 
" style="fill:none;stroke:#424242;stroke-linecap:round;stroke-width:2.7;"/>
   </g>
   <g id="line2d_28">
    <path clip-path="url(#p6249ca506a)" d="M 0 0 
" style="fill:none;stroke:#424242;stroke-linecap:round;stroke-width:2.7;"/>
   </g>
   <g id="line2d_29">
    <path clip-path="url(#p6249ca506a)" d="M 0 0 
" style="fill:none;stroke:#424242;stroke-linecap:round;stroke-width:2.7;"/>
   </g>
   <g id="line2d_30">
    <path clip-path="url(#p6249ca506a)" d="M 0 0 
" style="fill:none;stroke:#424242;stroke-linecap:round;stroke-width:2.7;"/>
   </g>
   <g id="line2d_31">
    <path clip-path="url(#p6249ca506a)" d="M 0 0 
" style="fill:none;stroke:#424242;stroke-linecap:round;stroke-width:2.7;"/>
   </g>
   <g id="line2d_32">
    <path clip-path="url(#p6249ca506a)" d="M 0 0 
" style="fill:none;stroke:#424242;stroke-linecap:round;stroke-width:2.7;"/>
   </g>
   <g id="line2d_33">
    <path clip-path="url(#p6249ca506a)" d="M 0 0 
" style="fill:none;stroke:#424242;stroke-linecap:round;stroke-width:2.7;"/>
   </g>
   <g id="line2d_34">
    <path clip-path="url(#p6249ca506a)" d="M 0 0 
" style="fill:none;stroke:#424242;stroke-linecap:round;stroke-width:2.7;"/>
   </g>
   <g id="line2d_35">
    <path clip-path="url(#p6249ca506a)" d="M 0 0 
" style="fill:none;stroke:#424242;stroke-linecap:round;stroke-width:2.7;"/>
   </g>
   <g id="line2d_36">
    <path clip-path="url(#p6249ca506a)" d="M 0 0 
" style="fill:none;stroke:#424242;stroke-linecap:round;stroke-width:2.7;"/>
   </g>
   <g id="line2d_37">
    <path clip-path="url(#p6249ca506a)" d="M 0 0 
" style="fill:none;stroke:#424242;stroke-linecap:round;stroke-width:2.7;"/>
   </g>
   <g id="line2d_38">
    <path clip-path="url(#p6249ca506a)" d="M 0 0 
" style="fill:none;stroke:#424242;stroke-linecap:round;stroke-width:2.7;"/>
   </g>
   <g id="line2d_39">
    <path clip-path="url(#p6249ca506a)" d="M 0 0 
" style="fill:none;stroke:#424242;stroke-linecap:round;stroke-width:2.7;"/>
   </g>
   <g id="line2d_40">
    <path clip-path="url(#p6249ca506a)" d="M 0 0 
" style="fill:none;stroke:#424242;stroke-linecap:round;stroke-width:2.7;"/>
   </g>
   <g id="line2d_41">
    <path clip-path="url(#p6249ca506a)" d="M 0 0 
" style="fill:none;stroke:#424242;stroke-linecap:round;stroke-width:2.7;"/>
   </g>
   <g id="line2d_42">
    <path clip-path="url(#p6249ca506a)" d="M 0 0 
" style="fill:none;stroke:#424242;stroke-linecap:round;stroke-width:2.7;"/>
   </g>
   <g id="text_19">
    <!-- Number of Open Access Articles per Unpaywall Evidence Type -->
    <defs>
     <path d="M 7.421875 0 
L 7.421875 71.578125 
L 21.484375 71.578125 
L 50.78125 23.78125 
L 50.78125 71.578125 
L 64.203125 71.578125 
L 64.203125 0 
L 49.703125 0 
L 20.84375 46.6875 
L 20.84375 0 
z
" id="Arial-BoldMT-78"/>
     <path d="M 41.3125 0 
L 41.3125 7.765625 
Q 38.484375 3.609375 33.859375 1.21875 
Q 29.25 -1.171875 24.125 -1.171875 
Q 18.890625 -1.171875 14.734375 1.125 
Q 10.59375 3.421875 8.734375 7.5625 
Q 6.890625 11.71875 6.890625 19.046875 
L 6.890625 51.859375 
L 20.609375 51.859375 
L 20.609375 28.03125 
Q 20.609375 17.09375 21.359375 14.625 
Q 22.125 12.15625 24.125 10.71875 
Q 26.125 9.28125 29.203125 9.28125 
Q 32.71875 9.28125 35.5 11.203125 
Q 38.28125 13.140625 39.296875 15.984375 
Q 40.328125 18.84375 40.328125 29.984375 
L 40.328125 51.859375 
L 54.046875 51.859375 
L 54.046875 0 
z
" id="Arial-BoldMT-117"/>
     <path d="M 6.15625 51.859375 
L 18.796875 51.859375 
L 18.796875 44.78125 
Q 25.59375 53.03125 34.96875 53.03125 
Q 39.9375 53.03125 43.59375 50.96875 
Q 47.265625 48.921875 49.609375 44.78125 
Q 53.03125 48.921875 56.984375 50.96875 
Q 60.9375 53.03125 65.4375 53.03125 
Q 71.140625 53.03125 75.09375 50.703125 
Q 79.046875 48.390625 81 43.890625 
Q 82.421875 40.578125 82.421875 33.15625 
L 82.421875 0 
L 68.703125 0 
L 68.703125 29.640625 
Q 68.703125 37.359375 67.28125 39.59375 
Q 65.375 42.53125 61.421875 42.53125 
Q 58.546875 42.53125 56 40.765625 
Q 53.46875 39.015625 52.34375 35.625 
Q 51.21875 32.234375 51.21875 24.90625 
L 51.21875 0 
L 37.5 0 
L 37.5 28.421875 
Q 37.5 35.984375 36.765625 38.171875 
Q 36.03125 40.375 34.484375 41.453125 
Q 32.953125 42.53125 30.328125 42.53125 
Q 27.15625 42.53125 24.609375 40.8125 
Q 22.078125 39.109375 20.96875 35.890625 
Q 19.875 32.671875 19.875 25.203125 
L 19.875 0 
L 6.15625 0 
z
" id="Arial-BoldMT-109"/>
     <path d="M 6.59375 0 
L 6.59375 71.578125 
L 20.3125 71.578125 
L 20.3125 45.796875 
Q 26.65625 53.03125 35.359375 53.03125 
Q 44.828125 53.03125 51.03125 46.171875 
Q 57.234375 39.3125 57.234375 26.46875 
Q 57.234375 13.1875 50.90625 6 
Q 44.578125 -1.171875 35.546875 -1.171875 
Q 31.109375 -1.171875 26.78125 1.046875 
Q 22.46875 3.265625 19.34375 7.625 
L 19.34375 0 
z
M 20.21875 27.046875 
Q 20.21875 19 22.75 15.140625 
Q 26.3125 9.671875 32.234375 9.671875 
Q 36.765625 9.671875 39.96875 13.546875 
Q 43.171875 17.4375 43.171875 25.78125 
Q 43.171875 34.671875 39.9375 38.59375 
Q 36.71875 42.53125 31.6875 42.53125 
Q 26.765625 42.53125 23.484375 38.6875 
Q 20.21875 34.859375 20.21875 27.046875 
z
" id="Arial-BoldMT-98"/>
     <path d="M 37.203125 16.5 
L 50.875 14.203125 
Q 48.25 6.6875 42.546875 2.75 
Q 36.859375 -1.171875 28.328125 -1.171875 
Q 14.796875 -1.171875 8.296875 7.671875 
Q 3.171875 14.75 3.171875 25.53125 
Q 3.171875 38.421875 9.90625 45.71875 
Q 16.65625 53.03125 26.953125 53.03125 
Q 38.53125 53.03125 45.21875 45.390625 
Q 51.90625 37.75 51.609375 21.96875 
L 17.234375 21.96875 
Q 17.390625 15.875 20.5625 12.46875 
Q 23.734375 9.078125 28.46875 9.078125 
Q 31.6875 9.078125 33.875 10.828125 
Q 36.078125 12.59375 37.203125 16.5 
z
M 37.984375 30.375 
Q 37.84375 36.328125 34.90625 39.421875 
Q 31.984375 42.53125 27.78125 42.53125 
Q 23.296875 42.53125 20.359375 39.265625 
Q 17.4375 35.984375 17.484375 30.375 
z
" id="Arial-BoldMT-101"/>
     <path d="M 20.3125 0 
L 6.59375 0 
L 6.59375 51.859375 
L 19.34375 51.859375 
L 19.34375 44.484375 
Q 22.609375 49.703125 25.21875 51.359375 
Q 27.828125 53.03125 31.15625 53.03125 
Q 35.84375 53.03125 40.1875 50.4375 
L 35.9375 38.484375 
Q 32.46875 40.71875 29.5 40.71875 
Q 26.609375 40.71875 24.609375 39.125 
Q 22.609375 37.546875 21.453125 33.390625 
Q 20.3125 29.25 20.3125 16.015625 
z
" id="Arial-BoldMT-114"/>
     <path id="Arial-BoldMT-32"/>
     <path d="M 4 26.65625 
Q 4 33.5 7.375 39.890625 
Q 10.75 46.296875 16.921875 49.65625 
Q 23.09375 53.03125 30.71875 53.03125 
Q 42.484375 53.03125 50 45.390625 
Q 57.515625 37.75 57.515625 26.078125 
Q 57.515625 14.3125 49.921875 6.5625 
Q 42.328125 -1.171875 30.8125 -1.171875 
Q 23.6875 -1.171875 17.21875 2.046875 
Q 10.75 5.28125 7.375 11.5 
Q 4 17.71875 4 26.65625 
z
M 18.0625 25.921875 
Q 18.0625 18.21875 21.71875 14.109375 
Q 25.390625 10.015625 30.765625 10.015625 
Q 36.140625 10.015625 39.765625 14.109375 
Q 43.40625 18.21875 43.40625 26.03125 
Q 43.40625 33.640625 39.765625 37.734375 
Q 36.140625 41.84375 30.765625 41.84375 
Q 25.390625 41.84375 21.71875 37.734375 
Q 18.0625 33.640625 18.0625 25.921875 
z
" id="Arial-BoldMT-111"/>
     <path d="M 1.171875 51.859375 
L 8.796875 51.859375 
L 8.796875 55.765625 
Q 8.796875 62.3125 10.1875 65.53125 
Q 11.578125 68.75 15.3125 70.765625 
Q 19.046875 72.796875 24.75 72.796875 
Q 30.609375 72.796875 36.234375 71.046875 
L 34.375 61.46875 
Q 31.109375 62.25 28.078125 62.25 
Q 25.09375 62.25 23.796875 60.859375 
Q 22.515625 59.46875 22.515625 55.515625 
L 22.515625 51.859375 
L 32.765625 51.859375 
L 32.765625 41.0625 
L 22.515625 41.0625 
L 22.515625 0 
L 8.796875 0 
L 8.796875 41.0625 
L 1.171875 41.0625 
z
" id="Arial-BoldMT-102"/>
     <path d="M 4.34375 35.359375 
Q 4.34375 46.296875 7.625 53.71875 
Q 10.0625 59.1875 14.28125 63.53125 
Q 18.5 67.875 23.53125 69.96875 
Q 30.21875 72.796875 38.96875 72.796875 
Q 54.78125 72.796875 64.28125 62.984375 
Q 73.78125 53.171875 73.78125 35.6875 
Q 73.78125 18.359375 64.359375 8.5625 
Q 54.9375 -1.21875 39.15625 -1.21875 
Q 23.1875 -1.21875 13.765625 8.515625 
Q 4.34375 18.265625 4.34375 35.359375 
z
M 19.234375 35.84375 
Q 19.234375 23.6875 24.84375 17.40625 
Q 30.46875 11.140625 39.109375 11.140625 
Q 47.75 11.140625 53.296875 17.359375 
Q 58.84375 23.578125 58.84375 36.03125 
Q 58.84375 48.34375 53.4375 54.390625 
Q 48.046875 60.453125 39.109375 60.453125 
Q 30.171875 60.453125 24.703125 54.3125 
Q 19.234375 48.1875 19.234375 35.84375 
z
" id="Arial-BoldMT-79"/>
     <path d="M 6.78125 51.859375 
L 19.578125 51.859375 
L 19.578125 44.234375 
Q 22.078125 48.140625 26.3125 50.578125 
Q 30.5625 53.03125 35.75 53.03125 
Q 44.78125 53.03125 51.078125 45.953125 
Q 57.375 38.875 57.375 26.21875 
Q 57.375 13.234375 51.015625 6.03125 
Q 44.671875 -1.171875 35.640625 -1.171875 
Q 31.34375 -1.171875 27.84375 0.53125 
Q 24.359375 2.25 20.515625 6.390625 
L 20.515625 -19.734375 
L 6.78125 -19.734375 
z
M 20.359375 26.8125 
Q 20.359375 18.0625 23.828125 13.890625 
Q 27.296875 9.71875 32.28125 9.71875 
Q 37.0625 9.71875 40.234375 13.546875 
Q 43.40625 17.390625 43.40625 26.125 
Q 43.40625 34.28125 40.125 38.234375 
Q 36.859375 42.1875 32.03125 42.1875 
Q 27 42.1875 23.671875 38.296875 
Q 20.359375 34.421875 20.359375 26.8125 
z
" id="Arial-BoldMT-112"/>
     <path d="M 54.34375 0 
L 40.625 0 
L 40.625 26.46875 
Q 40.625 34.859375 39.75 37.328125 
Q 38.875 39.796875 36.890625 41.15625 
Q 34.90625 42.53125 32.125 42.53125 
Q 28.5625 42.53125 25.734375 40.578125 
Q 22.90625 38.625 21.84375 35.390625 
Q 20.796875 32.171875 20.796875 23.484375 
L 20.796875 0 
L 7.078125 0 
L 7.078125 51.859375 
L 19.828125 51.859375 
L 19.828125 44.234375 
Q 26.609375 53.03125 36.921875 53.03125 
Q 41.453125 53.03125 45.203125 51.390625 
Q 48.96875 49.75 50.890625 47.203125 
Q 52.828125 44.671875 53.578125 41.453125 
Q 54.34375 38.234375 54.34375 32.234375 
z
" id="Arial-BoldMT-110"/>
     <path d="M 71.828125 0 
L 56.109375 0 
L 49.859375 16.265625 
L 21.234375 16.265625 
L 15.328125 0 
L 0 0 
L 27.875 71.578125 
L 43.171875 71.578125 
z
M 45.21875 28.328125 
L 35.359375 54.890625 
L 25.6875 28.328125 
z
" id="Arial-BoldMT-65"/>
     <path d="M 52.390625 36.53125 
L 38.875 34.078125 
Q 38.1875 38.140625 35.765625 40.1875 
Q 33.34375 42.234375 29.5 42.234375 
Q 24.359375 42.234375 21.3125 38.6875 
Q 18.265625 35.15625 18.265625 26.859375 
Q 18.265625 17.625 21.359375 13.8125 
Q 24.46875 10.015625 29.6875 10.015625 
Q 33.59375 10.015625 36.078125 12.234375 
Q 38.578125 14.453125 39.59375 19.875 
L 53.078125 17.578125 
Q 50.984375 8.296875 45.015625 3.5625 
Q 39.0625 -1.171875 29.046875 -1.171875 
Q 17.671875 -1.171875 10.90625 6 
Q 4.15625 13.1875 4.15625 25.875 
Q 4.15625 38.71875 10.9375 45.875 
Q 17.71875 53.03125 29.296875 53.03125 
Q 38.765625 53.03125 44.359375 48.953125 
Q 49.953125 44.875 52.390625 36.53125 
z
" id="Arial-BoldMT-99"/>
     <path d="M 2.34375 14.796875 
L 16.109375 16.890625 
Q 17 12.890625 19.671875 10.8125 
Q 22.359375 8.734375 27.203125 8.734375 
Q 32.515625 8.734375 35.203125 10.6875 
Q 37.015625 12.0625 37.015625 14.359375 
Q 37.015625 15.921875 36.03125 16.9375 
Q 35.015625 17.921875 31.453125 18.75 
Q 14.84375 22.40625 10.40625 25.4375 
Q 4.25 29.640625 4.25 37.109375 
Q 4.25 43.84375 9.5625 48.4375 
Q 14.890625 53.03125 26.078125 53.03125 
Q 36.71875 53.03125 41.890625 49.5625 
Q 47.078125 46.09375 49.03125 39.3125 
L 36.078125 36.921875 
Q 35.25 39.9375 32.921875 41.546875 
Q 30.609375 43.171875 26.3125 43.171875 
Q 20.90625 43.171875 18.5625 41.65625 
Q 17 40.578125 17 38.875 
Q 17 37.40625 18.359375 36.375 
Q 20.21875 35.015625 31.171875 32.515625 
Q 42.140625 30.03125 46.484375 26.421875 
Q 50.78125 22.75 50.78125 16.21875 
Q 50.78125 9.078125 44.828125 3.953125 
Q 38.875 -1.171875 27.203125 -1.171875 
Q 16.609375 -1.171875 10.421875 3.125 
Q 4.25 7.421875 2.34375 14.796875 
z
" id="Arial-BoldMT-115"/>
     <path d="M 30.953125 51.859375 
L 30.953125 40.921875 
L 21.578125 40.921875 
L 21.578125 20.015625 
Q 21.578125 13.671875 21.84375 12.625 
Q 22.125 11.578125 23.078125 10.890625 
Q 24.03125 10.203125 25.390625 10.203125 
Q 27.296875 10.203125 30.90625 11.53125 
L 32.078125 0.875 
Q 27.296875 -1.171875 21.234375 -1.171875 
Q 17.53125 -1.171875 14.546875 0.0625 
Q 11.578125 1.3125 10.1875 3.296875 
Q 8.796875 5.28125 8.25 8.640625 
Q 7.8125 11.03125 7.8125 18.3125 
L 7.8125 40.921875 
L 1.515625 40.921875 
L 1.515625 51.859375 
L 7.8125 51.859375 
L 7.8125 62.15625 
L 21.578125 70.171875 
L 21.578125 51.859375 
z
" id="Arial-BoldMT-116"/>
     <path d="M 7.171875 58.890625 
L 7.171875 71.578125 
L 20.90625 71.578125 
L 20.90625 58.890625 
z
M 7.171875 0 
L 7.171875 51.859375 
L 20.90625 51.859375 
L 20.90625 0 
z
" id="Arial-BoldMT-105"/>
     <path d="M 7.171875 0 
L 7.171875 71.578125 
L 20.90625 71.578125 
L 20.90625 0 
z
" id="Arial-BoldMT-108"/>
     <path d="M 7.171875 71.578125 
L 21.625 71.578125 
L 21.625 32.8125 
Q 21.625 23.578125 22.171875 20.84375 
Q 23.09375 16.453125 26.578125 13.796875 
Q 30.078125 11.140625 36.140625 11.140625 
Q 42.28125 11.140625 45.40625 13.640625 
Q 48.53125 16.15625 49.171875 19.8125 
Q 49.8125 23.484375 49.8125 31.984375 
L 49.8125 71.578125 
L 64.265625 71.578125 
L 64.265625 33.984375 
Q 64.265625 21.09375 63.09375 15.765625 
Q 61.921875 10.453125 58.765625 6.78125 
Q 55.609375 3.125 50.328125 0.953125 
Q 45.0625 -1.21875 36.578125 -1.21875 
Q 26.3125 -1.21875 21.015625 1.140625 
Q 15.71875 3.515625 12.640625 7.296875 
Q 9.578125 11.078125 8.59375 15.234375 
Q 7.171875 21.390625 7.171875 33.40625 
z
" id="Arial-BoldMT-85"/>
     <path d="M 17.4375 36.03125 
L 4.984375 38.28125 
Q 7.078125 45.796875 12.203125 49.40625 
Q 17.328125 53.03125 27.4375 53.03125 
Q 36.625 53.03125 41.109375 50.859375 
Q 45.609375 48.6875 47.4375 45.34375 
Q 49.265625 42 49.265625 33.0625 
L 49.125 17.046875 
Q 49.125 10.203125 49.78125 6.953125 
Q 50.4375 3.71875 52.25 0 
L 38.671875 0 
Q 38.140625 1.375 37.359375 4.046875 
Q 37.015625 5.28125 36.859375 5.671875 
Q 33.34375 2.25 29.34375 0.53125 
Q 25.34375 -1.171875 20.796875 -1.171875 
Q 12.796875 -1.171875 8.171875 3.171875 
Q 3.5625 7.515625 3.5625 14.15625 
Q 3.5625 18.5625 5.65625 22 
Q 7.765625 25.4375 11.546875 27.265625 
Q 15.328125 29.109375 22.46875 30.46875 
Q 32.078125 32.28125 35.796875 33.84375 
L 35.796875 35.203125 
Q 35.796875 39.15625 33.84375 40.84375 
Q 31.890625 42.53125 26.46875 42.53125 
Q 22.796875 42.53125 20.75 41.09375 
Q 18.703125 39.65625 17.4375 36.03125 
z
M 35.796875 24.90625 
Q 33.15625 24.03125 27.4375 22.796875 
Q 21.734375 21.578125 19.96875 20.40625 
Q 17.28125 18.5 17.28125 15.578125 
Q 17.28125 12.703125 19.421875 10.59375 
Q 21.578125 8.5 24.90625 8.5 
Q 28.609375 8.5 31.984375 10.9375 
Q 34.46875 12.796875 35.25 15.484375 
Q 35.796875 17.234375 35.796875 22.171875 
z
" id="Arial-BoldMT-97"/>
     <path d="M 0.6875 51.859375 
L 15.28125 51.859375 
L 27.6875 15.046875 
L 39.796875 51.859375 
L 54 51.859375 
L 35.6875 1.953125 
L 32.421875 -7.078125 
Q 30.609375 -11.625 28.96875 -14.015625 
Q 27.34375 -16.40625 25.21875 -17.890625 
Q 23.09375 -19.390625 19.984375 -20.21875 
Q 16.890625 -21.046875 12.984375 -21.046875 
Q 9.03125 -21.046875 5.21875 -20.21875 
L 4 -9.46875 
Q 7.234375 -10.109375 9.8125 -10.109375 
Q 14.59375 -10.109375 16.890625 -7.296875 
Q 19.1875 -4.5 20.40625 -0.140625 
z
" id="Arial-BoldMT-121"/>
     <path d="M 16.84375 0 
L 0.4375 51.859375 
L 13.765625 51.859375 
L 23.484375 17.875 
L 32.421875 51.859375 
L 45.65625 51.859375 
L 54.296875 17.875 
L 64.203125 51.859375 
L 77.734375 51.859375 
L 61.078125 0 
L 47.90625 0 
L 38.96875 33.34375 
L 30.171875 0 
z
" id="Arial-BoldMT-119"/>
     <path d="M 7.28125 0 
L 7.28125 71.578125 
L 60.359375 71.578125 
L 60.359375 59.46875 
L 21.734375 59.46875 
L 21.734375 43.609375 
L 57.671875 43.609375 
L 57.671875 31.546875 
L 21.734375 31.546875 
L 21.734375 12.0625 
L 61.71875 12.0625 
L 61.71875 0 
z
" id="Arial-BoldMT-69"/>
     <path d="M 21.4375 0 
L 0.53125 51.859375 
L 14.9375 51.859375 
L 24.703125 25.390625 
L 27.546875 16.546875 
Q 28.65625 19.921875 28.953125 21 
Q 29.640625 23.1875 30.421875 25.390625 
L 40.28125 51.859375 
L 54.390625 51.859375 
L 33.796875 0 
z
" id="Arial-BoldMT-118"/>
     <path d="M 54.734375 0 
L 42 0 
L 42 7.625 
Q 38.8125 3.171875 34.484375 1 
Q 30.171875 -1.171875 25.78125 -1.171875 
Q 16.84375 -1.171875 10.46875 6.03125 
Q 4.109375 13.234375 4.109375 26.125 
Q 4.109375 39.3125 10.296875 46.171875 
Q 16.5 53.03125 25.984375 53.03125 
Q 34.671875 53.03125 41.015625 45.796875 
L 41.015625 71.578125 
L 54.734375 71.578125 
z
M 18.109375 27.046875 
Q 18.109375 18.75 20.40625 15.046875 
Q 23.734375 9.671875 29.6875 9.671875 
Q 34.421875 9.671875 37.734375 13.6875 
Q 41.0625 17.71875 41.0625 25.734375 
Q 41.0625 34.671875 37.84375 38.59375 
Q 34.625 42.53125 29.59375 42.53125 
Q 24.703125 42.53125 21.40625 38.640625 
Q 18.109375 34.765625 18.109375 27.046875 
z
" id="Arial-BoldMT-100"/>
     <path d="M 23.390625 0 
L 23.390625 59.46875 
L 2.15625 59.46875 
L 2.15625 71.578125 
L 59.03125 71.578125 
L 59.03125 59.46875 
L 37.84375 59.46875 
L 37.84375 0 
z
" id="Arial-BoldMT-84"/>
    </defs>
    <g style="fill:#262626;" transform="translate(212.101875 15.935625)scale(0.12 -0.12)">
     <use xlink:href="#Arial-BoldMT-78"/>
     <use x="72.216797" xlink:href="#Arial-BoldMT-117"/>
     <use x="133.300781" xlink:href="#Arial-BoldMT-109"/>
     <use x="222.216797" xlink:href="#Arial-BoldMT-98"/>
     <use x="283.300781" xlink:href="#Arial-BoldMT-101"/>
     <use x="338.916016" xlink:href="#Arial-BoldMT-114"/>
     <use x="377.832031" xlink:href="#Arial-BoldMT-32"/>
     <use x="405.615234" xlink:href="#Arial-BoldMT-111"/>
     <use x="466.699219" xlink:href="#Arial-BoldMT-102"/>
     <use x="500" xlink:href="#Arial-BoldMT-32"/>
     <use x="527.783203" xlink:href="#Arial-BoldMT-79"/>
     <use x="605.566406" xlink:href="#Arial-BoldMT-112"/>
     <use x="666.650391" xlink:href="#Arial-BoldMT-101"/>
     <use x="722.265625" xlink:href="#Arial-BoldMT-110"/>
     <use x="783.349609" xlink:href="#Arial-BoldMT-32"/>
     <use x="811.085938" xlink:href="#Arial-BoldMT-65"/>
     <use x="883.302734" xlink:href="#Arial-BoldMT-99"/>
     <use x="938.917969" xlink:href="#Arial-BoldMT-99"/>
     <use x="994.533203" xlink:href="#Arial-BoldMT-101"/>
     <use x="1050.148438" xlink:href="#Arial-BoldMT-115"/>
     <use x="1105.763672" xlink:href="#Arial-BoldMT-115"/>
     <use x="1161.378906" xlink:href="#Arial-BoldMT-32"/>
     <use x="1189.115234" xlink:href="#Arial-BoldMT-65"/>
     <use x="1261.332031" xlink:href="#Arial-BoldMT-114"/>
     <use x="1300.248047" xlink:href="#Arial-BoldMT-116"/>
     <use x="1333.548828" xlink:href="#Arial-BoldMT-105"/>
     <use x="1361.332031" xlink:href="#Arial-BoldMT-99"/>
     <use x="1416.947266" xlink:href="#Arial-BoldMT-108"/>
     <use x="1444.730469" xlink:href="#Arial-BoldMT-101"/>
     <use x="1500.345703" xlink:href="#Arial-BoldMT-115"/>
     <use x="1555.960938" xlink:href="#Arial-BoldMT-32"/>
     <use x="1583.744141" xlink:href="#Arial-BoldMT-112"/>
     <use x="1644.828125" xlink:href="#Arial-BoldMT-101"/>
     <use x="1700.443359" xlink:href="#Arial-BoldMT-114"/>
     <use x="1739.359375" xlink:href="#Arial-BoldMT-32"/>
     <use x="1767.142578" xlink:href="#Arial-BoldMT-85"/>
     <use x="1839.359375" xlink:href="#Arial-BoldMT-110"/>
     <use x="1900.443359" xlink:href="#Arial-BoldMT-112"/>
     <use x="1961.527344" xlink:href="#Arial-BoldMT-97"/>
     <use x="2017.142578" xlink:href="#Arial-BoldMT-121"/>
     <use x="2072.757812" xlink:href="#Arial-BoldMT-119"/>
     <use x="2150.541016" xlink:href="#Arial-BoldMT-97"/>
     <use x="2206.15625" xlink:href="#Arial-BoldMT-108"/>
     <use x="2233.939453" xlink:href="#Arial-BoldMT-108"/>
     <use x="2261.722656" xlink:href="#Arial-BoldMT-32"/>
     <use x="2289.505859" xlink:href="#Arial-BoldMT-69"/>
     <use x="2356.205078" xlink:href="#Arial-BoldMT-118"/>
     <use x="2411.820312" xlink:href="#Arial-BoldMT-105"/>
     <use x="2439.603516" xlink:href="#Arial-BoldMT-100"/>
     <use x="2500.6875" xlink:href="#Arial-BoldMT-101"/>
     <use x="2556.302734" xlink:href="#Arial-BoldMT-110"/>
     <use x="2617.386719" xlink:href="#Arial-BoldMT-99"/>
     <use x="2673.001953" xlink:href="#Arial-BoldMT-101"/>
     <use x="2728.617188" xlink:href="#Arial-BoldMT-32"/>
     <use x="2756.400391" xlink:href="#Arial-BoldMT-84"/>
     <use x="2817.375" xlink:href="#Arial-BoldMT-121"/>
     <use x="2872.990234" xlink:href="#Arial-BoldMT-112"/>
     <use x="2934.074219" xlink:href="#Arial-BoldMT-101"/>
    </g>
   </g>
   <g id="legend_1">
    <g id="text_20">
     <!-- Is best? -->
     <defs>
      <path d="M 23.046875 17.625 
Q 23 19.390625 23 20.265625 
Q 23 25.4375 24.46875 29.203125 
Q 25.53125 32.03125 27.9375 34.90625 
Q 29.6875 37.015625 34.25 41.03125 
Q 38.8125 45.0625 40.171875 47.453125 
Q 41.546875 49.859375 41.546875 52.6875 
Q 41.546875 57.8125 37.546875 61.6875 
Q 33.546875 65.578125 27.734375 65.578125 
Q 22.125 65.578125 18.359375 62.0625 
Q 14.59375 58.546875 13.421875 51.078125 
L 4.390625 52.15625 
Q 5.609375 62.15625 11.640625 67.46875 
Q 17.671875 72.796875 27.59375 72.796875 
Q 38.09375 72.796875 44.34375 67.078125 
Q 50.59375 61.375 50.59375 53.265625 
Q 50.59375 48.578125 48.390625 44.625 
Q 46.1875 40.671875 39.796875 35.015625 
Q 35.5 31.203125 34.171875 29.390625 
Q 32.859375 27.59375 32.21875 25.25 
Q 31.59375 22.90625 31.5 17.625 
z
M 22.515625 0 
L 22.515625 10.015625 
L 32.515625 10.015625 
L 32.515625 0 
z
" id="ArialMT-63"/>
     </defs>
     <g style="fill:#262626;" transform="translate(686.667344 38.503437)scale(0.1 -0.1)">
      <use xlink:href="#ArialMT-73"/>
      <use x="27.783203" xlink:href="#ArialMT-115"/>
      <use x="77.783203" xlink:href="#ArialMT-32"/>
      <use x="105.566406" xlink:href="#ArialMT-98"/>
      <use x="161.181641" xlink:href="#ArialMT-101"/>
      <use x="216.796875" xlink:href="#ArialMT-115"/>
      <use x="266.796875" xlink:href="#ArialMT-116"/>
      <use x="294.580078" xlink:href="#ArialMT-63"/>
     </g>
    </g>
    <g id="patch_22">
     <path d="M 674.34 59.64875 
L 694.34 59.64875 
L 694.34 52.64875 
L 674.34 52.64875 
z
" style="fill:#b3b3b3;opacity:0.6;"/>
    </g>
    <g id="text_21">
     <!-- FALSE -->
     <defs>
      <path d="M 8.203125 0 
L 8.203125 71.578125 
L 56.5 71.578125 
L 56.5 63.140625 
L 17.671875 63.140625 
L 17.671875 40.96875 
L 51.265625 40.96875 
L 51.265625 32.515625 
L 17.671875 32.515625 
L 17.671875 0 
z
" id="ArialMT-70"/>
      <path d="M 7.328125 0 
L 7.328125 71.578125 
L 16.796875 71.578125 
L 16.796875 8.453125 
L 52.046875 8.453125 
L 52.046875 0 
z
" id="ArialMT-76"/>
      <path d="M 4.5 23 
L 13.421875 23.78125 
Q 14.0625 18.40625 16.375 14.96875 
Q 18.703125 11.53125 23.578125 9.40625 
Q 28.46875 7.28125 34.578125 7.28125 
Q 39.984375 7.28125 44.140625 8.890625 
Q 48.296875 10.5 50.3125 13.296875 
Q 52.34375 16.109375 52.34375 19.4375 
Q 52.34375 22.796875 50.390625 25.3125 
Q 48.4375 27.828125 43.953125 29.546875 
Q 41.0625 30.671875 31.203125 33.03125 
Q 21.34375 35.40625 17.390625 37.5 
Q 12.25 40.1875 9.734375 44.15625 
Q 7.234375 48.140625 7.234375 53.078125 
Q 7.234375 58.5 10.296875 63.203125 
Q 13.375 67.921875 19.28125 70.359375 
Q 25.203125 72.796875 32.421875 72.796875 
Q 40.375 72.796875 46.453125 70.234375 
Q 52.546875 67.671875 55.8125 62.6875 
Q 59.078125 57.71875 59.328125 51.421875 
L 50.25 50.734375 
Q 49.515625 57.515625 45.28125 60.984375 
Q 41.0625 64.453125 32.8125 64.453125 
Q 24.21875 64.453125 20.28125 61.296875 
Q 16.359375 58.15625 16.359375 53.71875 
Q 16.359375 49.859375 19.140625 47.359375 
Q 21.875 44.875 33.421875 42.265625 
Q 44.96875 39.65625 49.265625 37.703125 
Q 55.515625 34.8125 58.484375 30.390625 
Q 61.46875 25.984375 61.46875 20.21875 
Q 61.46875 14.5 58.203125 9.4375 
Q 54.9375 4.390625 48.796875 1.578125 
Q 42.671875 -1.21875 35.015625 -1.21875 
Q 25.296875 -1.21875 18.71875 1.609375 
Q 12.15625 4.4375 8.421875 10.125 
Q 4.6875 15.828125 4.5 23 
z
" id="ArialMT-83"/>
     </defs>
     <g style="fill:#262626;" transform="translate(702.34 59.64875)scale(0.1 -0.1)">
      <use xlink:href="#ArialMT-70"/>
      <use x="61.005859" xlink:href="#ArialMT-65"/>
      <use x="127.705078" xlink:href="#ArialMT-76"/>
      <use x="183.320312" xlink:href="#ArialMT-83"/>
      <use x="250.019531" xlink:href="#ArialMT-69"/>
     </g>
    </g>
    <g id="patch_23">
     <path d="M 674.34 80.794062 
L 694.34 80.794062 
L 694.34 73.794062 
L 674.34 73.794062 
z
" style="fill:#56b4e9;"/>
    </g>
    <g id="text_22">
     <!-- TRUE -->
     <defs>
      <path d="M 7.859375 0 
L 7.859375 71.578125 
L 39.59375 71.578125 
Q 49.171875 71.578125 54.140625 69.640625 
Q 59.125 67.71875 62.109375 62.828125 
Q 65.09375 57.953125 65.09375 52.046875 
Q 65.09375 44.4375 60.15625 39.203125 
Q 55.21875 33.984375 44.921875 32.5625 
Q 48.6875 30.765625 50.640625 29 
Q 54.78125 25.203125 58.5 19.484375 
L 70.953125 0 
L 59.03125 0 
L 49.5625 14.890625 
Q 45.40625 21.34375 42.71875 24.75 
Q 40.046875 28.171875 37.921875 29.53125 
Q 35.796875 30.90625 33.59375 31.453125 
Q 31.984375 31.78125 28.328125 31.78125 
L 17.328125 31.78125 
L 17.328125 0 
z
M 17.328125 39.984375 
L 37.703125 39.984375 
Q 44.1875 39.984375 47.84375 41.328125 
Q 51.515625 42.671875 53.421875 45.625 
Q 55.328125 48.578125 55.328125 52.046875 
Q 55.328125 57.125 51.640625 60.390625 
Q 47.953125 63.671875 39.984375 63.671875 
L 17.328125 63.671875 
z
" id="ArialMT-82"/>
      <path d="M 54.6875 71.578125 
L 64.15625 71.578125 
L 64.15625 30.21875 
Q 64.15625 19.4375 61.71875 13.078125 
Q 59.28125 6.734375 52.90625 2.75 
Q 46.53125 -1.21875 36.1875 -1.21875 
Q 26.125 -1.21875 19.71875 2.25 
Q 13.328125 5.71875 10.59375 12.28125 
Q 7.859375 18.84375 7.859375 30.21875 
L 7.859375 71.578125 
L 17.328125 71.578125 
L 17.328125 30.28125 
Q 17.328125 20.953125 19.0625 16.53125 
Q 20.796875 12.109375 25.015625 9.71875 
Q 29.25 7.328125 35.359375 7.328125 
Q 45.796875 7.328125 50.234375 12.0625 
Q 54.6875 16.796875 54.6875 30.28125 
z
" id="ArialMT-85"/>
     </defs>
     <g style="fill:#262626;" transform="translate(702.34 80.794062)scale(0.1 -0.1)">
      <use xlink:href="#ArialMT-84"/>
      <use x="61.083984" xlink:href="#ArialMT-82"/>
      <use x="133.300781" xlink:href="#ArialMT-85"/>
      <use x="205.517578" xlink:href="#ArialMT-69"/>
     </g>
    </g>
   </g>
  </g>
 </g>
 <defs>
  <clipPath id="p6249ca506a">
   <rect height="271.8" width="390.6" x="274.291875" y="35.935625"/>
  </clipPath>
 </defs>
</svg>
