<?xml version="1.0" encoding="utf-8" standalone="no"?>
<!DOCTYPE svg PUBLIC "-//W3C//DTD SVG 1.1//EN"
  "http://www.w3.org/Graphics/SVG/1.1/DTD/svg11.dtd">
<!-- Created with matplotlib (https://matplotlib.org/) -->
<svg height="301.545pt" version="1.1" viewBox="0 0 812.573344 301.545" width="812.573344pt" xmlns="http://www.w3.org/2000/svg" xmlns:xlink="http://www.w3.org/1999/xlink">
 <defs>
  <style type="text/css">
*{stroke-linecap:butt;stroke-linejoin:round;}
  </style>
 </defs>
 <g id="figure_1">
  <g id="patch_1">
   <path d="M 0 301.545 
L 812.573344 301.545 
L 812.573344 0 
L 0 0 
z
" style="fill:#ffffff;"/>
  </g>
  <g id="axes_1">
   <g id="matplotlib.axis_1">
    <g id="xtick_1">
     <g id="line2d_1"/>
     <g id="text_1">
      <!-- 2008 -->
      <defs>
       <path d="M 50.34375 8.453125 
L 50.34375 0 
L 3.03125 0 
Q 2.9375 3.171875 4.046875 6.109375 
Q 5.859375 10.9375 9.828125 15.625 
Q 13.8125 20.3125 21.34375 26.46875 
Q 33.015625 36.03125 37.109375 41.625 
Q 41.21875 47.21875 41.21875 52.203125 
Q 41.21875 57.421875 37.46875 61 
Q 33.734375 64.59375 27.734375 64.59375 
Q 21.390625 64.59375 17.578125 60.78125 
Q 13.765625 56.984375 13.71875 50.25 
L 4.6875 51.171875 
Q 5.609375 61.28125 11.65625 66.578125 
Q 17.71875 71.875 27.9375 71.875 
Q 38.234375 71.875 44.234375 66.15625 
Q 50.25 60.453125 50.25 52 
Q 50.25 47.703125 48.484375 43.546875 
Q 46.734375 39.40625 42.65625 34.8125 
Q 38.578125 30.21875 29.109375 22.21875 
Q 21.1875 15.578125 18.9375 13.203125 
Q 16.703125 10.84375 15.234375 8.453125 
z
" id="ArialMT-50"/>
       <path d="M 4.15625 35.296875 
Q 4.15625 48 6.765625 55.734375 
Q 9.375 63.484375 14.515625 67.671875 
Q 19.671875 71.875 27.484375 71.875 
Q 33.25 71.875 37.59375 69.546875 
Q 41.9375 67.234375 44.765625 62.859375 
Q 47.609375 58.5 49.21875 52.21875 
Q 50.828125 45.953125 50.828125 35.296875 
Q 50.828125 22.703125 48.234375 14.96875 
Q 45.65625 7.234375 40.5 3 
Q 35.359375 -1.21875 27.484375 -1.21875 
Q 17.140625 -1.21875 11.234375 6.203125 
Q 4.15625 15.140625 4.15625 35.296875 
z
M 13.1875 35.296875 
Q 13.1875 17.671875 17.3125 11.828125 
Q 21.4375 6 27.484375 6 
Q 33.546875 6 37.671875 11.859375 
Q 41.796875 17.71875 41.796875 35.296875 
Q 41.796875 52.984375 37.671875 58.78125 
Q 33.546875 64.59375 27.390625 64.59375 
Q 21.34375 64.59375 17.71875 59.46875 
Q 13.1875 52.9375 13.1875 35.296875 
z
" id="ArialMT-48"/>
       <path d="M 17.671875 38.8125 
Q 12.203125 40.828125 9.5625 44.53125 
Q 6.9375 48.25 6.9375 53.421875 
Q 6.9375 61.234375 12.546875 66.546875 
Q 18.171875 71.875 27.484375 71.875 
Q 36.859375 71.875 42.578125 66.421875 
Q 48.296875 60.984375 48.296875 53.171875 
Q 48.296875 48.1875 45.671875 44.5 
Q 43.0625 40.828125 37.75 38.8125 
Q 44.34375 36.671875 47.78125 31.875 
Q 51.21875 27.09375 51.21875 20.453125 
Q 51.21875 11.28125 44.71875 5.03125 
Q 38.234375 -1.21875 27.640625 -1.21875 
Q 17.046875 -1.21875 10.546875 5.046875 
Q 4.046875 11.328125 4.046875 20.703125 
Q 4.046875 27.6875 7.59375 32.390625 
Q 11.140625 37.109375 17.671875 38.8125 
z
M 15.921875 53.71875 
Q 15.921875 48.640625 19.1875 45.40625 
Q 22.46875 42.1875 27.6875 42.1875 
Q 32.765625 42.1875 36.015625 45.375 
Q 39.265625 48.578125 39.265625 53.21875 
Q 39.265625 58.0625 35.90625 61.359375 
Q 32.5625 64.65625 27.59375 64.65625 
Q 22.5625 64.65625 19.234375 61.421875 
Q 15.921875 58.203125 15.921875 53.71875 
z
M 13.09375 20.65625 
Q 13.09375 16.890625 14.875 13.375 
Q 16.65625 9.859375 20.171875 7.921875 
Q 23.6875 6 27.734375 6 
Q 34.03125 6 38.125 10.046875 
Q 42.234375 14.109375 42.234375 20.359375 
Q 42.234375 26.703125 38.015625 30.859375 
Q 33.796875 35.015625 27.4375 35.015625 
Q 21.234375 35.015625 17.15625 30.90625 
Q 13.09375 26.8125 13.09375 20.65625 
z
" id="ArialMT-56"/>
      </defs>
      <g style="fill:#262626;" transform="translate(54.678856 271.637813)scale(0.1 -0.1)">
       <use xlink:href="#ArialMT-50"/>
       <use x="55.615234" xlink:href="#ArialMT-48"/>
       <use x="111.230469" xlink:href="#ArialMT-48"/>
       <use x="166.845703" xlink:href="#ArialMT-56"/>
      </g>
     </g>
    </g>
    <g id="xtick_2">
     <g id="line2d_2"/>
    </g>
    <g id="xtick_3">
     <g id="line2d_3"/>
     <g id="text_2">
      <!-- 2010 -->
      <defs>
       <path d="M 37.25 0 
L 28.46875 0 
L 28.46875 56 
Q 25.296875 52.984375 20.140625 49.953125 
Q 14.984375 46.921875 10.890625 45.40625 
L 10.890625 53.90625 
Q 18.265625 57.375 23.78125 62.296875 
Q 29.296875 67.234375 31.59375 71.875 
L 37.25 71.875 
z
" id="ArialMT-49"/>
      </defs>
      <g style="fill:#262626;" transform="translate(88.241781 271.637813)scale(0.1 -0.1)">
       <use xlink:href="#ArialMT-50"/>
       <use x="55.615234" xlink:href="#ArialMT-48"/>
       <use x="111.230469" xlink:href="#ArialMT-49"/>
       <use x="166.845703" xlink:href="#ArialMT-48"/>
      </g>
     </g>
    </g>
    <g id="xtick_4">
     <g id="line2d_4"/>
    </g>
    <g id="xtick_5">
     <g id="line2d_5"/>
     <g id="text_3">
      <!-- 2012 -->
      <g style="fill:#262626;" transform="translate(121.804706 271.637813)scale(0.1 -0.1)">
       <use xlink:href="#ArialMT-50"/>
       <use x="55.615234" xlink:href="#ArialMT-48"/>
       <use x="111.230469" xlink:href="#ArialMT-49"/>
       <use x="166.845703" xlink:href="#ArialMT-50"/>
      </g>
     </g>
    </g>
    <g id="xtick_6">
     <g id="line2d_6"/>
    </g>
    <g id="xtick_7">
     <g id="line2d_7"/>
     <g id="text_4">
      <!-- 2014 -->
      <defs>
       <path d="M 32.328125 0 
L 32.328125 17.140625 
L 1.265625 17.140625 
L 1.265625 25.203125 
L 33.9375 71.578125 
L 41.109375 71.578125 
L 41.109375 25.203125 
L 50.78125 25.203125 
L 50.78125 17.140625 
L 41.109375 17.140625 
L 41.109375 0 
z
M 32.328125 25.203125 
L 32.328125 57.46875 
L 9.90625 25.203125 
z
" id="ArialMT-52"/>
      </defs>
      <g style="fill:#262626;" transform="translate(155.367631 271.637813)scale(0.1 -0.1)">
       <use xlink:href="#ArialMT-50"/>
       <use x="55.615234" xlink:href="#ArialMT-48"/>
       <use x="111.230469" xlink:href="#ArialMT-49"/>
       <use x="166.845703" xlink:href="#ArialMT-52"/>
      </g>
     </g>
    </g>
    <g id="xtick_8">
     <g id="line2d_8"/>
    </g>
    <g id="xtick_9">
     <g id="line2d_9"/>
     <g id="text_5">
      <!-- 2016 -->
      <defs>
       <path d="M 49.75 54.046875 
L 41.015625 53.375 
Q 39.84375 58.546875 37.703125 60.890625 
Q 34.125 64.65625 28.90625 64.65625 
Q 24.703125 64.65625 21.53125 62.3125 
Q 17.390625 59.28125 14.984375 53.46875 
Q 12.59375 47.65625 12.5 36.921875 
Q 15.671875 41.75 20.265625 44.09375 
Q 24.859375 46.4375 29.890625 46.4375 
Q 38.671875 46.4375 44.84375 39.96875 
Q 51.03125 33.5 51.03125 23.25 
Q 51.03125 16.5 48.125 10.71875 
Q 45.21875 4.9375 40.140625 1.859375 
Q 35.0625 -1.21875 28.609375 -1.21875 
Q 17.625 -1.21875 10.6875 6.859375 
Q 3.765625 14.9375 3.765625 33.5 
Q 3.765625 54.25 11.421875 63.671875 
Q 18.109375 71.875 29.4375 71.875 
Q 37.890625 71.875 43.28125 67.140625 
Q 48.6875 62.40625 49.75 54.046875 
z
M 13.875 23.1875 
Q 13.875 18.65625 15.796875 14.5 
Q 17.71875 10.359375 21.1875 8.171875 
Q 24.65625 6 28.46875 6 
Q 34.03125 6 38.03125 10.484375 
Q 42.046875 14.984375 42.046875 22.703125 
Q 42.046875 30.125 38.078125 34.390625 
Q 34.125 38.671875 28.125 38.671875 
Q 22.171875 38.671875 18.015625 34.390625 
Q 13.875 30.125 13.875 23.1875 
z
" id="ArialMT-54"/>
      </defs>
      <g style="fill:#262626;" transform="translate(188.930556 271.637813)scale(0.1 -0.1)">
       <use xlink:href="#ArialMT-50"/>
       <use x="55.615234" xlink:href="#ArialMT-48"/>
       <use x="111.230469" xlink:href="#ArialMT-49"/>
       <use x="166.845703" xlink:href="#ArialMT-54"/>
      </g>
     </g>
    </g>
    <g id="xtick_10">
     <g id="line2d_10"/>
    </g>
    <g id="xtick_11">
     <g id="line2d_11"/>
     <g id="text_6">
      <!-- 2018 -->
      <g style="fill:#262626;" transform="translate(222.49348 271.637813)scale(0.1 -0.1)">
       <use xlink:href="#ArialMT-50"/>
       <use x="55.615234" xlink:href="#ArialMT-48"/>
       <use x="111.230469" xlink:href="#ArialMT-49"/>
       <use x="166.845703" xlink:href="#ArialMT-56"/>
      </g>
     </g>
    </g>
    <g id="xtick_12">
     <g id="line2d_12"/>
    </g>
   </g>
   <g id="matplotlib.axis_2">
    <g id="ytick_1">
     <g id="line2d_13">
      <path clip-path="url(#p61c57eb4c2)" d="M 57.41 260.98 
L 258.787549 260.98 
" style="fill:none;stroke:#cccccc;stroke-linecap:round;stroke-width:0.8;"/>
     </g>
     <g id="line2d_14"/>
     <g id="text_7">
      <!-- 0% -->
      <defs>
       <path d="M 5.8125 54.390625 
Q 5.8125 62.0625 9.671875 67.421875 
Q 13.53125 72.796875 20.84375 72.796875 
Q 27.59375 72.796875 32 67.984375 
Q 36.421875 63.1875 36.421875 53.859375 
Q 36.421875 44.78125 31.953125 39.875 
Q 27.484375 34.96875 20.953125 34.96875 
Q 14.453125 34.96875 10.125 39.796875 
Q 5.8125 44.625 5.8125 54.390625 
z
M 21.09375 66.75 
Q 17.828125 66.75 15.65625 63.90625 
Q 13.484375 61.078125 13.484375 53.515625 
Q 13.484375 46.625 15.671875 43.8125 
Q 17.875 41.015625 21.09375 41.015625 
Q 24.421875 41.015625 26.59375 43.84375 
Q 28.765625 46.6875 28.765625 54.203125 
Q 28.765625 61.140625 26.5625 63.9375 
Q 24.359375 66.75 21.09375 66.75 
z
M 21.140625 -2.640625 
L 60.296875 72.796875 
L 67.4375 72.796875 
L 28.421875 -2.640625 
z
M 52.09375 16.796875 
Q 52.09375 24.515625 55.953125 29.859375 
Q 59.8125 35.203125 67.1875 35.203125 
Q 73.921875 35.203125 78.34375 30.390625 
Q 82.765625 25.59375 82.765625 16.265625 
Q 82.765625 7.171875 78.296875 2.265625 
Q 73.828125 -2.640625 67.234375 -2.640625 
Q 60.75 -2.640625 56.421875 2.21875 
Q 52.09375 7.078125 52.09375 16.796875 
z
M 67.4375 29.15625 
Q 64.109375 29.15625 61.9375 26.3125 
Q 59.765625 23.484375 59.765625 15.921875 
Q 59.765625 9.078125 61.953125 6.25 
Q 64.15625 3.421875 67.390625 3.421875 
Q 70.75 3.421875 72.921875 6.25 
Q 75.09375 9.078125 75.09375 16.609375 
Q 75.09375 23.53125 72.890625 26.34375 
Q 70.703125 29.15625 67.4375 29.15625 
z
" id="ArialMT-37"/>
      </defs>
      <g style="fill:#262626;" transform="translate(39.456875 264.558906)scale(0.1 -0.1)">
       <use xlink:href="#ArialMT-48"/>
       <use x="55.615234" xlink:href="#ArialMT-37"/>
      </g>
     </g>
    </g>
    <g id="ytick_2">
     <g id="line2d_15">
      <path clip-path="url(#p61c57eb4c2)" d="M 57.41 224.435386 
L 258.787549 224.435386 
" style="fill:none;stroke:#cccccc;stroke-linecap:round;stroke-width:0.8;"/>
     </g>
     <g id="line2d_16"/>
     <g id="text_8">
      <!-- 10% -->
      <g style="fill:#262626;" transform="translate(33.895937 228.014292)scale(0.1 -0.1)">
       <use xlink:href="#ArialMT-49"/>
       <use x="55.615234" xlink:href="#ArialMT-48"/>
       <use x="111.230469" xlink:href="#ArialMT-37"/>
      </g>
     </g>
    </g>
    <g id="ytick_3">
     <g id="line2d_17">
      <path clip-path="url(#p61c57eb4c2)" d="M 57.41 187.890772 
L 258.787549 187.890772 
" style="fill:none;stroke:#cccccc;stroke-linecap:round;stroke-width:0.8;"/>
     </g>
     <g id="line2d_18"/>
     <g id="text_9">
      <!-- 20% -->
      <g style="fill:#262626;" transform="translate(33.895937 191.469679)scale(0.1 -0.1)">
       <use xlink:href="#ArialMT-50"/>
       <use x="55.615234" xlink:href="#ArialMT-48"/>
       <use x="111.230469" xlink:href="#ArialMT-37"/>
      </g>
     </g>
    </g>
    <g id="ytick_4">
     <g id="line2d_19">
      <path clip-path="url(#p61c57eb4c2)" d="M 57.41 151.346158 
L 258.787549 151.346158 
" style="fill:none;stroke:#cccccc;stroke-linecap:round;stroke-width:0.8;"/>
     </g>
     <g id="line2d_20"/>
     <g id="text_10">
      <!-- 30% -->
      <defs>
       <path d="M 4.203125 18.890625 
L 12.984375 20.0625 
Q 14.5 12.59375 18.140625 9.296875 
Q 21.78125 6 27 6 
Q 33.203125 6 37.46875 10.296875 
Q 41.75 14.59375 41.75 20.953125 
Q 41.75 27 37.796875 30.921875 
Q 33.84375 34.859375 27.734375 34.859375 
Q 25.25 34.859375 21.53125 33.890625 
L 22.515625 41.609375 
Q 23.390625 41.5 23.921875 41.5 
Q 29.546875 41.5 34.03125 44.421875 
Q 38.53125 47.359375 38.53125 53.46875 
Q 38.53125 58.296875 35.25 61.46875 
Q 31.984375 64.65625 26.8125 64.65625 
Q 21.6875 64.65625 18.265625 61.421875 
Q 14.84375 58.203125 13.875 51.765625 
L 5.078125 53.328125 
Q 6.6875 62.15625 12.390625 67.015625 
Q 18.109375 71.875 26.609375 71.875 
Q 32.46875 71.875 37.390625 69.359375 
Q 42.328125 66.84375 44.9375 62.5 
Q 47.5625 58.15625 47.5625 53.265625 
Q 47.5625 48.640625 45.0625 44.828125 
Q 42.578125 41.015625 37.703125 38.765625 
Q 44.046875 37.3125 47.5625 32.6875 
Q 51.078125 28.078125 51.078125 21.140625 
Q 51.078125 11.765625 44.234375 5.25 
Q 37.40625 -1.265625 26.953125 -1.265625 
Q 17.53125 -1.265625 11.296875 4.34375 
Q 5.078125 9.96875 4.203125 18.890625 
z
" id="ArialMT-51"/>
      </defs>
      <g style="fill:#262626;" transform="translate(33.895937 154.925065)scale(0.1 -0.1)">
       <use xlink:href="#ArialMT-51"/>
       <use x="55.615234" xlink:href="#ArialMT-48"/>
       <use x="111.230469" xlink:href="#ArialMT-37"/>
      </g>
     </g>
    </g>
    <g id="ytick_5">
     <g id="line2d_21">
      <path clip-path="url(#p61c57eb4c2)" d="M 57.41 114.801545 
L 258.787549 114.801545 
" style="fill:none;stroke:#cccccc;stroke-linecap:round;stroke-width:0.8;"/>
     </g>
     <g id="line2d_22"/>
     <g id="text_11">
      <!-- 40% -->
      <g style="fill:#262626;" transform="translate(33.895937 118.380451)scale(0.1 -0.1)">
       <use xlink:href="#ArialMT-52"/>
       <use x="55.615234" xlink:href="#ArialMT-48"/>
       <use x="111.230469" xlink:href="#ArialMT-37"/>
      </g>
     </g>
    </g>
    <g id="ytick_6">
     <g id="line2d_23">
      <path clip-path="url(#p61c57eb4c2)" d="M 57.41 78.256931 
L 258.787549 78.256931 
" style="fill:none;stroke:#cccccc;stroke-linecap:round;stroke-width:0.8;"/>
     </g>
     <g id="line2d_24"/>
     <g id="text_12">
      <!-- 50% -->
      <defs>
       <path d="M 4.15625 18.75 
L 13.375 19.53125 
Q 14.40625 12.796875 18.140625 9.390625 
Q 21.875 6 27.15625 6 
Q 33.5 6 37.890625 10.78125 
Q 42.28125 15.578125 42.28125 23.484375 
Q 42.28125 31 38.0625 35.34375 
Q 33.84375 39.703125 27 39.703125 
Q 22.75 39.703125 19.328125 37.765625 
Q 15.921875 35.84375 13.96875 32.765625 
L 5.71875 33.84375 
L 12.640625 70.609375 
L 48.25 70.609375 
L 48.25 62.203125 
L 19.671875 62.203125 
L 15.828125 42.96875 
Q 22.265625 47.46875 29.34375 47.46875 
Q 38.71875 47.46875 45.15625 40.96875 
Q 51.609375 34.46875 51.609375 24.265625 
Q 51.609375 14.546875 45.953125 7.46875 
Q 39.0625 -1.21875 27.15625 -1.21875 
Q 17.390625 -1.21875 11.203125 4.25 
Q 5.03125 9.71875 4.15625 18.75 
z
" id="ArialMT-53"/>
      </defs>
      <g style="fill:#262626;" transform="translate(33.895937 81.835837)scale(0.1 -0.1)">
       <use xlink:href="#ArialMT-53"/>
       <use x="55.615234" xlink:href="#ArialMT-48"/>
       <use x="111.230469" xlink:href="#ArialMT-37"/>
      </g>
     </g>
    </g>
   </g>
   <g id="patch_2">
    <path clip-path="url(#p61c57eb4c2)" d="M 59.088146 260.98 
L 72.513316 260.98 
L 72.513316 151.451479 
L 59.088146 151.451479 
z
" style="fill:#b3b3b3;opacity:0.6;"/>
   </g>
   <g id="patch_3">
    <path clip-path="url(#p61c57eb4c2)" d="M 75.869609 260.98 
L 89.294779 260.98 
L 89.294779 147.506169 
L 75.869609 147.506169 
z
" style="fill:#b3b3b3;opacity:0.6;"/>
   </g>
   <g id="patch_4">
    <path clip-path="url(#p61c57eb4c2)" d="M 92.651071 260.98 
L 106.076241 260.98 
L 106.076241 145.00803 
L 92.651071 145.00803 
z
" style="fill:#b3b3b3;opacity:0.6;"/>
   </g>
   <g id="patch_5">
    <path clip-path="url(#p61c57eb4c2)" d="M 109.432533 260.98 
L 122.857703 260.98 
L 122.857703 127.249093 
L 109.432533 127.249093 
z
" style="fill:#b3b3b3;opacity:0.6;"/>
   </g>
   <g id="patch_6">
    <path clip-path="url(#p61c57eb4c2)" d="M 126.213996 260.98 
L 139.639166 260.98 
L 139.639166 118.130983 
L 126.213996 118.130983 
z
" style="fill:#b3b3b3;opacity:0.6;"/>
   </g>
   <g id="patch_7">
    <path clip-path="url(#p61c57eb4c2)" d="M 142.995458 260.98 
L 156.420628 260.98 
L 156.420628 111.646918 
L 142.995458 111.646918 
z
" style="fill:#b3b3b3;opacity:0.6;"/>
   </g>
   <g id="patch_8">
    <path clip-path="url(#p61c57eb4c2)" d="M 159.776921 260.98 
L 173.202091 260.98 
L 173.202091 102.380502 
L 159.776921 102.380502 
z
" style="fill:#b3b3b3;opacity:0.6;"/>
   </g>
   <g id="patch_9">
    <path clip-path="url(#p61c57eb4c2)" d="M 176.558383 260.98 
L 189.983553 260.98 
L 189.983553 89.013271 
L 176.558383 89.013271 
z
" style="fill:#b3b3b3;opacity:0.6;"/>
   </g>
   <g id="patch_10">
    <path clip-path="url(#p61c57eb4c2)" d="M 193.339846 260.98 
L 206.765016 260.98 
L 206.765016 78.868128 
L 193.339846 78.868128 
z
" style="fill:#b3b3b3;opacity:0.6;"/>
   </g>
   <g id="patch_11">
    <path clip-path="url(#p61c57eb4c2)" d="M 210.121308 260.98 
L 223.546478 260.98 
L 223.546478 70.847066 
L 210.121308 70.847066 
z
" style="fill:#b3b3b3;opacity:0.6;"/>
   </g>
   <g id="patch_12">
    <path clip-path="url(#p61c57eb4c2)" d="M 226.90277 260.98 
L 240.32794 260.98 
L 240.32794 67.627619 
L 226.90277 67.627619 
z
" style="fill:#b3b3b3;opacity:0.6;"/>
   </g>
   <g id="patch_13">
    <path clip-path="url(#p61c57eb4c2)" d="M 243.684233 260.98 
L 257.109403 260.98 
L 257.109403 79.025605 
L 243.684233 79.025605 
z
" style="fill:#b3b3b3;opacity:0.6;"/>
   </g>
   <g id="patch_14">
    <path clip-path="url(#p61c57eb4c2)" d="M 59.088146 260.98 
L 72.513316 260.98 
L 72.513316 227.714616 
L 59.088146 227.714616 
z
" style="fill:#56b4e9;"/>
   </g>
   <g id="patch_15">
    <path clip-path="url(#p61c57eb4c2)" d="M 75.869609 260.98 
L 89.294779 260.98 
L 89.294779 224.960122 
L 75.869609 224.960122 
z
" style="fill:#56b4e9;"/>
   </g>
   <g id="patch_16">
    <path clip-path="url(#p61c57eb4c2)" d="M 92.651071 260.98 
L 106.076241 260.98 
L 106.076241 221.99195 
L 92.651071 221.99195 
z
" style="fill:#56b4e9;"/>
   </g>
   <g id="patch_17">
    <path clip-path="url(#p61c57eb4c2)" d="M 109.432533 260.98 
L 122.857703 260.98 
L 122.857703 212.070488 
L 109.432533 212.070488 
z
" style="fill:#56b4e9;"/>
   </g>
   <g id="patch_18">
    <path clip-path="url(#p61c57eb4c2)" d="M 126.213996 260.98 
L 139.639166 260.98 
L 139.639166 204.49781 
L 126.213996 204.49781 
z
" style="fill:#56b4e9;"/>
   </g>
   <g id="patch_19">
    <path clip-path="url(#p61c57eb4c2)" d="M 142.995458 260.98 
L 156.420628 260.98 
L 156.420628 199.080325 
L 142.995458 199.080325 
z
" style="fill:#56b4e9;"/>
   </g>
   <g id="patch_20">
    <path clip-path="url(#p61c57eb4c2)" d="M 159.776921 260.98 
L 173.202091 260.98 
L 173.202091 191.822004 
L 159.776921 191.822004 
z
" style="fill:#56b4e9;"/>
   </g>
   <g id="patch_21">
    <path clip-path="url(#p61c57eb4c2)" d="M 176.558383 260.98 
L 189.983553 260.98 
L 189.983553 187.063119 
L 176.558383 187.063119 
z
" style="fill:#56b4e9;"/>
   </g>
   <g id="patch_22">
    <path clip-path="url(#p61c57eb4c2)" d="M 193.339846 260.98 
L 206.765016 260.98 
L 206.765016 183.139213 
L 193.339846 183.139213 
z
" style="fill:#56b4e9;"/>
   </g>
   <g id="patch_23">
    <path clip-path="url(#p61c57eb4c2)" d="M 210.121308 260.98 
L 223.546478 260.98 
L 223.546478 179.871204 
L 210.121308 179.871204 
z
" style="fill:#56b4e9;"/>
   </g>
   <g id="patch_24">
    <path clip-path="url(#p61c57eb4c2)" d="M 226.90277 260.98 
L 240.32794 260.98 
L 240.32794 180.361785 
L 226.90277 180.361785 
z
" style="fill:#56b4e9;"/>
   </g>
   <g id="patch_25">
    <path clip-path="url(#p61c57eb4c2)" d="M 243.684233 260.98 
L 257.109403 260.98 
L 257.109403 199.729894 
L 243.684233 199.729894 
z
" style="fill:#56b4e9;"/>
   </g>
   <g id="text_13">
    <!-- Publisher &amp; Repository -->
    <defs>
     <path d="M 7.71875 0 
L 7.71875 71.578125 
L 34.71875 71.578125 
Q 41.84375 71.578125 45.609375 70.90625 
Q 50.875 70.015625 54.4375 67.546875 
Q 58.015625 65.09375 60.1875 60.640625 
Q 62.359375 56.203125 62.359375 50.875 
Q 62.359375 41.75 56.546875 35.421875 
Q 50.734375 29.109375 35.546875 29.109375 
L 17.1875 29.109375 
L 17.1875 0 
z
M 17.1875 37.546875 
L 35.6875 37.546875 
Q 44.875 37.546875 48.734375 40.96875 
Q 52.59375 44.390625 52.59375 50.59375 
Q 52.59375 55.078125 50.3125 58.265625 
Q 48.046875 61.46875 44.34375 62.5 
Q 41.9375 63.140625 35.5 63.140625 
L 17.1875 63.140625 
z
" id="ArialMT-80"/>
     <path d="M 40.578125 0 
L 40.578125 7.625 
Q 34.515625 -1.171875 24.125 -1.171875 
Q 19.53125 -1.171875 15.546875 0.578125 
Q 11.578125 2.34375 9.640625 5 
Q 7.71875 7.671875 6.9375 11.53125 
Q 6.390625 14.109375 6.390625 19.734375 
L 6.390625 51.859375 
L 15.1875 51.859375 
L 15.1875 23.09375 
Q 15.1875 16.21875 15.71875 13.8125 
Q 16.546875 10.359375 19.234375 8.375 
Q 21.921875 6.390625 25.875 6.390625 
Q 29.828125 6.390625 33.296875 8.421875 
Q 36.765625 10.453125 38.203125 13.9375 
Q 39.65625 17.4375 39.65625 24.078125 
L 39.65625 51.859375 
L 48.4375 51.859375 
L 48.4375 0 
z
" id="ArialMT-117"/>
     <path d="M 14.703125 0 
L 6.546875 0 
L 6.546875 71.578125 
L 15.328125 71.578125 
L 15.328125 46.046875 
Q 20.90625 53.03125 29.546875 53.03125 
Q 34.328125 53.03125 38.59375 51.09375 
Q 42.875 49.171875 45.625 45.671875 
Q 48.390625 42.1875 49.953125 37.25 
Q 51.515625 32.328125 51.515625 26.703125 
Q 51.515625 13.375 44.921875 6.09375 
Q 38.328125 -1.171875 29.109375 -1.171875 
Q 19.921875 -1.171875 14.703125 6.5 
z
M 14.59375 26.3125 
Q 14.59375 17 17.140625 12.84375 
Q 21.296875 6.0625 28.375 6.0625 
Q 34.125 6.0625 38.328125 11.0625 
Q 42.53125 16.0625 42.53125 25.984375 
Q 42.53125 36.140625 38.5 40.96875 
Q 34.46875 45.796875 28.765625 45.796875 
Q 23 45.796875 18.796875 40.796875 
Q 14.59375 35.796875 14.59375 26.3125 
z
" id="ArialMT-98"/>
     <path d="M 6.390625 0 
L 6.390625 71.578125 
L 15.1875 71.578125 
L 15.1875 0 
z
" id="ArialMT-108"/>
     <path d="M 6.640625 61.46875 
L 6.640625 71.578125 
L 15.4375 71.578125 
L 15.4375 61.46875 
z
M 6.640625 0 
L 6.640625 51.859375 
L 15.4375 51.859375 
L 15.4375 0 
z
" id="ArialMT-105"/>
     <path d="M 3.078125 15.484375 
L 11.765625 16.84375 
Q 12.5 11.625 15.84375 8.84375 
Q 19.1875 6.0625 25.203125 6.0625 
Q 31.25 6.0625 34.171875 8.515625 
Q 37.109375 10.984375 37.109375 14.3125 
Q 37.109375 17.28125 34.515625 19 
Q 32.71875 20.171875 25.53125 21.96875 
Q 15.875 24.421875 12.140625 26.203125 
Q 8.40625 27.984375 6.46875 31.125 
Q 4.546875 34.28125 4.546875 38.09375 
Q 4.546875 41.546875 6.125 44.5 
Q 7.71875 47.46875 10.453125 49.421875 
Q 12.5 50.921875 16.03125 51.96875 
Q 19.578125 53.03125 23.640625 53.03125 
Q 29.734375 53.03125 34.34375 51.265625 
Q 38.96875 49.515625 41.15625 46.5 
Q 43.359375 43.5 44.1875 38.484375 
L 35.59375 37.3125 
Q 35.015625 41.3125 32.203125 43.546875 
Q 29.390625 45.796875 24.265625 45.796875 
Q 18.21875 45.796875 15.625 43.796875 
Q 13.03125 41.796875 13.03125 39.109375 
Q 13.03125 37.40625 14.109375 36.03125 
Q 15.1875 34.625 17.484375 33.6875 
Q 18.796875 33.203125 25.25 31.453125 
Q 34.578125 28.953125 38.25 27.359375 
Q 41.9375 25.78125 44.03125 22.75 
Q 46.140625 19.734375 46.140625 15.234375 
Q 46.140625 10.84375 43.578125 6.953125 
Q 41.015625 3.078125 36.171875 0.953125 
Q 31.34375 -1.171875 25.25 -1.171875 
Q 15.140625 -1.171875 9.84375 3.03125 
Q 4.546875 7.234375 3.078125 15.484375 
z
" id="ArialMT-115"/>
     <path d="M 6.59375 0 
L 6.59375 71.578125 
L 15.375 71.578125 
L 15.375 45.90625 
Q 21.53125 53.03125 30.90625 53.03125 
Q 36.671875 53.03125 40.921875 50.75 
Q 45.171875 48.484375 47 44.484375 
Q 48.828125 40.484375 48.828125 32.859375 
L 48.828125 0 
L 40.046875 0 
L 40.046875 32.859375 
Q 40.046875 39.453125 37.1875 42.453125 
Q 34.328125 45.453125 29.109375 45.453125 
Q 25.203125 45.453125 21.75 43.421875 
Q 18.3125 41.40625 16.84375 37.9375 
Q 15.375 34.46875 15.375 28.375 
L 15.375 0 
z
" id="ArialMT-104"/>
     <path d="M 42.09375 16.703125 
L 51.171875 15.578125 
Q 49.03125 7.625 43.21875 3.21875 
Q 37.40625 -1.171875 28.375 -1.171875 
Q 17 -1.171875 10.328125 5.828125 
Q 3.65625 12.84375 3.65625 25.484375 
Q 3.65625 38.578125 10.390625 45.796875 
Q 17.140625 53.03125 27.875 53.03125 
Q 38.28125 53.03125 44.875 45.953125 
Q 51.46875 38.875 51.46875 26.03125 
Q 51.46875 25.25 51.421875 23.6875 
L 12.75 23.6875 
Q 13.234375 15.140625 17.578125 10.59375 
Q 21.921875 6.0625 28.421875 6.0625 
Q 33.25 6.0625 36.671875 8.59375 
Q 40.09375 11.140625 42.09375 16.703125 
z
M 13.234375 30.90625 
L 42.1875 30.90625 
Q 41.609375 37.453125 38.875 40.71875 
Q 34.671875 45.796875 27.984375 45.796875 
Q 21.921875 45.796875 17.796875 41.75 
Q 13.671875 37.703125 13.234375 30.90625 
z
" id="ArialMT-101"/>
     <path d="M 6.5 0 
L 6.5 51.859375 
L 14.40625 51.859375 
L 14.40625 44 
Q 17.4375 49.515625 20 51.265625 
Q 22.5625 53.03125 25.640625 53.03125 
Q 30.078125 53.03125 34.671875 50.203125 
L 31.640625 42.046875 
Q 28.421875 43.953125 25.203125 43.953125 
Q 22.3125 43.953125 20.015625 42.21875 
Q 17.71875 40.484375 16.75 37.40625 
Q 15.28125 32.71875 15.28125 27.15625 
L 15.28125 0 
z
" id="ArialMT-114"/>
     <path id="ArialMT-32"/>
     <path d="M 47.515625 8.453125 
Q 43.171875 3.609375 38.03125 1.1875 
Q 32.90625 -1.21875 26.953125 -1.21875 
Q 15.96875 -1.21875 9.515625 6.203125 
Q 4.296875 12.25 4.296875 19.734375 
Q 4.296875 26.375 8.5625 31.71875 
Q 12.84375 37.0625 21.34375 41.109375 
Q 16.5 46.6875 14.890625 50.140625 
Q 13.28125 53.609375 13.28125 56.84375 
Q 13.28125 63.28125 18.328125 68.03125 
Q 23.390625 72.796875 31.0625 72.796875 
Q 38.375 72.796875 43.03125 68.296875 
Q 47.703125 63.8125 47.703125 57.515625 
Q 47.703125 47.3125 34.1875 40.09375 
L 47.015625 23.734375 
Q 49.21875 28.03125 50.4375 33.6875 
L 59.578125 31.734375 
Q 57.234375 22.359375 53.21875 16.3125 
Q 58.15625 9.765625 64.40625 5.328125 
L 58.5 -1.65625 
Q 53.171875 1.765625 47.515625 8.453125 
z
M 29.640625 45.75 
Q 35.359375 49.125 37.03125 51.65625 
Q 38.71875 54.203125 38.71875 57.28125 
Q 38.71875 60.9375 36.390625 63.25 
Q 34.078125 65.578125 30.609375 65.578125 
Q 27.046875 65.578125 24.671875 63.28125 
Q 22.3125 60.984375 22.3125 57.671875 
Q 22.3125 56 23.171875 54.171875 
Q 24.03125 52.34375 25.734375 50.296875 
z
M 42 15.375 
L 25.875 35.359375 
Q 18.75 31.109375 16.25 27.46875 
Q 13.765625 23.828125 13.765625 20.265625 
Q 13.765625 15.921875 17.234375 11.234375 
Q 20.703125 6.546875 27.046875 6.546875 
Q 31 6.546875 35.21875 9 
Q 39.453125 11.46875 42 15.375 
z
" id="ArialMT-38"/>
     <path d="M 7.859375 0 
L 7.859375 71.578125 
L 39.59375 71.578125 
Q 49.171875 71.578125 54.140625 69.640625 
Q 59.125 67.71875 62.109375 62.828125 
Q 65.09375 57.953125 65.09375 52.046875 
Q 65.09375 44.4375 60.15625 39.203125 
Q 55.21875 33.984375 44.921875 32.5625 
Q 48.6875 30.765625 50.640625 29 
Q 54.78125 25.203125 58.5 19.484375 
L 70.953125 0 
L 59.03125 0 
L 49.5625 14.890625 
Q 45.40625 21.34375 42.71875 24.75 
Q 40.046875 28.171875 37.921875 29.53125 
Q 35.796875 30.90625 33.59375 31.453125 
Q 31.984375 31.78125 28.328125 31.78125 
L 17.328125 31.78125 
L 17.328125 0 
z
M 17.328125 39.984375 
L 37.703125 39.984375 
Q 44.1875 39.984375 47.84375 41.328125 
Q 51.515625 42.671875 53.421875 45.625 
Q 55.328125 48.578125 55.328125 52.046875 
Q 55.328125 57.125 51.640625 60.390625 
Q 47.953125 63.671875 39.984375 63.671875 
L 17.328125 63.671875 
z
" id="ArialMT-82"/>
     <path d="M 6.59375 -19.875 
L 6.59375 51.859375 
L 14.59375 51.859375 
L 14.59375 45.125 
Q 17.4375 49.078125 21 51.046875 
Q 24.5625 53.03125 29.640625 53.03125 
Q 36.28125 53.03125 41.359375 49.609375 
Q 46.4375 46.1875 49.015625 39.953125 
Q 51.609375 33.734375 51.609375 26.3125 
Q 51.609375 18.359375 48.75 11.984375 
Q 45.90625 5.609375 40.453125 2.21875 
Q 35.015625 -1.171875 29 -1.171875 
Q 24.609375 -1.171875 21.109375 0.6875 
Q 17.625 2.546875 15.375 5.375 
L 15.375 -19.875 
z
M 14.546875 25.640625 
Q 14.546875 15.625 18.59375 10.84375 
Q 22.65625 6.0625 28.421875 6.0625 
Q 34.28125 6.0625 38.453125 11.015625 
Q 42.625 15.96875 42.625 26.375 
Q 42.625 36.28125 38.546875 41.203125 
Q 34.46875 46.140625 28.8125 46.140625 
Q 23.1875 46.140625 18.859375 40.890625 
Q 14.546875 35.640625 14.546875 25.640625 
z
" id="ArialMT-112"/>
     <path d="M 3.328125 25.921875 
Q 3.328125 40.328125 11.328125 47.265625 
Q 18.015625 53.03125 27.640625 53.03125 
Q 38.328125 53.03125 45.109375 46.015625 
Q 51.90625 39.015625 51.90625 26.65625 
Q 51.90625 16.65625 48.90625 10.90625 
Q 45.90625 5.171875 40.15625 2 
Q 34.421875 -1.171875 27.640625 -1.171875 
Q 16.75 -1.171875 10.03125 5.8125 
Q 3.328125 12.796875 3.328125 25.921875 
z
M 12.359375 25.921875 
Q 12.359375 15.96875 16.703125 11.015625 
Q 21.046875 6.0625 27.640625 6.0625 
Q 34.1875 6.0625 38.53125 11.03125 
Q 42.875 16.015625 42.875 26.21875 
Q 42.875 35.84375 38.5 40.796875 
Q 34.125 45.75 27.640625 45.75 
Q 21.046875 45.75 16.703125 40.8125 
Q 12.359375 35.890625 12.359375 25.921875 
z
" id="ArialMT-111"/>
     <path d="M 25.78125 7.859375 
L 27.046875 0.09375 
Q 23.34375 -0.6875 20.40625 -0.6875 
Q 15.625 -0.6875 12.984375 0.828125 
Q 10.359375 2.34375 9.28125 4.8125 
Q 8.203125 7.28125 8.203125 15.1875 
L 8.203125 45.015625 
L 1.765625 45.015625 
L 1.765625 51.859375 
L 8.203125 51.859375 
L 8.203125 64.703125 
L 16.9375 69.96875 
L 16.9375 51.859375 
L 25.78125 51.859375 
L 25.78125 45.015625 
L 16.9375 45.015625 
L 16.9375 14.703125 
Q 16.9375 10.9375 17.40625 9.859375 
Q 17.875 8.796875 18.921875 8.15625 
Q 19.96875 7.515625 21.921875 7.515625 
Q 23.390625 7.515625 25.78125 7.859375 
z
" id="ArialMT-116"/>
     <path d="M 6.203125 -19.96875 
L 5.21875 -11.71875 
Q 8.109375 -12.5 10.25 -12.5 
Q 13.1875 -12.5 14.9375 -11.515625 
Q 16.703125 -10.546875 17.828125 -8.796875 
Q 18.65625 -7.46875 20.515625 -2.25 
Q 20.75 -1.515625 21.296875 -0.09375 
L 1.609375 51.859375 
L 11.078125 51.859375 
L 21.875 21.828125 
Q 23.96875 16.109375 25.640625 9.8125 
Q 27.15625 15.875 29.25 21.625 
L 40.328125 51.859375 
L 49.125 51.859375 
L 29.390625 -0.875 
Q 26.21875 -9.421875 24.46875 -12.640625 
Q 22.125 -17 19.09375 -19.015625 
Q 16.0625 -21.046875 11.859375 -21.046875 
Q 9.328125 -21.046875 6.203125 -19.96875 
z
" id="ArialMT-121"/>
    </defs>
    <g style="fill:#262626;" transform="translate(97.07315 51.96)scale(0.12 -0.12)">
     <use xlink:href="#ArialMT-80"/>
     <use x="66.699219" xlink:href="#ArialMT-117"/>
     <use x="122.314453" xlink:href="#ArialMT-98"/>
     <use x="177.929688" xlink:href="#ArialMT-108"/>
     <use x="200.146484" xlink:href="#ArialMT-105"/>
     <use x="222.363281" xlink:href="#ArialMT-115"/>
     <use x="272.363281" xlink:href="#ArialMT-104"/>
     <use x="327.978516" xlink:href="#ArialMT-101"/>
     <use x="383.59375" xlink:href="#ArialMT-114"/>
     <use x="416.894531" xlink:href="#ArialMT-32"/>
     <use x="444.677734" xlink:href="#ArialMT-38"/>
     <use x="511.376953" xlink:href="#ArialMT-32"/>
     <use x="539.160156" xlink:href="#ArialMT-82"/>
     <use x="611.376953" xlink:href="#ArialMT-101"/>
     <use x="666.992188" xlink:href="#ArialMT-112"/>
     <use x="722.607422" xlink:href="#ArialMT-111"/>
     <use x="778.222656" xlink:href="#ArialMT-115"/>
     <use x="828.222656" xlink:href="#ArialMT-105"/>
     <use x="850.439453" xlink:href="#ArialMT-116"/>
     <use x="878.222656" xlink:href="#ArialMT-111"/>
     <use x="933.837891" xlink:href="#ArialMT-114"/>
     <use x="967.138672" xlink:href="#ArialMT-121"/>
    </g>
   </g>
  </g>
  <g id="axes_2">
   <g id="matplotlib.axis_3">
    <g id="xtick_13">
     <g id="line2d_25"/>
     <g id="text_14">
      <!-- 2008 -->
      <g style="fill:#262626;" transform="translate(270.494346 271.637813)scale(0.1 -0.1)">
       <use xlink:href="#ArialMT-50"/>
       <use x="55.615234" xlink:href="#ArialMT-48"/>
       <use x="111.230469" xlink:href="#ArialMT-48"/>
       <use x="166.845703" xlink:href="#ArialMT-56"/>
      </g>
     </g>
    </g>
    <g id="xtick_14">
     <g id="line2d_26"/>
    </g>
    <g id="xtick_15">
     <g id="line2d_27"/>
     <g id="text_15">
      <!-- 2010 -->
      <g style="fill:#262626;" transform="translate(304.057271 271.637813)scale(0.1 -0.1)">
       <use xlink:href="#ArialMT-50"/>
       <use x="55.615234" xlink:href="#ArialMT-48"/>
       <use x="111.230469" xlink:href="#ArialMT-49"/>
       <use x="166.845703" xlink:href="#ArialMT-48"/>
      </g>
     </g>
    </g>
    <g id="xtick_16">
     <g id="line2d_28"/>
    </g>
    <g id="xtick_17">
     <g id="line2d_29"/>
     <g id="text_16">
      <!-- 2012 -->
      <g style="fill:#262626;" transform="translate(337.620196 271.637813)scale(0.1 -0.1)">
       <use xlink:href="#ArialMT-50"/>
       <use x="55.615234" xlink:href="#ArialMT-48"/>
       <use x="111.230469" xlink:href="#ArialMT-49"/>
       <use x="166.845703" xlink:href="#ArialMT-50"/>
      </g>
     </g>
    </g>
    <g id="xtick_18">
     <g id="line2d_30"/>
    </g>
    <g id="xtick_19">
     <g id="line2d_31"/>
     <g id="text_17">
      <!-- 2014 -->
      <g style="fill:#262626;" transform="translate(371.183121 271.637813)scale(0.1 -0.1)">
       <use xlink:href="#ArialMT-50"/>
       <use x="55.615234" xlink:href="#ArialMT-48"/>
       <use x="111.230469" xlink:href="#ArialMT-49"/>
       <use x="166.845703" xlink:href="#ArialMT-52"/>
      </g>
     </g>
    </g>
    <g id="xtick_20">
     <g id="line2d_32"/>
    </g>
    <g id="xtick_21">
     <g id="line2d_33"/>
     <g id="text_18">
      <!-- 2016 -->
      <g style="fill:#262626;" transform="translate(404.746046 271.637813)scale(0.1 -0.1)">
       <use xlink:href="#ArialMT-50"/>
       <use x="55.615234" xlink:href="#ArialMT-48"/>
       <use x="111.230469" xlink:href="#ArialMT-49"/>
       <use x="166.845703" xlink:href="#ArialMT-54"/>
      </g>
     </g>
    </g>
    <g id="xtick_22">
     <g id="line2d_34"/>
    </g>
    <g id="xtick_23">
     <g id="line2d_35"/>
     <g id="text_19">
      <!-- 2018 -->
      <g style="fill:#262626;" transform="translate(438.308971 271.637813)scale(0.1 -0.1)">
       <use xlink:href="#ArialMT-50"/>
       <use x="55.615234" xlink:href="#ArialMT-48"/>
       <use x="111.230469" xlink:href="#ArialMT-49"/>
       <use x="166.845703" xlink:href="#ArialMT-56"/>
      </g>
     </g>
    </g>
    <g id="xtick_24">
     <g id="line2d_36"/>
    </g>
   </g>
   <g id="matplotlib.axis_4">
    <g id="ytick_7">
     <g id="line2d_37">
      <path clip-path="url(#p129dd61227)" d="M 273.22549 260.98 
L 474.603039 260.98 
" style="fill:none;stroke:#cccccc;stroke-linecap:round;stroke-width:0.8;"/>
     </g>
     <g id="line2d_38"/>
    </g>
    <g id="ytick_8">
     <g id="line2d_39">
      <path clip-path="url(#p129dd61227)" d="M 273.22549 224.435386 
L 474.603039 224.435386 
" style="fill:none;stroke:#cccccc;stroke-linecap:round;stroke-width:0.8;"/>
     </g>
     <g id="line2d_40"/>
    </g>
    <g id="ytick_9">
     <g id="line2d_41">
      <path clip-path="url(#p129dd61227)" d="M 273.22549 187.890772 
L 474.603039 187.890772 
" style="fill:none;stroke:#cccccc;stroke-linecap:round;stroke-width:0.8;"/>
     </g>
     <g id="line2d_42"/>
    </g>
    <g id="ytick_10">
     <g id="line2d_43">
      <path clip-path="url(#p129dd61227)" d="M 273.22549 151.346158 
L 474.603039 151.346158 
" style="fill:none;stroke:#cccccc;stroke-linecap:round;stroke-width:0.8;"/>
     </g>
     <g id="line2d_44"/>
    </g>
    <g id="ytick_11">
     <g id="line2d_45">
      <path clip-path="url(#p129dd61227)" d="M 273.22549 114.801545 
L 474.603039 114.801545 
" style="fill:none;stroke:#cccccc;stroke-linecap:round;stroke-width:0.8;"/>
     </g>
     <g id="line2d_46"/>
    </g>
    <g id="ytick_12">
     <g id="line2d_47">
      <path clip-path="url(#p129dd61227)" d="M 273.22549 78.256931 
L 474.603039 78.256931 
" style="fill:none;stroke:#cccccc;stroke-linecap:round;stroke-width:0.8;"/>
     </g>
     <g id="line2d_48"/>
    </g>
   </g>
   <g id="patch_26">
    <path clip-path="url(#p129dd61227)" d="M 274.903636 260.98 
L 288.328806 260.98 
L 288.328806 151.451479 
L 274.903636 151.451479 
z
" style="fill:#b3b3b3;opacity:0.6;"/>
   </g>
   <g id="patch_27">
    <path clip-path="url(#p129dd61227)" d="M 291.685099 260.98 
L 305.110269 260.98 
L 305.110269 147.506169 
L 291.685099 147.506169 
z
" style="fill:#b3b3b3;opacity:0.6;"/>
   </g>
   <g id="patch_28">
    <path clip-path="url(#p129dd61227)" d="M 308.466561 260.98 
L 321.891731 260.98 
L 321.891731 145.00803 
L 308.466561 145.00803 
z
" style="fill:#b3b3b3;opacity:0.6;"/>
   </g>
   <g id="patch_29">
    <path clip-path="url(#p129dd61227)" d="M 325.248024 260.98 
L 338.673194 260.98 
L 338.673194 127.249093 
L 325.248024 127.249093 
z
" style="fill:#b3b3b3;opacity:0.6;"/>
   </g>
   <g id="patch_30">
    <path clip-path="url(#p129dd61227)" d="M 342.029486 260.98 
L 355.454656 260.98 
L 355.454656 118.130983 
L 342.029486 118.130983 
z
" style="fill:#b3b3b3;opacity:0.6;"/>
   </g>
   <g id="patch_31">
    <path clip-path="url(#p129dd61227)" d="M 358.810949 260.98 
L 372.236118 260.98 
L 372.236118 111.646918 
L 358.810949 111.646918 
z
" style="fill:#b3b3b3;opacity:0.6;"/>
   </g>
   <g id="patch_32">
    <path clip-path="url(#p129dd61227)" d="M 375.592411 260.98 
L 389.017581 260.98 
L 389.017581 102.380502 
L 375.592411 102.380502 
z
" style="fill:#b3b3b3;opacity:0.6;"/>
   </g>
   <g id="patch_33">
    <path clip-path="url(#p129dd61227)" d="M 392.373873 260.98 
L 405.799043 260.98 
L 405.799043 89.013271 
L 392.373873 89.013271 
z
" style="fill:#b3b3b3;opacity:0.6;"/>
   </g>
   <g id="patch_34">
    <path clip-path="url(#p129dd61227)" d="M 409.155336 260.98 
L 422.580506 260.98 
L 422.580506 78.868128 
L 409.155336 78.868128 
z
" style="fill:#b3b3b3;opacity:0.6;"/>
   </g>
   <g id="patch_35">
    <path clip-path="url(#p129dd61227)" d="M 425.936798 260.98 
L 439.361968 260.98 
L 439.361968 70.847066 
L 425.936798 70.847066 
z
" style="fill:#b3b3b3;opacity:0.6;"/>
   </g>
   <g id="patch_36">
    <path clip-path="url(#p129dd61227)" d="M 442.718261 260.98 
L 456.143431 260.98 
L 456.143431 67.627619 
L 442.718261 67.627619 
z
" style="fill:#b3b3b3;opacity:0.6;"/>
   </g>
   <g id="patch_37">
    <path clip-path="url(#p129dd61227)" d="M 459.499723 260.98 
L 472.924893 260.98 
L 472.924893 79.025605 
L 459.499723 79.025605 
z
" style="fill:#b3b3b3;opacity:0.6;"/>
   </g>
   <g id="patch_38">
    <path clip-path="url(#p129dd61227)" d="M 274.903636 260.98 
L 288.328806 260.98 
L 288.328806 222.731093 
L 274.903636 222.731093 
z
" style="fill:#56b4e9;"/>
   </g>
   <g id="patch_39">
    <path clip-path="url(#p129dd61227)" d="M 291.685099 260.98 
L 305.110269 260.98 
L 305.110269 221.438933 
L 291.685099 221.438933 
z
" style="fill:#56b4e9;"/>
   </g>
   <g id="patch_40">
    <path clip-path="url(#p129dd61227)" d="M 308.466561 260.98 
L 321.891731 260.98 
L 321.891731 220.185756 
L 308.466561 220.185756 
z
" style="fill:#56b4e9;"/>
   </g>
   <g id="patch_41">
    <path clip-path="url(#p129dd61227)" d="M 325.248024 260.98 
L 338.673194 260.98 
L 338.673194 215.284778 
L 325.248024 215.284778 
z
" style="fill:#56b4e9;"/>
   </g>
   <g id="patch_42">
    <path clip-path="url(#p129dd61227)" d="M 342.029486 260.98 
L 355.454656 260.98 
L 355.454656 214.015045 
L 342.029486 214.015045 
z
" style="fill:#56b4e9;"/>
   </g>
   <g id="patch_43">
    <path clip-path="url(#p129dd61227)" d="M 358.810949 260.98 
L 372.236118 260.98 
L 372.236118 213.173348 
L 358.810949 213.173348 
z
" style="fill:#56b4e9;"/>
   </g>
   <g id="patch_44">
    <path clip-path="url(#p129dd61227)" d="M 375.592411 260.98 
L 389.017581 260.98 
L 389.017581 209.590513 
L 375.592411 209.590513 
z
" style="fill:#56b4e9;"/>
   </g>
   <g id="patch_45">
    <path clip-path="url(#p129dd61227)" d="M 392.373873 260.98 
L 405.799043 260.98 
L 405.799043 198.088369 
L 392.373873 198.088369 
z
" style="fill:#56b4e9;"/>
   </g>
   <g id="patch_46">
    <path clip-path="url(#p129dd61227)" d="M 409.155336 260.98 
L 422.580506 260.98 
L 422.580506 190.751894 
L 409.155336 190.751894 
z
" style="fill:#56b4e9;"/>
   </g>
   <g id="patch_47">
    <path clip-path="url(#p129dd61227)" d="M 425.936798 260.98 
L 439.361968 260.98 
L 439.361968 184.971698 
L 425.936798 184.971698 
z
" style="fill:#56b4e9;"/>
   </g>
   <g id="patch_48">
    <path clip-path="url(#p129dd61227)" d="M 442.718261 260.98 
L 456.143431 260.98 
L 456.143431 174.988649 
L 442.718261 174.988649 
z
" style="fill:#56b4e9;"/>
   </g>
   <g id="patch_49">
    <path clip-path="url(#p129dd61227)" d="M 459.499723 260.98 
L 472.924893 260.98 
L 472.924893 155.404446 
L 459.499723 155.404446 
z
" style="fill:#56b4e9;"/>
   </g>
   <g id="text_20">
    <!-- Publisher only -->
    <defs>
     <path d="M 6.59375 0 
L 6.59375 51.859375 
L 14.5 51.859375 
L 14.5 44.484375 
Q 20.21875 53.03125 31 53.03125 
Q 35.6875 53.03125 39.625 51.34375 
Q 43.5625 49.65625 45.515625 46.921875 
Q 47.46875 44.1875 48.25 40.4375 
Q 48.734375 37.984375 48.734375 31.890625 
L 48.734375 0 
L 39.9375 0 
L 39.9375 31.546875 
Q 39.9375 36.921875 38.90625 39.578125 
Q 37.890625 42.234375 35.28125 43.8125 
Q 32.671875 45.40625 29.15625 45.40625 
Q 23.53125 45.40625 19.453125 41.84375 
Q 15.375 38.28125 15.375 28.328125 
L 15.375 0 
z
" id="ArialMT-110"/>
    </defs>
    <g style="fill:#262626;" transform="translate(336.22864 51.96)scale(0.12 -0.12)">
     <use xlink:href="#ArialMT-80"/>
     <use x="66.699219" xlink:href="#ArialMT-117"/>
     <use x="122.314453" xlink:href="#ArialMT-98"/>
     <use x="177.929688" xlink:href="#ArialMT-108"/>
     <use x="200.146484" xlink:href="#ArialMT-105"/>
     <use x="222.363281" xlink:href="#ArialMT-115"/>
     <use x="272.363281" xlink:href="#ArialMT-104"/>
     <use x="327.978516" xlink:href="#ArialMT-101"/>
     <use x="383.59375" xlink:href="#ArialMT-114"/>
     <use x="416.894531" xlink:href="#ArialMT-32"/>
     <use x="444.677734" xlink:href="#ArialMT-111"/>
     <use x="500.292969" xlink:href="#ArialMT-110"/>
     <use x="555.908203" xlink:href="#ArialMT-108"/>
     <use x="578.125" xlink:href="#ArialMT-121"/>
    </g>
   </g>
  </g>
  <g id="axes_3">
   <g id="matplotlib.axis_5">
    <g id="xtick_25">
     <g id="line2d_49"/>
     <g id="text_21">
      <!-- 2008 -->
      <g style="fill:#262626;" transform="translate(486.309837 271.637813)scale(0.1 -0.1)">
       <use xlink:href="#ArialMT-50"/>
       <use x="55.615234" xlink:href="#ArialMT-48"/>
       <use x="111.230469" xlink:href="#ArialMT-48"/>
       <use x="166.845703" xlink:href="#ArialMT-56"/>
      </g>
     </g>
    </g>
    <g id="xtick_26">
     <g id="line2d_50"/>
    </g>
    <g id="xtick_27">
     <g id="line2d_51"/>
     <g id="text_22">
      <!-- 2010 -->
      <g style="fill:#262626;" transform="translate(519.872761 271.637813)scale(0.1 -0.1)">
       <use xlink:href="#ArialMT-50"/>
       <use x="55.615234" xlink:href="#ArialMT-48"/>
       <use x="111.230469" xlink:href="#ArialMT-49"/>
       <use x="166.845703" xlink:href="#ArialMT-48"/>
      </g>
     </g>
    </g>
    <g id="xtick_28">
     <g id="line2d_52"/>
    </g>
    <g id="xtick_29">
     <g id="line2d_53"/>
     <g id="text_23">
      <!-- 2012 -->
      <g style="fill:#262626;" transform="translate(553.435686 271.637813)scale(0.1 -0.1)">
       <use xlink:href="#ArialMT-50"/>
       <use x="55.615234" xlink:href="#ArialMT-48"/>
       <use x="111.230469" xlink:href="#ArialMT-49"/>
       <use x="166.845703" xlink:href="#ArialMT-50"/>
      </g>
     </g>
    </g>
    <g id="xtick_30">
     <g id="line2d_54"/>
    </g>
    <g id="xtick_31">
     <g id="line2d_55"/>
     <g id="text_24">
      <!-- 2014 -->
      <g style="fill:#262626;" transform="translate(586.998611 271.637813)scale(0.1 -0.1)">
       <use xlink:href="#ArialMT-50"/>
       <use x="55.615234" xlink:href="#ArialMT-48"/>
       <use x="111.230469" xlink:href="#ArialMT-49"/>
       <use x="166.845703" xlink:href="#ArialMT-52"/>
      </g>
     </g>
    </g>
    <g id="xtick_32">
     <g id="line2d_56"/>
    </g>
    <g id="xtick_33">
     <g id="line2d_57"/>
     <g id="text_25">
      <!-- 2016 -->
      <g style="fill:#262626;" transform="translate(620.561536 271.637813)scale(0.1 -0.1)">
       <use xlink:href="#ArialMT-50"/>
       <use x="55.615234" xlink:href="#ArialMT-48"/>
       <use x="111.230469" xlink:href="#ArialMT-49"/>
       <use x="166.845703" xlink:href="#ArialMT-54"/>
      </g>
     </g>
    </g>
    <g id="xtick_34">
     <g id="line2d_58"/>
    </g>
    <g id="xtick_35">
     <g id="line2d_59"/>
     <g id="text_26">
      <!-- 2018 -->
      <g style="fill:#262626;" transform="translate(654.124461 271.637813)scale(0.1 -0.1)">
       <use xlink:href="#ArialMT-50"/>
       <use x="55.615234" xlink:href="#ArialMT-48"/>
       <use x="111.230469" xlink:href="#ArialMT-49"/>
       <use x="166.845703" xlink:href="#ArialMT-56"/>
      </g>
     </g>
    </g>
    <g id="xtick_36">
     <g id="line2d_60"/>
    </g>
   </g>
   <g id="matplotlib.axis_6">
    <g id="ytick_13">
     <g id="line2d_61">
      <path clip-path="url(#p2f7dd7f3e2)" d="M 489.04098 260.98 
L 690.418529 260.98 
" style="fill:none;stroke:#cccccc;stroke-linecap:round;stroke-width:0.8;"/>
     </g>
     <g id="line2d_62"/>
    </g>
    <g id="ytick_14">
     <g id="line2d_63">
      <path clip-path="url(#p2f7dd7f3e2)" d="M 489.04098 224.435386 
L 690.418529 224.435386 
" style="fill:none;stroke:#cccccc;stroke-linecap:round;stroke-width:0.8;"/>
     </g>
     <g id="line2d_64"/>
    </g>
    <g id="ytick_15">
     <g id="line2d_65">
      <path clip-path="url(#p2f7dd7f3e2)" d="M 489.04098 187.890772 
L 690.418529 187.890772 
" style="fill:none;stroke:#cccccc;stroke-linecap:round;stroke-width:0.8;"/>
     </g>
     <g id="line2d_66"/>
    </g>
    <g id="ytick_16">
     <g id="line2d_67">
      <path clip-path="url(#p2f7dd7f3e2)" d="M 489.04098 151.346158 
L 690.418529 151.346158 
" style="fill:none;stroke:#cccccc;stroke-linecap:round;stroke-width:0.8;"/>
     </g>
     <g id="line2d_68"/>
    </g>
    <g id="ytick_17">
     <g id="line2d_69">
      <path clip-path="url(#p2f7dd7f3e2)" d="M 489.04098 114.801545 
L 690.418529 114.801545 
" style="fill:none;stroke:#cccccc;stroke-linecap:round;stroke-width:0.8;"/>
     </g>
     <g id="line2d_70"/>
    </g>
    <g id="ytick_18">
     <g id="line2d_71">
      <path clip-path="url(#p2f7dd7f3e2)" d="M 489.04098 78.256931 
L 690.418529 78.256931 
" style="fill:none;stroke:#cccccc;stroke-linecap:round;stroke-width:0.8;"/>
     </g>
     <g id="line2d_72"/>
    </g>
   </g>
   <g id="patch_50">
    <path clip-path="url(#p2f7dd7f3e2)" d="M 490.719127 260.98 
L 504.144297 260.98 
L 504.144297 151.451479 
L 490.719127 151.451479 
z
" style="fill:#b3b3b3;opacity:0.6;"/>
   </g>
   <g id="patch_51">
    <path clip-path="url(#p2f7dd7f3e2)" d="M 507.500589 260.98 
L 520.925759 260.98 
L 520.925759 147.506169 
L 507.500589 147.506169 
z
" style="fill:#b3b3b3;opacity:0.6;"/>
   </g>
   <g id="patch_52">
    <path clip-path="url(#p2f7dd7f3e2)" d="M 524.282051 260.98 
L 537.707221 260.98 
L 537.707221 145.00803 
L 524.282051 145.00803 
z
" style="fill:#b3b3b3;opacity:0.6;"/>
   </g>
   <g id="patch_53">
    <path clip-path="url(#p2f7dd7f3e2)" d="M 541.063514 260.98 
L 554.488684 260.98 
L 554.488684 127.249093 
L 541.063514 127.249093 
z
" style="fill:#b3b3b3;opacity:0.6;"/>
   </g>
   <g id="patch_54">
    <path clip-path="url(#p2f7dd7f3e2)" d="M 557.844976 260.98 
L 571.270146 260.98 
L 571.270146 118.130983 
L 557.844976 118.130983 
z
" style="fill:#b3b3b3;opacity:0.6;"/>
   </g>
   <g id="patch_55">
    <path clip-path="url(#p2f7dd7f3e2)" d="M 574.626439 260.98 
L 588.051609 260.98 
L 588.051609 111.646918 
L 574.626439 111.646918 
z
" style="fill:#b3b3b3;opacity:0.6;"/>
   </g>
   <g id="patch_56">
    <path clip-path="url(#p2f7dd7f3e2)" d="M 591.407901 260.98 
L 604.833071 260.98 
L 604.833071 102.380502 
L 591.407901 102.380502 
z
" style="fill:#b3b3b3;opacity:0.6;"/>
   </g>
   <g id="patch_57">
    <path clip-path="url(#p2f7dd7f3e2)" d="M 608.189364 260.98 
L 621.614533 260.98 
L 621.614533 89.013271 
L 608.189364 89.013271 
z
" style="fill:#b3b3b3;opacity:0.6;"/>
   </g>
   <g id="patch_58">
    <path clip-path="url(#p2f7dd7f3e2)" d="M 624.970826 260.98 
L 638.395996 260.98 
L 638.395996 78.868128 
L 624.970826 78.868128 
z
" style="fill:#b3b3b3;opacity:0.6;"/>
   </g>
   <g id="patch_59">
    <path clip-path="url(#p2f7dd7f3e2)" d="M 641.752288 260.98 
L 655.177458 260.98 
L 655.177458 70.847066 
L 641.752288 70.847066 
z
" style="fill:#b3b3b3;opacity:0.6;"/>
   </g>
   <g id="patch_60">
    <path clip-path="url(#p2f7dd7f3e2)" d="M 658.533751 260.98 
L 671.958921 260.98 
L 671.958921 67.627619 
L 658.533751 67.627619 
z
" style="fill:#b3b3b3;opacity:0.6;"/>
   </g>
   <g id="patch_61">
    <path clip-path="url(#p2f7dd7f3e2)" d="M 675.315213 260.98 
L 688.740383 260.98 
L 688.740383 79.025605 
L 675.315213 79.025605 
z
" style="fill:#b3b3b3;opacity:0.6;"/>
   </g>
   <g id="patch_62">
    <path clip-path="url(#p2f7dd7f3e2)" d="M 490.719127 260.98 
L 504.144297 260.98 
L 504.144297 222.96577 
L 490.719127 222.96577 
z
" style="fill:#56b4e9;"/>
   </g>
   <g id="patch_63">
    <path clip-path="url(#p2f7dd7f3e2)" d="M 507.500589 260.98 
L 520.925759 260.98 
L 520.925759 223.067115 
L 507.500589 223.067115 
z
" style="fill:#56b4e9;"/>
   </g>
   <g id="patch_64">
    <path clip-path="url(#p2f7dd7f3e2)" d="M 524.282051 260.98 
L 537.707221 260.98 
L 537.707221 224.790324 
L 524.282051 224.790324 
z
" style="fill:#56b4e9;"/>
   </g>
   <g id="patch_65">
    <path clip-path="url(#p2f7dd7f3e2)" d="M 541.063514 260.98 
L 554.488684 260.98 
L 554.488684 221.853826 
L 541.063514 221.853826 
z
" style="fill:#56b4e9;"/>
   </g>
   <g id="patch_66">
    <path clip-path="url(#p2f7dd7f3e2)" d="M 557.844976 260.98 
L 571.270146 260.98 
L 571.270146 221.578127 
L 557.844976 221.578127 
z
" style="fill:#56b4e9;"/>
   </g>
   <g id="patch_67">
    <path clip-path="url(#p2f7dd7f3e2)" d="M 574.626439 260.98 
L 588.051609 260.98 
L 588.051609 221.353245 
L 574.626439 221.353245 
z
" style="fill:#56b4e9;"/>
   </g>
   <g id="patch_68">
    <path clip-path="url(#p2f7dd7f3e2)" d="M 591.407901 260.98 
L 604.833071 260.98 
L 604.833071 222.927985 
L 591.407901 222.927985 
z
" style="fill:#56b4e9;"/>
   </g>
   <g id="patch_69">
    <path clip-path="url(#p2f7dd7f3e2)" d="M 608.189364 260.98 
L 621.614533 260.98 
L 621.614533 225.821783 
L 608.189364 225.821783 
z
" style="fill:#56b4e9;"/>
   </g>
   <g id="patch_70">
    <path clip-path="url(#p2f7dd7f3e2)" d="M 624.970826 260.98 
L 638.395996 260.98 
L 638.395996 226.937021 
L 624.970826 226.937021 
z
" style="fill:#56b4e9;"/>
   </g>
   <g id="patch_71">
    <path clip-path="url(#p2f7dd7f3e2)" d="M 641.752288 260.98 
L 655.177458 260.98 
L 655.177458 227.964164 
L 641.752288 227.964164 
z
" style="fill:#56b4e9;"/>
   </g>
   <g id="patch_72">
    <path clip-path="url(#p2f7dd7f3e2)" d="M 658.533751 260.98 
L 671.958921 260.98 
L 671.958921 234.237185 
L 658.533751 234.237185 
z
" style="fill:#56b4e9;"/>
   </g>
   <g id="patch_73">
    <path clip-path="url(#p2f7dd7f3e2)" d="M 675.315213 260.98 
L 688.740383 260.98 
L 688.740383 245.851266 
L 675.315213 245.851266 
z
" style="fill:#56b4e9;"/>
   </g>
   <g id="text_27">
    <!-- Repositories only -->
    <g style="fill:#262626;" transform="translate(543.709755 51.96)scale(0.12 -0.12)">
     <use xlink:href="#ArialMT-82"/>
     <use x="72.216797" xlink:href="#ArialMT-101"/>
     <use x="127.832031" xlink:href="#ArialMT-112"/>
     <use x="183.447266" xlink:href="#ArialMT-111"/>
     <use x="239.0625" xlink:href="#ArialMT-115"/>
     <use x="289.0625" xlink:href="#ArialMT-105"/>
     <use x="311.279297" xlink:href="#ArialMT-116"/>
     <use x="339.0625" xlink:href="#ArialMT-111"/>
     <use x="394.677734" xlink:href="#ArialMT-114"/>
     <use x="427.978516" xlink:href="#ArialMT-105"/>
     <use x="450.195312" xlink:href="#ArialMT-101"/>
     <use x="505.810547" xlink:href="#ArialMT-115"/>
     <use x="555.810547" xlink:href="#ArialMT-32"/>
     <use x="583.59375" xlink:href="#ArialMT-111"/>
     <use x="639.208984" xlink:href="#ArialMT-110"/>
     <use x="694.824219" xlink:href="#ArialMT-108"/>
     <use x="717.041016" xlink:href="#ArialMT-121"/>
    </g>
   </g>
   <g id="legend_1">
    <g id="patch_74">
     <path d="M 709.487407 94.419813 
L 729.487407 94.419813 
L 729.487407 87.419813 
L 709.487407 87.419813 
z
" style="fill:#b3b3b3;opacity:0.6;"/>
    </g>
    <g id="text_28">
     <!-- All OA Articles -->
     <defs>
      <path d="M -0.140625 0 
L 27.34375 71.578125 
L 37.546875 71.578125 
L 66.84375 0 
L 56.0625 0 
L 47.703125 21.6875 
L 17.78125 21.6875 
L 9.90625 0 
z
M 20.515625 29.390625 
L 44.78125 29.390625 
L 37.3125 49.21875 
Q 33.890625 58.25 32.234375 64.0625 
Q 30.859375 57.171875 28.375 50.390625 
z
" id="ArialMT-65"/>
      <path d="M 4.828125 34.859375 
Q 4.828125 52.6875 14.390625 62.765625 
Q 23.96875 72.859375 39.109375 72.859375 
Q 49.03125 72.859375 56.984375 68.109375 
Q 64.9375 63.375 69.109375 54.90625 
Q 73.296875 46.4375 73.296875 35.6875 
Q 73.296875 24.8125 68.890625 16.21875 
Q 64.5 7.625 56.4375 3.203125 
Q 48.390625 -1.21875 39.0625 -1.21875 
Q 28.953125 -1.21875 20.984375 3.65625 
Q 13.03125 8.546875 8.921875 16.984375 
Q 4.828125 25.4375 4.828125 34.859375 
z
M 14.59375 34.71875 
Q 14.59375 21.78125 21.546875 14.328125 
Q 28.515625 6.890625 39.015625 6.890625 
Q 49.703125 6.890625 56.609375 14.40625 
Q 63.53125 21.921875 63.53125 35.75 
Q 63.53125 44.484375 60.578125 51 
Q 57.625 57.515625 51.921875 61.109375 
Q 46.234375 64.703125 39.15625 64.703125 
Q 29.109375 64.703125 21.84375 57.78125 
Q 14.59375 50.875 14.59375 34.71875 
z
" id="ArialMT-79"/>
      <path d="M 40.4375 19 
L 49.078125 17.875 
Q 47.65625 8.9375 41.8125 3.875 
Q 35.984375 -1.171875 27.484375 -1.171875 
Q 16.84375 -1.171875 10.375 5.78125 
Q 3.90625 12.75 3.90625 25.734375 
Q 3.90625 34.125 6.6875 40.421875 
Q 9.46875 46.734375 15.15625 49.875 
Q 20.84375 53.03125 27.546875 53.03125 
Q 35.984375 53.03125 41.359375 48.75 
Q 46.734375 44.484375 48.25 36.625 
L 39.703125 35.296875 
Q 38.484375 40.53125 35.375 43.15625 
Q 32.28125 45.796875 27.875 45.796875 
Q 21.234375 45.796875 17.078125 41.03125 
Q 12.9375 36.28125 12.9375 25.984375 
Q 12.9375 15.53125 16.9375 10.796875 
Q 20.953125 6.0625 27.390625 6.0625 
Q 32.5625 6.0625 36.03125 9.234375 
Q 39.5 12.40625 40.4375 19 
z
" id="ArialMT-99"/>
     </defs>
     <g style="fill:#262626;" transform="translate(737.487407 94.419813)scale(0.1 -0.1)">
      <use xlink:href="#ArialMT-65"/>
      <use x="66.699219" xlink:href="#ArialMT-108"/>
      <use x="88.916016" xlink:href="#ArialMT-108"/>
      <use x="111.132812" xlink:href="#ArialMT-32"/>
      <use x="138.916016" xlink:href="#ArialMT-79"/>
      <use x="216.699219" xlink:href="#ArialMT-65"/>
      <use x="283.320312" xlink:href="#ArialMT-32"/>
      <use x="311.025391" xlink:href="#ArialMT-65"/>
      <use x="377.724609" xlink:href="#ArialMT-114"/>
      <use x="411.025391" xlink:href="#ArialMT-116"/>
      <use x="438.808594" xlink:href="#ArialMT-105"/>
      <use x="461.025391" xlink:href="#ArialMT-99"/>
      <use x="511.025391" xlink:href="#ArialMT-108"/>
      <use x="533.242188" xlink:href="#ArialMT-101"/>
      <use x="588.857422" xlink:href="#ArialMT-115"/>
     </g>
    </g>
    <g id="patch_75">
     <path d="M 709.487407 115.565125 
L 729.487407 115.565125 
L 729.487407 108.565125 
L 709.487407 108.565125 
z
" style="fill:#56b4e9;"/>
    </g>
    <g id="text_29">
     <!-- by Host -->
     <defs>
      <path d="M 8.015625 0 
L 8.015625 71.578125 
L 17.484375 71.578125 
L 17.484375 42.1875 
L 54.6875 42.1875 
L 54.6875 71.578125 
L 64.15625 71.578125 
L 64.15625 0 
L 54.6875 0 
L 54.6875 33.734375 
L 17.484375 33.734375 
L 17.484375 0 
z
" id="ArialMT-72"/>
     </defs>
     <g style="fill:#262626;" transform="translate(737.487407 115.565125)scale(0.1 -0.1)">
      <use xlink:href="#ArialMT-98"/>
      <use x="55.615234" xlink:href="#ArialMT-121"/>
      <use x="105.615234" xlink:href="#ArialMT-32"/>
      <use x="133.398438" xlink:href="#ArialMT-72"/>
      <use x="205.615234" xlink:href="#ArialMT-111"/>
      <use x="261.230469" xlink:href="#ArialMT-115"/>
      <use x="311.230469" xlink:href="#ArialMT-116"/>
     </g>
    </g>
   </g>
  </g>
  <g id="text_30">
   <!-- Overlap between Open Access Host Types in Unpaywall -->
   <defs>
    <path d="M 4.34375 35.359375 
Q 4.34375 46.296875 7.625 53.71875 
Q 10.0625 59.1875 14.28125 63.53125 
Q 18.5 67.875 23.53125 69.96875 
Q 30.21875 72.796875 38.96875 72.796875 
Q 54.78125 72.796875 64.28125 62.984375 
Q 73.78125 53.171875 73.78125 35.6875 
Q 73.78125 18.359375 64.359375 8.5625 
Q 54.9375 -1.21875 39.15625 -1.21875 
Q 23.1875 -1.21875 13.765625 8.515625 
Q 4.34375 18.265625 4.34375 35.359375 
z
M 19.234375 35.84375 
Q 19.234375 23.6875 24.84375 17.40625 
Q 30.46875 11.140625 39.109375 11.140625 
Q 47.75 11.140625 53.296875 17.359375 
Q 58.84375 23.578125 58.84375 36.03125 
Q 58.84375 48.34375 53.4375 54.390625 
Q 48.046875 60.453125 39.109375 60.453125 
Q 30.171875 60.453125 24.703125 54.3125 
Q 19.234375 48.1875 19.234375 35.84375 
z
" id="Arial-BoldMT-79"/>
    <path d="M 21.4375 0 
L 0.53125 51.859375 
L 14.9375 51.859375 
L 24.703125 25.390625 
L 27.546875 16.546875 
Q 28.65625 19.921875 28.953125 21 
Q 29.640625 23.1875 30.421875 25.390625 
L 40.28125 51.859375 
L 54.390625 51.859375 
L 33.796875 0 
z
" id="Arial-BoldMT-118"/>
    <path d="M 37.203125 16.5 
L 50.875 14.203125 
Q 48.25 6.6875 42.546875 2.75 
Q 36.859375 -1.171875 28.328125 -1.171875 
Q 14.796875 -1.171875 8.296875 7.671875 
Q 3.171875 14.75 3.171875 25.53125 
Q 3.171875 38.421875 9.90625 45.71875 
Q 16.65625 53.03125 26.953125 53.03125 
Q 38.53125 53.03125 45.21875 45.390625 
Q 51.90625 37.75 51.609375 21.96875 
L 17.234375 21.96875 
Q 17.390625 15.875 20.5625 12.46875 
Q 23.734375 9.078125 28.46875 9.078125 
Q 31.6875 9.078125 33.875 10.828125 
Q 36.078125 12.59375 37.203125 16.5 
z
M 37.984375 30.375 
Q 37.84375 36.328125 34.90625 39.421875 
Q 31.984375 42.53125 27.78125 42.53125 
Q 23.296875 42.53125 20.359375 39.265625 
Q 17.4375 35.984375 17.484375 30.375 
z
" id="Arial-BoldMT-101"/>
    <path d="M 20.3125 0 
L 6.59375 0 
L 6.59375 51.859375 
L 19.34375 51.859375 
L 19.34375 44.484375 
Q 22.609375 49.703125 25.21875 51.359375 
Q 27.828125 53.03125 31.15625 53.03125 
Q 35.84375 53.03125 40.1875 50.4375 
L 35.9375 38.484375 
Q 32.46875 40.71875 29.5 40.71875 
Q 26.609375 40.71875 24.609375 39.125 
Q 22.609375 37.546875 21.453125 33.390625 
Q 20.3125 29.25 20.3125 16.015625 
z
" id="Arial-BoldMT-114"/>
    <path d="M 7.171875 0 
L 7.171875 71.578125 
L 20.90625 71.578125 
L 20.90625 0 
z
" id="Arial-BoldMT-108"/>
    <path d="M 17.4375 36.03125 
L 4.984375 38.28125 
Q 7.078125 45.796875 12.203125 49.40625 
Q 17.328125 53.03125 27.4375 53.03125 
Q 36.625 53.03125 41.109375 50.859375 
Q 45.609375 48.6875 47.4375 45.34375 
Q 49.265625 42 49.265625 33.0625 
L 49.125 17.046875 
Q 49.125 10.203125 49.78125 6.953125 
Q 50.4375 3.71875 52.25 0 
L 38.671875 0 
Q 38.140625 1.375 37.359375 4.046875 
Q 37.015625 5.28125 36.859375 5.671875 
Q 33.34375 2.25 29.34375 0.53125 
Q 25.34375 -1.171875 20.796875 -1.171875 
Q 12.796875 -1.171875 8.171875 3.171875 
Q 3.5625 7.515625 3.5625 14.15625 
Q 3.5625 18.5625 5.65625 22 
Q 7.765625 25.4375 11.546875 27.265625 
Q 15.328125 29.109375 22.46875 30.46875 
Q 32.078125 32.28125 35.796875 33.84375 
L 35.796875 35.203125 
Q 35.796875 39.15625 33.84375 40.84375 
Q 31.890625 42.53125 26.46875 42.53125 
Q 22.796875 42.53125 20.75 41.09375 
Q 18.703125 39.65625 17.4375 36.03125 
z
M 35.796875 24.90625 
Q 33.15625 24.03125 27.4375 22.796875 
Q 21.734375 21.578125 19.96875 20.40625 
Q 17.28125 18.5 17.28125 15.578125 
Q 17.28125 12.703125 19.421875 10.59375 
Q 21.578125 8.5 24.90625 8.5 
Q 28.609375 8.5 31.984375 10.9375 
Q 34.46875 12.796875 35.25 15.484375 
Q 35.796875 17.234375 35.796875 22.171875 
z
" id="Arial-BoldMT-97"/>
    <path d="M 6.78125 51.859375 
L 19.578125 51.859375 
L 19.578125 44.234375 
Q 22.078125 48.140625 26.3125 50.578125 
Q 30.5625 53.03125 35.75 53.03125 
Q 44.78125 53.03125 51.078125 45.953125 
Q 57.375 38.875 57.375 26.21875 
Q 57.375 13.234375 51.015625 6.03125 
Q 44.671875 -1.171875 35.640625 -1.171875 
Q 31.34375 -1.171875 27.84375 0.53125 
Q 24.359375 2.25 20.515625 6.390625 
L 20.515625 -19.734375 
L 6.78125 -19.734375 
z
M 20.359375 26.8125 
Q 20.359375 18.0625 23.828125 13.890625 
Q 27.296875 9.71875 32.28125 9.71875 
Q 37.0625 9.71875 40.234375 13.546875 
Q 43.40625 17.390625 43.40625 26.125 
Q 43.40625 34.28125 40.125 38.234375 
Q 36.859375 42.1875 32.03125 42.1875 
Q 27 42.1875 23.671875 38.296875 
Q 20.359375 34.421875 20.359375 26.8125 
z
" id="Arial-BoldMT-112"/>
    <path id="Arial-BoldMT-32"/>
    <path d="M 6.59375 0 
L 6.59375 71.578125 
L 20.3125 71.578125 
L 20.3125 45.796875 
Q 26.65625 53.03125 35.359375 53.03125 
Q 44.828125 53.03125 51.03125 46.171875 
Q 57.234375 39.3125 57.234375 26.46875 
Q 57.234375 13.1875 50.90625 6 
Q 44.578125 -1.171875 35.546875 -1.171875 
Q 31.109375 -1.171875 26.78125 1.046875 
Q 22.46875 3.265625 19.34375 7.625 
L 19.34375 0 
z
M 20.21875 27.046875 
Q 20.21875 19 22.75 15.140625 
Q 26.3125 9.671875 32.234375 9.671875 
Q 36.765625 9.671875 39.96875 13.546875 
Q 43.171875 17.4375 43.171875 25.78125 
Q 43.171875 34.671875 39.9375 38.59375 
Q 36.71875 42.53125 31.6875 42.53125 
Q 26.765625 42.53125 23.484375 38.6875 
Q 20.21875 34.859375 20.21875 27.046875 
z
" id="Arial-BoldMT-98"/>
    <path d="M 30.953125 51.859375 
L 30.953125 40.921875 
L 21.578125 40.921875 
L 21.578125 20.015625 
Q 21.578125 13.671875 21.84375 12.625 
Q 22.125 11.578125 23.078125 10.890625 
Q 24.03125 10.203125 25.390625 10.203125 
Q 27.296875 10.203125 30.90625 11.53125 
L 32.078125 0.875 
Q 27.296875 -1.171875 21.234375 -1.171875 
Q 17.53125 -1.171875 14.546875 0.0625 
Q 11.578125 1.3125 10.1875 3.296875 
Q 8.796875 5.28125 8.25 8.640625 
Q 7.8125 11.03125 7.8125 18.3125 
L 7.8125 40.921875 
L 1.515625 40.921875 
L 1.515625 51.859375 
L 7.8125 51.859375 
L 7.8125 62.15625 
L 21.578125 70.171875 
L 21.578125 51.859375 
z
" id="Arial-BoldMT-116"/>
    <path d="M 16.84375 0 
L 0.4375 51.859375 
L 13.765625 51.859375 
L 23.484375 17.875 
L 32.421875 51.859375 
L 45.65625 51.859375 
L 54.296875 17.875 
L 64.203125 51.859375 
L 77.734375 51.859375 
L 61.078125 0 
L 47.90625 0 
L 38.96875 33.34375 
L 30.171875 0 
z
" id="Arial-BoldMT-119"/>
    <path d="M 54.34375 0 
L 40.625 0 
L 40.625 26.46875 
Q 40.625 34.859375 39.75 37.328125 
Q 38.875 39.796875 36.890625 41.15625 
Q 34.90625 42.53125 32.125 42.53125 
Q 28.5625 42.53125 25.734375 40.578125 
Q 22.90625 38.625 21.84375 35.390625 
Q 20.796875 32.171875 20.796875 23.484375 
L 20.796875 0 
L 7.078125 0 
L 7.078125 51.859375 
L 19.828125 51.859375 
L 19.828125 44.234375 
Q 26.609375 53.03125 36.921875 53.03125 
Q 41.453125 53.03125 45.203125 51.390625 
Q 48.96875 49.75 50.890625 47.203125 
Q 52.828125 44.671875 53.578125 41.453125 
Q 54.34375 38.234375 54.34375 32.234375 
z
" id="Arial-BoldMT-110"/>
    <path d="M 71.828125 0 
L 56.109375 0 
L 49.859375 16.265625 
L 21.234375 16.265625 
L 15.328125 0 
L 0 0 
L 27.875 71.578125 
L 43.171875 71.578125 
z
M 45.21875 28.328125 
L 35.359375 54.890625 
L 25.6875 28.328125 
z
" id="Arial-BoldMT-65"/>
    <path d="M 52.390625 36.53125 
L 38.875 34.078125 
Q 38.1875 38.140625 35.765625 40.1875 
Q 33.34375 42.234375 29.5 42.234375 
Q 24.359375 42.234375 21.3125 38.6875 
Q 18.265625 35.15625 18.265625 26.859375 
Q 18.265625 17.625 21.359375 13.8125 
Q 24.46875 10.015625 29.6875 10.015625 
Q 33.59375 10.015625 36.078125 12.234375 
Q 38.578125 14.453125 39.59375 19.875 
L 53.078125 17.578125 
Q 50.984375 8.296875 45.015625 3.5625 
Q 39.0625 -1.171875 29.046875 -1.171875 
Q 17.671875 -1.171875 10.90625 6 
Q 4.15625 13.1875 4.15625 25.875 
Q 4.15625 38.71875 10.9375 45.875 
Q 17.71875 53.03125 29.296875 53.03125 
Q 38.765625 53.03125 44.359375 48.953125 
Q 49.953125 44.875 52.390625 36.53125 
z
" id="Arial-BoldMT-99"/>
    <path d="M 2.34375 14.796875 
L 16.109375 16.890625 
Q 17 12.890625 19.671875 10.8125 
Q 22.359375 8.734375 27.203125 8.734375 
Q 32.515625 8.734375 35.203125 10.6875 
Q 37.015625 12.0625 37.015625 14.359375 
Q 37.015625 15.921875 36.03125 16.9375 
Q 35.015625 17.921875 31.453125 18.75 
Q 14.84375 22.40625 10.40625 25.4375 
Q 4.25 29.640625 4.25 37.109375 
Q 4.25 43.84375 9.5625 48.4375 
Q 14.890625 53.03125 26.078125 53.03125 
Q 36.71875 53.03125 41.890625 49.5625 
Q 47.078125 46.09375 49.03125 39.3125 
L 36.078125 36.921875 
Q 35.25 39.9375 32.921875 41.546875 
Q 30.609375 43.171875 26.3125 43.171875 
Q 20.90625 43.171875 18.5625 41.65625 
Q 17 40.578125 17 38.875 
Q 17 37.40625 18.359375 36.375 
Q 20.21875 35.015625 31.171875 32.515625 
Q 42.140625 30.03125 46.484375 26.421875 
Q 50.78125 22.75 50.78125 16.21875 
Q 50.78125 9.078125 44.828125 3.953125 
Q 38.875 -1.171875 27.203125 -1.171875 
Q 16.609375 -1.171875 10.421875 3.125 
Q 4.25 7.421875 2.34375 14.796875 
z
" id="Arial-BoldMT-115"/>
    <path d="M 7.328125 0 
L 7.328125 71.578125 
L 21.78125 71.578125 
L 21.78125 43.40625 
L 50.09375 43.40625 
L 50.09375 71.578125 
L 64.546875 71.578125 
L 64.546875 0 
L 50.09375 0 
L 50.09375 31.296875 
L 21.78125 31.296875 
L 21.78125 0 
z
" id="Arial-BoldMT-72"/>
    <path d="M 4 26.65625 
Q 4 33.5 7.375 39.890625 
Q 10.75 46.296875 16.921875 49.65625 
Q 23.09375 53.03125 30.71875 53.03125 
Q 42.484375 53.03125 50 45.390625 
Q 57.515625 37.75 57.515625 26.078125 
Q 57.515625 14.3125 49.921875 6.5625 
Q 42.328125 -1.171875 30.8125 -1.171875 
Q 23.6875 -1.171875 17.21875 2.046875 
Q 10.75 5.28125 7.375 11.5 
Q 4 17.71875 4 26.65625 
z
M 18.0625 25.921875 
Q 18.0625 18.21875 21.71875 14.109375 
Q 25.390625 10.015625 30.765625 10.015625 
Q 36.140625 10.015625 39.765625 14.109375 
Q 43.40625 18.21875 43.40625 26.03125 
Q 43.40625 33.640625 39.765625 37.734375 
Q 36.140625 41.84375 30.765625 41.84375 
Q 25.390625 41.84375 21.71875 37.734375 
Q 18.0625 33.640625 18.0625 25.921875 
z
" id="Arial-BoldMT-111"/>
    <path d="M 23.390625 0 
L 23.390625 59.46875 
L 2.15625 59.46875 
L 2.15625 71.578125 
L 59.03125 71.578125 
L 59.03125 59.46875 
L 37.84375 59.46875 
L 37.84375 0 
z
" id="Arial-BoldMT-84"/>
    <path d="M 0.6875 51.859375 
L 15.28125 51.859375 
L 27.6875 15.046875 
L 39.796875 51.859375 
L 54 51.859375 
L 35.6875 1.953125 
L 32.421875 -7.078125 
Q 30.609375 -11.625 28.96875 -14.015625 
Q 27.34375 -16.40625 25.21875 -17.890625 
Q 23.09375 -19.390625 19.984375 -20.21875 
Q 16.890625 -21.046875 12.984375 -21.046875 
Q 9.03125 -21.046875 5.21875 -20.21875 
L 4 -9.46875 
Q 7.234375 -10.109375 9.8125 -10.109375 
Q 14.59375 -10.109375 16.890625 -7.296875 
Q 19.1875 -4.5 20.40625 -0.140625 
z
" id="Arial-BoldMT-121"/>
    <path d="M 7.171875 58.890625 
L 7.171875 71.578125 
L 20.90625 71.578125 
L 20.90625 58.890625 
z
M 7.171875 0 
L 7.171875 51.859375 
L 20.90625 51.859375 
L 20.90625 0 
z
" id="Arial-BoldMT-105"/>
    <path d="M 7.171875 71.578125 
L 21.625 71.578125 
L 21.625 32.8125 
Q 21.625 23.578125 22.171875 20.84375 
Q 23.09375 16.453125 26.578125 13.796875 
Q 30.078125 11.140625 36.140625 11.140625 
Q 42.28125 11.140625 45.40625 13.640625 
Q 48.53125 16.15625 49.171875 19.8125 
Q 49.8125 23.484375 49.8125 31.984375 
L 49.8125 71.578125 
L 64.265625 71.578125 
L 64.265625 33.984375 
Q 64.265625 21.09375 63.09375 15.765625 
Q 61.921875 10.453125 58.765625 6.78125 
Q 55.609375 3.125 50.328125 0.953125 
Q 45.0625 -1.21875 36.578125 -1.21875 
Q 26.3125 -1.21875 21.015625 1.140625 
Q 15.71875 3.515625 12.640625 7.296875 
Q 9.578125 11.078125 8.59375 15.234375 
Q 7.171875 21.390625 7.171875 33.40625 
z
" id="Arial-BoldMT-85"/>
   </defs>
   <g style="fill:#262626;" transform="translate(216.497969 17.391563)scale(0.14 -0.14)">
    <use xlink:href="#Arial-BoldMT-79"/>
    <use x="77.783203" xlink:href="#Arial-BoldMT-118"/>
    <use x="133.398438" xlink:href="#Arial-BoldMT-101"/>
    <use x="189.013672" xlink:href="#Arial-BoldMT-114"/>
    <use x="227.929688" xlink:href="#Arial-BoldMT-108"/>
    <use x="255.712891" xlink:href="#Arial-BoldMT-97"/>
    <use x="311.328125" xlink:href="#Arial-BoldMT-112"/>
    <use x="372.412109" xlink:href="#Arial-BoldMT-32"/>
    <use x="400.195312" xlink:href="#Arial-BoldMT-98"/>
    <use x="461.279297" xlink:href="#Arial-BoldMT-101"/>
    <use x="516.894531" xlink:href="#Arial-BoldMT-116"/>
    <use x="550.195312" xlink:href="#Arial-BoldMT-119"/>
    <use x="627.978516" xlink:href="#Arial-BoldMT-101"/>
    <use x="683.59375" xlink:href="#Arial-BoldMT-101"/>
    <use x="739.208984" xlink:href="#Arial-BoldMT-110"/>
    <use x="800.292969" xlink:href="#Arial-BoldMT-32"/>
    <use x="828.076172" xlink:href="#Arial-BoldMT-79"/>
    <use x="905.859375" xlink:href="#Arial-BoldMT-112"/>
    <use x="966.943359" xlink:href="#Arial-BoldMT-101"/>
    <use x="1022.558594" xlink:href="#Arial-BoldMT-110"/>
    <use x="1083.642578" xlink:href="#Arial-BoldMT-32"/>
    <use x="1111.378906" xlink:href="#Arial-BoldMT-65"/>
    <use x="1183.595703" xlink:href="#Arial-BoldMT-99"/>
    <use x="1239.210938" xlink:href="#Arial-BoldMT-99"/>
    <use x="1294.826172" xlink:href="#Arial-BoldMT-101"/>
    <use x="1350.441406" xlink:href="#Arial-BoldMT-115"/>
    <use x="1406.056641" xlink:href="#Arial-BoldMT-115"/>
    <use x="1461.671875" xlink:href="#Arial-BoldMT-32"/>
    <use x="1489.455078" xlink:href="#Arial-BoldMT-72"/>
    <use x="1561.671875" xlink:href="#Arial-BoldMT-111"/>
    <use x="1622.755859" xlink:href="#Arial-BoldMT-115"/>
    <use x="1678.371094" xlink:href="#Arial-BoldMT-116"/>
    <use x="1711.671875" xlink:href="#Arial-BoldMT-32"/>
    <use x="1739.455078" xlink:href="#Arial-BoldMT-84"/>
    <use x="1800.429688" xlink:href="#Arial-BoldMT-121"/>
    <use x="1856.044922" xlink:href="#Arial-BoldMT-112"/>
    <use x="1917.128906" xlink:href="#Arial-BoldMT-101"/>
    <use x="1972.744141" xlink:href="#Arial-BoldMT-115"/>
    <use x="2028.359375" xlink:href="#Arial-BoldMT-32"/>
    <use x="2056.142578" xlink:href="#Arial-BoldMT-105"/>
    <use x="2083.925781" xlink:href="#Arial-BoldMT-110"/>
    <use x="2145.009766" xlink:href="#Arial-BoldMT-32"/>
    <use x="2172.792969" xlink:href="#Arial-BoldMT-85"/>
    <use x="2245.009766" xlink:href="#Arial-BoldMT-110"/>
    <use x="2306.09375" xlink:href="#Arial-BoldMT-112"/>
    <use x="2367.177734" xlink:href="#Arial-BoldMT-97"/>
    <use x="2422.792969" xlink:href="#Arial-BoldMT-121"/>
    <use x="2478.408203" xlink:href="#Arial-BoldMT-119"/>
    <use x="2556.191406" xlink:href="#Arial-BoldMT-97"/>
    <use x="2611.806641" xlink:href="#Arial-BoldMT-108"/>
    <use x="2639.589844" xlink:href="#Arial-BoldMT-108"/>
   </g>
  </g>
  <g id="text_31">
   <!-- Year -->
   <defs>
    <path d="M 27.875 0 
L 27.875 30.328125 
L 0.296875 71.578125 
L 11.8125 71.578125 
L 25.921875 50 
Q 29.828125 43.953125 33.203125 37.890625 
Q 36.421875 43.5 41.015625 50.53125 
L 54.890625 71.578125 
L 65.921875 71.578125 
L 37.359375 30.328125 
L 37.359375 0 
z
" id="ArialMT-89"/>
    <path d="M 40.4375 6.390625 
Q 35.546875 2.25 31.03125 0.53125 
Q 26.515625 -1.171875 21.34375 -1.171875 
Q 12.796875 -1.171875 8.203125 3 
Q 3.609375 7.171875 3.609375 13.671875 
Q 3.609375 17.484375 5.34375 20.625 
Q 7.078125 23.78125 9.890625 25.6875 
Q 12.703125 27.59375 16.21875 28.5625 
Q 18.796875 29.25 24.03125 29.890625 
Q 34.671875 31.15625 39.703125 32.90625 
Q 39.75 34.71875 39.75 35.203125 
Q 39.75 40.578125 37.25 42.78125 
Q 33.890625 45.75 27.25 45.75 
Q 21.046875 45.75 18.09375 43.578125 
Q 15.140625 41.40625 13.71875 35.890625 
L 5.125 37.0625 
Q 6.296875 42.578125 8.984375 45.96875 
Q 11.671875 49.359375 16.75 51.1875 
Q 21.828125 53.03125 28.515625 53.03125 
Q 35.15625 53.03125 39.296875 51.46875 
Q 43.453125 49.90625 45.40625 47.53125 
Q 47.359375 45.171875 48.140625 41.546875 
Q 48.578125 39.3125 48.578125 33.453125 
L 48.578125 21.734375 
Q 48.578125 9.46875 49.140625 6.21875 
Q 49.703125 2.984375 51.375 0 
L 42.1875 0 
Q 40.828125 2.734375 40.4375 6.390625 
z
M 39.703125 26.03125 
Q 34.90625 24.078125 25.34375 22.703125 
Q 19.921875 21.921875 17.671875 20.9375 
Q 15.4375 19.96875 14.203125 18.09375 
Q 12.984375 16.21875 12.984375 13.921875 
Q 12.984375 10.40625 15.640625 8.0625 
Q 18.3125 5.71875 23.4375 5.71875 
Q 28.515625 5.71875 32.46875 7.9375 
Q 36.421875 10.15625 38.28125 14.015625 
Q 39.703125 17 39.703125 22.796875 
z
" id="ArialMT-97"/>
   </defs>
   <g style="fill:#262626;" transform="translate(366.775313 291.96)scale(0.12 -0.12)">
    <use xlink:href="#ArialMT-89"/>
    <use x="66.558594" xlink:href="#ArialMT-101"/>
    <use x="122.173828" xlink:href="#ArialMT-97"/>
    <use x="177.789062" xlink:href="#ArialMT-114"/>
   </g>
  </g>
  <g id="text_32">
   <!-- OA Share -->
   <defs>
    <path d="M 4.5 23 
L 13.421875 23.78125 
Q 14.0625 18.40625 16.375 14.96875 
Q 18.703125 11.53125 23.578125 9.40625 
Q 28.46875 7.28125 34.578125 7.28125 
Q 39.984375 7.28125 44.140625 8.890625 
Q 48.296875 10.5 50.3125 13.296875 
Q 52.34375 16.109375 52.34375 19.4375 
Q 52.34375 22.796875 50.390625 25.3125 
Q 48.4375 27.828125 43.953125 29.546875 
Q 41.0625 30.671875 31.203125 33.03125 
Q 21.34375 35.40625 17.390625 37.5 
Q 12.25 40.1875 9.734375 44.15625 
Q 7.234375 48.140625 7.234375 53.078125 
Q 7.234375 58.5 10.296875 63.203125 
Q 13.375 67.921875 19.28125 70.359375 
Q 25.203125 72.796875 32.421875 72.796875 
Q 40.375 72.796875 46.453125 70.234375 
Q 52.546875 67.671875 55.8125 62.6875 
Q 59.078125 57.71875 59.328125 51.421875 
L 50.25 50.734375 
Q 49.515625 57.515625 45.28125 60.984375 
Q 41.0625 64.453125 32.8125 64.453125 
Q 24.21875 64.453125 20.28125 61.296875 
Q 16.359375 58.15625 16.359375 53.71875 
Q 16.359375 49.859375 19.140625 47.359375 
Q 21.875 44.875 33.421875 42.265625 
Q 44.96875 39.65625 49.265625 37.703125 
Q 55.515625 34.8125 58.484375 30.390625 
Q 61.46875 25.984375 61.46875 20.21875 
Q 61.46875 14.5 58.203125 9.4375 
Q 54.9375 4.390625 48.796875 1.578125 
Q 42.671875 -1.21875 35.015625 -1.21875 
Q 25.296875 -1.21875 18.71875 1.609375 
Q 12.15625 4.4375 8.421875 10.125 
Q 4.6875 15.828125 4.5 23 
z
" id="ArialMT-83"/>
   </defs>
   <g style="fill:#262626;" transform="translate(15.789375 184.740938)rotate(-90)scale(0.12 -0.12)">
    <use xlink:href="#ArialMT-79"/>
    <use x="77.783203" xlink:href="#ArialMT-65"/>
    <use x="144.404297" xlink:href="#ArialMT-32"/>
    <use x="172.1875" xlink:href="#ArialMT-83"/>
    <use x="238.886719" xlink:href="#ArialMT-104"/>
    <use x="294.501953" xlink:href="#ArialMT-97"/>
    <use x="350.117188" xlink:href="#ArialMT-114"/>
    <use x="383.417969" xlink:href="#ArialMT-101"/>
   </g>
  </g>
 </g>
 <defs>
  <clipPath id="p61c57eb4c2">
   <rect height="203.02" width="201.377549" x="57.41" y="57.96"/>
  </clipPath>
  <clipPath id="p129dd61227">
   <rect height="203.02" width="201.377549" x="273.22549" y="57.96"/>
  </clipPath>
  <clipPath id="p2f7dd7f3e2">
   <rect height="203.02" width="201.377549" x="489.04098" y="57.96"/>
  </clipPath>
 </defs>
</svg>
